<svg width="535" height="368" viewBox="0 0 535 368" fill="none" xmlns="http://www.w3.org/2000/svg">
<path d="M535 350.318H0V350.585H535V350.318Z" fill="#E0E0E0"/>
<path d="M463.524 367.096H415.524V367.363H463.524V367.096Z" fill="#E0E0E0"/>
<path d="M408.483 367.096H399.185V367.363H408.483V367.096Z" fill="#E0E0E0"/>
<path d="M320.272 363.404H299.557V363.672H320.272V363.404Z" fill="#E0E0E0"/>
<path d="M132.808 363.265H86.5951V363.533H132.808V363.265Z" fill="#E0E0E0"/>
<path d="M77.0721 363.265H70.299V363.533H77.0721V363.265Z" fill="#E0E0E0"/>
<path d="M302.789 356.931H202.551V357.198H302.789V356.931Z" fill="#E0E0E0"/>
<path d="M253.59 302.596H46.9837C45.3652 302.593 43.8139 301.948 42.6704 300.803C41.5269 299.657 40.8847 298.105 40.8847 296.486V6.0562C40.8988 4.44695 41.5472 2.90824 42.6892 1.77429C43.8312 0.64035 45.3744 0.00275673 46.9837 0H253.59C255.21 0 256.764 0.643699 257.91 1.78949C259.056 2.93528 259.7 4.48931 259.7 6.1097V296.486C259.7 298.107 259.056 299.661 257.91 300.807C256.764 301.952 255.21 302.596 253.59 302.596ZM46.9837 0.214001C45.4361 0.216835 43.9529 0.8336 42.8596 1.92892C41.7663 3.02424 41.1522 4.5086 41.1522 6.0562V296.486C41.1522 298.034 41.7663 299.518 42.8596 300.614C43.9529 301.709 45.4361 302.326 46.9837 302.328H253.59C255.139 302.326 256.623 301.709 257.718 300.614C258.813 299.519 259.429 298.035 259.432 296.486V6.0562C259.429 4.50762 258.813 3.02328 257.718 1.92826C256.623 0.833252 255.139 0.216829 253.59 0.214001H46.9837Z" fill="#E0E0E0"/>
<path d="M485.042 302.596H278.425C276.805 302.593 275.253 301.949 274.108 300.803C272.962 299.658 272.318 298.106 272.315 296.486V6.0562C272.332 4.44597 272.983 2.90727 274.126 1.77362C275.27 0.639976 276.814 0.00272667 278.425 0H485.042C486.649 0.00556881 488.19 0.644407 489.329 1.77805C490.469 2.91169 491.116 4.44879 491.13 6.0562V296.486C491.13 298.103 490.489 299.654 489.348 300.799C488.207 301.944 486.658 302.59 485.042 302.596ZM278.425 0.214001C276.876 0.216829 275.392 0.833252 274.297 1.92826C273.202 3.02328 272.585 4.50762 272.582 6.0562V296.486C272.585 298.035 273.202 299.519 274.297 300.614C275.392 301.709 276.876 302.326 278.425 302.328H485.042C486.59 302.326 488.075 301.709 489.17 300.614C490.265 299.519 490.881 298.035 490.884 296.486V6.0562C490.881 4.50762 490.265 3.02328 489.17 1.92826C488.075 0.833252 486.59 0.216829 485.042 0.214001H278.425Z" fill="#E0E0E0"/>
<path d="M251.503 67.5277H123.574V350.446H251.503V67.5277Z" fill="#E6E6E6"/>
<path d="M251.504 67.5277H129.641V350.446H251.504V67.5277Z" fill="#F0F0F0"/>
<path d="M245.083 344.026L245.083 73.9478H136.061V344.026H245.083Z" fill="#EBEBEB"/>
<path d="M245.083 344.037L245.083 73.9584H243.414L243.414 344.037H245.083Z" fill="#E6E6E6"/>
<path d="M230.521 202.765C233.541 202.765 235.989 200.317 235.989 197.297C235.989 194.278 233.541 191.83 230.521 191.83C227.501 191.83 225.053 194.278 225.053 197.297C225.053 200.317 227.501 202.765 230.521 202.765Z" fill="#E6E6E6"/>
<path d="M232.661 201.631C235.681 201.631 238.129 199.183 238.129 196.163C238.129 193.143 235.681 190.695 232.661 190.695C229.641 190.695 227.193 193.143 227.193 196.163C227.193 199.183 229.641 201.631 232.661 201.631Z" fill="#FAFAFA"/>
<path d="M452.888 32.6992H307.689V250.016H452.888V32.6992Z" fill="#E0E0E0"/>
<path d="M456.109 32.6992H310.91V250.016H456.109V32.6992Z" fill="#F0F0F0"/>
<path d="M450.32 243.511V39.2048L316.709 39.2048V243.511H450.32Z" fill="#FAFAFA"/>
<path d="M450.32 243.511V39.2048H447.881V243.511H450.32Z" fill="#E0E0E0"/>
<path d="M453.712 102.902H313.307V111.633H453.712V102.902Z" fill="#F0F0F0"/>
<path d="M462.422 21.9351H301.376C301.141 21.9351 300.915 22.0286 300.748 22.1952C300.582 22.3617 300.488 22.5876 300.488 22.8232C300.488 23.0597 300.581 23.2867 300.748 23.455C300.914 23.6232 301.14 23.7191 301.376 23.722H462.422C462.659 23.7192 462.886 23.6236 463.054 23.4556C463.222 23.2877 463.318 23.0607 463.321 22.8232C463.318 22.5866 463.222 22.3608 463.054 22.1945C462.885 22.0283 462.658 21.935 462.422 21.9351Z" fill="#E0E0E0"/>
<path d="M467.772 22.8232C467.774 23.7061 467.514 24.5698 467.025 25.305C466.536 26.0401 465.84 26.6137 465.025 26.953C464.21 27.2924 463.312 27.3823 462.446 27.2113C461.58 27.0404 460.784 26.6163 460.159 25.9927C459.534 25.3691 459.108 24.5741 458.935 23.7083C458.762 22.8425 458.849 21.9448 459.187 21.1288C459.524 20.3129 460.096 19.6154 460.83 19.1247C461.564 18.6339 462.427 18.372 463.31 18.3719C464.492 18.3719 465.625 18.8406 466.461 19.675C467.298 20.5095 467.769 21.6416 467.772 22.8232Z" fill="#E0E0E0"/>
<path d="M308.888 27.82C308.569 27.8172 308.264 27.6886 308.04 27.4621C307.815 27.2357 307.689 26.9297 307.689 26.6109V24.0322C307.689 23.7134 307.815 23.4075 308.04 23.181C308.264 22.9546 308.569 22.8259 308.888 22.8231C309.207 22.8259 309.513 22.9542 309.739 23.1803C309.966 23.4065 310.094 23.7124 310.097 24.0322V26.6109C310.094 26.9307 309.966 27.2366 309.739 27.4628C309.513 27.6889 309.207 27.8172 308.888 27.82Z" fill="#E0E0E0"/>
<path d="M448.983 27.82C448.663 27.8172 448.357 27.6889 448.131 27.4628C447.905 27.2366 447.776 26.9307 447.774 26.6109V24.0322C447.776 23.7124 447.905 23.4065 448.131 23.1803C448.357 22.9542 448.663 22.8259 448.983 22.8231C449.302 22.8259 449.606 22.9546 449.831 23.181C450.055 23.4075 450.181 23.7134 450.181 24.0322V26.6109C450.181 26.9297 450.055 27.2357 449.831 27.4621C449.606 27.6886 449.302 27.8172 448.983 27.82Z" fill="#E0E0E0"/>
<path opacity="0.4" d="M462.144 22.8231H313.307V85.2362H462.144V22.8231Z" fill="#E0E0E0"/>
<path d="M327.687 22.8232C327.69 23.7061 327.43 24.5698 326.941 25.305C326.452 26.0401 325.756 26.6137 324.94 26.953C324.125 27.2924 323.228 27.3823 322.362 27.2113C321.495 27.0404 320.699 26.6163 320.074 25.9927C319.449 25.3691 319.023 24.5741 318.85 23.7083C318.677 22.8425 318.765 21.9448 319.102 21.1288C319.44 20.3129 320.012 19.6154 320.746 19.1247C321.48 18.6339 322.343 18.372 323.226 18.3719C324.407 18.3719 325.54 18.8406 326.377 19.675C327.213 20.5095 327.685 21.6416 327.687 22.8232Z" fill="#E0E0E0"/>
<path d="M330.373 282.747H301.719V346.295H330.373V282.747Z" fill="#E6E6E6"/>
<path d="M448.565 346.295H307.229V350.318H448.565V346.295Z" fill="#E6E6E6"/>
<path d="M330.373 346.295H454.054V282.747H330.373V346.295Z" fill="#F0F0F0"/>
<path d="M341.64 311.413H442.787V290.569H341.64V311.413Z" fill="#E6E6E6"/>
<path d="M341.64 338.463H442.787V317.619H341.64V338.463Z" fill="#E6E6E6"/>
<path d="M405.113 299.557H379.336C378.639 299.557 378.074 300.123 378.074 300.82V301.152C378.074 301.849 378.639 302.414 379.336 302.414H405.113C405.81 302.414 406.375 301.849 406.375 301.152V300.82C406.375 300.123 405.81 299.557 405.113 299.557Z" fill="#F0F0F0"/>
<path d="M405.113 326.618H379.336C378.639 326.618 378.074 327.183 378.074 327.88V328.212C378.074 328.909 378.639 329.474 379.336 329.474H405.113C405.81 329.474 406.375 328.909 406.375 328.212V327.88C406.375 327.183 405.81 326.618 405.113 326.618Z" fill="#F0F0F0"/>
<path d="M366.068 273.374C369.555 273.374 372.381 270.548 372.381 267.061C372.381 263.575 369.555 260.748 366.068 260.748C362.582 260.748 359.755 263.575 359.755 267.061C359.755 270.548 362.582 273.374 366.068 273.374Z" fill="#F0F0F0"/>
<path d="M375.998 272.187C379.485 272.187 382.311 269.36 382.311 265.874C382.311 262.387 379.485 259.561 375.998 259.561C372.511 259.561 369.685 262.387 369.685 265.874C369.685 269.36 372.511 272.187 375.998 272.187Z" fill="#F0F0F0"/>
<path d="M412.86 268.795C412.86 270.043 412.489 271.264 411.796 272.302C411.102 273.34 410.116 274.149 408.962 274.627C407.809 275.105 406.54 275.23 405.315 274.986C404.09 274.743 402.965 274.141 402.083 273.259C401.2 272.376 400.598 271.251 400.355 270.026C400.111 268.802 400.236 267.532 400.714 266.379C401.192 265.225 402.001 264.239 403.039 263.545C404.077 262.852 405.298 262.482 406.547 262.482C408.221 262.482 409.827 263.147 411.01 264.331C412.194 265.515 412.86 267.12 412.86 268.795Z" fill="#F0F0F0"/>
<path d="M396.563 271.705C396.566 272.957 396.196 274.181 395.502 275.222C394.808 276.264 393.821 277.076 392.665 277.556C391.509 278.036 390.236 278.162 389.009 277.919C387.781 277.675 386.653 277.072 385.768 276.187C384.883 275.302 384.281 274.175 384.037 272.947C383.793 271.719 383.919 270.447 384.399 269.291C384.879 268.135 385.692 267.148 386.733 266.454C387.775 265.759 388.999 265.39 390.25 265.392C391.925 265.392 393.53 266.057 394.714 267.241C395.898 268.425 396.563 270.031 396.563 271.705Z" fill="#F0F0F0"/>
<path d="M347.75 268.217C347.75 268.217 348.82 282.748 387.982 282.748C427.144 282.748 428.214 268.217 428.214 268.217H347.75Z" fill="#E6E6E6"/>
<path d="M66.126 260.363H46.6199V344.957H66.126V260.363Z" fill="#E6E6E6"/>
<path d="M146.558 344.957H50.3649V350.318H146.558V344.957Z" fill="#E6E6E6"/>
<path d="M66.1153 344.957H150.292V260.363H66.1153L66.1153 344.957Z" fill="#F0F0F0"/>
<path d="M73.7979 298.53H142.631V270.785H73.7979V298.53Z" fill="#E6E6E6"/>
<path d="M73.7979 334.546H142.631V306.801H73.7979V334.546Z" fill="#E6E6E6"/>
<path d="M115.935 286.557H100.484C100.231 286.557 99.9806 286.506 99.7474 286.409C99.5142 286.311 99.3028 286.168 99.1255 285.988C98.9482 285.807 98.8086 285.594 98.7148 285.359C98.621 285.124 98.5749 284.873 98.5791 284.62C98.5791 284.115 98.7798 283.63 99.137 283.273C99.4942 282.916 99.9786 282.715 100.484 282.715H115.935C116.44 282.715 116.924 282.916 117.281 283.273C117.638 283.63 117.839 284.115 117.839 284.62C117.843 284.873 117.797 285.124 117.703 285.359C117.61 285.594 117.47 285.807 117.293 285.988C117.115 286.168 116.904 286.311 116.671 286.409C116.438 286.506 116.187 286.557 115.935 286.557Z" fill="#F0F0F0"/>
<path d="M115.935 322.573H100.484C99.9786 322.573 99.4941 322.372 99.137 322.015C98.7798 321.658 98.5791 321.174 98.5791 320.668C98.5819 320.165 98.7838 319.683 99.1407 319.329C99.4976 318.974 99.9804 318.775 100.484 318.775H115.935C116.438 318.775 116.921 318.974 117.277 319.329C117.634 319.683 117.836 320.165 117.839 320.668C117.839 321.174 117.638 321.658 117.281 322.015C116.924 322.372 116.44 322.573 115.935 322.573Z" fill="#F0F0F0"/>
<path d="M104.175 244.099C104.175 244.099 88.1252 216.375 110.413 194.301C110.413 194.301 116.234 198.089 116.148 203.193C116.063 208.297 109.91 209.613 111.226 213.893C112.543 218.173 118.353 222.335 114.543 225.856C110.734 229.376 115.153 232.511 114.897 236.823C114.64 241.135 104.175 244.099 104.175 244.099Z" fill="#F0F0F0"/>
<path d="M80.7529 239.68C80.7529 239.68 81.2879 260.363 101.8 260.363C122.312 260.363 122.836 239.68 122.836 239.68H80.7529Z" fill="#E6E6E6"/>
<path d="M105.395 246.635C105.395 246.635 111.922 215.252 83.781 201.342C83.781 201.342 79.501 206.778 81.1488 211.593C82.7966 216.408 89.0775 215.691 89.1738 220.153C89.2701 224.614 85.065 230.403 89.7944 232.543C94.5238 234.683 91.3138 239.059 92.9188 243.072C94.5238 247.084 105.395 246.635 105.395 246.635Z" fill="#E6E6E6"/>
<path d="M95.6901 91.9023H63.5794V172.677H95.6901V91.9023Z" fill="#E0E0E0"/>
<path d="M102.185 91.9023H68.1055V172.677H102.185V91.9023Z" fill="#F0F0F0"/>
<path d="M96.9955 167.487V97.0918H73.295V167.487H96.9955Z" fill="#FAFAFA"/>
</svg>
