<svg width="278" height="153" viewBox="0 0 278 153" fill="none" xmlns="http://www.w3.org/2000/svg">
<path d="M31.1065 0H97.9566C99.2317 0.0377222 100.452 0.528377 101.398 1.38401C102.344 2.23965 102.954 3.40432 103.12 4.66921L113.767 106.007C113.848 106.598 113.8 107.199 113.626 107.769C113.452 108.34 113.156 108.865 112.759 109.31C112.362 109.755 111.874 110.109 111.327 110.346C110.78 110.584 110.188 110.7 109.592 110.687H42.7419L31.1065 0Z" fill="#003087"/>
<path opacity="0.5" d="M31.1065 0H97.9566C99.2317 0.0377222 100.452 0.528377 101.398 1.38401C102.344 2.23965 102.954 3.40432 103.12 4.66921L113.767 106.007C113.848 106.598 113.8 107.199 113.626 107.769C113.452 108.34 113.156 108.865 112.759 109.31C112.362 109.755 111.874 110.109 111.327 110.346C110.78 110.584 110.188 110.7 109.592 110.687H42.7419L31.1065 0Z" fill="white"/>
<path d="M184.664 101.477C184.331 98.2572 175.315 12.4727 175.004 9.25259C174.699 6.74436 173.501 4.43002 171.628 2.73436C169.754 1.03869 167.333 0.0754753 164.807 0.0215266H107.306C106.71 0.00872982 106.119 0.124806 105.573 0.361773C105.026 0.598739 104.538 0.951018 104.14 1.39447C103.742 1.83792 103.445 2.36206 103.269 2.931C103.093 3.49994 103.042 4.10022 103.12 4.69073L113.767 106.028C113.931 107.297 114.542 108.466 115.49 109.324C116.439 110.182 117.663 110.673 118.941 110.708H176.41C177.586 110.734 178.755 110.505 179.834 110.037C180.913 109.568 181.879 108.871 182.663 107.994C183.447 107.117 184.032 106.08 184.378 104.955C184.723 103.83 184.821 102.644 184.664 101.477Z" fill="#003087"/>
<path opacity="0.5" d="M184.664 101.477C184.331 98.2572 175.315 12.4727 175.004 9.25259C174.699 6.74436 173.501 4.43002 171.628 2.73436C169.754 1.03869 167.333 0.0754753 164.807 0.0215266H107.306C106.71 0.00872982 106.119 0.124806 105.573 0.361773C105.026 0.598739 104.538 0.951018 104.14 1.39447C103.742 1.83792 103.445 2.36206 103.269 2.931C103.093 3.49994 103.042 4.10022 103.12 4.69073L113.767 106.028C113.931 107.297 114.542 108.466 115.49 109.324C116.439 110.182 117.663 110.673 118.941 110.708H176.41C177.586 110.734 178.755 110.505 179.834 110.037C180.913 109.568 181.879 108.871 182.663 107.994C183.447 107.117 184.032 106.08 184.378 104.955C184.723 103.83 184.821 102.644 184.664 101.477Z" fill="white"/>
<path d="M41.3143 9.25261C41.0076 6.74347 39.8067 4.42897 37.9318 2.73349C36.0569 1.03801 33.6337 0.0751695 31.1064 0.0215466C29.9295 -0.00421421 28.761 0.225049 27.6811 0.693555C26.6012 1.16206 25.6355 1.85872 24.8503 2.73572C24.0651 3.61272 23.479 4.64927 23.1322 5.77419C22.7854 6.8991 22.6862 8.08573 22.8414 9.25261C23.26 13.2241 32.1154 97.4951 32.5018 101.477C32.8085 103.986 34.0094 106.301 35.8843 107.996C37.7592 109.692 40.1824 110.655 42.7097 110.708C43.8865 110.734 45.055 110.505 46.1349 110.036C47.2149 109.568 48.1806 108.871 48.9658 107.994C49.751 107.117 50.3371 106.081 50.6839 104.956C51.0307 103.831 51.1299 102.644 50.9747 101.477C50.6634 98.2465 41.647 12.4727 41.3143 9.25261Z" fill="#003087"/>
<path opacity="0.4" d="M41.3143 9.25261C41.0076 6.74347 39.8067 4.42897 37.9318 2.73349C36.0569 1.03801 33.6337 0.0751695 31.1064 0.0215466C29.9295 -0.00421421 28.761 0.225049 27.6811 0.693555C26.6012 1.16206 25.6355 1.85872 24.8503 2.73572C24.0651 3.61272 23.479 4.64927 23.1322 5.77419C22.7854 6.8991 22.6862 8.08573 22.8414 9.25261C23.26 13.2241 32.1154 97.4951 32.5018 101.477C32.8085 103.986 34.0094 106.301 35.8843 107.996C37.7592 109.692 40.1824 110.655 42.7097 110.708C43.8865 110.734 45.055 110.505 46.1349 110.036C47.2149 109.568 48.1806 108.871 48.9658 107.994C49.751 107.117 50.3371 106.081 50.6839 104.956C51.0307 103.831 51.1299 102.644 50.9747 101.477C50.6634 98.2465 41.647 12.4727 41.3143 9.25261Z" fill="white"/>
<path d="M79.9989 42.0335H18.4621C13.6413 42.1497 9.05707 44.1464 5.6886 47.5971C2.32014 51.0477 0.434519 55.6787 0.434519 60.5009C0.434519 65.3231 2.32014 69.9542 5.6886 73.4049C9.05707 76.8555 13.6413 78.8522 18.4621 78.9685V147.514C18.4621 148.889 19.0083 150.208 19.9806 151.18C20.9529 152.153 22.2715 152.699 23.6465 152.699H93.2659C94.6419 152.699 95.9617 152.153 96.9356 151.181C97.9096 150.209 98.4582 148.89 98.4611 147.514V60.4956C98.4611 55.5991 96.5159 50.9032 93.0536 47.4409C89.5913 43.9786 84.8954 42.0335 79.9989 42.0335Z" fill="#003087"/>
<path opacity="0.3" d="M79.9989 42.0335H18.4621C13.6413 42.1497 9.05707 44.1464 5.6886 47.5971C2.32014 51.0477 0.434519 55.6787 0.434519 60.5009C0.434519 65.3231 2.32014 69.9542 5.6886 73.4049C9.05707 76.8555 13.6413 78.8522 18.4621 78.9685V147.514C18.4621 148.889 19.0083 150.208 19.9806 151.18C20.9529 152.153 22.2715 152.699 23.6465 152.699H93.2659C94.6419 152.699 95.9617 152.153 96.9356 151.181C97.9096 150.209 98.4582 148.89 98.4611 147.514V60.4956C98.4611 55.5991 96.5159 50.9032 93.0536 47.4409C89.5913 43.9786 84.8954 42.0335 79.9989 42.0335Z" fill="white"/>
<path d="M198.436 42.0335H259.972C264.793 42.1497 269.377 44.1464 272.746 47.5971C276.114 51.0477 278 55.6787 278 60.5009C278 65.3231 276.114 69.9542 272.746 73.4049C269.377 76.8555 264.793 78.8522 259.972 78.9685V147.514C259.97 148.89 259.421 150.209 258.447 151.181C257.473 152.153 256.153 152.699 254.777 152.699H185.158C183.782 152.699 182.462 152.153 181.488 151.181C180.514 150.209 179.966 148.89 179.963 147.514V60.4956C179.966 55.5981 181.913 50.9022 185.377 47.4402C188.841 43.9782 193.538 42.0335 198.436 42.0335Z" fill="#003087"/>
<path opacity="0.3" d="M198.436 42.0335H259.972C264.793 42.1497 269.377 44.1464 272.746 47.5971C276.114 51.0477 278 55.6787 278 60.5009C278 65.3231 276.114 69.9542 272.746 73.4049C269.377 76.8555 264.793 78.8522 259.972 78.9685V147.514C259.97 148.89 259.421 150.209 258.447 151.181C257.473 152.153 256.153 152.699 254.777 152.699H185.158C183.782 152.699 182.462 152.153 181.488 151.181C180.514 150.209 179.966 148.89 179.963 147.514V60.4956C179.966 55.5981 181.913 50.9022 185.377 47.4402C188.841 43.9782 193.538 42.0335 198.436 42.0335Z" fill="white"/>
<path d="M79.9989 42.0335C75.1781 42.1497 70.5939 44.1464 67.2254 47.5971C63.857 51.0477 61.9713 55.6787 61.9713 60.5009C61.9713 65.3231 63.857 69.9542 67.2254 73.4049C70.5939 76.8555 75.1781 78.8522 79.9989 78.9685V147.514C79.9989 148.889 80.5452 150.208 81.5174 151.18C82.4897 152.153 83.8084 152.699 85.1834 152.699H93.2659C94.6419 152.699 95.9617 152.153 96.9357 151.181C97.9096 150.209 98.4582 148.89 98.4611 147.514V60.4956C98.4611 58.0711 97.9835 55.6703 97.0557 53.4304C96.1279 51.1905 94.768 49.1552 93.0537 47.4409C91.3393 45.7265 89.304 44.3666 87.0641 43.4388C84.8242 42.511 82.4234 42.0335 79.9989 42.0335Z" fill="#003087"/>
<path opacity="0.6" d="M79.9989 42.0335C75.1781 42.1497 70.5939 44.1464 67.2254 47.5971C63.857 51.0477 61.9713 55.6787 61.9713 60.5009C61.9713 65.3231 63.857 69.9542 67.2254 73.4049C70.5939 76.8555 75.1781 78.8522 79.9989 78.9685V147.514C79.9989 148.889 80.5452 150.208 81.5174 151.18C82.4897 152.153 83.8084 152.699 85.1834 152.699H93.2659C94.6419 152.699 95.9617 152.153 96.9357 151.181C97.9096 150.209 98.4582 148.89 98.4611 147.514V60.4956C98.4611 58.0711 97.9835 55.6703 97.0557 53.4304C96.1279 51.1905 94.768 49.1552 93.0537 47.4409C91.3393 45.7265 89.304 44.3666 87.0641 43.4388C84.8242 42.511 82.4234 42.0335 79.9989 42.0335Z" fill="white"/>
<path d="M259.972 42.0335C264.793 42.1497 269.377 44.1464 272.746 47.5971C276.114 51.0477 278 55.6787 278 60.5009C278 65.3231 276.114 69.9542 272.746 73.4049C269.377 76.8555 264.793 78.8522 259.972 78.9685V147.514C259.97 148.89 259.421 150.209 258.447 151.181C257.473 152.153 256.153 152.699 254.777 152.699H246.695C245.319 152.699 243.999 152.153 243.025 151.181C242.051 150.209 241.502 148.89 241.5 147.514V60.4956C241.502 55.5981 243.45 50.9022 246.914 47.4402C250.378 43.9782 255.075 42.0335 259.972 42.0335Z" fill="#003087"/>
<path opacity="0.6" d="M259.972 42.0335C264.793 42.1497 269.377 44.1464 272.746 47.5971C276.114 51.0477 278 55.6787 278 60.5009C278 65.3231 276.114 69.9542 272.746 73.4049C269.377 76.8555 264.793 78.8522 259.972 78.9685V147.514C259.97 148.89 259.421 150.209 258.447 151.181C257.473 152.153 256.153 152.699 254.777 152.699H246.695C245.319 152.699 243.999 152.153 243.025 151.181C242.051 150.209 241.502 148.89 241.5 147.514V60.4956C241.502 55.5981 243.45 50.9022 246.914 47.4402C250.378 43.9782 255.075 42.0335 259.972 42.0335Z" fill="white"/>
<path d="M222.565 100.544H105.943C101.811 100.544 98.4611 103.893 98.4611 108.025V145.218C98.4611 149.35 101.811 152.699 105.943 152.699H222.565C226.697 152.699 230.047 149.35 230.047 145.218V108.025C230.047 103.893 226.697 100.544 222.565 100.544Z" fill="#003087"/>
<path opacity="0.4" d="M222.565 100.544H105.943C101.811 100.544 98.4611 103.893 98.4611 108.025V145.218C98.4611 149.35 101.811 152.699 105.943 152.699H222.565C226.697 152.699 230.047 149.35 230.047 145.218V108.025C230.047 103.893 226.697 100.544 222.565 100.544Z" fill="white"/>
<path d="M169.98 104.139V96.9582C169.98 93.3302 167.039 90.3891 163.411 90.3891H105.03C101.402 90.3891 98.461 93.3302 98.461 96.9582V104.139C98.461 107.767 101.402 110.708 105.03 110.708H163.411C167.039 110.708 169.98 107.767 169.98 104.139Z" fill="#003087"/>
<path opacity="0.6" d="M169.98 104.139V96.9582C169.98 93.3302 167.039 90.3891 163.411 90.3891H105.03C101.402 90.3891 98.461 93.3302 98.461 96.9582V104.139C98.461 107.767 101.402 110.708 105.03 110.708H163.411C167.039 110.708 169.98 107.767 169.98 104.139Z" fill="white"/>
<path d="M241.5 104.139V96.9582C241.5 93.3302 238.558 90.3891 234.93 90.3891H176.549C172.921 90.3891 169.98 93.3302 169.98 96.9582V104.139C169.98 107.767 172.921 110.708 176.549 110.708H234.93C238.558 110.708 241.5 107.767 241.5 104.139Z" fill="#003087"/>
<path opacity="0.6" d="M241.5 104.139V96.9582C241.5 93.3302 238.558 90.3891 234.93 90.3891H176.549C172.921 90.3891 169.98 93.3302 169.98 96.9582V104.139C169.98 107.767 172.921 110.708 176.549 110.708H234.93C238.558 110.708 241.5 107.767 241.5 104.139Z" fill="white"/>
<path d="M106.179 39.0603C106.318 40.4235 106.468 41.7974 106.608 43.1713C106.608 43.4718 107.123 43.4718 107.091 43.1713C106.941 41.7974 106.801 40.4235 106.662 39.0603C106.662 38.749 106.146 38.749 106.179 39.0603Z" fill="#003087"/>
<path d="M103.796 16.4657C104.461 22.7557 105.123 29.0458 105.781 35.3358C105.781 35.6363 106.297 35.647 106.264 35.3358C105.599 29.0458 104.937 22.7557 104.279 16.4657C104.279 16.1544 103.764 16.1544 103.796 16.4657Z" fill="#003087"/>
<g opacity="0.3">
<path opacity="0.3" d="M106.179 39.0603C106.318 40.4235 106.468 41.7974 106.608 43.1713C106.608 43.4718 107.123 43.4718 107.091 43.1713C106.941 41.7974 106.801 40.4235 106.662 39.0603C106.662 38.749 106.146 38.749 106.179 39.0603Z" fill="white"/>
</g>
<g opacity="0.3">
<path opacity="0.3" d="M103.796 16.4657C104.461 22.7557 105.123 29.0458 105.781 35.3358C105.781 35.6363 106.297 35.647 106.264 35.3358C105.599 29.0458 104.937 22.7557 104.279 16.4657C104.279 16.1544 103.764 16.1544 103.796 16.4657Z" fill="white"/>
</g>
<path d="M169.776 138.562V142.062C169.776 142.116 169.798 142.168 169.836 142.206C169.874 142.244 169.926 142.266 169.98 142.266C170.034 142.266 170.086 142.244 170.124 142.206C170.163 142.168 170.184 142.116 170.184 142.062V138.562C170.184 138.508 170.163 138.456 170.124 138.418C170.086 138.38 170.034 138.358 169.98 138.358C169.926 138.358 169.874 138.38 169.836 138.418C169.798 138.456 169.776 138.508 169.776 138.562Z" fill="#003087"/>
<path d="M169.776 121.431V134.773C169.776 134.828 169.798 134.879 169.836 134.918C169.874 134.956 169.926 134.977 169.98 134.977C170.034 134.977 170.086 134.956 170.124 134.918C170.163 134.879 170.184 134.828 170.184 134.773V121.431C170.184 121.377 170.163 121.325 170.124 121.287C170.086 121.249 170.034 121.227 169.98 121.227C169.926 121.227 169.874 121.249 169.836 121.287C169.798 121.325 169.776 121.377 169.776 121.431Z" fill="#003087"/>
<g opacity="0.2">
<path opacity="0.2" d="M169.776 138.562V142.062C169.776 142.116 169.798 142.168 169.836 142.206C169.874 142.244 169.926 142.266 169.98 142.266C170.034 142.266 170.086 142.244 170.124 142.206C170.163 142.168 170.184 142.116 170.184 142.062V138.562C170.184 138.508 170.163 138.456 170.124 138.418C170.086 138.38 170.034 138.358 169.98 138.358C169.926 138.358 169.874 138.38 169.836 138.418C169.798 138.456 169.776 138.508 169.776 138.562Z" fill="white"/>
</g>
<g opacity="0.2">
<path opacity="0.2" d="M169.776 121.431V134.773C169.776 134.828 169.798 134.879 169.836 134.918C169.874 134.956 169.926 134.977 169.98 134.977C170.034 134.977 170.086 134.956 170.124 134.918C170.163 134.879 170.184 134.828 170.184 134.773V121.431C170.184 121.377 170.163 121.325 170.124 121.287C170.086 121.249 170.034 121.227 169.98 121.227C169.926 121.227 169.874 121.249 169.836 121.287C169.798 121.325 169.776 121.377 169.776 121.431Z" fill="white"/>
</g>
<path d="M61.5368 60.4956H0C-8.26757e-07 65.3931 1.94477 70.0902 5.40678 73.5542C8.86878 77.0182 13.5647 78.9657 18.4621 78.9686H79.9989C75.1015 78.9657 70.4056 77.0182 66.9436 73.5542C63.4816 70.0902 61.5368 65.3931 61.5368 60.4956Z" fill="#003087"/>
<g opacity="0.2">
<path opacity="0.2" d="M61.5368 60.4956H0C-8.26757e-07 65.3931 1.94477 70.0902 5.40678 73.5542C8.86878 77.0182 13.5647 78.9657 18.4621 78.9686H79.9989C75.1015 78.9657 70.4056 77.0182 66.9436 73.5542C63.4816 70.0902 61.5368 65.3931 61.5368 60.4956Z" fill="white"/>
</g>
</svg>
