<svg width="28" height="27" viewBox="0 0 28 27" fill="none" xmlns="http://www.w3.org/2000/svg">
<g filter="url(#filter0_d_0_2675)">
<path d="M21.7886 19.8083C20.3762 17.3757 18.1143 15.5511 15.4378 14.6855C16.72 13.9226 17.7163 12.7598 18.2737 11.3758C18.831 9.99184 18.9186 8.46316 18.523 7.02457C18.1274 5.58599 17.2704 4.31706 16.0837 3.41268C14.8971 2.50831 13.4464 2.01851 11.9544 2.01851C10.4624 2.01851 9.01163 2.50831 7.82498 3.41268C6.63832 4.31706 5.78137 5.58599 5.38575 7.02457C4.99013 8.46316 5.07772 9.99184 5.63507 11.3758C6.19241 12.7598 7.18869 13.9226 8.47088 14.6855C5.79453 15.5511 3.53269 17.3756 2.12028 19.8081C2.0537 19.9232 2.0186 20.0537 2.01851 20.1867C2.01841 20.3196 2.05333 20.4502 2.11974 20.5654C2.18615 20.6805 2.28171 20.7761 2.39682 20.8426C2.51192 20.9091 2.64251 20.9441 2.77544 20.9441L21.1334 20.9443C21.2664 20.9443 21.3969 20.9093 21.5121 20.8428C21.6272 20.7763 21.7227 20.6807 21.7891 20.5656C21.8556 20.4504 21.8905 20.3198 21.8904 20.1869C21.8903 20.0539 21.8552 19.9234 21.7886 19.8083L21.7886 19.8083Z" fill="#FFD100"/>
<path d="M15.4056 14.6313L15.2857 14.7026L15.4184 14.7455C18.0801 15.6063 20.3294 17.4208 21.734 19.84C21.795 19.9454 21.8272 20.0651 21.8273 20.1869C21.8274 20.3088 21.7954 20.4285 21.7345 20.534C21.6736 20.6396 21.586 20.7273 21.4805 20.7882C21.375 20.8492 21.2553 20.8812 21.1334 20.8812L2.77544 20.8811C2.65359 20.8811 2.53388 20.849 2.42837 20.788C2.32286 20.7271 2.23526 20.6394 2.17438 20.5338C2.1135 20.4283 2.0815 20.3086 2.08159 20.1867C2.08167 20.0649 2.11383 19.9452 2.17483 19.8398C3.57942 17.4207 5.82875 15.6063 8.49029 14.7455L8.62298 14.7026L8.50313 14.6313C7.23282 13.8754 6.24577 12.7234 5.69358 11.3523C5.1414 9.98109 5.05462 8.46656 5.44657 7.0413C5.83853 5.61603 6.68754 4.35885 7.86321 3.46285C9.03888 2.56685 10.4762 2.08159 11.9544 2.08159C13.4325 2.08159 14.8698 2.56685 16.0455 3.46285C17.2212 4.35885 18.0702 5.61603 18.4622 7.0413C18.8541 8.46656 18.7673 9.98109 18.2151 11.3523C17.663 12.7234 16.6759 13.8754 15.4056 14.6313Z" stroke="#FFD100" stroke-width="0.125"/>
</g>
<defs>
<filter id="filter0_d_0_2675" x="0" y="0" width="27.9457" height="27" filterUnits="userSpaceOnUse" color-interpolation-filters="sRGB">
<feFlood flood-opacity="0" result="BackgroundImageFix"/>
<feColorMatrix in="SourceAlpha" type="matrix" values="0 0 0 0 0 0 0 0 0 0 0 0 0 0 0 0 0 0 127 0" result="hardAlpha"/>
<feOffset dx="2" dy="2"/>
<feGaussianBlur stdDeviation="2"/>
<feComposite in2="hardAlpha" operator="out"/>
<feColorMatrix type="matrix" values="0 0 0 0 1 0 0 0 0 0.819608 0 0 0 0 0 0 0 0 0.32 0"/>
<feBlend mode="normal" in2="BackgroundImageFix" result="effect1_dropShadow_0_2675"/>
<feBlend mode="normal" in="SourceGraphic" in2="effect1_dropShadow_0_2675" result="shape"/>
</filter>
</defs>
</svg>
