<svg width="20" height="20" viewBox="0 0 20 20" fill="none" xmlns="http://www.w3.org/2000/svg">
<path fill-rule="evenodd" clip-rule="evenodd" d="M15.4444 0H4.55556C2.03959 0 0 2.03959 0 4.55556V15.4444C0 17.9604 2.03959 20 4.55556 20H15.4444C17.9604 20 20 17.9604 20 15.4444V4.55556C20 2.03959 17.9604 0 15.4444 0Z" fill="#DFEDF5"/>
<path fill-rule="evenodd" clip-rule="evenodd" d="M15.4444 0H4.55556C2.03959 0 0 2.03959 0 4.55556V15.4444C0 17.9604 2.03959 20 4.55556 20H15.4444C17.9604 20 20 17.9604 20 15.4444V4.55556C20 2.03959 17.9604 0 15.4444 0Z" fill="white"/>
<circle cx="10" cy="10.0001" r="8.63636" fill="#4681C7" fill-opacity="0.06"/>
<circle cx="10" cy="10.0001" r="8.38636" stroke="#2869BF" stroke-opacity="0.04" stroke-width="0.5"/>
<circle cx="9.99996" cy="9.99996" r="5.45455" fill="#4681C7" fill-opacity="0.09"/>
<circle cx="9.99996" cy="9.99996" r="5.20455" stroke="#2869BF" stroke-opacity="0.04" stroke-width="0.5"/>
<path fill-rule="evenodd" clip-rule="evenodd" d="M10.25 0H9.75V9.75H0V10.25H9.75V20H10.25V10.25H20V9.75H10.25V0Z" fill="#3668A8" fill-opacity="0.2"/>
</svg>
