<svg width="25" height="20" viewBox="0 0 25 20" fill="none" xmlns="http://www.w3.org/2000/svg">
<path d="M23.2142 0H6.75538C6.44731 0.00124959 6.14472 0.0816068 5.87661 0.23337C5.60851 0.385133 5.38388 0.603214 5.22425 0.866712L0.126867 9.36206C0.0438422 9.50096 0 9.65976 0 9.82158C0 9.98339 0.0438422 10.1422 0.126867 10.2811L5.22425 18.7764V18.7773C5.38391 19.0407 5.60857 19.2587 5.87668 19.4103C6.1448 19.5619 6.44737 19.6421 6.75538 19.6432H23.2142C23.6877 19.6427 24.1416 19.4544 24.4764 19.1196C24.8112 18.7848 24.9995 18.3309 24.9999 17.8574V1.78574C24.9995 1.31228 24.8112 0.858338 24.4764 0.523548C24.1416 0.188758 23.6877 0.000467445 23.2142 0ZM17.5954 11.8689C17.6784 11.9518 17.7443 12.0502 17.7893 12.1586C17.8343 12.2669 17.8575 12.3831 17.8576 12.5004C17.8576 12.6177 17.8346 12.7339 17.7897 12.8423C17.7448 12.9507 17.679 13.0492 17.5961 13.1321C17.5131 13.2151 17.4146 13.2809 17.3062 13.3258C17.1978 13.3706 17.0816 13.3937 16.9643 13.3936C16.847 13.3936 16.7308 13.3704 16.6225 13.3254C16.5141 13.2804 16.4157 13.2145 16.3328 13.1315L14.2855 11.0842L12.2382 13.1315C12.0707 13.2986 11.8437 13.3924 11.6071 13.3923C11.3705 13.3922 11.1436 13.2981 10.9763 13.1308C10.809 12.9635 10.7149 12.7366 10.7148 12.5C10.7147 12.2634 10.8085 12.0364 10.9756 11.8689L13.0229 9.82158L10.9756 7.77425C10.8085 7.60676 10.7147 7.37978 10.7148 7.14316C10.7149 6.90655 10.809 6.67966 10.9763 6.51235C11.1436 6.34504 11.3705 6.25099 11.6071 6.25086C11.8437 6.25074 12.0707 6.34454 12.2382 6.51168L14.2855 8.559L16.3328 6.51168C16.5003 6.34454 16.7273 6.25074 16.9639 6.25086C17.2005 6.25099 17.4274 6.34504 17.5947 6.51235C17.762 6.67966 17.8561 6.90655 17.8562 7.14316C17.8563 7.37978 17.7625 7.60676 17.5954 7.77425L15.5481 9.82158L17.5954 11.8689Z" fill="#000F2A"/>
</svg>
