<svg width="20" height="20" viewBox="0 0 20 20" fill="none" xmlns="http://www.w3.org/2000/svg">
<path d="M10 19.2308C15.098 19.2308 19.2308 15.098 19.2308 10C19.2308 4.90199 15.098 0.769231 10 0.769231C4.90199 0.769231 0.769231 4.90199 0.769231 10C0.769231 15.098 4.90199 19.2308 10 19.2308Z" stroke="#7D7D7D" stroke-width="1.5" stroke-linecap="round" stroke-linejoin="round"/>
<path d="M1.29507 6.92308H18.7052" stroke="#7D7D7D" stroke-width="1.5" stroke-linecap="round" stroke-linejoin="round"/>
<path d="M1.29507 13.0769H18.7051" stroke="#7D7D7D" stroke-width="1.5" stroke-linecap="round" stroke-linejoin="round"/>
<path d="M10 18.9831C12.1242 18.9831 13.8462 14.9613 13.8462 10.0001C13.8462 5.03894 12.1242 1.01713 10 1.01713C7.87583 1.01713 6.15385 5.03894 6.15385 10.0001C6.15385 14.9613 7.87583 18.9831 10 18.9831Z" stroke="#7D7D7D" stroke-width="1.5" stroke-linecap="round" stroke-linejoin="round"/>
</svg>
