<svg width="219" height="303" viewBox="0 0 219 303" fill="none" xmlns="http://www.w3.org/2000/svg">
<path d="M212.907 302.851H6.11486C4.49396 302.849 2.94029 302.203 1.79414 301.057C0.647998 299.911 0.00283126 298.357 0 296.737V6.06131C0.0169034 4.44972 0.668274 2.90973 1.8129 1.77512C2.95753 0.640517 4.50318 0.00272897 6.11486 0H212.907C214.515 0.00557351 216.057 0.644951 217.198 1.77955C218.338 2.91415 218.986 4.45255 219 6.06131V296.737C219 298.355 218.359 299.907 217.217 301.053C216.074 302.199 214.525 302.846 212.907 302.851ZM6.11486 0.214181C4.56497 0.217012 3.07937 0.833956 1.98344 1.92989C0.887497 3.02583 0.270557 4.51143 0.267726 6.06131V296.737C0.270557 298.286 0.887497 299.772 1.98344 300.868C3.07937 301.964 4.56497 302.581 6.11486 302.584H212.907C214.456 302.581 215.942 301.964 217.038 300.868C218.134 299.772 218.751 298.286 218.754 296.737V6.06131C218.751 4.51143 218.134 3.02583 217.038 1.92989C215.942 0.833956 214.456 0.217012 212.907 0.214181H6.11486Z" fill="#EBEBEB"/>
</svg>
