<svg width="71" height="43" viewBox="0 0 71 43" fill="none" xmlns="http://www.w3.org/2000/svg">
<path d="M1.95554 0.643516C1.75178 0.1228 1.16448 -0.134145 0.643763 0.0696135C0.123047 0.273372 -0.133898 0.860674 0.0698607 1.38139L1.95554 0.643516ZM29.3101 29.8994L28.9024 30.8261L29.3101 29.8994ZM70.7036 35.9211C71.099 35.5257 71.099 34.8846 70.7036 34.4893L64.2604 28.046C63.865 27.6507 63.2239 27.6507 62.8285 28.046C62.4331 28.4414 62.4331 29.0825 62.8285 29.4779L68.5558 35.2052L62.8285 40.9325C62.4331 41.3279 62.4331 41.9689 62.8285 42.3643C63.2239 42.7597 63.865 42.7597 64.2604 42.3643L70.7036 35.9211ZM0.0698607 1.38139C2.74062 8.20667 5.49303 13.6389 9.84158 18.339C14.1905 23.0397 20.0727 26.9411 28.9024 30.8261L29.7179 28.9727C21.0374 25.1533 15.4237 21.3909 11.3279 16.9639C7.23175 12.5365 4.59055 7.37742 1.95554 0.643516L0.0698607 1.38139ZM28.9024 30.8261C43.8854 37.4186 62.4341 36.2176 69.9877 36.2176V34.1927C62.2135 34.1927 44.2113 35.3497 29.7179 28.9727L28.9024 30.8261Z" fill="#FFD100"/>
</svg>
