<svg width="17" height="15" viewBox="0 0 17 15" fill="none" xmlns="http://www.w3.org/2000/svg">
<path d="M14.8718 14.2308H2.05128C1.71126 14.2308 1.38517 14.0957 1.14473 13.8553C0.904304 13.6148 0.769231 13.2887 0.769231 12.9487V3.97436C0.769231 3.63434 0.904304 3.30824 1.14473 3.06781C1.38517 2.82738 1.71126 2.69231 2.05128 2.69231H4.61492L5.89697 0.769231H11.0252L12.3072 2.69231H14.8718C15.2118 2.69231 15.5379 2.82738 15.7783 3.06781C16.0188 3.30824 16.1538 3.63434 16.1538 3.97436V12.9487C16.1538 13.2887 16.0188 13.6148 15.7783 13.8553C15.5379 14.0957 15.2118 14.2308 14.8718 14.2308Z" stroke="#7D7D7D" stroke-width="1.5" stroke-linecap="round" stroke-linejoin="round"/>
<path d="M8.46154 11.0256C10.0547 11.0256 11.3462 9.73415 11.3462 8.14103C11.3462 6.5479 10.0547 5.25641 8.46154 5.25641C6.86841 5.25641 5.57692 6.5479 5.57692 8.14103C5.57692 9.73415 6.86841 11.0256 8.46154 11.0256Z" stroke="#7D7D7D" stroke-width="1.5" stroke-linecap="round" stroke-linejoin="round"/>
</svg>
