<svg width="84" height="84" viewBox="0 0 84 84" fill="none" xmlns="http://www.w3.org/2000/svg">
<path d="M80.3852 0H3.6148C1.6184 0 0 1.60607 0 3.58725V79.7726C0 81.7538 1.6184 83.3599 3.6148 83.3599H80.3852C82.3816 83.3599 84 81.7538 84 79.7726V3.58725C84 1.60607 82.3816 0 80.3852 0Z" fill="#FFD100"/>
<path opacity="0.5" d="M71.6973 51.3809H12.3032C10.5014 51.3809 9.04077 52.8304 9.04077 54.6185V65.4012C9.04077 67.1893 10.5014 68.6388 12.3032 68.6388H71.6973C73.4991 68.6388 74.9597 67.1893 74.9597 65.4012V54.6185C74.9597 52.8304 73.4991 51.3809 71.6973 51.3809Z" fill="white"/>
<path d="M20.8223 60.0172L22.746 61.0521L21.9145 62.4856L19.9345 61.3318L19.9697 63.4296H18.3138V61.2899L16.369 62.4437L15.5728 61.0521L17.4964 60.0172L15.5728 58.9683L16.4183 57.5278L18.3631 58.6886V56.5488H20.019L19.9838 58.6886L21.9286 57.5278L22.7953 58.9683L20.8223 60.0172Z" fill="#003087"/>
<path d="M32.2443 60.0181L34.168 61.0531L33.3083 62.4866L31.3635 61.3328V63.4306H29.7076V61.2908L27.7698 62.4446L26.9172 61.0111L28.8409 59.9762L26.9172 58.9273L27.7698 57.4868L29.7076 58.6476V56.5078H31.3635V58.6476L33.3083 57.4868L34.168 58.9273L32.2443 60.0181Z" fill="#003087"/>
<path d="M43.6737 60.0181L45.5973 61.0531L44.7306 62.4866L42.7929 61.3328L42.8281 63.4306H41.1651V61.2908L39.2203 62.4446L38.3748 61.0111L40.2984 59.9762L38.3748 58.9273L39.2203 57.4868L41.1651 58.6476V56.5078H42.8281L42.7929 58.6476L44.7306 57.4868L45.5973 58.9273L43.6737 60.0181Z" fill="#003087"/>
<path d="M55.1029 60.0181L57.0265 61.0531L56.1598 62.4866L54.215 61.3328L54.2503 63.4306H52.5944V61.2908L50.6566 62.4446L49.811 61.0111L51.7347 59.9762L49.811 58.9273L50.6566 57.4868L52.5944 58.6476V56.5078H54.2503L54.215 58.6476L56.1598 57.4868L57.0265 58.9273L55.1029 60.0181Z" fill="#003087"/>
<path d="M66.525 60.0172L68.4204 61.0521L67.5608 62.4856L65.6442 61.3318L65.6794 63.4296H64.0235V61.2899L62.0787 62.4856L61.2261 61.0521L63.1497 60.0172L61.2261 58.9683L62.0787 57.5278L64.0164 58.6886V56.5488H65.6723L65.6371 58.6886L67.5819 57.5278L68.4416 58.9683L66.525 60.0172Z" fill="#003087"/>
<path opacity="0.5" d="M55.314 39.0098C62.6695 31.7104 62.6695 19.8756 55.314 12.5761C47.9584 5.27663 36.0328 5.27663 28.6772 12.5761C21.3217 19.8756 21.3217 31.7104 28.6772 39.0098C36.0328 46.3093 47.9584 46.3093 55.314 39.0098Z" fill="white"/>
<path d="M49.3953 24.7461H34.6683C34.4025 24.7452 34.1391 24.7965 33.8933 24.897C33.6475 24.9975 33.4242 25.1453 33.2362 25.3319C33.0483 25.5184 32.8993 25.74 32.798 25.9839C32.6967 26.2278 32.6451 26.4892 32.646 26.753V35.6547C32.646 36.187 32.8591 36.6974 33.2383 37.0738C33.6176 37.4502 34.132 37.6616 34.6683 37.6616H49.3953C49.9316 37.6616 50.446 37.4502 50.8253 37.0738C51.2045 36.6974 51.4176 36.187 51.4176 35.6547V26.753C51.4185 26.4892 51.3668 26.2278 51.2655 25.9839C51.1642 25.74 51.0153 25.5184 50.8273 25.3319C50.6394 25.1453 50.416 24.9975 50.1703 24.897C49.9245 24.7965 49.6611 24.7452 49.3953 24.7461ZM43.3847 34.6547H40.6789L41.2426 31.0116C40.8798 30.8347 40.588 30.5411 40.4147 30.1786C40.2415 29.8161 40.197 29.4061 40.2885 29.0154C40.38 28.6246 40.6021 28.2761 40.9186 28.0266C41.2352 27.7771 41.6275 27.6413 42.0318 27.6413C42.436 27.6413 42.8284 27.7771 43.145 28.0266C43.4615 28.2761 43.6836 28.6246 43.7751 29.0154C43.8666 29.4061 43.8221 29.8161 43.6489 30.1786C43.4756 30.5411 43.1838 30.8347 42.821 31.0116L43.3847 34.6547Z" fill="#003087"/>
<path d="M37.7547 23.3198L37.4799 21.9212C37.2435 20.7501 37.4856 19.5337 38.1529 18.5396C38.8202 17.5456 39.8581 16.8554 41.0383 16.6208C42.2185 16.3862 43.4442 16.6264 44.4459 17.2887C45.4475 17.9509 46.1431 18.9809 46.3795 20.1521L46.6543 21.5157L49.2544 20.9982L48.9725 19.5997C48.8035 18.6662 48.4486 17.7755 47.9285 16.9798C47.4085 16.1841 46.7337 15.4993 45.9437 14.9655C45.1538 14.4317 44.2645 14.0596 43.3278 13.871C42.3912 13.6824 41.4261 13.681 40.4889 13.867C39.5518 14.053 38.6614 14.4226 37.87 14.9542C37.0785 15.4858 36.4018 16.1688 35.8795 16.963C35.3572 17.7573 34.9997 18.6469 34.8281 19.5799C34.6564 20.5129 34.674 21.4706 34.8797 22.3967L35.1546 23.7953L37.7547 23.3198Z" fill="#003087"/>
<path opacity="0.2" d="M52.4957 74.8566H31.4975C31.2508 74.8566 31.0142 74.7594 30.8398 74.5863C30.6654 74.4132 30.5674 74.1784 30.5674 73.9336C30.5692 73.69 30.6681 73.457 30.8423 73.2854C31.0165 73.1139 31.252 73.0176 31.4975 73.0176H52.4957C52.7412 73.0176 52.9767 73.1139 53.151 73.2854C53.3252 73.457 53.424 73.69 53.4259 73.9336C53.4259 74.1784 53.3279 74.4132 53.1534 74.5863C52.979 74.7594 52.7424 74.8566 52.4957 74.8566Z" fill="black"/>
</svg>
