<svg width="19" height="16" viewBox="0 0 19 16" fill="none" xmlns="http://www.w3.org/2000/svg">
<path d="M3.24996 0.74999L15.7498 14.4998" stroke="#7D7D7D" stroke-width="1.5" stroke-linecap="round" stroke-linejoin="round"/>
<path d="M11.6018 9.93703C10.9885 10.4945 10.1789 10.7854 9.35112 10.746C8.52331 10.7065 7.74508 10.3399 7.1876 9.72663C6.63013 9.11341 6.33907 8.30385 6.37845 7.47604C6.41783 6.64823 6.78443 5.86996 7.39761 5.31243" stroke="#7D7D7D" stroke-width="1.5" stroke-linecap="round" stroke-linejoin="round"/>
<path d="M5.28075 2.98336C2.09569 4.59627 0.74999 7.62443 0.74999 7.62443C0.74999 7.62443 3.24996 13.2487 9.49988 13.2487C10.9642 13.2604 12.4103 12.9231 13.7184 12.2648" stroke="#7D7D7D" stroke-width="1.5" stroke-linecap="round" stroke-linejoin="round"/>
<path d="M15.7976 10.8354C17.5009 9.30985 18.25 7.62455 18.25 7.62455C18.25 7.62455 15.75 1.99901 9.50008 1.99901C8.95877 1.99813 8.41833 2.04213 7.8843 2.13058" stroke="#7D7D7D" stroke-width="1.5" stroke-linecap="round" stroke-linejoin="round"/>
<path d="M10.0882 4.55561C10.7524 4.68314 11.3574 5.0226 11.8123 5.52304C12.2672 6.02349 12.5477 6.65795 12.6115 7.33125" stroke="#7D7D7D" stroke-width="1.5" stroke-linecap="round" stroke-linejoin="round"/>
</svg>
