<svg width="55" height="54" viewBox="0 0 55 54" fill="none" xmlns="http://www.w3.org/2000/svg">
<path d="M7.6699 41.9051C10.0061 37.2037 11.2181 32.0239 11.2104 26.7741C11.208 24.223 11.7804 21.7041 12.885 19.4045C13.9896 17.1049 15.5981 15.0837 17.591 13.491" stroke="#7D7D7D" stroke-width="2.5" stroke-linecap="round" stroke-linejoin="round"/>
<path d="M28.2254 26.7743C28.2388 35.4224 26.0448 43.9308 21.8512 51.4941" stroke="#7D7D7D" stroke-width="2.5" stroke-linecap="round" stroke-linejoin="round"/>
<path d="M19.7179 26.7743C19.7179 24.5179 20.6143 22.354 22.2097 20.7585C23.8052 19.163 25.9692 18.2667 28.2255 18.2667C30.4818 18.2667 32.6458 19.163 34.2412 20.7585C35.8367 22.354 36.733 24.5179 36.733 26.7743C36.7455 35.5433 34.8137 44.2061 31.0768 52.1391" stroke="#7D7D7D" stroke-width="2.5" stroke-linecap="round" stroke-linejoin="round"/>
<path d="M52.3024 41.662C53.267 36.758 53.7515 31.7717 53.749 26.7738C53.749 20.0047 51.06 13.513 46.2736 8.72652C41.4871 3.9401 34.9954 1.25111 28.2263 1.25111C21.4573 1.25111 14.9655 3.9401 10.1791 8.72652C5.39265 13.513 2.70367 20.0047 2.70367 26.7738C2.70684 29.6716 2.21569 32.5487 1.25136 35.2814" stroke="#7D7D7D" stroke-width="2.5" stroke-linecap="round" stroke-linejoin="round"/>
<path d="M18.8661 35.2813C17.9581 39.7536 16.3317 44.0492 14.0501 48.0014" stroke="#7D7D7D" stroke-width="2.5" stroke-linecap="round" stroke-linejoin="round"/>
<path d="M26.0986 9.8908C28.4935 9.59127 30.9246 9.80424 33.2309 10.5156C35.5372 11.227 37.666 12.4204 39.476 14.0169C41.2861 15.6134 42.7361 17.5764 43.7299 19.7758C44.7237 21.9752 45.2387 24.3608 45.2406 26.7743C45.2413 29.6182 45.0654 32.4595 44.7141 35.2817" stroke="#7D7D7D" stroke-width="2.5" stroke-linecap="round" stroke-linejoin="round"/>
<path d="M43.0957 43.7889C42.6906 45.3625 42.2315 46.9133 41.7182 48.4414" stroke="#7D7D7D" stroke-width="2.5" stroke-linecap="round" stroke-linejoin="round"/>
</svg>
