<svg width="20" height="17" viewBox="0 0 20 17" fill="none" xmlns="http://www.w3.org/2000/svg">
<path d="M10.4993 16.018L17.686 8.83139C19.4518 7.06556 19.7123 4.16051 18.0412 2.30476C17.6227 1.83859 17.1135 1.46258 16.5448 1.19968C15.9761 0.936788 15.3598 0.792519 14.7335 0.775677C14.1072 0.758835 13.4841 0.869774 12.9021 1.10173C12.3201 1.33368 11.7914 1.68178 11.3484 2.12478L9.99763 3.47555L8.83139 2.3093C7.06556 0.543468 4.16051 0.282947 2.30476 1.95402C1.83858 2.37259 1.46258 2.88176 1.19968 3.45046C0.936788 4.01915 0.792519 4.63545 0.775677 5.26174C0.758835 5.88804 0.869774 6.51119 1.10172 7.0932C1.33368 7.6752 1.68178 8.20384 2.12478 8.64686L9.49593 16.018C9.62899 16.1511 9.80946 16.2258 9.99763 16.2258C10.1858 16.2258 10.3663 16.1511 10.4993 16.018V16.018Z" stroke="#003087" stroke-width="1.5" stroke-linecap="round" stroke-linejoin="round"/>
</svg>
