<svg width="84" height="84" viewBox="0 0 84 84" fill="none" xmlns="http://www.w3.org/2000/svg">
<path d="M80.3852 0H3.6148C1.6184 0 0 1.60607 0 3.58725V79.7726C0 81.7538 1.6184 83.3599 3.6148 83.3599H80.3852C82.3816 83.3599 84 81.7538 84 79.7726V3.58725C84 1.60607 82.3816 0 80.3852 0Z" fill="#FFD100"/>
<path opacity="0.5" d="M71.6975 51.3809H12.3035C10.5017 51.3809 9.04102 52.8304 9.04102 54.6185V65.4012C9.04102 67.1893 10.5017 68.6388 12.3035 68.6388H71.6975C73.4993 68.6388 74.96 67.1893 74.96 65.4012V54.6185C74.96 52.8304 73.4993 51.3809 71.6975 51.3809Z" fill="white"/>
<path d="M20.8218 60.0172L22.7455 61.0521L21.914 62.4856L19.934 61.3318L19.9692 63.4296H18.3133V61.2899L16.3685 62.4437L15.5723 61.0521L17.4959 60.0172L15.5723 58.9683L16.4178 57.5278L18.3626 58.6886V56.5488H20.0185L19.9833 58.6886L21.9281 57.5278L22.7948 58.9683L20.8218 60.0172Z" fill="#003087"/>
<path d="M32.2441 60.0181L34.1677 61.0531L33.3081 62.4866L31.3633 61.3328V63.4306H29.7074V61.2908L27.7696 62.4446L26.917 61.0111L28.8406 59.9762L26.917 58.9273L27.7696 57.4868L29.7074 58.6476V56.5078H31.3633V58.6476L33.3081 57.4868L34.1677 58.9273L32.2441 60.0181Z" fill="#003087"/>
<path d="M43.6739 60.0181L45.5975 61.0531L44.7309 62.4866L42.7931 61.3328L42.8283 63.4306H41.1654V61.2908L39.2206 62.4446L38.375 61.0111L40.2987 59.9762L38.375 58.9273L39.2206 57.4868L41.1654 58.6476V56.5078H42.8283L42.7931 58.6476L44.7309 57.4868L45.5975 58.9273L43.6739 60.0181Z" fill="#003087"/>
<path d="M55.1024 60.0181L57.026 61.0531L56.1594 62.4866L54.2145 61.3328L54.2498 63.4306H52.5939V61.2908L50.6561 62.4446L49.8105 61.0111L51.7342 59.9762L49.8105 58.9273L50.6561 57.4868L52.5939 58.6476V56.5078H54.2498L54.2145 58.6476L56.1594 57.4868L57.026 58.9273L55.1024 60.0181Z" fill="#003087"/>
<path d="M66.5254 60.0172L68.4209 61.0521L67.5613 62.4856L65.6446 61.3318L65.6799 63.4296H64.024V61.2899L62.0792 62.4856L61.2266 61.0521L63.1502 60.0172L61.2266 58.9683L62.0792 57.5278L64.0169 58.6886V56.5488H65.6728L65.6376 58.6886L67.5824 57.5278L68.4421 58.9683L66.5254 60.0172Z" fill="#003087"/>
<path opacity="0.5" d="M55.3145 39.0098C62.67 31.7104 62.67 19.8756 55.3145 12.5761C47.9589 5.27663 36.0333 5.27663 28.6777 12.5761C21.3222 19.8756 21.3222 31.7104 28.6777 39.0098C36.0333 46.3093 47.9589 46.3093 55.3145 39.0098Z" fill="white"/>
<path d="M49.3958 24.7461H34.6688C34.403 24.7452 34.1396 24.7965 33.8938 24.897C33.648 24.9975 33.4247 25.1453 33.2367 25.3319C33.0488 25.5184 32.8998 25.74 32.7985 25.9839C32.6972 26.2278 32.6456 26.4892 32.6465 26.753V35.6547C32.6465 36.187 32.8596 36.6974 33.2388 37.0738C33.6181 37.4502 34.1325 37.6616 34.6688 37.6616H49.3958C49.9321 37.6616 50.4465 37.4502 50.8257 37.0738C51.205 36.6974 51.4181 36.187 51.4181 35.6547V26.753C51.419 26.4892 51.3673 26.2278 51.266 25.9839C51.1647 25.74 51.0158 25.5184 50.8278 25.3319C50.6399 25.1453 50.4165 24.9975 50.1708 24.897C49.925 24.7965 49.6616 24.7452 49.3958 24.7461ZM43.3852 34.6547H40.6794L41.2431 31.0116C40.8802 30.8347 40.5885 30.5411 40.4152 30.1786C40.2419 29.8161 40.1974 29.4061 40.289 29.0154C40.3805 28.6246 40.6026 28.2761 40.9191 28.0266C41.2357 27.7771 41.628 27.6413 42.0323 27.6413C42.4365 27.6413 42.8289 27.7771 43.1454 28.0266C43.462 28.2761 43.6841 28.6246 43.7756 29.0154C43.8671 29.4061 43.8226 29.8161 43.6494 30.1786C43.4761 30.5411 43.1843 30.8347 42.8215 31.0116L43.3852 34.6547Z" fill="#003087"/>
<path d="M37.7544 23.3198L37.4796 21.9212C37.2432 20.7501 37.4853 19.5337 38.1526 18.5396C38.82 17.5456 39.8579 16.8554 41.0381 16.6208C42.2182 16.3862 43.4439 16.6264 44.4456 17.2887C45.4473 17.9509 46.1428 18.9809 46.3792 20.1521L46.654 21.5157L49.2541 20.9982L48.9723 19.5997C48.8033 18.6662 48.4483 17.7755 47.9283 16.9798C47.4082 16.1841 46.7335 15.4993 45.9435 14.9655C45.1535 14.4317 44.2642 14.0596 43.3276 13.871C42.391 13.6824 41.4259 13.681 40.4887 13.867C39.5515 14.053 38.6612 14.4226 37.8697 14.9542C37.0783 15.4858 36.4016 16.1688 35.8792 16.963C35.3569 17.7573 34.9995 18.6469 34.8278 19.5799C34.6562 20.5129 34.6737 21.4706 34.8795 22.3967L35.1543 23.7953L37.7544 23.3198Z" fill="#003087"/>
<path opacity="0.2" d="M52.4957 74.8566H31.4975C31.2508 74.8566 31.0142 74.7594 30.8398 74.5863C30.6654 74.4132 30.5674 74.1784 30.5674 73.9336C30.5692 73.69 30.6681 73.457 30.8423 73.2854C31.0165 73.1139 31.252 73.0176 31.4975 73.0176H52.4957C52.7412 73.0176 52.9767 73.1139 53.151 73.2854C53.3252 73.457 53.424 73.69 53.4259 73.9336C53.4259 74.1784 53.3279 74.4132 53.1534 74.5863C52.979 74.7594 52.7424 74.8566 52.4957 74.8566Z" fill="black"/>
</svg>
