<svg width="19" height="18" viewBox="0 0 19 18" fill="none" xmlns="http://www.w3.org/2000/svg">
<path opacity="0.4" d="M17.3728 1.62837C16.3275 0.586313 14.9118 0.00114866 13.4358 0.00114866C11.9599 0.00114866 10.5441 0.586313 9.49889 1.62837C8.98188 1.1118 8.36818 0.70212 7.69285 0.422726C7.01751 0.143331 6.29377 -0.00031142 5.56292 5.06935e-07C4.83208 0.000312434 4.10844 0.14458 3.43334 0.42455C2.75825 0.704521 2.14491 1.1147 1.62835 1.63171C1.11178 2.14872 0.70212 2.76242 0.422726 3.43775C0.143331 4.11309 -0.00031142 4.83683 5.06934e-07 5.56768C0.000312434 6.29852 0.144559 7.02214 0.42453 7.69724C0.704501 8.37233 1.1147 8.98567 1.63171 9.50223L9.49889 17.3694L17.3728 9.50223C18.4148 8.45698 19 7.04125 19 5.5653C19 4.08935 18.4148 2.67362 17.3728 1.62837Z" fill="white"/>
</svg>
