<svg width="24" height="8" viewBox="0 0 24 8" fill="none" xmlns="http://www.w3.org/2000/svg">
<path d="M8.33269 0.655156L5.62593 7.11404H4.32237L2.87799 1.52128C2.87798 1.52121 2.87796 1.52114 2.87794 1.52107C2.82827 1.32843 2.76654 1.12718 2.64439 0.948504C2.5606 0.825939 2.46166 0.732425 2.35442 0.655156H3.3465C3.51954 0.655156 3.68363 0.760486 3.73124 0.999126L4.54769 5.33563L4.87988 7.09999L5.53999 5.43039L7.42798 0.655156H8.33269ZM16.6717 1.73406C16.8296 1.78236 16.994 1.84363 17.1623 1.92089L17.2733 1.40261C17.1046 1.33037 16.9397 1.27199 16.7807 1.22507L16.6717 1.73406ZM12.0036 5.72842C11.9896 5.72192 11.9758 5.71548 11.9621 5.70909L11.8509 6.22966C11.9937 6.296 12.1538 6.36835 12.3373 6.43604L12.447 5.92272C12.2836 5.85912 12.1383 5.7913 12.0036 5.72842ZM12.2131 7.01787C12.0595 6.97436 11.9287 6.92766 11.8275 6.88119L11.611 7.35267L12.1184 7.46105L12.2131 7.01787ZM13.7714 7.23264C13.7704 7.23264 13.7693 7.23264 13.7682 7.23264L13.7683 7.75144L13.7746 7.23268C13.7736 7.23266 13.7725 7.23265 13.7714 7.23264ZM15.1836 1.07193C15.1832 1.07198 15.1828 1.07203 15.1825 1.07207C15.1821 1.07212 15.1817 1.07217 15.1814 1.07222L15.2498 1.58648L15.1836 1.07193ZM14.428 2.21442L13.9093 2.20285L13.9093 2.2035C13.9093 2.20372 13.9093 2.20394 13.9093 2.20416L14.428 2.21442ZM16.8969 0.682565C17.0505 0.724561 17.1931 0.771529 17.3256 0.819588L17.5026 0.331921L16.9953 0.223288L16.8969 0.682565ZM19.4842 5.99453H19.1199L18.9962 6.33721L18.7158 7.11409H17.8242L20.4311 0.88694C20.4918 0.742503 20.62 0.655156 20.7785 0.655156H21.0581L20.5756 1.98503L19.5544 4.79988L19.302 5.49561H20.0421H21.6508H22.289L22.1586 4.87082L21.5711 2.05597L21.2788 0.655156H22.013L23.3617 7.11409H22.6277L22.4803 6.40737L22.3942 5.99453H21.9724H19.4842ZM11.2424 0.65511L9.85995 7.11404H8.98143L10.3642 0.65511H11.2424Z" fill="#1A2ADF" stroke="#1A2ADF"/>
</svg>
