<svg width="24" height="24" viewBox="0 0 24 24" fill="none" xmlns="http://www.w3.org/2000/svg">
<g clip-path="url(#clip0_0_5708)">
<path d="M0.121582 0.130859H23.8994V23.0219H0.121582V0.130859Z" fill="white"/>
<path d="M0 0H24V24H0V0Z" fill="#00A651"/>
<path d="M14.7974 21.6125V22.5406H9.04109V21.6108H4.68527C4.25966 21.6108 3.91297 21.1686 3.91297 20.6233L2.09033 2.29871C2.09033 1.75312 2.51594 1.31055 3.04114 1.31055H20.6429C21.1647 1.31055 21.5903 1.75312 21.5903 2.29871L19.7882 20.6233C19.7882 21.1685 19.4415 21.6108 19.016 21.6108L14.7974 21.6125H14.7974Z" fill="white"/>
<path d="M5.29639 3.99219H17.0802C15.92 4.42453 12.3879 6.8018 11.5058 8.40013H5.30672L5.29639 3.99219H5.29639Z" fill="#FF6701"/>
<path d="M14.6876 16.623C14.5194 18.2193 14.5126 20.1632 14.5126 22.2051H9.40503C9.40503 20.1632 9.49085 18.2193 9.65901 16.623H14.6876H14.6876Z" fill="#E50A09"/>
<path d="M6.78601 14.3161V14.9348H5.96908V15.5537H6.78601V16.2629H4.9187V12.9629H6.78601V13.6979H5.96908V14.3161H6.78601Z" fill="#00A651"/>
<path d="M11.1282 14.3161V14.9348H10.3148V15.5537H11.1282V16.2629H9.2644V12.9629H11.1282V13.6979H10.3148V14.3161H11.1282Z" fill="#00A651"/>
<path d="M15.9129 14.3161V14.9348H15.096V15.5537H15.9129V16.2629H14.0457V12.9629H15.9129V13.6979H15.096V14.3161H15.9129Z" fill="#00A651"/>
<path d="M8.18659 12.9629V15.5537H9.00344V16.2629H7.13623V12.9629H8.18659Z" fill="#00A651"/>
<path d="M12.635 15.1932L12.2367 12.9629H11.3203L11.842 16.2629H13.1909L13.8225 12.9629H13.0433L12.635 15.1932Z" fill="#00A651"/>
<path d="M16.3557 12.9629H17.365V16.2625H16.3557V12.9629Z" fill="#00A651"/>
<path d="M17.365 13.9433C17.4199 13.5819 17.9348 13.6789 17.9348 13.8853V16.2636H18.9474V13.4666C18.9474 12.8736 18.1064 12.635 17.3719 13.1571L17.365 13.9433L17.365 13.9433Z" fill="#00A651"/>
<path d="M15.1613 12.4985C15.2643 11.2356 17.0045 9.17329 18.6899 8.63176V3.75977C14.0526 5.82215 11.0389 8.94126 10.3867 12.4862L15.1613 12.4985L15.1613 12.4985Z" fill="#E50A09"/>
</g>
<defs>
<clipPath id="clip0_0_5708">
<path d="M0 4C0 1.79086 1.79086 0 4 0H20C22.2091 0 24 1.79086 24 4V20C24 22.2091 22.2091 24 20 24H4C1.79086 24 0 22.2091 0 20V4Z" fill="white"/>
</clipPath>
</defs>
</svg>
