<svg width="189" height="247" viewBox="0 0 189 247" fill="none" xmlns="http://www.w3.org/2000/svg">
<path d="M32.4018 204.612L0 180.029L38.687 132.74L32.4018 204.612Z" fill="#003087"/>
<path opacity="0.8" d="M38.687 132.74L32.4018 204.612L0 180.029L38.687 132.74Z" fill="white"/>
<path d="M113.584 5.40633H130.401C131.238 5.40633 131.345 4.11931 130.519 4.11931H113.702C112.865 4.11931 112.758 5.40633 113.584 5.40633Z" fill="#003087"/>
<path d="M136.568 5.40633H141.395C142.231 5.40633 142.339 4.11931 141.513 4.11931H136.676C135.85 4.11931 135.732 5.40633 136.568 5.40633Z" fill="#003087"/>
<g opacity="0.3">
<path opacity="0.3" d="M113.584 5.40633H130.401C131.238 5.40633 131.345 4.11931 130.519 4.11931H113.702C112.865 4.11931 112.758 5.40633 113.584 5.40633Z" fill="white"/>
</g>
<g opacity="0.3">
<path opacity="0.3" d="M136.568 5.40633H141.395C142.231 5.40633 142.339 4.11931 141.513 4.11931H136.676C135.85 4.11931 135.732 5.40633 136.568 5.40633Z" fill="white"/>
</g>
<path d="M165.527 240.371C165.34 242.164 164.504 243.827 163.177 245.048C161.849 246.268 160.122 246.962 158.32 246.999H25.8807C25.033 247.012 24.1924 246.844 23.4145 246.507C22.6365 246.171 21.939 245.672 21.3681 245.046C20.7972 244.419 20.3659 243.678 20.1029 242.872C19.8398 242.066 19.751 241.214 19.8422 240.371L40.2851 6.61831C40.4765 4.81802 41.3211 3.15032 42.6592 1.93082C43.9973 0.711318 45.736 0.0246019 47.5463 0.000635995H180.007C180.854 -0.0117072 181.693 0.155741 182.47 0.491916C183.247 0.82809 183.944 1.32534 184.515 1.95081C185.086 2.57628 185.517 3.31574 185.781 4.12033C186.045 4.92492 186.135 5.77633 186.045 6.61831L165.527 240.371Z" fill="#003087"/>
<path opacity="0.7" d="M165.527 240.371C165.34 242.164 164.504 243.827 163.177 245.048C161.849 246.268 160.122 246.962 158.32 246.999H25.8807C25.033 247.012 24.1924 246.844 23.4145 246.507C22.6365 246.171 21.939 245.672 21.3681 245.046C20.7972 244.419 20.3659 243.678 20.1029 242.872C19.8398 242.066 19.751 241.214 19.8422 240.371L40.2851 6.61831C40.4765 4.81802 41.3211 3.15032 42.6592 1.93082C43.9973 0.711318 45.736 0.0246019 47.5463 0.000635995H180.007C180.854 -0.0117072 181.693 0.155741 182.47 0.491916C183.247 0.82809 183.944 1.32534 184.515 1.95081C185.086 2.57628 185.517 3.31574 185.781 4.12033C186.045 4.92492 186.135 5.77633 186.045 6.61831L165.527 240.371Z" fill="white"/>
<path d="M165.527 240.371C165.34 242.164 164.504 243.827 163.177 245.048C161.849 246.268 160.122 246.962 158.32 246.999H25.8807C25.033 247.012 24.1924 246.844 23.4145 246.507C22.6365 246.171 21.939 245.672 21.3681 245.046C20.7972 244.419 20.3659 243.678 20.1029 242.872C19.8398 242.066 19.751 241.214 19.8422 240.371L40.2851 6.61831C40.4765 4.81802 41.3211 3.15032 42.6592 1.93082C43.9973 0.711318 45.736 0.0246019 47.5463 0.000635995H180.007C180.854 -0.0117072 181.693 0.155741 182.47 0.491916C183.247 0.82809 183.944 1.32534 184.515 1.95081C185.086 2.57628 185.517 3.31574 185.781 4.12033C186.045 4.92492 186.135 5.77633 186.045 6.61831L165.527 240.371Z" fill="#003087"/>
<path opacity="0.8" d="M165.527 240.371C165.34 242.164 164.504 243.827 163.177 245.048C161.849 246.268 160.122 246.962 158.32 246.999H25.8807C25.033 247.012 24.1924 246.844 23.4145 246.507C22.6365 246.171 21.939 245.672 21.3681 245.046C20.7972 244.419 20.3659 243.678 20.1029 242.872C19.8398 242.066 19.751 241.214 19.8422 240.371L40.2851 6.61831C40.4765 4.81802 41.3211 3.15032 42.6592 1.93082C43.9973 0.711318 45.736 0.0246019 47.5463 0.000635995H180.007C180.854 -0.0117072 181.693 0.155741 182.47 0.491916C183.247 0.82809 183.944 1.32534 184.515 1.95081C185.086 2.57628 185.517 3.31574 185.781 4.12033C186.045 4.92492 186.135 5.77633 186.045 6.61831L165.527 240.371Z" fill="white"/>
<path d="M182.602 0.000635996H179.953C180.8 -0.0117072 181.64 0.155741 182.417 0.491916C183.194 0.82809 183.891 1.32534 184.461 1.95081C185.032 2.57629 185.464 3.31574 185.728 4.12033C185.991 4.92492 186.081 5.77634 185.992 6.61831L165.527 240.371C165.34 242.164 164.504 243.827 163.177 245.048C161.849 246.268 160.122 246.962 158.32 246.999H160.969C162.772 246.962 164.499 246.268 165.826 245.048C167.153 243.827 167.989 242.164 168.177 240.371L188.641 6.61831C188.731 5.77634 188.641 4.92492 188.377 4.12033C188.113 3.31574 187.681 2.57629 187.111 1.95081C186.54 1.32534 185.843 0.82809 185.066 0.491916C184.289 0.155741 183.449 -0.0117072 182.602 0.000635996Z" fill="#003087"/>
<path opacity="0.4" d="M182.602 0.000635996H179.953C180.8 -0.0117072 181.64 0.155741 182.417 0.491916C183.194 0.82809 183.891 1.32534 184.461 1.95081C185.032 2.57629 185.464 3.31574 185.728 4.12033C185.991 4.92492 186.081 5.77634 185.992 6.61831L165.527 240.371C165.34 242.164 164.504 243.827 163.177 245.048C161.849 246.268 160.122 246.962 158.32 246.999H160.969C162.772 246.962 164.499 246.268 165.826 245.048C167.153 243.827 167.989 242.164 168.177 240.371L188.641 6.61831C188.731 5.77634 188.641 4.92492 188.377 4.12033C188.113 3.31574 187.681 2.57629 187.111 1.95081C186.54 1.32534 185.843 0.82809 185.066 0.491916C184.289 0.155741 183.449 -0.0117072 182.602 0.000635996Z" fill="white"/>
<path d="M85.3752 187.955C84.7209 187.73 84.3026 187.569 84.367 187.086C84.3828 186.962 84.4232 186.842 84.4859 186.733C84.5486 186.625 84.6324 186.53 84.7322 186.454C84.8321 186.378 84.9461 186.323 85.0675 186.291C85.189 186.26 85.3154 186.253 85.4395 186.271C85.6761 186.26 85.9097 186.328 86.1037 186.464C86.2977 186.6 86.4413 186.796 86.5121 187.022V187.108L86.984 186.861V186.797C86.8556 186.472 86.6249 186.198 86.3268 186.016C86.0287 185.834 85.6794 185.753 85.3318 185.787C84.9841 185.821 84.657 185.967 84.3997 186.204C84.1424 186.44 83.9691 186.754 83.9058 187.097C83.8307 187.955 84.5386 188.17 85.2894 188.448C86.0402 188.695 86.362 188.899 86.362 189.371C86.362 189.843 85.8793 190.207 85.2036 190.207C84.925 190.254 84.6392 190.189 84.4083 190.027C84.1773 189.864 84.0199 189.617 83.9701 189.339V189.231L83.4982 189.5V189.564C83.5955 189.923 83.8173 190.235 84.1238 190.445C84.4303 190.656 84.8017 190.75 85.1714 190.712C85.5783 190.754 85.986 190.637 86.3082 190.385C86.6305 190.133 86.842 189.765 86.8983 189.36C86.9197 188.481 86.1582 188.212 85.3752 187.955Z" fill="#263238"/>
<path d="M89.4939 187.097C89.2784 187.092 89.0644 187.134 88.8664 187.219C88.6683 187.304 88.491 187.431 88.3463 187.59V187.161H87.8529L87.5419 190.636H88.046L88.1961 188.813C88.1904 188.653 88.2169 188.494 88.2741 188.344C88.3314 188.195 88.4182 188.058 88.5293 187.943C88.6404 187.828 88.7736 187.737 88.9209 187.674C89.0682 187.612 89.2266 187.58 89.3867 187.58C89.5059 187.568 89.6262 187.585 89.7376 187.629C89.8489 187.673 89.9481 187.743 90.0269 187.833C90.1056 187.924 90.1616 188.031 90.1902 188.148C90.2187 188.264 90.2191 188.386 90.1911 188.502L90.0087 190.647H90.5128L90.6952 188.502C90.7314 188.327 90.7271 188.147 90.6827 187.974C90.6383 187.801 90.555 187.641 90.439 187.505C90.3231 187.369 90.1776 187.262 90.0138 187.191C89.85 187.121 89.6721 187.088 89.4939 187.097Z" fill="#263238"/>
<path d="M93.4517 187.097C92.9575 187.09 92.4796 187.273 92.1165 187.609C91.7533 187.944 91.5326 188.406 91.4997 188.899C91.4659 189.132 91.4843 189.369 91.5537 189.594C91.623 189.819 91.7416 190.026 91.9007 190.2C92.0599 190.373 92.2556 190.509 92.4738 190.598C92.692 190.686 92.9271 190.725 93.1621 190.711C93.4687 190.719 93.7726 190.651 94.0473 190.515C94.322 190.379 94.5593 190.177 94.7388 189.928L94.7924 189.853L94.3741 189.596V189.671C94.249 189.852 94.08 189.998 93.883 190.095C93.686 190.193 93.4675 190.239 93.2479 190.229C92.9452 190.246 92.6478 190.143 92.4207 189.943C92.1936 189.742 92.0553 189.459 92.0359 189.156H95.0283V189.07C95.0334 189.049 95.0334 189.027 95.0283 189.006C95.0329 188.978 95.0329 188.949 95.0283 188.92C95.0662 188.693 95.0536 188.461 94.9914 188.239C94.9292 188.018 94.8188 187.812 94.6683 187.638C94.5178 187.464 94.3307 187.325 94.1204 187.232C93.9101 187.138 93.6818 187.092 93.4517 187.097ZM93.4517 187.58C93.7361 187.58 94.009 187.693 94.2101 187.894C94.4113 188.095 94.5242 188.368 94.5242 188.652H92.0466C92.1175 188.345 92.2912 188.071 92.5389 187.876C92.7866 187.681 93.0935 187.576 93.4088 187.58H93.4517Z" fill="#263238"/>
<path d="M98.8679 187.719C98.72 187.519 98.5255 187.357 98.3013 187.249C98.077 187.141 97.8297 187.088 97.5808 187.097C97.0895 187.1 96.6172 187.287 96.2562 187.62C95.8952 187.954 95.6715 188.409 95.6288 188.899C95.5975 189.129 95.6167 189.363 95.685 189.584C95.7533 189.806 95.869 190.01 96.0241 190.183C96.1793 190.355 96.3701 190.492 96.5833 190.583C96.7966 190.675 97.0272 190.718 97.2591 190.712C97.5236 190.714 97.7855 190.659 98.0263 190.55C98.2672 190.44 98.4812 190.28 98.6534 190.079V190.636H99.1575L99.4578 187.161H98.9537L98.8679 187.719ZM97.3342 190.24C97.1636 190.244 96.994 190.211 96.8371 190.144C96.6802 190.077 96.5395 189.977 96.4245 189.851C96.3096 189.725 96.2231 189.576 96.1709 189.413C96.1188 189.251 96.1021 189.079 96.1222 188.91C96.1566 188.551 96.3224 188.218 96.5878 187.974C96.8531 187.731 97.1992 187.594 97.5594 187.59C97.7286 187.586 97.8967 187.618 98.0523 187.685C98.208 187.751 98.3475 187.85 98.4615 187.975C98.5754 188.101 98.6611 188.249 98.7127 188.41C98.7643 188.571 98.7807 188.742 98.7606 188.91C98.7312 189.269 98.5687 189.605 98.3049 189.851C98.041 190.097 97.6949 190.235 97.3342 190.24Z" fill="#263238"/>
<path d="M103.244 187.161H102.536L100.852 188.566L101.088 185.842H100.595L100.176 190.636H100.67L100.799 189.113L102.289 190.615L102.311 190.636H102.997L101.228 188.835L103.244 187.161Z" fill="#263238"/>
<path d="M105.196 187.097C104.702 187.09 104.224 187.274 103.861 187.609C103.498 187.944 103.277 188.406 103.244 188.899C103.21 189.132 103.229 189.369 103.298 189.594C103.367 189.819 103.486 190.026 103.645 190.2C103.804 190.373 104 190.509 104.218 190.598C104.436 190.686 104.671 190.725 104.906 190.712C105.215 190.719 105.52 190.651 105.796 190.515C106.073 190.379 106.312 190.177 106.494 189.929V189.853L106.086 189.596L106.033 189.671C105.913 189.844 105.752 189.985 105.565 190.083C105.378 190.18 105.171 190.23 104.96 190.229C104.809 190.239 104.658 190.219 104.515 190.171C104.372 190.122 104.24 190.046 104.126 189.947C104.012 189.847 103.92 189.726 103.853 189.59C103.786 189.455 103.747 189.307 103.737 189.156H106.73V189.071C106.735 189.049 106.735 189.027 106.73 189.006C106.734 188.978 106.734 188.949 106.73 188.92C106.767 188.697 106.755 188.468 106.696 188.25C106.636 188.031 106.529 187.828 106.384 187.655C106.238 187.482 106.056 187.342 105.851 187.246C105.646 187.149 105.423 187.099 105.196 187.097ZM105.196 187.58C105.48 187.58 105.753 187.693 105.954 187.894C106.156 188.095 106.269 188.368 106.269 188.652H103.791C103.862 188.345 104.036 188.071 104.283 187.876C104.531 187.681 104.838 187.576 105.153 187.58H105.196Z" fill="#263238"/>
<path d="M108.199 187.59V187.161H107.706L107.395 190.637H107.899L108.06 188.717C108.06 188.571 108.089 188.427 108.146 188.293C108.204 188.16 108.288 188.039 108.393 187.939C108.498 187.838 108.623 187.76 108.759 187.71C108.896 187.659 109.041 187.637 109.186 187.644H109.261V187.161H109.186C109.001 187.158 108.816 187.195 108.646 187.269C108.476 187.343 108.324 187.452 108.199 187.59Z" fill="#263238"/>
<path d="M111.052 188.674C110.559 188.545 110.258 188.438 110.28 188.116C110.301 187.794 110.688 187.58 111.041 187.58C111.196 187.563 111.351 187.598 111.484 187.68C111.616 187.761 111.717 187.885 111.771 188.03V188.116L112.211 187.869V187.805C112.13 187.576 111.973 187.38 111.766 187.252C111.56 187.123 111.315 187.069 111.074 187.097C110.768 187.065 110.462 187.151 110.217 187.336C109.973 187.521 109.807 187.792 109.754 188.095C109.69 188.792 110.301 188.953 110.827 189.103C111.353 189.253 111.642 189.339 111.61 189.671C111.578 190.004 111.149 190.207 110.795 190.207C110.441 190.207 110.023 190.014 109.947 189.682V189.585L109.497 189.843V189.907C109.588 190.162 109.762 190.378 109.992 190.521C110.222 190.663 110.494 190.723 110.763 190.69C111.075 190.725 111.389 190.638 111.641 190.449C111.892 190.26 112.061 189.981 112.114 189.671C112.211 188.974 111.599 188.813 111.052 188.674Z" fill="#263238"/>
<path d="M86.9305 203.4L86.8554 204.333H86.1583L86.244 203.411C85.7238 203.415 85.2162 203.25 84.7981 202.941C84.38 202.631 84.0743 202.194 83.9273 201.694L85.4611 200.847C85.5147 201.069 85.6312 201.272 85.7967 201.43C85.9621 201.587 86.1696 201.694 86.3942 201.737L86.5229 200.279L86.3835 200.225C85.4933 199.85 84.4422 199.335 84.5602 197.908C84.6275 197.326 84.9037 196.788 85.3375 196.393C85.7714 195.999 86.3335 195.775 86.9198 195.763L86.9949 194.841H87.7349L87.6598 195.785C88.1001 195.82 88.5203 195.984 88.8676 196.257C89.2149 196.53 89.4738 196.899 89.6119 197.318L88.1103 198.155C88.0783 197.998 88.0061 197.853 87.9008 197.732C87.7955 197.612 87.6607 197.521 87.5097 197.469L87.381 198.895C88.2712 199.292 89.5261 199.635 89.3545 201.19C89.2892 201.791 89.0068 202.347 88.5604 202.754C88.114 203.16 87.5344 203.39 86.9305 203.4ZM86.6195 198.498L86.716 197.426C86.584 197.444 86.4619 197.505 86.3687 197.6C86.2755 197.696 86.2166 197.819 86.2012 197.951C86.1583 198.123 86.2655 198.294 86.6195 198.498ZM87.6062 201.169C87.6062 200.901 87.4882 200.74 87.1772 200.579L87.0806 201.716C87.2156 201.694 87.3397 201.628 87.4345 201.53C87.5292 201.431 87.5895 201.305 87.6062 201.169Z" fill="#263238"/>
<path d="M96.68 195.849L96.0365 203.271H94.3419L94.8353 197.64L93.4838 198.005L93.205 196.557L95.1999 195.849H96.68Z" fill="#263238"/>
<path d="M97.388 202.038L100.102 199.442C100.538 199.124 100.846 198.66 100.97 198.134C100.989 198.032 100.984 197.928 100.956 197.829C100.927 197.73 100.876 197.639 100.806 197.563C100.737 197.487 100.65 197.428 100.554 197.391C100.458 197.355 100.354 197.341 100.252 197.351C100.001 197.361 99.7578 197.442 99.5509 197.584C99.3441 197.726 99.1817 197.924 99.0826 198.155L97.7312 197.319C97.9747 196.828 98.3513 196.416 98.8179 196.13C99.2845 195.843 99.8223 195.694 100.37 195.699C100.684 195.674 100.999 195.718 101.294 195.828C101.589 195.939 101.856 196.113 102.076 196.338C102.296 196.563 102.464 196.834 102.568 197.131C102.671 197.429 102.708 197.745 102.676 198.059C102.533 198.979 102.046 199.811 101.314 200.386L99.9836 201.63H102.472L102.322 203.26H97.2807L97.388 202.038Z" fill="#263238"/>
<path d="M103.641 199.56C103.845 197.276 105.089 195.71 106.998 195.71C108.907 195.71 109.883 197.276 109.69 199.56C109.497 201.845 108.242 203.421 106.322 203.421C104.402 203.421 103.448 201.855 103.641 199.56ZM107.985 199.56C108.113 198.134 107.749 197.361 106.859 197.361C105.968 197.361 105.464 198.134 105.336 199.56C105.207 200.987 105.582 201.77 106.472 201.77C107.363 201.77 107.867 200.965 107.985 199.56Z" fill="#263238"/>
<path d="M93.2693 29.8499C93.2081 30.4616 92.9218 31.0286 92.4659 31.4409C92.01 31.8531 91.4171 32.0813 90.8024 32.0809H89.8264L89.6548 34.1187H88.1639L88.7324 27.6834H91.1993C91.4822 27.6734 91.7639 27.7234 92.0261 27.83C92.2882 27.9367 92.5249 28.0976 92.7204 28.3023C92.9159 28.5069 93.0659 28.7506 93.1605 29.0173C93.2551 29.2841 93.2922 29.5678 93.2693 29.8499ZM91.7892 29.8499C91.8067 29.7467 91.8011 29.6409 91.7727 29.5401C91.7444 29.4393 91.694 29.346 91.6253 29.267C91.5565 29.188 91.4712 29.1252 91.3752 29.0832C91.2793 29.0412 91.1752 29.021 91.0706 29.0241H90.0946L89.9551 30.6865H90.9312C91.1534 30.6814 91.3655 30.5922 91.5247 30.437C91.6839 30.2818 91.7784 30.072 91.7892 29.8499Z" fill="#263238"/>
<path d="M97.3451 33.0997H94.9318L94.5242 34.1723H92.894L95.6719 27.737H97.5703L99.2006 34.1723H97.581L97.3451 33.0997ZM97.0233 31.7054L96.4655 29.3243L95.5003 31.7054H97.0233Z" fill="#263238"/>
<path d="M102.719 31.6304L102.504 34.1187H101.013L101.238 31.6304L99.4043 27.6298H101.088L102.107 30.1288L103.566 27.6298H105.25L102.719 31.6304Z" fill="#263238"/>
<path d="M111.953 34.1187H110.462L110.795 30.3433L108.875 33.0998H108.682L107.234 30.3433L106.912 34.1187H105.464L106.033 27.6834H107.524L109.025 30.5685L111.042 27.6834H112.532L111.953 34.1187Z" fill="#263238"/>
<path d="M117.606 32.6922L117.477 34.1187H113.401L113.97 27.6834H118.002L117.874 29.1099H115.332L115.235 30.1824H117.552L117.423 31.5982H115.117L115.021 32.7458L117.606 32.6922Z" fill="#263238"/>
<path d="M124.395 27.6298L123.826 34.065H122.754L120.609 30.5471L120.298 34.065H118.807L119.375 27.6298H120.448L122.646 31.1584L122.957 27.6298H124.395Z" fill="#263238"/>
<path d="M129.919 29.0563H128.245L127.806 34.1187H126.315L126.765 29.0563H125.092L125.221 27.6298H130.047L129.919 29.0563Z" fill="#263238"/>
<path d="M130.133 32.6491L131.474 31.909C131.55 32.1845 131.721 32.4244 131.956 32.587C132.191 32.7497 132.476 32.8247 132.761 32.7992C133.469 32.7992 133.662 32.5311 133.683 32.2737C133.705 32.0163 133.361 31.716 132.418 31.4478C131.474 31.1797 130.573 30.7185 130.68 29.4744C130.747 28.9085 131.028 28.3895 131.464 28.0229C131.9 27.6563 132.46 27.4696 133.029 27.5009C133.511 27.4737 133.988 27.6003 134.393 27.8625C134.798 28.1247 135.109 28.5089 135.281 28.9595L133.962 29.6996C133.891 29.4736 133.748 29.2774 133.554 29.1416C133.36 29.0058 133.126 28.938 132.889 28.9488C132.428 28.9488 132.182 29.174 132.149 29.4315C132.117 29.6889 132.267 29.9356 133.222 30.2466C134.177 30.5576 135.249 30.8794 135.131 32.2522C134.988 32.7881 134.682 33.2664 134.256 33.6212C133.83 33.976 133.304 34.19 132.751 34.2335C132.198 34.277 131.645 34.148 131.169 33.8643C130.692 33.5805 130.315 33.1559 130.09 32.6491H130.133Z" fill="#263238"/>
<path d="M109.84 13.6971V13.2144C109.852 13.1066 109.842 12.9973 109.808 12.894C109.775 12.7907 109.72 12.6958 109.646 12.6155C109.573 12.5353 109.484 12.4716 109.384 12.4288C109.284 12.3859 109.177 12.3649 109.068 12.3671H101.271C101.04 12.3712 100.819 12.4596 100.649 12.6157C100.479 12.7719 100.372 12.9849 100.348 13.2144V13.6971H109.84Z" fill="#003087"/>
<path d="M100.262 14.684L99.9405 18.3628C99.9282 18.4707 99.9392 18.58 99.9726 18.6833C100.006 18.7866 100.061 18.8815 100.134 18.9618C100.207 19.042 100.297 19.1057 100.397 19.1485C100.496 19.1914 100.604 19.2124 100.713 19.2102H108.51C108.741 19.2061 108.962 19.1177 109.132 18.9615C109.302 18.8054 109.409 18.5924 109.433 18.3628L109.754 14.684H100.262Z" fill="#003087"/>
<path d="M125.543 19.21C119.794 21.6769 117.455 16.7539 111.717 19.21L112.307 12.3672C118.056 9.90035 120.394 14.834 126.132 12.3672L125.543 19.21Z" fill="#003087"/>
<path d="M120.952 15.7886C120.897 16.3388 120.641 16.8495 120.233 17.2233C119.826 17.5971 119.295 17.808 118.742 17.8158C118.483 17.8204 118.226 17.7697 117.987 17.667C117.749 17.5642 117.536 17.4118 117.361 17.2199C117.186 17.0281 117.055 16.8011 116.975 16.5543C116.895 16.3075 116.869 16.0465 116.898 15.7886C116.955 15.2394 117.211 14.73 117.618 14.3567C118.025 13.9833 118.555 13.7716 119.107 13.7615C119.366 13.7586 119.623 13.8105 119.86 13.9138C120.097 14.0171 120.31 14.1695 120.484 14.361C120.659 14.5525 120.79 14.7787 120.871 15.0248C120.952 15.2708 120.979 15.5312 120.952 15.7886Z" fill="white"/>
<path d="M170.772 67.2177C170.589 69.0109 169.756 70.675 168.43 71.8962C167.104 73.1173 165.377 73.8109 163.575 73.8461H52.2655C51.4178 73.8586 50.5772 73.6909 49.7992 73.3541C49.0213 73.0173 48.3238 72.5191 47.7529 71.8924C47.182 71.2657 46.7507 70.5249 46.4877 69.719C46.2246 68.9131 46.1357 68.0605 46.227 67.2177L46.8276 60.3855C47.0131 58.5943 47.8472 56.9327 49.1728 55.7138C50.4984 54.4949 52.224 53.8028 54.0245 53.7678H165.334C166.181 53.7555 167.021 53.923 167.798 54.2591C168.575 54.5953 169.272 55.0926 169.842 55.718C170.413 56.3435 170.845 57.083 171.109 57.8876C171.372 58.6921 171.462 59.5435 171.373 60.3855L170.772 67.2177Z" fill="white"/>
<path d="M167.168 108.489C166.981 110.283 166.145 111.946 164.818 113.166C163.491 114.387 161.763 115.081 159.961 115.118H48.6188C47.7708 115.13 46.9298 114.962 46.1513 114.626C45.3729 114.289 44.6748 113.791 44.103 113.165C43.5313 112.538 43.099 111.797 42.8347 110.992C42.5703 110.186 42.48 109.333 42.5696 108.489L43.1702 101.657C43.3604 99.866 44.1974 98.2056 45.5243 96.9873C46.8512 95.769 48.5769 95.0765 50.3778 95.0396H161.72C162.567 95.0273 163.406 95.1947 164.183 95.5309C164.96 95.8671 165.657 96.3643 166.228 96.9898C166.799 97.6153 167.23 98.3547 167.494 99.1593C167.758 99.9639 167.848 100.815 167.758 101.657L167.168 108.489Z" fill="white"/>
<path d="M164.208 142.243C164.022 144.034 163.188 145.696 161.863 146.915C160.537 148.134 158.812 148.826 157.011 148.861H45.7123C44.8647 148.874 44.0239 148.708 43.2455 148.373C42.4671 148.037 41.7688 147.54 41.1969 146.915C40.625 146.289 40.1925 145.549 39.9281 144.743C39.6637 143.938 39.5733 143.086 39.6631 142.243L40.2637 135.411C40.4512 133.619 41.2856 131.958 42.6105 130.738C43.9354 129.517 45.6598 128.822 47.4605 128.782H158.77C159.618 128.77 160.458 128.938 161.236 129.274C162.014 129.611 162.712 130.109 163.283 130.736C163.854 131.363 164.285 132.104 164.548 132.909C164.811 133.715 164.9 134.568 164.808 135.411L164.208 142.243Z" fill="white"/>
<path d="M49.2945 45.7667H51.8365L51.8901 45.1983H49.3481L49.5197 43.2034H52.2655L52.3084 42.6456H48.9834L48.4793 48.373H51.8472L51.9008 47.8045H49.1229L49.2945 45.7667Z" fill="#263238"/>
<path d="M57.4138 44.147C57.1434 44.146 56.8768 44.2098 56.6361 44.3329C56.3954 44.4561 56.1876 44.635 56.0302 44.8548C55.9266 44.6303 55.7574 44.4424 55.5448 44.3161C55.3323 44.1897 55.0864 44.1307 54.8396 44.147C54.6036 44.1466 54.3702 44.1973 54.1555 44.2954C53.9408 44.3935 53.7498 44.5367 53.5955 44.7154V44.2328H53.0378L52.6731 48.3728H53.2308L53.4346 46.0668C53.5311 45.0586 54.1532 44.694 54.7109 44.694C55.2687 44.694 55.6012 45.0801 55.5475 45.7665L55.3223 48.3728H55.88L56.0838 46.0668C56.1589 45.1981 56.6094 44.694 57.3065 44.694C58.0037 44.694 58.2504 45.0908 58.186 45.7665L57.9608 48.3728H58.5292L58.7545 45.7665C58.7966 45.5687 58.7934 45.3639 58.7452 45.1675C58.6969 44.9711 58.6049 44.7882 58.4759 44.6324C58.347 44.4766 58.1844 44.352 58.0005 44.268C57.8165 44.1839 57.616 44.1425 57.4138 44.147Z" fill="#263238"/>
<path d="M63.5596 44.9299C63.3884 44.6779 63.1557 44.4737 62.8835 44.3367C62.6114 44.1997 62.3088 44.1344 62.0044 44.1469C61.4196 44.1525 60.8577 44.375 60.4276 44.7714C59.9976 45.1677 59.7301 45.7096 59.6769 46.2921C59.6446 46.5652 59.6713 46.842 59.7553 47.1039C59.8392 47.3658 59.9784 47.6066 60.1635 47.81C60.3486 48.0134 60.5753 48.1746 60.8281 48.2828C61.081 48.3911 61.3541 48.4437 61.629 48.4372C61.9531 48.4415 62.2739 48.3723 62.5674 48.2348C62.8609 48.0974 63.1195 47.8952 63.3236 47.6435L63.2593 48.3514H63.8385L64.1924 44.2113H63.6347L63.5596 44.9299ZM61.7148 47.9116C61.508 47.9177 61.3024 47.8792 61.1119 47.7985C60.9214 47.7178 60.7506 47.597 60.611 47.4443C60.4715 47.2915 60.3667 47.1105 60.3036 46.9135C60.2405 46.7165 60.2206 46.5082 60.2454 46.3028C60.2876 45.8664 60.4893 45.461 60.8119 45.1641C61.1345 44.8672 61.5553 44.6998 61.9937 44.6939C62.1992 44.6892 62.4033 44.7288 62.592 44.8103C62.7807 44.8917 62.9497 45.013 63.0872 45.1658C63.2247 45.3186 63.3276 45.4993 63.3887 45.6955C63.4499 45.8918 63.468 46.0989 63.4416 46.3028C63.4044 46.7373 63.2072 47.1425 62.8881 47.4398C62.569 47.7371 62.1509 47.9052 61.7148 47.9116Z" fill="#263238"/>
<path d="M65.0719 48.3728H65.6403L65.9942 44.2328H65.4365L65.0719 48.3728Z" fill="#263238"/>
<path d="M65.8549 42.6456C65.7472 42.6478 65.644 42.6893 65.5649 42.7625C65.4858 42.8356 65.4364 42.9352 65.4259 43.0424C65.4196 43.0933 65.4245 43.1449 65.4401 43.1937C65.4558 43.2425 65.4819 43.2873 65.5165 43.325C65.5512 43.3628 65.5937 43.3925 65.641 43.4123C65.6883 43.432 65.7393 43.4412 65.7906 43.4392C65.8983 43.4371 66.0015 43.3955 66.0805 43.3224C66.1596 43.2493 66.2091 43.1496 66.2196 43.0424C66.2241 42.9919 66.218 42.941 66.2017 42.893C66.1853 42.845 66.1592 42.8009 66.1249 42.7635C66.0905 42.7262 66.0488 42.6964 66.0023 42.6761C65.9558 42.6558 65.9056 42.6454 65.8549 42.6456Z" fill="#263238"/>
<path d="M67.3779 42.4095L66.8631 48.3729H67.4208L67.9464 42.4095H67.3779Z" fill="#263238"/>
<path d="M47.4819 82.3835H45.5084L45.0043 88.1109H45.5942L45.7765 85.9658H47.1708C47.6654 85.97 48.1432 85.7863 48.5075 85.4518C48.8718 85.1173 49.0956 84.657 49.1337 84.1639C49.1621 83.9343 49.1399 83.7013 49.0688 83.4811C48.9977 83.261 48.8793 83.059 48.722 82.8894C48.5646 82.7198 48.3721 82.5866 48.1579 82.4992C47.9437 82.4118 47.713 82.3723 47.4819 82.3835ZM47.2138 85.4295H45.8301L46.0447 82.9412H47.4283C47.5892 82.931 47.7504 82.9572 47.8998 83.0179C48.0492 83.0786 48.183 83.1723 48.2912 83.2918C48.3995 83.4114 48.4793 83.5538 48.5249 83.7085C48.5705 83.8632 48.5806 84.0262 48.5545 84.1854C48.5325 84.5249 48.3813 84.8431 48.1319 85.0745C47.8825 85.3059 47.554 85.433 47.2138 85.4295Z" fill="#263238"/>
<path d="M53.4024 84.668C53.2311 84.416 52.9985 84.2118 52.7263 84.0748C52.4542 83.9378 52.1516 83.8725 51.8472 83.885C51.2624 83.8906 50.7005 84.1131 50.2705 84.5094C49.8404 84.9058 49.5729 85.4477 49.5198 86.0301C49.4874 86.3032 49.5142 86.5801 49.5981 86.842C49.6821 87.1038 49.8213 87.3446 50.0064 87.548C50.1915 87.7514 50.4181 87.9127 50.6709 88.0209C50.9238 88.1291 51.1969 88.1817 51.4718 88.1752C51.7953 88.1757 52.1149 88.1048 52.4078 87.9676C52.7007 87.8304 52.9597 87.6303 53.1664 87.3815L53.1021 88.0894H53.6705L54.0352 83.9494H53.4667L53.4024 84.668ZM51.5469 87.6497C51.341 87.6542 51.1365 87.6145 50.9474 87.5331C50.7582 87.4518 50.5887 87.3307 50.4504 87.1781C50.3121 87.0256 50.2081 86.8451 50.1457 86.6489C50.0832 86.4526 50.0636 86.2453 50.0882 86.0408C50.1279 85.6054 50.3274 85.2001 50.6483 84.903C50.9691 84.6059 51.3885 84.4382 51.8257 84.432C52.0316 84.4275 52.2361 84.4672 52.4253 84.5486C52.6144 84.6299 52.7839 84.751 52.9222 84.9035C53.0606 85.0561 53.1645 85.2366 53.227 85.4328C53.2895 85.629 53.3091 85.8364 53.2844 86.0408C53.247 86.4772 53.0482 86.8839 52.7269 87.1814C52.4056 87.4789 51.9848 87.6459 51.5469 87.6497Z" fill="#263238"/>
<path d="M56.5342 85.7728C56.0087 85.6441 55.5582 85.5261 55.5904 85.0971C55.6565 84.9149 55.7744 84.7559 55.9294 84.6396C56.0845 84.5234 56.2701 84.4548 56.4635 84.4423C56.6569 84.4297 56.8498 84.4738 57.0185 84.5692C57.1873 84.6645 57.3246 84.8069 57.4137 84.9791V85.0756L57.9178 84.7967V84.7324C57.8159 84.463 57.6287 84.2344 57.3847 84.0814C57.1406 83.9284 56.8533 83.8594 56.5664 83.8851C56.2031 83.8603 55.8442 83.9753 55.563 84.2067C55.2819 84.438 55.0998 84.768 55.0541 85.1292C54.979 85.9551 55.6976 86.1482 56.3412 86.3198C56.9847 86.4914 57.3279 86.5772 57.2957 87.0169C57.2635 87.4567 56.7273 87.6819 56.2983 87.6819C56.0722 87.7194 55.8401 87.6753 55.6436 87.5573C55.4471 87.4394 55.299 87.2555 55.2257 87.0384V86.9418L54.7109 87.2314V87.2958C54.8214 87.5964 55.0292 87.8515 55.3012 88.0205C55.5732 88.1896 55.8939 88.2629 56.2124 88.2289C56.585 88.2725 56.9601 88.1709 57.2597 87.9452C57.5593 87.7195 57.7604 87.387 57.8213 87.0169C57.9071 86.1374 57.1992 85.9444 56.5342 85.7728Z" fill="#263238"/>
<path d="M60.3525 85.7729C59.827 85.6442 59.3765 85.5262 59.4087 85.0972C59.4749 84.915 59.5927 84.7561 59.7478 84.6398C59.9028 84.5235 60.0884 84.4549 60.2818 84.4424C60.4752 84.4299 60.6681 84.474 60.8368 84.5693C61.0056 84.6646 61.1429 84.8071 61.232 84.9792V85.0757L61.7361 84.7969V84.7325C61.6313 84.4652 61.4434 84.2386 61.2001 84.086C60.9568 83.9335 60.671 83.8631 60.3847 83.8852C60.0216 83.8537 59.6601 83.9614 59.3733 84.1864C59.0866 84.4114 58.896 84.737 58.8402 85.0972C58.7652 85.923 59.4945 86.1161 60.1273 86.2877C60.7601 86.4593 61.1248 86.5451 61.0819 86.9848C61.039 87.4246 60.5134 87.6498 60.0844 87.6498C59.8583 87.6873 59.6263 87.6432 59.4298 87.5253C59.2333 87.4074 59.0851 87.2234 59.0119 87.0063V86.9098L58.497 87.1994V87.2637C58.6075 87.5643 58.8153 87.8194 59.0874 87.9885C59.3594 88.1575 59.6801 88.2308 59.9986 88.1968C60.3711 88.2404 60.7462 88.1388 61.0458 87.9131C61.3454 87.6874 61.5465 87.355 61.6074 86.9848C61.7254 86.1375 60.9961 85.9445 60.3525 85.7729Z" fill="#263238"/>
<path d="M66.359 87.2314L65.5974 83.9709H65.0611L63.7312 87.2314L63.034 84.0245L63.0126 83.9709H62.4226L63.3557 88.0466L63.3665 88.1109H63.9242L65.2435 84.904L65.9943 88.0466L66.0157 88.1109H66.5734L68.2359 83.9709H67.646L66.359 87.2314Z" fill="#263238"/>
<path d="M70.8637 83.8853C70.2747 83.8877 69.7076 84.1083 69.2717 84.5045C68.8359 84.9006 68.5624 85.4443 68.5041 86.0304C68.4731 86.3059 68.5018 86.5849 68.5883 86.8483C68.6748 87.1117 68.8171 87.3534 69.0053 87.557C69.1936 87.7605 69.4235 87.9211 69.6794 88.0278C69.9353 88.1345 70.2112 88.1849 70.4883 88.1755C71.0762 88.1728 71.642 87.9518 72.0761 87.5554C72.5101 87.1591 72.7814 86.6155 72.8372 86.0304C72.8681 85.7558 72.8396 85.4777 72.7537 85.2151C72.6678 84.9525 72.5266 84.7113 72.3395 84.5079C72.1524 84.3046 71.9238 84.1438 71.6692 84.0363C71.4146 83.9289 71.1399 83.8774 70.8637 83.8853ZM70.5312 87.6499C70.3253 87.6545 70.1209 87.6147 69.9317 87.5334C69.7425 87.452 69.573 87.331 69.4347 87.1784C69.2964 87.0259 69.1924 86.8453 69.13 86.6491C69.0675 86.4529 69.0479 86.2456 69.0725 86.0411C69.1122 85.6057 69.3117 85.2003 69.6326 84.9033C69.9534 84.6062 70.3729 84.4384 70.8101 84.4323C71.016 84.4277 71.2204 84.4675 71.4096 84.5488C71.5988 84.6302 71.7683 84.7512 71.9066 84.9038C72.045 85.0563 72.1489 85.2368 72.2114 85.4331C72.2739 85.6293 72.2934 85.8366 72.2688 86.0411C72.2291 86.4765 72.0296 86.8819 71.7087 87.1789C71.3879 87.476 70.9684 87.6438 70.5312 87.6499Z" fill="#263238"/>
<path d="M74.521 84.5072L74.5747 83.9709H74.0062L73.6415 88.111H74.21L74.4031 85.8157C74.4016 85.6369 74.4359 85.4596 74.504 85.2943C74.5721 85.129 74.6725 84.9789 74.7994 84.853C74.9264 84.7271 75.0772 84.6278 75.243 84.5611C75.4089 84.4943 75.5864 84.4614 75.7652 84.4643H75.851L75.9046 83.9173H75.8188C75.5715 83.9076 75.3253 83.9559 75.1 84.0583C74.8746 84.1608 74.6764 84.3145 74.521 84.5072Z" fill="#263238"/>
<path d="M80.0984 82.3835L79.8946 84.6895C79.7266 84.4328 79.4952 84.2238 79.2227 84.0829C78.9502 83.9419 78.646 83.8738 78.3394 83.8851C77.7546 83.8906 77.1927 84.1131 76.7627 84.5095C76.3326 84.9058 76.0651 85.4477 76.012 86.0301C75.9796 86.3032 76.0064 86.5801 76.0903 86.842C76.1743 87.1039 76.3135 87.3447 76.4986 87.5481C76.6837 87.7515 76.9103 87.9127 77.1631 88.0209C77.4159 88.1291 77.6891 88.1817 77.964 88.1752C78.2889 88.1783 78.6103 88.1074 78.9039 87.9681C79.1975 87.8287 79.4556 87.6245 79.6586 87.3708L79.5943 88.0894H80.1627L80.6561 82.362L80.0984 82.3835ZM78.0391 87.6497C77.8327 87.6561 77.6274 87.6175 77.4373 87.5368C77.2473 87.456 77.077 87.335 76.9383 87.182C76.7996 87.029 76.6958 86.8478 76.634 86.6508C76.5722 86.4537 76.5539 86.2457 76.5804 86.0409C76.6178 85.6045 76.8166 85.1978 77.1379 84.9003C77.4593 84.6028 77.88 84.4358 78.318 84.4321C78.5238 84.4275 78.7283 84.4673 78.9175 84.5486C79.1066 84.63 79.2761 84.751 79.4145 84.9036C79.5528 85.0561 79.6567 85.2366 79.7192 85.4328C79.7817 85.6291 79.8012 85.8364 79.7766 86.0409C79.7369 86.4763 79.5374 86.8816 79.2166 87.1787C78.8957 87.4758 78.4763 87.6435 78.0391 87.6497Z" fill="#263238"/>
<path d="M62.1116 139.754C61.9307 140.04 61.6805 140.276 61.3842 140.439C61.0879 140.602 60.7552 140.688 60.4169 140.688C60.1627 140.698 59.9093 140.652 59.6745 140.554C59.4397 140.456 59.2291 140.307 59.0575 140.119C58.8859 139.931 58.7574 139.708 58.681 139.466C58.6046 139.223 58.5821 138.966 58.6151 138.714C58.6583 138.175 58.9032 137.673 59.3009 137.307C59.6986 136.941 60.2198 136.739 60.7602 136.741C61.0747 136.73 61.3855 136.811 61.6556 136.973C61.9256 137.134 62.1435 137.37 62.2832 137.652V137.727L62.7551 137.47V137.395C62.5706 137.039 62.2899 136.741 61.9449 136.536C61.5998 136.332 61.2042 136.228 60.803 136.236C60.1224 136.234 59.4658 136.487 58.9631 136.946C58.4605 137.405 58.1487 138.036 58.0895 138.714C58.0403 139.033 58.0636 139.358 58.1575 139.667C58.2515 139.975 58.4137 140.258 58.6322 140.495C58.8507 140.732 59.1198 140.917 59.4195 141.036C59.7192 141.154 60.0418 141.204 60.3633 141.181C60.7892 141.176 61.2074 141.067 61.5813 140.863C61.9553 140.659 62.2736 140.367 62.5084 140.012V139.937L62.0794 139.679L62.1116 139.754Z" fill="#263238"/>
<path d="M66.4554 138.199C66.3093 137.996 66.1155 137.832 65.891 137.722C65.6665 137.612 65.4183 137.558 65.1683 137.567C64.6753 137.57 64.2016 137.758 63.8403 138.094C63.479 138.429 63.2564 138.888 63.2162 139.379C63.1884 139.609 63.2104 139.842 63.2807 140.062C63.3511 140.283 63.4681 140.485 63.6239 140.656C63.7796 140.827 63.9704 140.963 64.1833 141.053C64.3961 141.144 64.626 141.187 64.8573 141.181C65.1204 141.182 65.3806 141.126 65.6209 141.019C65.8612 140.912 66.0762 140.755 66.2516 140.559L66.198 141.117H66.7021L67.0024 137.642H66.4983L66.4554 138.199ZM64.9216 140.698C64.7524 140.703 64.5843 140.671 64.4286 140.604C64.273 140.538 64.1334 140.438 64.0195 140.313C63.9055 140.188 63.8198 140.04 63.7682 139.879C63.7166 139.718 63.7003 139.547 63.7203 139.379C63.7522 139.019 63.917 138.683 64.1826 138.437C64.4482 138.191 64.7957 138.053 65.1576 138.049C65.3269 138.046 65.4948 138.08 65.65 138.148C65.8052 138.215 65.944 138.316 66.057 138.442C66.1699 138.568 66.2544 138.717 66.3046 138.879C66.3549 139.041 66.3697 139.211 66.3481 139.379C66.3162 139.737 66.1526 140.07 65.889 140.314C65.6254 140.557 65.2806 140.695 64.9216 140.698Z" fill="#263238"/>
<path d="M68.5255 138.06V137.642H68.0322L67.7318 141.117H68.2252L68.3968 139.186C68.3968 138.902 68.5098 138.629 68.711 138.428C68.9121 138.227 69.1849 138.114 69.4694 138.114H69.5552V137.631H69.4694C69.2913 137.635 69.1158 137.675 68.9535 137.749C68.7913 137.823 68.6457 137.928 68.5255 138.06Z" fill="#263238"/>
<path d="M73.2017 136.312L73.0408 138.21C72.898 138.003 72.7051 137.835 72.4801 137.723C72.255 137.61 72.0052 137.556 71.7537 137.566C71.2608 137.57 70.787 137.758 70.4257 138.094C70.0645 138.429 69.8418 138.888 69.8017 139.379C69.7721 139.608 69.7926 139.841 69.8616 140.061C69.9307 140.282 70.0466 140.485 70.2016 140.656C70.3565 140.827 70.5468 140.963 70.7592 141.053C70.9716 141.144 71.2011 141.188 71.432 141.181C71.6982 141.185 71.9619 141.13 72.2046 141.02C72.4474 140.911 72.6632 140.75 72.837 140.548L72.7834 141.117H73.2875L73.7058 136.312H73.2017ZM71.4963 140.698C71.3271 140.703 71.159 140.67 71.0033 140.604C70.8477 140.538 70.7082 140.438 70.5942 140.313C70.4803 140.188 70.3946 140.04 70.343 139.879C70.2913 139.718 70.275 139.547 70.295 139.379C70.3269 139.019 70.4917 138.683 70.7573 138.437C71.0229 138.191 71.3704 138.053 71.7323 138.049C71.9025 138.045 72.0717 138.077 72.2282 138.144C72.3847 138.211 72.5248 138.311 72.6389 138.438C72.7531 138.564 72.8385 138.714 72.8894 138.876C72.9402 139.039 72.9553 139.21 72.9336 139.379C72.8992 139.738 72.7333 140.071 72.4679 140.314C72.2026 140.558 71.8565 140.695 71.4963 140.698Z" fill="#263238"/>
<path d="M57.9715 61.8335C57.7011 61.8326 57.4345 61.8963 57.1938 62.0195C56.9531 62.1426 56.7453 62.3216 56.5879 62.5414C56.4874 62.3168 56.3204 62.1284 56.1094 62.0018C55.8984 61.8752 55.6536 61.8164 55.4081 61.8335C55.1714 61.8295 54.9369 61.8785 54.7216 61.9768C54.5063 62.0752 54.3158 62.2204 54.1639 62.402V61.9193H53.5955L53.2308 66.0594H53.7992L54.003 63.7534C54.0888 62.7345 54.7109 62.3805 55.2687 62.3805C55.8264 62.3805 56.1696 62.7666 56.1053 63.4531L55.88 66.0594H56.4485L56.6415 63.7534C56.7166 62.8846 57.1671 62.3805 57.875 62.3805C58.5829 62.3805 58.8081 62.7773 58.7545 63.4531L58.5292 66.0594H59.087L59.3122 63.4531C59.3565 63.255 59.3549 63.0495 59.3075 62.8522C59.2601 62.6549 59.1682 62.471 59.0388 62.3147C58.9094 62.1584 58.7459 62.0338 58.5609 61.9503C58.376 61.8669 58.1743 61.827 57.9715 61.8335Z" fill="#263238"/>
<path d="M61.8005 65.3193L60.5563 61.9193H59.945L61.4466 66.0486L61.3608 66.2202C61.1784 66.5741 60.7816 67.1533 60.1809 67.0997H60.0951L60.0415 67.636H60.2238C60.5921 67.5984 60.9426 67.4591 61.2362 67.2337C61.5298 67.0083 61.7549 66.7057 61.8863 66.3596L64.0315 61.9086H63.4308L61.8005 65.3193Z" fill="#263238"/>
<path d="M66.4661 61.8334C65.8785 61.829 65.3111 62.0482 64.879 62.4465C64.4468 62.8448 64.1822 63.3924 64.1387 63.9785C64.1021 64.2551 64.1268 64.5363 64.2112 64.8023C64.2956 65.0682 64.4376 65.3123 64.627 65.5171C64.8165 65.7219 65.0487 65.8824 65.3073 65.9873C65.5658 66.0921 65.8443 66.1387 66.1229 66.1236C66.4911 66.1353 66.8565 66.0551 67.186 65.8903C67.5156 65.7256 67.7989 65.4814 68.0105 65.1798L68.0642 65.1154L67.5923 64.8151L67.5386 64.8902C67.3889 65.1112 67.1852 65.2903 66.9468 65.4105C66.7084 65.5306 66.4432 65.5878 66.1765 65.5766C65.9927 65.5897 65.8081 65.5656 65.6338 65.5059C65.4595 65.4461 65.299 65.3519 65.1619 65.2288C65.0248 65.1057 64.9139 64.9562 64.8358 64.7893C64.7576 64.6224 64.7139 64.4415 64.7072 64.2574H68.2894V64.1716C68.2894 64.1716 68.2894 64.1072 68.2894 64.0858C68.2941 64.0502 68.2941 64.0141 68.2894 63.9785C68.3293 63.7147 68.3121 63.4454 68.2391 63.1887C68.1661 62.9321 68.0389 62.6941 67.8661 62.4908C67.6933 62.2875 67.4789 62.1236 67.2374 62.0102C66.9959 61.8968 66.7329 61.8365 66.4661 61.8334ZM66.4661 62.3804C66.6434 62.3759 66.8197 62.4076 66.9843 62.4734C67.149 62.5393 67.2985 62.6378 67.4239 62.7632C67.5493 62.8886 67.6479 63.0382 67.7137 63.2028C67.7795 63.3675 67.8112 63.5438 67.8068 63.7211H64.7072C64.7881 63.3306 65.005 62.9815 65.3193 62.736C65.6335 62.4905 66.0247 62.3644 66.4232 62.3804H66.4661Z" fill="#263238"/>
<path d="M73.8024 61.8335C73.532 61.8326 73.2653 61.8963 73.0246 62.0195C72.7839 62.1426 72.5762 62.3216 72.4187 62.5414C72.3151 62.3168 72.1459 62.129 71.9333 62.0026C71.7208 61.8762 71.4749 61.8173 71.2281 61.8335C70.9917 61.831 70.7577 61.8806 70.5426 61.9789C70.3276 62.0772 70.1369 62.2216 69.984 62.4019V61.9193H69.4262L69.0616 66.0594H69.6193L69.8231 63.7534C69.9196 62.7344 70.5417 62.3805 71.0994 62.3805C71.6572 62.3805 71.9897 62.7666 71.9361 63.453L71.7108 66.0594H72.2685L72.4723 63.7534C72.5474 62.8846 72.9979 62.3805 73.6951 62.3805C74.3923 62.3805 74.639 62.7773 74.5746 63.453L74.3493 66.0594H74.9178L75.1431 63.453C75.1852 63.2552 75.182 63.0505 75.1337 62.8541C75.0855 62.6577 74.9935 62.4747 74.8645 62.3189C74.7355 62.1631 74.573 62.0386 74.389 61.9545C74.2051 61.8704 74.0045 61.8291 73.8024 61.8335Z" fill="#263238"/>
<path d="M79.9482 62.6057C79.7769 62.3537 79.5443 62.1495 79.2721 62.0125C79 61.8755 78.6974 61.8102 78.393 61.8227C77.8082 61.8283 77.2463 62.0508 76.8163 62.4471C76.3862 62.8435 76.1187 63.3854 76.0656 63.9678C76.0332 64.2409 76.06 64.5178 76.1439 64.7797C76.2279 65.0415 76.3671 65.2823 76.5522 65.4857C76.7373 65.6891 76.9639 65.8504 77.2167 65.9586C77.4696 66.0668 77.7427 66.1194 78.0176 66.1129C78.3411 66.1134 78.6606 66.0425 78.9536 65.9053C79.2465 65.7682 79.5055 65.568 79.7122 65.3192L79.6479 66.0271H80.2163L80.581 61.8871H80.0125L79.9482 62.6057ZM78.0927 65.5874C77.8868 65.5919 77.6823 65.5522 77.4932 65.4708C77.304 65.3895 77.1345 65.2684 76.9962 65.1159C76.8579 64.9633 76.754 64.7828 76.6915 64.5866C76.629 64.3903 76.6094 64.183 76.634 63.9785C76.6762 63.5422 76.878 63.1367 77.2006 62.8399C77.5232 62.543 77.9439 62.3756 78.3823 62.3697C78.5878 62.3649 78.7919 62.4046 78.9806 62.486C79.1693 62.5675 79.3382 62.6887 79.4758 62.8415C79.6133 62.9943 79.7161 63.175 79.7773 63.3713C79.8385 63.5675 79.8565 63.7747 79.8302 63.9785C79.7954 64.4168 79.5977 64.8261 79.2761 65.1259C78.9545 65.4256 78.5323 65.5941 78.0927 65.5981V65.5874Z" fill="#263238"/>
<path d="M81.4604 66.0591H82.0289L82.3829 61.9191H81.8251L81.4604 66.0591Z" fill="#263238"/>
<path d="M82.2434 60.3318C82.1366 60.3312 82.0335 60.3705 81.9542 60.4419C81.8748 60.5133 81.825 60.6117 81.8143 60.7179C81.8082 60.7692 81.8131 60.8213 81.8287 60.8706C81.8443 60.92 81.8702 60.9654 81.9047 61.0039C81.9391 61.0425 81.9815 61.0733 82.0287 61.0942C82.076 61.1152 82.1273 61.1258 82.179 61.1254C82.2877 61.1207 82.391 61.0769 82.4698 61.002C82.5487 60.9271 82.5978 60.8262 82.608 60.7179C82.6126 60.6678 82.6065 60.6174 82.5901 60.5699C82.5737 60.5224 82.5474 60.479 82.5129 60.4425C82.4784 60.4059 82.4365 60.3772 82.39 60.3581C82.3436 60.339 82.2936 60.33 82.2434 60.3318Z" fill="#263238"/>
<path d="M83.2516 66.0593H83.8093L84.3349 60.0959H83.7664L83.2516 66.0593Z" fill="#263238"/>
<path d="M88.3034 61.0291C87.4928 61.0265 86.7111 61.3299 86.1145 61.8787C85.518 62.4275 85.1506 63.1813 85.0857 63.9893C85.0455 64.3792 85.0912 64.7731 85.2196 65.1434C85.3481 65.5137 85.5561 65.8513 85.8291 66.1325C86.1021 66.4137 86.4335 66.6316 86.7998 66.7709C87.1661 66.9102 87.5586 66.9675 87.9494 66.9388C88.4338 66.9502 88.9164 66.8777 89.3759 66.7243H89.4403V66.3489H89.333C88.9046 66.5089 88.4495 66.5853 87.9923 66.5742C87.6474 66.6034 87.3003 66.5557 86.9761 66.4345C86.6519 66.3133 86.3586 66.1216 86.1174 65.8732C85.8763 65.6249 85.6933 65.3261 85.5816 64.9985C85.47 64.6708 85.4325 64.3225 85.4718 63.9786C85.5382 63.272 85.8647 62.6152 86.3879 62.1357C86.9111 61.6561 87.5937 61.3879 88.3034 61.383C88.6209 61.3625 88.939 61.4129 89.2347 61.5305C89.5304 61.6482 89.7962 61.8301 90.0128 62.0632C90.2294 62.2963 90.3915 62.5746 90.4873 62.8781C90.583 63.1815 90.6101 63.5025 90.5665 63.8177C90.4914 64.665 90.1696 65.1691 89.6977 65.1691C89.2258 65.1691 89.2794 64.8259 89.3116 64.5363L89.4725 62.6808H88.9254V62.9597C88.8218 62.8478 88.6955 62.7593 88.5549 62.7001C88.4144 62.6409 88.2628 62.6124 88.1103 62.6164C87.7362 62.615 87.3753 62.7543 87.0991 63.0066C86.823 63.259 86.6517 63.6059 86.6195 63.9786C86.5974 64.1521 86.6136 64.3284 86.6668 64.4951C86.7199 64.6618 86.8089 64.8148 86.9274 64.9435C87.0459 65.0722 87.1911 65.1735 87.3528 65.2403C87.5145 65.307 87.6888 65.3376 87.8636 65.33C88.0412 65.3309 88.2171 65.2963 88.381 65.2281C88.545 65.16 88.6936 65.0597 88.8182 64.9332C88.8522 65.1197 88.9546 65.2869 89.1054 65.402C89.2561 65.517 89.4444 65.5717 89.6333 65.5552C90.1911 65.5552 90.8668 65.1048 90.9848 63.8177C91.023 63.4513 90.9808 63.081 90.8611 62.7326C90.7414 62.3842 90.5471 62.0661 90.2918 61.8006C90.0365 61.535 89.7262 61.3284 89.3828 61.1952C89.0394 61.0619 88.671 61.0052 88.3034 61.0291ZM88.7753 63.9893C88.7562 64.2159 88.6511 64.4266 88.4816 64.5782C88.3121 64.7298 88.0909 64.8107 87.8636 64.8045C87.757 64.8118 87.6501 64.7953 87.5507 64.7562C87.4512 64.717 87.3618 64.6562 87.2889 64.5781C87.2159 64.5 87.1613 64.4067 87.129 64.3048C87.0967 64.2029 87.0875 64.0952 87.1021 63.9893C87.1186 63.7608 87.2225 63.5474 87.3924 63.3936C87.5622 63.2398 87.7848 63.1573 88.0138 63.1634C88.1188 63.1607 88.2231 63.181 88.3194 63.2229C88.4158 63.2648 88.5017 63.3274 88.5712 63.4061C88.6408 63.4849 88.6922 63.5779 88.7219 63.6786C88.7516 63.7794 88.7588 63.8854 88.7431 63.9893H88.7753Z" fill="#263238"/>
<path d="M93.9879 61.8335C93.3987 61.824 92.8285 62.0414 92.3953 62.4407C91.962 62.84 91.6989 63.3906 91.6604 63.9786C91.6238 64.2552 91.6485 64.5364 91.7329 64.8023C91.8173 65.0683 91.9593 65.3123 92.1488 65.5171C92.3382 65.7219 92.5705 65.8825 92.829 65.9873C93.0876 66.0922 93.3661 66.1387 93.6447 66.1237C94.0125 66.1325 94.3768 66.0511 94.7059 65.8865C95.035 65.722 95.3187 65.4794 95.5323 65.1798V65.1155L95.0604 64.8152V64.8903C94.91 65.1106 94.7061 65.2891 94.4679 65.4091C94.2297 65.5292 93.9649 65.5868 93.6983 65.5767C93.5145 65.5898 93.3299 65.5657 93.1556 65.5059C92.9813 65.4462 92.8208 65.3519 92.6837 65.2288C92.5465 65.1057 92.4356 64.9563 92.3575 64.7894C92.2794 64.6225 92.2356 64.4416 92.2289 64.2574H95.8112V64.1716C95.8051 64.1434 95.8051 64.1141 95.8112 64.0858C95.8112 64.0858 95.8112 64.0108 95.8112 63.9786C95.8511 63.7148 95.8339 63.4455 95.7609 63.1888C95.6879 62.9322 95.5607 62.6942 95.3879 62.4909C95.2151 62.2876 95.0007 62.1237 94.7592 62.0103C94.5177 61.8969 94.2546 61.8366 93.9879 61.8335ZM93.9879 62.3805C94.3302 62.3833 94.6575 62.5213 94.8986 62.7644C95.1397 63.0074 95.2749 63.3359 95.2749 63.6783H92.2718C92.3601 63.3031 92.5744 62.9697 92.8789 62.7335C93.1834 62.4973 93.5597 62.3727 93.945 62.3805H93.9879Z" fill="#263238"/>
<path d="M101.313 61.8334C101.045 61.8324 100.779 61.8962 100.54 62.0195C100.301 62.1427 100.096 62.3217 99.9406 62.5413C99.8358 62.3177 99.6663 62.1307 99.4541 62.0045C99.2418 61.8783 98.9965 61.8187 98.75 61.8334C98.5134 61.8294 98.2789 61.8784 98.0636 61.9768C97.8483 62.0751 97.6578 62.2204 97.5059 62.4019V61.9192H96.9374L96.5835 66.0593H97.1412L97.345 63.7533C97.4308 62.7344 98.0529 62.3804 98.6106 62.3804C99.1683 62.3804 99.5116 62.7665 99.4579 63.453L99.222 66.0593H99.7904L99.9942 63.7533C100.069 62.8845 100.509 62.3804 101.217 62.3804C101.925 62.3804 102.161 62.7773 102.096 63.453L101.871 66.0593H102.429L102.665 63.453C102.707 63.2543 102.704 63.0485 102.655 62.8513C102.606 62.6541 102.513 62.4705 102.383 62.3145C102.253 62.1585 102.089 62.0342 101.904 61.9508C101.718 61.8675 101.517 61.8273 101.313 61.8334Z" fill="#263238"/>
<path d="M107.47 62.6057C107.299 62.3537 107.066 62.1495 106.794 62.0125C106.522 61.8755 106.219 61.8102 105.915 61.8227C105.33 61.8283 104.768 62.0508 104.338 62.4471C103.908 62.8435 103.641 63.3854 103.587 63.9678C103.555 64.2409 103.582 64.5178 103.666 64.7797C103.75 65.0415 103.889 65.2823 104.074 65.4857C104.259 65.6891 104.486 65.8504 104.739 65.9586C104.991 66.0668 105.265 66.1194 105.539 66.1129C105.863 66.1134 106.182 66.0425 106.475 65.9053C106.768 65.7682 107.027 65.568 107.234 65.3192L107.17 66.0271H107.738L108.103 61.8871H107.534L107.47 62.6057ZM105.615 65.5874C105.409 65.5919 105.204 65.5522 105.015 65.4708C104.826 65.3895 104.656 65.2684 104.518 65.1159C104.38 64.9633 104.276 64.7828 104.213 64.5866C104.151 64.3903 104.131 64.183 104.156 63.9785C104.196 63.5431 104.395 63.1378 104.716 62.8407C105.037 62.5436 105.456 62.3758 105.893 62.3697C106.099 62.3651 106.304 62.4049 106.493 62.4862C106.682 62.5676 106.852 62.6886 106.99 62.8412C107.128 62.9938 107.232 63.1743 107.295 63.3705C107.357 63.5667 107.377 63.7741 107.352 63.9785C107.315 64.4159 107.116 64.8238 106.795 65.1231C106.474 65.4224 106.053 65.5917 105.615 65.5981V65.5874Z" fill="#263238"/>
<path d="M109.754 60.3318C109.647 60.3332 109.544 60.3729 109.463 60.4437C109.383 60.5145 109.33 60.6117 109.315 60.7179C109.309 60.7692 109.313 60.8213 109.329 60.8706C109.345 60.92 109.371 60.9654 109.405 61.0039C109.44 61.0425 109.482 61.0733 109.529 61.0942C109.576 61.1152 109.628 61.1258 109.679 61.1254C109.79 61.1233 109.896 61.0806 109.977 61.0054C110.058 60.9303 110.109 60.8279 110.119 60.7179C110.124 60.6678 110.118 60.6174 110.101 60.5699C110.085 60.5224 110.059 60.479 110.024 60.4425C109.99 60.4059 109.948 60.3772 109.901 60.3581C109.855 60.339 109.805 60.33 109.754 60.3318Z" fill="#263238"/>
<path d="M108.982 66.0591H109.54L109.905 61.9191H109.347L108.982 66.0591Z" fill="#263238"/>
<path d="M110.763 66.0593H111.331L111.846 60.0959H111.288L110.763 66.0593Z" fill="#263238"/>
<path d="M112.972 65.2549C112.853 65.257 112.739 65.3031 112.652 65.3843C112.565 65.4655 112.511 65.576 112.5 65.6946C112.492 65.7506 112.497 65.8075 112.513 65.8615C112.53 65.9155 112.558 65.9653 112.596 66.0072C112.634 66.0491 112.68 66.0823 112.732 66.1042C112.784 66.1262 112.841 66.1365 112.897 66.1344C113.017 66.1325 113.133 66.0867 113.221 66.0058C113.31 65.9248 113.367 65.8141 113.38 65.6946C113.386 65.6381 113.38 65.5809 113.362 65.5269C113.344 65.473 113.315 65.4234 113.276 65.3817C113.238 65.34 113.19 65.3071 113.138 65.2852C113.085 65.2634 113.029 65.253 112.972 65.2549Z" fill="#263238"/>
<path d="M117.659 64.8151C117.509 65.0547 117.3 65.2522 117.052 65.3891C116.805 65.526 116.526 65.5979 116.243 65.5981C116.037 65.6042 115.831 65.5656 115.641 65.485C115.45 65.4043 115.279 65.2835 115.14 65.1307C115 64.978 114.895 64.797 114.832 64.6C114.769 64.403 114.749 64.1946 114.774 63.9893C114.809 63.5502 115.009 63.1405 115.333 62.8422C115.657 62.544 116.082 62.379 116.522 62.3804C116.787 62.3614 117.052 62.4255 117.279 62.564C117.506 62.7024 117.684 62.9082 117.788 63.1527V63.2385L118.281 62.9596V62.8953C118.142 62.5606 117.902 62.2776 117.594 62.0855C117.287 61.8933 116.927 61.8015 116.565 61.8227C115.974 61.8178 115.403 62.0359 114.966 62.4335C114.528 62.8311 114.257 63.379 114.206 63.9678C114.173 64.2437 114.2 64.5234 114.286 64.7877C114.372 65.0519 114.514 65.2944 114.703 65.4983C114.891 65.7023 115.122 65.8628 115.379 65.9689C115.636 66.0751 115.912 66.1242 116.19 66.1129C116.577 66.1139 116.957 66.0159 117.295 65.8281C117.633 65.6404 117.917 65.3692 118.12 65.0404V64.976L117.67 64.6971L117.659 64.8151Z" fill="#263238"/>
<path d="M121.177 61.8333C120.588 61.8358 120.021 62.0564 119.585 62.4525C119.149 62.8487 118.876 63.3924 118.818 63.9785C118.787 64.254 118.815 64.5329 118.902 64.7964C118.988 65.0598 119.131 65.3015 119.319 65.505C119.507 65.7086 119.737 65.8692 119.993 65.9759C120.249 66.0826 120.525 66.133 120.802 66.1236C121.389 66.1185 121.953 65.8967 122.387 65.5008C122.821 65.1049 123.093 64.5627 123.151 63.9785C123.181 63.7039 123.153 63.4258 123.067 63.1632C122.981 62.9005 122.84 62.6594 122.653 62.456C122.466 62.2527 122.237 62.0919 121.983 61.9844C121.728 61.877 121.453 61.8255 121.177 61.8333ZM120.845 65.598C120.639 65.6026 120.434 65.5628 120.245 65.4815C120.056 65.4001 119.887 65.2791 119.748 65.1265C119.61 64.9739 119.506 64.7934 119.443 64.5972C119.381 64.401 119.361 64.1936 119.386 63.9892C119.426 63.5537 119.625 63.1484 119.946 62.8513C120.267 62.5543 120.686 62.3865 121.124 62.3803C121.329 62.3758 121.534 62.4155 121.723 62.4969C121.912 62.5782 122.082 62.6993 122.22 62.8519C122.358 63.0044 122.462 63.1849 122.525 63.3811C122.587 63.5774 122.607 63.7847 122.582 63.9892C122.543 64.4246 122.343 64.8299 122.022 65.127C121.701 65.4241 121.282 65.5919 120.845 65.598Z" fill="#263238"/>
<path d="M128.653 61.8335C128.383 61.8326 128.116 61.8963 127.875 62.0195C127.634 62.1426 127.427 62.3216 127.269 62.5414C127.169 62.3168 127.002 62.1284 126.791 62.0018C126.58 61.8752 126.335 61.8164 126.09 61.8335C125.853 61.8287 125.618 61.8774 125.403 61.9758C125.187 62.0742 124.997 62.2198 124.845 62.402V61.9193H124.277L123.912 66.0594H124.481L124.684 63.7534C124.77 62.7345 125.392 62.3805 125.95 62.3805C126.508 62.3805 126.851 62.7666 126.787 63.4531L126.561 66.0594H127.119L127.323 63.7534C127.398 62.8846 127.849 62.3805 128.556 62.3805C129.264 62.3805 129.49 62.7773 129.436 63.4531L129.211 66.0594H129.768L129.994 63.4531C130.038 63.255 130.036 63.0495 129.989 62.8522C129.942 62.6549 129.85 62.471 129.72 62.3147C129.591 62.1584 129.427 62.0338 129.242 61.9503C129.057 61.8669 128.856 61.827 128.653 61.8335Z" fill="#263238"/>
<path d="M91.2636 138.189H90.7488L90.6308 139.647H88.7431L90.781 136.312H90.2125L88.1318 139.69L88.0889 140.141H90.5772L90.5021 141.117H91.0169L91.1027 140.141H91.6926L91.7356 139.647H91.1456L91.2636 138.189Z" fill="#263238"/>
<path d="M93.9986 138.199H93.2156L93.4302 136.816H95.5752V136.312H92.969L92.5936 138.757H93.9235C94.5992 138.757 94.9961 139.143 94.9961 139.744C94.9868 139.889 94.9482 140.03 94.8826 140.16C94.8171 140.289 94.7258 140.404 94.6145 140.498C94.5032 140.591 94.3741 140.661 94.235 140.702C94.096 140.744 93.9499 140.757 93.8056 140.741C93.5774 140.766 93.3481 140.706 93.1605 140.574C92.973 140.442 92.8401 140.246 92.7866 140.023V139.926L92.3147 140.183V140.248C92.4072 140.555 92.6028 140.821 92.8686 141.001C93.1343 141.18 93.4538 141.263 93.7734 141.235C94.2018 141.259 94.6233 141.118 94.9507 140.841C95.278 140.563 95.4863 140.17 95.5323 139.744C95.5649 139.534 95.5478 139.32 95.4824 139.119C95.417 138.917 95.3052 138.734 95.1559 138.584C95.0067 138.433 94.8241 138.32 94.6231 138.254C94.4221 138.187 94.2081 138.168 93.9986 138.199Z" fill="#263238"/>
<path d="M97.8062 138.199H97.0232L97.2377 136.816H99.3828V136.312H96.7658L96.3905 138.704H97.7204C98.3853 138.704 98.7929 139.09 98.7393 139.69C98.73 139.835 98.6914 139.977 98.6258 140.106C98.5603 140.236 98.469 140.351 98.3577 140.444C98.2464 140.537 98.1173 140.607 97.9783 140.649C97.8392 140.691 97.6931 140.704 97.5488 140.688C97.3122 140.727 97.0696 140.674 96.8704 140.541C96.6712 140.407 96.5303 140.203 96.4762 139.969V139.873L96.0043 140.13V140.194C96.0965 140.5 96.2905 140.764 96.5539 140.944C96.8174 141.123 97.1345 141.207 97.4522 141.181C97.8819 141.211 98.3063 141.072 98.6349 140.793C98.9635 140.515 99.1703 140.119 99.2112 139.69C99.2315 139.497 99.2097 139.301 99.1475 139.117C99.0853 138.933 98.984 138.764 98.8506 138.623C98.7172 138.481 98.5549 138.37 98.3746 138.297C98.1943 138.224 98.0004 138.191 97.8062 138.199Z" fill="#263238"/>
<path d="M101.603 138.199H100.82L101.035 136.816H103.18V136.312H100.573L100.187 138.704H101.517C102.193 138.704 102.59 139.09 102.536 139.69C102.527 139.835 102.488 139.977 102.423 140.106C102.357 140.236 102.266 140.351 102.155 140.444C102.043 140.537 101.914 140.607 101.775 140.649C101.636 140.691 101.49 140.704 101.346 140.688C101.117 140.712 100.888 140.653 100.701 140.521C100.513 140.388 100.38 140.192 100.327 139.969V139.873L99.8547 140.13V140.194C99.9472 140.502 100.143 140.767 100.409 140.947C100.674 141.127 100.994 141.21 101.313 141.181C101.742 141.206 102.163 141.065 102.491 140.787C102.818 140.51 103.026 140.117 103.072 139.69C103.094 139.491 103.071 139.29 103.005 139.1C102.939 138.911 102.832 138.739 102.691 138.596C102.551 138.454 102.38 138.344 102.192 138.275C102.004 138.207 101.802 138.181 101.603 138.199Z" fill="#263238"/>
<path d="M107.781 136.236C106.708 136.236 105.883 137.191 105.754 138.714C105.625 140.237 106.226 141.181 107.352 141.181C108.478 141.181 109.25 140.237 109.39 138.714C109.529 137.191 108.907 136.236 107.781 136.236ZM107.395 140.687C106.59 140.687 106.161 139.947 106.269 138.714C106.376 137.481 106.934 136.741 107.738 136.741C108.542 136.741 108.971 137.481 108.864 138.714C108.757 139.947 108.21 140.687 107.395 140.687Z" fill="#263238"/>
<path d="M112.232 136.236C111.159 136.236 110.334 137.191 110.205 138.714C110.076 140.237 110.688 141.181 111.803 141.181C112.918 141.181 113.701 140.237 113.841 138.714C113.98 137.191 113.358 136.236 112.232 136.236ZM111.899 140.687C111.095 140.687 110.677 139.947 110.827 138.714C110.977 137.481 111.481 136.741 112.286 136.741C113.09 136.741 113.519 137.481 113.412 138.714C113.305 139.947 112.661 140.687 111.899 140.687Z" fill="#263238"/>
<path d="M116.694 136.236C115.568 136.236 114.796 137.191 114.656 138.714C114.517 140.237 115.139 141.181 116.254 141.181C117.37 141.181 118.153 140.237 118.292 138.714C118.432 137.191 117.809 136.236 116.694 136.236ZM116.297 140.687C115.493 140.687 115.074 139.947 115.225 138.714C115.375 137.481 115.879 136.741 116.694 136.741C117.509 136.741 117.917 137.481 117.767 138.714C117.616 139.947 117.112 140.687 116.297 140.687Z" fill="#263238"/>
<path d="M121.145 136.236C120.019 136.236 119.246 137.191 119.107 138.714C118.968 140.237 119.59 141.181 120.716 141.181C121.842 141.181 122.614 140.237 122.743 138.714C122.872 137.191 122.26 136.236 121.145 136.236ZM120.759 140.687C119.944 140.687 119.525 139.947 119.633 138.714C119.74 137.481 120.287 136.741 121.102 136.741C121.917 136.741 122.325 137.481 122.175 138.714C122.024 139.947 121.552 140.687 120.759 140.687Z" fill="#263238"/>
<path d="M127.827 138.628C128.019 138.518 128.18 138.363 128.298 138.176C128.416 137.989 128.486 137.776 128.503 137.556C128.521 137.374 128.499 137.191 128.438 137.019C128.376 136.847 128.277 136.691 128.147 136.562C128.018 136.434 127.861 136.336 127.689 136.276C127.516 136.216 127.333 136.195 127.151 136.215C126.765 136.191 126.384 136.317 126.088 136.567C125.792 136.816 125.604 137.171 125.564 137.556C125.532 137.763 125.562 137.975 125.65 138.166C125.737 138.357 125.879 138.517 126.057 138.628C125.827 138.733 125.629 138.896 125.482 139.101C125.335 139.306 125.245 139.546 125.221 139.797C125.146 140.623 125.746 141.181 126.722 141.181C127.135 141.223 127.548 141.102 127.873 140.844C128.198 140.585 128.409 140.209 128.46 139.797C128.485 139.561 128.439 139.323 128.326 139.114C128.213 138.905 128.039 138.736 127.827 138.628ZM126.754 140.688C126.068 140.688 125.682 140.355 125.735 139.797C125.789 139.24 126.218 138.907 126.904 138.907C127.591 138.907 127.977 139.24 127.923 139.797C127.87 140.355 127.451 140.688 126.765 140.688H126.754ZM126.947 138.403C126.379 138.403 126.025 138.071 126.079 137.577C126.103 137.331 126.224 137.105 126.415 136.948C126.606 136.791 126.852 136.717 127.098 136.741C127.559 136.741 128.031 136.966 127.977 137.577C127.962 137.702 127.923 137.822 127.862 137.931C127.8 138.04 127.718 138.136 127.619 138.212C127.52 138.289 127.407 138.346 127.286 138.378C127.165 138.411 127.039 138.42 126.915 138.403H126.947Z" fill="#263238"/>
<path d="M131.785 138.628C131.975 138.518 132.135 138.362 132.251 138.175C132.367 137.988 132.435 137.775 132.45 137.556C132.468 137.375 132.446 137.193 132.385 137.022C132.324 136.851 132.226 136.695 132.098 136.567C131.969 136.439 131.814 136.34 131.643 136.28C131.472 136.219 131.29 136.197 131.109 136.215C130.723 136.191 130.342 136.317 130.046 136.567C129.75 136.816 129.562 137.171 129.522 137.556C129.489 137.762 129.517 137.974 129.603 138.164C129.689 138.355 129.828 138.516 130.004 138.628C129.776 138.733 129.579 138.897 129.434 139.102C129.289 139.307 129.201 139.547 129.178 139.798C129.103 140.623 129.704 141.181 130.669 141.181C131.082 141.224 131.495 141.103 131.82 140.844C132.145 140.585 132.356 140.21 132.407 139.798C132.437 139.562 132.393 139.324 132.281 139.114C132.17 138.905 131.996 138.735 131.785 138.628ZM130.712 140.688C130.026 140.688 129.64 140.355 129.64 139.798C129.64 139.24 130.133 138.907 130.819 138.907C131.506 138.907 131.892 139.24 131.838 139.798C131.785 140.355 131.399 140.688 130.712 140.688ZM130.916 138.403C130.348 138.403 129.994 138.071 130.036 137.577C130.061 137.331 130.182 137.105 130.373 136.948C130.564 136.791 130.809 136.717 131.055 136.741C131.517 136.741 131.988 136.966 131.935 137.577C131.908 137.821 131.786 138.045 131.595 138.199C131.404 138.354 131.16 138.427 130.916 138.403Z" fill="#263238"/>
<path d="M135.743 138.628C135.932 138.516 136.091 138.36 136.207 138.174C136.322 137.987 136.391 137.775 136.407 137.556C136.426 137.374 136.404 137.191 136.343 137.019C136.281 136.847 136.182 136.691 136.052 136.562C135.923 136.434 135.766 136.336 135.594 136.276C135.421 136.216 135.238 136.195 135.056 136.215C134.671 136.191 134.291 136.317 133.997 136.567C133.703 136.817 133.518 137.172 133.479 137.556C133.447 137.762 133.475 137.974 133.561 138.164C133.646 138.355 133.786 138.516 133.962 138.628C133.732 138.733 133.534 138.896 133.387 139.101C133.24 139.306 133.15 139.546 133.126 139.797C133.05 140.623 133.651 141.181 134.627 141.181C135.04 141.223 135.453 141.102 135.778 140.844C136.103 140.585 136.313 140.209 136.365 139.797C136.39 139.563 136.344 139.326 136.233 139.117C136.122 138.909 135.951 138.739 135.743 138.628ZM134.67 140.688C133.984 140.688 133.597 140.355 133.597 139.797C133.597 139.24 134.08 138.907 134.767 138.907C135.453 138.907 135.839 139.24 135.785 139.797C135.732 140.355 135.356 140.688 134.67 140.688ZM134.874 138.403C134.305 138.403 133.951 138.071 133.994 137.577C134.019 137.331 134.14 137.105 134.331 136.948C134.522 136.791 134.767 136.717 135.013 136.741C135.474 136.741 135.946 136.966 135.893 137.577C135.863 137.82 135.74 138.042 135.55 138.196C135.36 138.35 135.118 138.424 134.874 138.403Z" fill="#263238"/>
<path d="M139.69 138.628C139.879 138.516 140.04 138.361 140.157 138.174C140.275 137.987 140.346 137.775 140.365 137.556C140.384 137.374 140.362 137.191 140.3 137.019C140.239 136.847 140.14 136.691 140.01 136.562C139.88 136.434 139.724 136.336 139.551 136.276C139.379 136.216 139.195 136.195 139.014 136.215C138.627 136.191 138.247 136.317 137.951 136.567C137.655 136.816 137.467 137.171 137.426 137.556C137.394 137.762 137.422 137.974 137.508 138.164C137.593 138.355 137.733 138.516 137.909 138.628C137.682 138.735 137.486 138.899 137.342 139.104C137.197 139.309 137.108 139.548 137.083 139.797C137.008 140.623 137.609 141.181 138.574 141.181C138.983 141.224 139.394 141.108 139.719 140.856C140.045 140.604 140.261 140.237 140.322 139.83C140.355 139.588 140.312 139.343 140.198 139.128C140.085 138.912 139.907 138.738 139.69 138.628ZM138.617 140.688C137.941 140.688 137.544 140.355 137.609 139.797C137.673 139.24 138.091 138.907 138.778 138.907C139.464 138.907 139.85 139.24 139.797 139.797C139.743 140.355 139.303 140.688 138.617 140.688ZM138.821 138.403C138.252 138.403 137.898 138.071 137.941 137.577C137.953 137.45 137.99 137.327 138.052 137.215C138.113 137.103 138.196 137.005 138.297 136.927C138.397 136.848 138.513 136.792 138.636 136.759C138.759 136.727 138.888 136.721 139.014 136.741C139.464 136.741 139.936 136.966 139.883 137.577C139.869 137.702 139.831 137.823 139.77 137.933C139.709 138.043 139.627 138.139 139.527 138.216C139.428 138.293 139.315 138.35 139.193 138.382C139.072 138.414 138.945 138.421 138.821 138.403Z" fill="#263238"/>
<path d="M145.878 138.189H145.363L145.235 139.647H143.347L145.396 136.312H144.827L142.746 139.69L142.693 140.141H145.192L145.106 141.117H145.621L145.707 140.141H146.296L146.35 139.647H145.749L145.878 138.189Z" fill="#263238"/>
<path d="M150.018 138.189H149.503L149.375 139.647H147.487L149.536 136.312H148.967L146.886 139.69L146.833 140.141H149.332L149.246 141.117H149.761L149.847 140.141H150.447L150.49 139.647H149.89L150.018 138.189Z" fill="#263238"/>
<path d="M154.158 138.189H153.644L153.515 139.647H151.627L153.676 136.312H153.107L151.026 139.69L150.984 140.141H153.472L153.386 141.117H153.901L153.987 140.141H154.587L154.63 139.647H154.03L154.158 138.189Z" fill="#263238"/>
<path d="M158.17 139.647L158.298 138.189H157.783L157.655 139.647H155.778L157.816 136.312H157.247L155.166 139.69L155.124 140.141H157.612L157.526 141.117H158.041L158.137 140.141H158.727L158.77 139.647H158.17Z" fill="#263238"/>
<path d="M110.033 155.693C108.231 155.73 106.504 156.424 105.177 157.644C103.849 158.865 103.013 160.528 102.826 162.321L102.236 169.153C102.145 169.996 102.233 170.849 102.496 171.655C102.76 172.46 103.191 173.201 103.762 173.828C104.333 174.455 105.03 174.953 105.808 175.29C106.586 175.627 107.427 175.794 108.274 175.782H154.651C156.454 175.744 158.181 175.05 159.508 173.83C160.835 172.609 161.671 170.946 161.859 169.153L162.46 162.321C162.549 161.478 162.459 160.625 162.195 159.819C161.93 159.013 161.498 158.272 160.926 157.646C160.355 157.019 159.656 156.521 158.878 156.185C158.1 155.848 157.259 155.68 156.41 155.693H110.033Z" fill="white"/>
<path d="M97.5274 162.353C97.6186 161.51 97.5298 160.658 97.2667 159.852C97.0037 159.046 96.5724 158.305 96.0015 157.679C95.4306 157.052 94.7331 156.554 93.9551 156.217C93.1772 155.88 92.3365 155.712 91.4889 155.725H45.1116C43.3071 155.76 41.5775 156.452 40.2481 157.673C38.9188 158.894 38.0813 160.558 37.8933 162.353L37.3034 169.185C37.2122 170.028 37.301 170.881 37.5641 171.687C37.8271 172.493 38.2584 173.233 38.8293 173.86C39.4002 174.487 40.0977 174.985 40.8757 175.322C41.6536 175.659 42.4942 175.826 43.3419 175.814H89.7192C91.5218 175.777 93.2488 175.083 94.5759 173.862C95.9031 172.642 96.739 170.979 96.9267 169.185L97.5274 162.353Z" fill="white"/>
<path d="M41.4112 122.251H165.967C166.342 122.251 166.396 121.65 165.967 121.65H41.4648C41.0787 121.65 41.0251 122.251 41.4112 122.251Z" fill="#003087"/>
<path d="M36.1022 182.914H160.658C161.033 182.914 161.087 182.324 160.712 182.324H36.1558C35.7697 182.324 35.716 182.914 36.1022 182.914Z" fill="#003087"/>
<path d="M33.9569 207.4H158.513C158.899 207.4 158.942 206.8 158.566 206.8H34.0106C33.6245 206.8 33.5816 207.4 33.9569 207.4Z" fill="#003087"/>
<path d="M54.2926 136.73V136.247C54.3049 136.139 54.2939 136.03 54.2605 135.927C54.2271 135.824 54.1719 135.729 54.0988 135.648C54.0257 135.568 53.9362 135.504 53.8364 135.462C53.7367 135.419 53.6289 135.398 53.5204 135.4H45.7229C45.4921 135.404 45.2708 135.492 45.1009 135.649C44.9309 135.805 44.824 136.018 44.8005 136.247V136.73H54.2926Z" fill="#003087"/>
<path d="M44.7148 137.684L44.393 141.363C44.3807 141.471 44.3917 141.581 44.4251 141.684C44.4586 141.787 44.5137 141.882 44.5868 141.962C44.6599 142.043 44.7494 142.106 44.8492 142.149C44.9489 142.192 45.0567 142.213 45.1652 142.211H52.9627C53.1935 142.207 53.4148 142.118 53.5847 141.962C53.7547 141.806 53.8616 141.593 53.8852 141.363L54.2069 137.684H44.7148Z" fill="#003087"/>
<path d="M54.3464 105.079C54.2889 105.628 54.0325 106.137 53.6255 106.511C53.2186 106.884 52.6891 107.096 52.1369 107.106C51.8775 107.11 51.6201 107.06 51.3819 106.957C51.1437 106.854 50.9301 106.702 50.7555 106.51C50.5809 106.318 50.4492 106.091 50.3693 105.844C50.2894 105.597 50.2631 105.336 50.2921 105.079C50.3471 104.53 50.6013 104.021 51.0065 103.647C51.4117 103.274 51.9398 103.062 52.4908 103.051C52.7511 103.045 53.0097 103.095 53.2493 103.197C53.4888 103.299 53.7037 103.451 53.8795 103.643C54.0553 103.835 54.1879 104.063 54.2684 104.31C54.349 104.558 54.3755 104.82 54.3464 105.079Z" fill="#263238"/>
<path d="M62.841 105.079C62.786 105.627 62.5318 106.136 62.1266 106.51C61.7214 106.883 61.1932 107.095 60.6422 107.106C60.3824 107.11 60.1246 107.059 59.8859 106.957C59.6472 106.854 59.4331 106.702 59.2576 106.51C59.0822 106.319 58.9495 106.092 58.8683 105.845C58.7871 105.598 58.7593 105.337 58.7867 105.079C58.8419 104.528 59.0976 104.018 59.5051 103.644C59.9125 103.27 60.4433 103.059 60.9962 103.052C61.2556 103.047 61.513 103.098 61.7512 103.2C61.9894 103.303 62.203 103.455 62.3776 103.647C62.5522 103.839 62.6839 104.066 62.7638 104.313C62.8437 104.56 62.87 104.821 62.841 105.079Z" fill="#263238"/>
<path d="M71.3464 105.079C71.2889 105.628 71.0325 106.137 70.6256 106.511C70.2186 106.884 69.6892 107.096 69.137 107.106C68.8772 107.111 68.6194 107.06 68.3807 106.957C68.142 106.854 67.9279 106.702 67.7524 106.511C67.577 106.319 67.4443 106.092 67.3631 105.845C67.2819 105.599 67.254 105.337 67.2814 105.079C67.3389 104.53 67.5953 104.02 68.0023 103.647C68.4093 103.273 68.9387 103.062 69.4909 103.052C69.7512 103.046 70.0098 103.095 70.2493 103.197C70.4888 103.299 70.7037 103.451 70.8795 103.643C71.0553 103.836 71.188 104.063 71.2685 104.311C71.349 104.558 71.3756 104.82 71.3464 105.079Z" fill="#263238"/>
<path d="M79.841 105.079C79.7859 105.627 79.5318 106.136 79.1266 106.51C78.7214 106.883 78.1933 107.095 77.6422 107.106C77.3824 107.11 77.1246 107.059 76.8859 106.957C76.6472 106.854 76.4331 106.702 76.2576 106.51C76.0822 106.319 75.9495 106.092 75.8683 105.845C75.7871 105.598 75.7593 105.337 75.7867 105.079C75.8419 104.528 76.0976 104.018 76.5051 103.644C76.9125 103.27 77.4433 103.059 77.9962 103.052C78.2556 103.047 78.513 103.098 78.7512 103.2C78.9894 103.303 79.203 103.455 79.3776 103.647C79.5522 103.839 79.6839 104.066 79.7638 104.313C79.8437 104.56 79.87 104.821 79.841 105.079Z" fill="#263238"/>
<path d="M88.3032 105.079C88.2435 105.627 87.9865 106.135 87.58 106.508C87.1735 106.881 86.6453 107.093 86.0938 107.106C85.834 107.11 85.5762 107.06 85.3375 106.957C85.0989 106.854 84.8847 106.702 84.7093 106.51C84.5338 106.319 84.4011 106.092 84.3199 105.845C84.2387 105.598 84.2109 105.337 84.2383 105.079C84.2958 104.529 84.5522 104.02 84.9591 103.647C85.3661 103.273 85.8955 103.062 86.4477 103.051C86.708 103.045 86.9666 103.095 87.2061 103.197C87.4457 103.299 87.6606 103.451 87.8364 103.643C88.0122 103.835 88.1448 104.063 88.2253 104.31C88.3058 104.558 88.3324 104.82 88.3032 105.079Z" fill="#263238"/>
<path d="M96.8837 105.079C96.8262 105.628 96.5698 106.137 96.1628 106.511C95.7559 106.884 95.2264 107.096 94.6742 107.106C94.4153 107.109 94.1587 107.057 93.9213 106.954C93.6839 106.85 93.4711 106.698 93.2969 106.506C93.1226 106.315 92.9909 106.089 92.9103 105.843C92.8297 105.596 92.8022 105.336 92.8295 105.079C92.8847 104.528 93.1404 104.018 93.5478 103.644C93.9553 103.27 94.486 103.059 95.0389 103.052C95.2983 103.047 95.5557 103.098 95.7939 103.2C96.0321 103.303 96.2457 103.455 96.4203 103.647C96.5949 103.839 96.7266 104.066 96.8065 104.313C96.8864 104.56 96.9127 104.821 96.8837 105.079Z" fill="#263238"/>
<path d="M105.346 105.079C105.287 105.627 105.029 106.135 104.623 106.508C104.216 106.881 103.688 107.093 103.137 107.106C102.877 107.11 102.619 107.059 102.38 106.957C102.142 106.854 101.928 106.702 101.752 106.51C101.577 106.319 101.444 106.092 101.363 105.845C101.282 105.598 101.254 105.337 101.281 105.079C101.339 104.529 101.595 104.02 102.002 103.647C102.409 103.273 102.938 103.062 103.491 103.051C103.75 103.047 104.008 103.098 104.247 103.2C104.486 103.303 104.7 103.455 104.875 103.647C105.051 103.839 105.183 104.065 105.265 104.312C105.346 104.559 105.374 104.82 105.346 105.079Z" fill="#263238"/>
<path d="M47.5464 163.554H45.2297L45.3799 161.881H47.4928L47.5356 161.388H45.4227L45.5622 159.747H47.8467L47.8896 159.254H45.0903L44.672 164.059H47.5035L47.5464 163.554Z" fill="#263238"/>
<path d="M48.5974 164.059L49.7987 162.664L50.7533 164.059H51.3646L50.1419 162.257L51.5899 160.573H50.9785L49.863 161.871L49.005 160.616L48.9835 160.573H48.3615L49.5306 162.268L47.9861 164.059H48.5974Z" fill="#263238"/>
<path d="M55.7406 162.353C55.7685 162.124 55.7465 161.891 55.6761 161.67C55.6058 161.45 55.4887 161.247 55.333 161.076C55.1772 160.905 54.9864 160.77 54.7736 160.679C54.5607 160.589 54.3308 160.545 54.0996 160.551C53.834 160.548 53.5711 160.605 53.33 160.716C53.0888 160.827 52.8755 160.991 52.7053 161.195L52.7589 160.626H52.2549L51.8365 165.421H52.3299L52.5015 163.533C52.6455 163.738 52.839 163.904 53.0639 164.015C53.2889 164.125 53.5382 164.177 53.7886 164.166C54.2816 164.162 54.7553 163.974 55.1165 163.639C55.4778 163.303 55.7005 162.845 55.7406 162.353ZM54.0353 161.034C54.2053 161.028 54.3747 161.059 54.5316 161.125C54.6886 161.191 54.8295 161.29 54.9446 161.415C55.0597 161.54 55.1464 161.689 55.1986 161.851C55.2509 162.013 55.2674 162.184 55.2472 162.353C55.2153 162.714 55.0506 163.05 54.785 163.295C54.5194 163.541 54.1719 163.679 53.81 163.683C53.6394 163.688 53.4699 163.655 53.313 163.588C53.1561 163.521 53.0153 163.421 52.9004 163.295C52.7854 163.169 52.699 163.02 52.6468 162.857C52.5946 162.695 52.578 162.523 52.598 162.353C52.6223 161.987 52.7837 161.643 53.0501 161.391C53.3165 161.138 53.6683 160.996 54.0353 160.991V161.034Z" fill="#263238"/>
<path d="M57.2314 160.573H56.7273L56.427 164.059H56.9204L57.2314 160.573Z" fill="#263238"/>
<path d="M57.0919 159.254C56.9991 159.258 56.9106 159.295 56.842 159.357C56.7734 159.42 56.729 159.505 56.7165 159.597C56.7119 159.641 56.7168 159.686 56.731 159.728C56.7453 159.771 56.7684 159.809 56.799 159.842C56.8295 159.875 56.8667 159.9 56.908 159.917C56.9493 159.934 56.9937 159.942 57.0383 159.94C57.1319 159.938 57.2215 159.902 57.2905 159.839C57.3596 159.776 57.4034 159.69 57.4137 159.597C57.4167 159.553 57.4105 159.509 57.3957 159.467C57.3808 159.426 57.3576 159.388 57.3274 159.355C57.2972 159.323 57.2608 159.298 57.2203 159.28C57.1797 159.263 57.1361 159.254 57.0919 159.254Z" fill="#263238"/>
<path d="M58.6365 162.128C58.6364 161.983 58.6658 161.839 58.723 161.705C58.7802 161.571 58.864 161.45 58.9694 161.35C59.0747 161.25 59.1994 161.172 59.3358 161.121C59.4722 161.071 59.6174 161.048 59.7627 161.056H59.8378V160.573H59.7627C59.5598 160.564 59.3576 160.603 59.1717 160.684C58.9857 160.766 58.8211 160.889 58.6902 161.045V160.627H58.2719L57.9608 164.102H58.4649L58.6365 162.128Z" fill="#263238"/>
<path d="M63.2485 161.131C63.1013 160.93 62.9069 160.768 62.6825 160.659C62.4581 160.551 62.2105 160.499 61.9615 160.509C61.4702 160.512 60.9979 160.699 60.6369 161.032C60.2759 161.365 60.0522 161.821 60.0095 162.311C59.9799 162.541 60.0007 162.775 60.0703 162.997C60.1399 163.219 60.2566 163.422 60.4126 163.595C60.5685 163.767 60.7599 163.903 60.9736 163.995C61.1873 164.086 61.4182 164.13 61.6504 164.123C61.9149 164.126 62.1768 164.071 62.4177 163.961C62.6586 163.852 62.8726 163.691 63.0448 163.49L62.9911 164.059H63.4952L63.7955 160.584H63.2914L63.2485 161.131ZM61.7148 163.641C61.5446 163.645 61.3754 163.613 61.2189 163.546C61.0624 163.478 60.9223 163.378 60.8082 163.252C60.694 163.126 60.6086 162.976 60.5578 162.814C60.5069 162.651 60.4918 162.479 60.5136 162.311C60.548 161.952 60.7138 161.619 60.9792 161.375C61.2445 161.132 61.5906 160.995 61.9507 160.991C62.1196 160.987 62.2874 161.019 62.4426 161.086C62.5978 161.152 62.7367 161.251 62.8498 161.377C62.963 161.502 63.0476 161.651 63.0979 161.812C63.1482 161.973 63.163 162.143 63.1413 162.311C63.1119 162.67 62.9494 163.006 62.6855 163.252C62.4217 163.498 62.0755 163.636 61.7148 163.641Z" fill="#263238"/>
<path d="M65.7797 159.618L65.2648 159.768L65.1898 160.584H64.4604V161.066H65.1898L65.0074 163.136C64.9846 163.27 64.992 163.406 65.0291 163.536C65.0663 163.666 65.1322 163.786 65.222 163.887C65.4124 164.04 65.6545 164.113 65.8976 164.091C66.0475 164.105 66.1983 164.105 66.3481 164.091H66.4232V163.641H66.3267C65.962 163.641 65.6617 163.641 65.5437 163.576C65.4707 163.462 65.4438 163.324 65.4686 163.19L65.651 161.12H66.6377V160.637H65.651L65.7797 159.618Z" fill="#263238"/>
<path d="M67.7961 159.254C67.702 159.257 67.6121 159.294 67.5417 159.356C67.4714 159.419 67.4248 159.504 67.41 159.597C67.4054 159.641 67.4103 159.686 67.4246 159.728C67.4388 159.771 67.4619 159.809 67.4925 159.842C67.523 159.875 67.5602 159.9 67.6014 159.917C67.6427 159.934 67.6872 159.942 67.7318 159.94C67.826 159.94 67.9169 159.905 67.9864 159.842C68.056 159.778 68.099 159.691 68.1071 159.597C68.1116 159.553 68.1069 159.509 68.0933 159.468C68.0798 159.426 68.0576 159.388 68.0282 159.356C67.9989 159.323 67.9631 159.298 67.9231 159.28C67.8831 159.262 67.8398 159.253 67.7961 159.254Z" fill="#263238"/>
<path d="M67.1205 164.059H67.6245L67.9248 160.573H67.4315L67.1205 164.059Z" fill="#263238"/>
<path d="M70.574 160.508C70.0805 160.511 69.6055 160.697 69.241 161.03C68.8765 161.363 68.6483 161.819 68.6005 162.31C68.5726 162.542 68.5951 162.778 68.6666 163C68.7381 163.222 68.8569 163.427 69.0149 163.599C69.1728 163.771 69.3661 163.907 69.5816 163.998C69.797 164.088 70.0295 164.131 70.263 164.123C70.7479 164.116 71.2135 163.932 71.5728 163.606C71.932 163.28 72.1604 162.835 72.2151 162.353C72.2478 162.121 72.2295 161.884 72.1615 161.659C72.0936 161.434 71.9775 161.227 71.8214 161.051C71.6653 160.876 71.4728 160.736 71.2575 160.642C71.0421 160.549 70.8089 160.503 70.574 160.508ZM70.3059 163.64C70.1397 163.644 69.9746 163.613 69.8214 163.548C69.6683 163.483 69.5305 163.387 69.417 163.266C69.3036 163.144 69.2172 163 69.1633 162.843C69.1095 162.686 69.0895 162.519 69.1046 162.353C69.1367 161.994 69.3019 161.659 69.5677 161.415C69.8336 161.171 70.181 161.035 70.5419 161.034C70.7107 161.029 70.8785 161.062 71.0337 161.128C71.1889 161.195 71.3278 161.294 71.441 161.419C71.5541 161.545 71.6387 161.693 71.6891 161.854C71.7394 162.016 71.7541 162.186 71.7324 162.353C71.6931 162.705 71.5262 163.03 71.2634 163.267C71.0005 163.505 70.6599 163.637 70.3059 163.64Z" fill="#263238"/>
<path d="M74.8428 160.508C74.6274 160.503 74.4133 160.545 74.2153 160.63C74.0173 160.715 73.8399 160.842 73.6952 161.002V160.584H73.2877L72.9766 164.059H73.4807L73.6309 162.225C73.6251 162.065 73.6516 161.905 73.7089 161.756C73.7661 161.606 73.8529 161.47 73.964 161.355C74.0751 161.24 74.2084 161.148 74.3557 161.086C74.503 161.023 74.6614 160.991 74.8214 160.991C74.9406 160.979 75.0609 160.996 75.1723 161.04C75.2837 161.084 75.3829 161.154 75.4616 161.245C75.5403 161.335 75.5963 161.443 75.6249 161.559C75.6535 161.676 75.6538 161.797 75.6258 161.913L75.4435 164.059H75.9476L76.1299 161.913C76.1689 161.731 76.1638 161.542 76.1149 161.362C76.066 161.182 75.9748 161.016 75.8488 160.879C75.7228 160.741 75.5658 160.636 75.3908 160.572C75.2158 160.507 75.0279 160.485 74.8428 160.508Z" fill="#263238"/>
<path d="M81.0851 159.254H79.2617L78.8327 164.059H80.6561C81.2956 164.043 81.9058 163.788 82.3651 163.342C82.8243 162.897 83.0988 162.295 83.1337 161.656C83.1838 161.359 83.1683 161.055 83.0883 160.765C83.0082 160.475 82.8655 160.206 82.6702 159.977C82.4749 159.748 82.2317 159.564 81.9579 159.439C81.684 159.314 81.3861 159.251 81.0851 159.254ZM80.699 163.544H79.4012L79.7337 159.736H81.0422C81.2783 159.739 81.511 159.793 81.7242 159.894C81.9374 159.996 82.1259 160.142 82.2769 160.324C82.4279 160.506 82.5376 160.718 82.5985 160.946C82.6594 161.174 82.67 161.413 82.6296 161.645C82.6081 162.148 82.3973 162.625 82.0392 162.979C81.6811 163.333 81.2023 163.539 80.699 163.554V163.544Z" fill="#263238"/>
<path d="M86.9948 161.131C86.8469 160.93 86.6524 160.769 86.4282 160.66C86.2039 160.552 85.9567 160.5 85.7077 160.509C85.2165 160.512 84.7442 160.699 84.3831 161.032C84.0221 161.365 83.7984 161.821 83.7557 162.31C83.7245 162.54 83.7436 162.774 83.8119 162.996C83.8802 163.218 83.9959 163.422 84.151 163.594C84.3062 163.767 84.497 163.903 84.7103 163.995C84.9235 164.086 85.1541 164.13 85.386 164.123C85.6505 164.126 85.9124 164.07 86.1532 163.961C86.3941 163.852 86.6081 163.691 86.7803 163.49V164.059H87.2308L87.5311 160.584H87.027L86.9948 161.131ZM85.4611 163.64C85.2905 163.645 85.121 163.612 84.964 163.545C84.8071 163.478 84.6664 163.378 84.5514 163.252C84.4365 163.126 84.35 162.977 84.2978 162.814C84.2457 162.652 84.229 162.48 84.2491 162.31C84.2835 161.952 84.4493 161.619 84.7147 161.375C84.98 161.132 85.3261 160.995 85.6863 160.991C85.8555 160.987 86.0236 161.019 86.1793 161.086C86.3349 161.152 86.4745 161.251 86.5884 161.376C86.7024 161.501 86.788 161.65 86.8397 161.811C86.8913 161.972 86.9076 162.142 86.8875 162.31C86.8582 162.67 86.6957 163.006 86.4318 163.252C86.168 163.498 85.8218 163.636 85.4611 163.64Z" fill="#263238"/>
<path d="M91.0598 160.583L89.7084 163.426L88.6359 160.616H88.0996L89.3545 164.069L89.2794 164.209C89.1292 164.498 88.8075 164.981 88.3141 164.938H88.3034V165.41H88.4643C88.7756 165.381 89.0726 165.266 89.3211 165.076C89.5697 164.886 89.7597 164.63 89.8693 164.337L91.6712 160.616L91.0598 160.583Z" fill="#263238"/>
<path d="M43.8674 167.652L43.9639 168.113L45.0365 167.78L44.6718 172.006H45.1866L45.6049 167.201H45.2188L43.8674 167.652Z" fill="#263238"/>
<path d="M48.2542 170.162C48.7964 169.77 49.1776 169.194 49.3267 168.542C49.351 168.358 49.334 168.17 49.277 167.993C49.22 167.816 49.1244 167.654 48.9972 167.519C48.8699 167.383 48.7142 167.278 48.5412 167.21C48.3681 167.142 48.1822 167.113 47.9968 167.126C47.6776 167.122 47.3632 167.204 47.0874 167.365C46.8115 167.525 46.5845 167.758 46.4308 168.038V168.102L46.8491 168.37V168.285C46.9491 168.086 47.1025 167.92 47.292 167.804C47.4816 167.689 47.6997 167.628 47.9217 167.63C48.0415 167.619 48.1624 167.635 48.275 167.678C48.3876 167.72 48.4888 167.788 48.5708 167.877C48.6528 167.965 48.7133 168.071 48.7477 168.186C48.7821 168.301 48.7894 168.423 48.769 168.542C48.64 169.04 48.3495 169.481 47.9431 169.797L46.0876 171.545V171.985H49.1658V171.481H46.8706L48.2542 170.162Z" fill="#263238"/>
<path d="M49.5092 172.66H49.9597L53.2095 166.536H52.7697L49.5092 172.66Z" fill="#263238"/>
<path d="M55.2795 169.142L56.4593 167.641V167.201H53.6278V167.694H55.7729L54.518 169.271L54.7003 169.593H54.8397C55.5154 169.593 55.9123 169.979 55.9123 170.58C55.9017 170.724 55.8621 170.864 55.7959 170.992C55.7297 171.121 55.6383 171.234 55.5271 171.326C55.4159 171.419 55.2873 171.487 55.1489 171.529C55.0105 171.57 54.8652 171.583 54.7218 171.566C54.4948 171.599 54.2636 171.551 54.0679 171.432C53.8722 171.313 53.7242 171.129 53.6492 170.912V170.816L53.188 171.073V171.137C53.2941 171.434 53.4962 171.687 53.7624 171.856C54.0286 172.025 54.3436 172.101 54.6574 172.07C55.0853 172.097 55.507 171.957 55.8332 171.679C56.1595 171.401 56.3648 171.006 56.4057 170.58C56.4267 170.411 56.4141 170.24 56.3688 170.077C56.3235 169.913 56.2462 169.76 56.1416 169.627C56.0369 169.493 55.9069 169.382 55.7589 169.298C55.611 169.215 55.448 169.162 55.2795 169.142Z" fill="#263238"/>
<path d="M59.2371 167.126C58.1646 167.126 57.3387 168.081 57.1993 169.604C57.0598 171.127 57.6819 172.071 58.8081 172.071C59.9343 172.071 60.7066 171.127 60.8353 169.604C60.964 168.081 60.417 167.126 59.2371 167.126ZM58.851 171.567C58.0359 171.567 57.6176 170.837 57.7248 169.604C57.8321 168.37 58.3791 167.63 59.1942 167.63C60.0094 167.63 60.4277 168.37 60.2668 169.604C60.1059 170.837 59.6555 171.567 58.851 171.567Z" fill="#263238"/>
<path d="M110.677 164.123C111 164.127 111.318 164.048 111.601 163.894C111.885 163.74 112.124 163.516 112.296 163.243V163.168L111.9 162.921L111.846 162.997C111.724 163.196 111.551 163.36 111.346 163.473C111.142 163.585 110.911 163.643 110.677 163.64C110.506 163.648 110.335 163.618 110.176 163.553C110.018 163.487 109.876 163.387 109.761 163.259C109.646 163.132 109.561 162.981 109.512 162.817C109.462 162.653 109.45 162.48 109.476 162.31C109.503 161.949 109.667 161.611 109.933 161.366C110.2 161.121 110.551 160.987 110.913 160.991C111.135 160.972 111.358 161.022 111.55 161.136C111.743 161.249 111.895 161.42 111.985 161.624V161.709L112.425 161.473V161.398C112.306 161.12 112.105 160.885 111.847 160.726C111.59 160.567 111.29 160.491 110.988 160.508C110.491 160.504 110.011 160.687 109.643 161.021C109.275 161.355 109.047 161.815 109.004 162.31C108.972 162.544 108.992 162.781 109.062 163.006C109.133 163.231 109.253 163.438 109.413 163.611C109.573 163.784 109.769 163.92 109.988 164.008C110.206 164.097 110.441 164.136 110.677 164.123Z" fill="#263238"/>
<path d="M114.527 164.059L116.297 160.573H115.761L114.324 163.415L113.38 160.573H112.844L114.013 164.059H114.527Z" fill="#263238"/>
<path d="M120.083 160.573H119.558L118.11 163.415L117.166 160.573H116.63L117.799 164.059H118.314L120.083 160.573Z" fill="#263238"/>
<path d="M110.473 167.126C109.4 167.126 108.575 168.081 108.435 169.604C108.296 171.127 108.918 172.071 110.044 172.071C111.17 172.071 111.942 171.127 112.071 169.604C112.2 168.081 111.599 167.126 110.473 167.126ZM110.087 171.567C109.272 171.567 108.853 170.837 108.961 169.604C109.068 168.37 109.615 167.63 110.43 167.63C111.245 167.63 111.664 168.37 111.556 169.604C111.449 170.837 110.891 171.567 110.087 171.567Z" fill="#263238"/>
<path d="M114.924 167.126C113.852 167.126 113.026 168.081 112.897 169.604C112.768 171.127 113.369 172.071 114.495 172.071C115.621 172.071 116.394 171.127 116.522 169.604C116.651 168.081 116.05 167.126 114.924 167.126ZM114.538 171.567C113.723 171.567 113.305 170.837 113.465 169.604C113.626 168.37 114.13 167.63 114.935 167.63C115.739 167.63 116.168 168.37 116.061 169.604C115.954 170.837 115.353 171.567 114.538 171.567Z" fill="#263238"/>
<path d="M119.407 167.126C118.335 167.126 117.509 168.081 117.38 169.604C117.252 171.127 117.863 172.071 118.978 172.071C120.094 172.071 120.877 171.127 121.016 169.604C121.156 168.081 120.48 167.126 119.407 167.126ZM119.021 171.567C118.217 171.567 117.799 170.837 117.949 169.604C118.099 168.37 118.603 167.63 119.407 167.63C120.212 167.63 120.641 168.37 120.534 169.604C120.426 170.837 119.804 171.567 118.989 171.567H119.021Z" fill="#263238"/>
<path d="M72.494 213.729C70.6914 213.766 68.9644 214.46 67.6372 215.68C66.3101 216.901 65.4742 218.564 65.2864 220.357L64.6965 227.189C64.6069 228.031 64.697 228.883 64.9608 229.687C65.2245 230.492 65.6561 231.231 66.2268 231.857C66.7975 232.482 67.4945 232.979 68.2716 233.316C69.0487 233.652 69.8884 233.819 70.735 233.807H117.112C118.913 233.77 120.639 233.077 121.966 231.859C123.293 230.641 124.13 228.98 124.32 227.189L124.92 220.357C125.01 219.514 124.92 218.661 124.655 217.855C124.391 217.049 123.959 216.308 123.387 215.682C122.815 215.055 122.117 214.557 121.339 214.221C120.56 213.884 119.719 213.716 118.871 213.729H72.494Z" fill="#FFD100"/>
<path d="M81.0637 220.947H79.0902L78.5861 226.674H79.176L79.3583 224.529H80.7956C81.2906 224.531 81.7682 224.347 82.1337 224.013C82.4993 223.679 82.726 223.22 82.7691 222.727C82.7966 222.493 82.7721 222.256 82.6972 222.033C82.6223 221.809 82.499 221.605 82.336 221.435C82.1731 221.265 81.9745 221.133 81.7545 221.048C81.5346 220.964 81.2987 220.929 81.0637 220.947ZM80.7956 223.982H79.412L79.6265 221.504H81.0208C81.1773 221.502 81.3324 221.535 81.4752 221.599C81.6179 221.663 81.7448 221.758 81.847 221.877C81.9492 221.995 82.0243 222.135 82.0668 222.285C82.1094 222.436 82.1184 222.594 82.0934 222.749C82.0718 223.08 81.9263 223.391 81.6857 223.619C81.4452 223.848 81.1274 223.977 80.7956 223.982Z" fill="#263238"/>
<path d="M86.9842 223.232C86.813 222.98 86.5803 222.775 86.3082 222.638C86.036 222.501 85.7335 222.436 85.429 222.449C84.8442 222.454 84.2823 222.677 83.8523 223.073C83.4223 223.469 83.1547 224.011 83.1016 224.594C83.0693 224.867 83.096 225.144 83.1799 225.406C83.2639 225.667 83.4031 225.908 83.5882 226.112C83.7733 226.315 83.9999 226.476 84.2528 226.585C84.5056 226.693 84.7787 226.745 85.0536 226.739C85.3771 226.739 85.6967 226.668 85.9896 226.531C86.2825 226.394 86.5416 226.194 86.7482 225.945L86.6839 226.653H87.2309L87.5956 222.513H87.0271L86.9842 223.232ZM85.0858 226.213C84.8799 226.218 84.6755 226.178 84.4863 226.097C84.2971 226.015 84.1276 225.894 83.9893 225.742C83.851 225.589 83.7471 225.409 83.6846 225.213C83.6221 225.016 83.6025 224.809 83.6272 224.604C83.6694 224.168 83.8711 223.763 84.1937 223.466C84.5163 223.169 84.937 223.002 85.3754 222.996C85.5809 222.991 85.785 223.031 85.9738 223.112C86.1625 223.193 86.3314 223.315 86.4689 223.467C86.6064 223.62 86.7093 223.801 86.7704 223.997C86.8316 224.193 86.8497 224.401 86.8233 224.604C86.786 225.041 86.5872 225.448 86.2659 225.745C85.9445 226.043 85.5237 226.21 85.0858 226.213Z" fill="#263238"/>
<path d="M90.1697 225.934L88.9148 222.534H88.3035L89.805 226.664L89.7085 226.846C89.5369 227.189 89.14 227.779 88.5394 227.715H88.4429V228.251H88.6252C88.9934 228.213 89.344 228.074 89.6376 227.849C89.9312 227.623 90.1563 227.321 90.2877 226.975L92.4328 222.523H91.8322L90.1697 225.934Z" fill="#263238"/>
<path d="M97.388 223.553L97.5703 221.462C97.7625 221.489 97.9427 221.572 98.0893 221.699C98.2358 221.827 98.3423 221.994 98.3961 222.18V222.266L98.9217 221.987V221.912C98.8304 221.626 98.6583 221.373 98.4261 221.182C98.1939 220.992 97.9115 220.873 97.6132 220.84L97.6775 220.121H97.1306L97.0769 220.84C96.6675 220.856 96.2771 221.017 95.9749 221.294C95.6727 221.571 95.478 221.946 95.4252 222.352C95.3501 223.307 95.9722 223.628 96.7981 223.939L96.605 226.149C96.3406 226.158 96.081 226.077 95.8686 225.919C95.6563 225.761 95.5037 225.536 95.4359 225.28V225.183L94.8996 225.473V225.537C95.0117 225.89 95.2359 226.196 95.5379 226.409C95.84 226.622 96.2034 226.73 96.5728 226.717L96.5085 227.436H97.0447L97.1091 226.706C97.5293 226.684 97.928 226.513 98.2343 226.224C98.5405 225.936 98.7347 225.548 98.7822 225.13C98.868 224.207 98.1816 223.854 97.388 223.553ZM98.1924 225.162C98.1733 225.433 98.052 225.687 97.8529 225.872C97.6538 226.058 97.3917 226.16 97.1198 226.159L97.2914 224.154C97.9564 224.379 98.2353 224.636 98.1924 225.162ZM96.0473 222.384C96.0772 222.133 96.1948 221.901 96.3792 221.728C96.5637 221.556 96.8032 221.454 97.0555 221.44L96.8839 223.36C96.2725 223.124 95.9829 222.899 96.0258 222.416L96.0473 222.384Z" fill="#263238"/>
<path d="M99.6295 221.472L99.7261 221.998L101.024 221.601L100.573 226.674H101.163L101.667 220.947H101.228L99.6295 221.472Z" fill="#263238"/>
<path d="M104.778 224.465C105.406 223.989 105.844 223.304 106.011 222.534C106.039 222.315 106.018 222.093 105.949 221.883C105.88 221.674 105.766 221.482 105.614 221.322C105.462 221.162 105.276 221.038 105.071 220.958C104.865 220.878 104.644 220.845 104.424 220.861C104.048 220.861 103.678 220.961 103.353 221.149C103.027 221.337 102.756 221.608 102.568 221.934V222.009L103.04 222.309V222.223C103.162 221.979 103.351 221.775 103.585 221.635C103.818 221.494 104.087 221.423 104.36 221.43C104.504 221.414 104.65 221.432 104.787 221.48C104.924 221.529 105.049 221.607 105.152 221.71C105.254 221.813 105.333 221.937 105.381 222.074C105.43 222.211 105.447 222.358 105.432 222.502C105.273 223.104 104.918 223.636 104.424 224.014L102.193 226.159V226.664H105.85V226.084H103.072L104.778 224.465Z" fill="#263238"/>
<path d="M109.122 220.861C107.792 220.861 106.859 221.987 106.698 223.811C106.537 225.634 107.277 226.76 108.607 226.76C109.937 226.76 110.87 225.623 111.031 223.811C111.192 221.998 110.462 220.861 109.122 220.861ZM108.66 226.224C107.674 226.224 107.17 225.344 107.298 223.853C107.427 222.363 108.092 221.472 109.079 221.472C110.065 221.472 110.57 222.363 110.43 223.853C110.291 225.344 109.636 226.181 108.682 226.181L108.66 226.224Z" fill="#263238"/>
</svg>
