<svg width="28" height="22" viewBox="0 0 28 22" fill="none" xmlns="http://www.w3.org/2000/svg">
<g clip-path="url(#clip0_0_2779)">
<path d="M26.3532 0H1.64679C0.737292 0 0 0.740697 0 1.65439V20.023C0 20.9367 0.737292 21.6774 1.64679 21.6774H26.3532C27.2627 21.6774 28 20.9367 28 20.023V1.65439C28 0.740697 27.2627 0 26.3532 0Z" fill="#003087"/>
<path d="M19.4674 11.584H22.0575V12.3463H20.4776V12.8572H22.0575V13.6195H20.4776V14.1316H22.0575V14.8939H19.4674V11.584Z" fill="white"/>
<path d="M15.8174 4.77041L16.01 4.13672L16.2015 4.77041L16.8334 4.96387L16.2015 5.15734L16.01 5.79103L15.8174 5.15734L15.1855 4.96387L15.8174 4.77041Z" fill="white"/>
<path d="M14 6.61914L14.2895 7.5703L15.2351 7.86109L14.2895 8.15073L14 9.10189L13.7117 8.15073L12.7649 7.86109L13.7117 7.5703L14 6.61914Z" fill="white"/>
<path d="M12.9956 2.92496L13.1305 2.48242L13.2654 2.92496L13.7071 3.0605L13.2654 3.1972L13.1305 3.63975L12.9956 3.1972L12.5539 3.0605L12.9956 2.92496Z" fill="white"/>
<path d="M12.5539 11.584H13.7278L13.759 11.6454L14.6908 13.411V11.584H15.588V14.8939H14.5166L14.4832 14.8337L13.4511 12.8839V14.8939H12.5539V11.584Z" fill="white"/>
<path d="M10.6176 14.1664C11.1297 14.1664 11.1562 13.5408 11.1562 13.3925V11.584H12.1341V13.3426C12.1341 13.7887 12.0707 14.9646 10.6176 14.9646C9.16459 14.9646 9.10117 13.7933 9.10117 13.3426V11.584H10.0791V13.3925C10.0791 13.5408 10.1056 14.1664 10.6176 14.1664Z" fill="white"/>
<path d="M8.72982 2.48163H8.74021C8.34181 2.63269 7.98747 2.88166 7.70957 3.2058C7.43167 3.52993 7.23908 3.91887 7.14942 4.33707C7.05975 4.75527 7.07587 5.18938 7.19629 5.59971C7.31671 6.01004 7.53759 6.38349 7.83875 6.68593C8.1399 6.98837 8.51172 7.21015 8.9202 7.33098C9.32868 7.45181 9.76081 7.46784 10.177 7.37762C10.5933 7.28739 10.9804 7.09378 11.3029 6.81448C11.6255 6.53518 11.8732 6.17912 12.0234 5.77883V5.79041C12.0234 6.44511 11.8301 7.0851 11.4681 7.62944C11.106 8.17378 10.5913 8.59803 9.98924 8.84852C9.38714 9.099 8.72462 9.16448 8.08548 9.03668C7.44633 8.90887 6.85927 8.59351 6.39854 8.13049C5.93781 7.66747 5.62411 7.07758 5.49711 6.43544C5.37012 5.7933 5.43553 5.12774 5.68507 4.52295C5.93462 3.91816 6.35709 3.4013 6.89906 3.03773C7.44102 2.67417 8.07814 2.48024 8.72982 2.48047V2.48163Z" fill="#FFD100"/>
<path d="M4.43989 11.5178C4.65756 11.5146 4.87449 11.5443 5.08338 11.6059V12.3983C5.08338 12.3983 4.83659 12.3682 4.7155 12.3682C3.82638 12.3682 3.47926 12.5617 3.47926 13.2394C3.47926 13.9171 3.82522 14.1118 4.7155 14.1118C4.83083 14.1118 5.08107 14.0805 5.08338 14.0805V14.8729C4.87474 14.9359 4.65772 14.9664 4.43989 14.9633C3.59458 14.9633 2.4702 14.7559 2.4702 13.2394C2.4702 11.7229 3.59227 11.5178 4.43989 11.5178Z" fill="white"/>
<path d="M3.50921 19.2345C3.16032 19.2298 2.81271 19.191 2.47131 19.1186V18.383C2.76792 18.4286 3.06733 18.4533 3.36736 18.4571C4.03161 18.4571 4.08235 18.3413 4.0812 18.2022C4.08004 18.0632 3.92667 17.9995 3.57263 17.9103H3.55994C3.12634 17.8025 2.47131 17.6392 2.47131 16.8537C2.47131 16.3903 2.72387 15.8516 3.92897 15.8516C4.70854 15.8516 5.07296 16.0172 5.08219 16.023V16.7321L4.90805 16.6996C4.68213 16.6608 4.45339 16.641 4.22419 16.6405C3.55879 16.6405 3.49536 16.7205 3.48844 16.8722C3.48844 16.9997 3.57379 17.0391 3.88861 17.1178L4.00393 17.148H4.02238C4.47444 17.2719 5.11563 17.4422 5.11563 18.1571C5.11563 18.8719 4.53557 19.2345 3.50921 19.2345Z" fill="white"/>
<path d="M8.09439 16.6479H6.51449V17.16H8.09439V17.9223H6.51449V18.4332H8.09439V19.1955H5.50427V15.8867H8.09439V16.6479Z" fill="white"/>
<path d="M8.72748 12.8089C8.72748 12.7857 8.71825 12.7648 8.71364 12.7417C8.70903 12.7185 8.70211 12.6791 8.69519 12.649C8.52913 11.9805 8.05631 11.5785 7.31134 11.5078C7.29634 11.5078 7.28135 11.5078 7.26636 11.5078C7.25137 11.5078 7.20755 11.5078 7.17757 11.5078C7.14758 11.5078 7.10952 11.5078 7.07493 11.5078C7.03918 11.5078 7.00573 11.5078 6.97114 11.5078C6.93654 11.5078 6.91117 11.5078 6.88234 11.5078C6.85351 11.5078 6.85351 11.5078 6.83737 11.5078C6.09816 11.5785 5.62419 11.9805 5.45351 12.649C5.44659 12.6791 5.43967 12.7104 5.4339 12.7417L5.42006 12.8089C5.39739 12.9455 5.38621 13.0839 5.38662 13.2225C5.38621 13.361 5.39739 13.4994 5.42006 13.636L5.4339 13.7032C5.4339 13.7345 5.44659 13.7658 5.45351 13.7959C5.61842 14.4644 6.09239 14.8664 6.83737 14.9371H6.88234C6.91117 14.9371 6.94115 14.9371 6.97114 14.9371C7.00112 14.9371 7.03918 14.9371 7.07493 14.9371C7.10952 14.9371 7.14297 14.9371 7.17757 14.9371C7.21216 14.9371 7.23753 14.9371 7.26636 14.9371H7.31134C8.0517 14.8664 8.52451 14.4644 8.69519 13.7959C8.70211 13.7658 8.70787 13.7345 8.71364 13.7032C8.7194 13.672 8.72402 13.6592 8.72748 13.636C8.75113 13.4995 8.7627 13.3611 8.76208 13.2225C8.7627 13.0838 8.75113 12.9454 8.72748 12.8089ZM7.07723 14.2281C6.62863 14.2281 6.40145 13.8724 6.40029 13.2248C6.39914 12.5771 6.63094 12.2238 7.07723 12.2215C7.52352 12.2192 7.75186 12.5771 7.75186 13.2248C7.75186 13.8724 7.52352 14.2257 7.07723 14.2281Z" fill="white"/>
<path d="M11.2127 18.2157C11.2127 18.2157 11.0282 17.7813 10.7122 17.7292C10.8872 17.6584 11.0376 17.5376 11.1448 17.3816C11.2521 17.2257 11.3113 17.0416 11.3153 16.8521C11.3153 15.8848 10.5265 15.8848 9.89342 15.8848H8.51648V19.1947H9.52669V18.0454H9.6939C9.943 18.0454 10.1241 18.2111 10.2359 18.5089L10.4885 19.1947H11.5863L11.2127 18.2157ZM9.71351 17.3399H9.52092V16.6517H9.61433C9.82652 16.6517 10.0918 16.6517 10.2175 16.778C10.2471 16.8107 10.2697 16.8492 10.284 16.891C10.2983 16.9329 10.3039 16.9772 10.3005 17.0213C10.3063 17.2252 10.2451 17.341 9.71928 17.341L9.71351 17.3399Z" fill="white"/>
<path d="M13.4983 19.1955H12.6634L11.3753 15.8867H12.4074L13.0809 17.8157L13.7544 15.8867H14.7876L13.4983 19.1955Z" fill="white"/>
<path d="M16.0896 15.8848H15.0805V19.1947H16.0896V15.8848Z" fill="white"/>
<path d="M19.0453 16.7003C19.0453 16.7003 18.7985 16.669 18.6786 16.669C17.7883 16.669 17.4412 16.8474 17.4412 17.5275C17.4412 18.2075 17.7871 18.3848 18.6786 18.3848C18.7939 18.3848 19.043 18.3535 19.0453 18.3535V19.146C18.8366 19.2085 18.6196 19.2386 18.4018 19.2352C17.5565 19.2352 16.4333 19.0428 16.4333 17.5275C16.4333 16.0121 17.5565 15.8186 18.4018 15.8186C18.6196 15.8152 18.8366 15.8453 19.0453 15.9078V16.7003Z" fill="white"/>
<path d="M19.043 12.3463H18.0305V14.8939H17.0214V12.3463H16.01V11.584H19.043V12.3463Z" fill="white"/>
<path d="M25.5298 17.9531H22.0575V18.1617H25.5298V17.9531Z" fill="white"/>
<path d="M25.5298 16.9199H22.0575V17.1284H25.5298V16.9199Z" fill="white"/>
<path d="M25.5298 16.0953H22.0575V16.4034H25.5298V16.6108H22.0575V16.6479H20.4776V17.16H22.0575V17.4368H25.5298V17.6454H22.0575V17.9223H20.4776V18.4332H22.0575V18.4703H25.5298V18.6788H22.0575V18.987H25.5298V19.1955H19.4674V15.8867H25.5298V16.0953Z" fill="white"/>
<path d="M25.1781 13.9138C25.1781 13.9138 24.9935 13.4805 24.6764 13.4284C24.8513 13.3572 25.0016 13.236 25.1088 13.08C25.216 12.9239 25.2753 12.7398 25.2795 12.5502C25.2795 11.584 24.4919 11.584 23.8576 11.584H22.4818V14.8939H23.4909V13.7505H23.6581C23.9072 13.7505 24.0894 13.915 24.2001 14.2139L24.4308 14.8986H25.5286L25.1781 13.9138ZM23.6789 13.0391H23.4863V12.3509H23.5797C23.793 12.3509 24.0571 12.3509 24.184 12.4761C24.2131 12.5093 24.2353 12.548 24.2494 12.59C24.2634 12.632 24.269 12.6763 24.2659 12.7205C24.2705 12.9221 24.2094 13.0391 23.6835 13.0391H23.6789Z" fill="white"/>
</g>
<defs>
<clipPath id="clip0_0_2779">
<path d="M0 4C0 1.79086 1.79086 0 4 0H24C26.2091 0 28 1.79086 28 4V17.6774C28 19.8866 26.2091 21.6774 24 21.6774H4C1.79086 21.6774 0 19.8866 0 17.6774V4Z" fill="white"/>
</clipPath>
</defs>
</svg>
