<svg width="28" height="22" viewBox="0 0 28 22" fill="none" xmlns="http://www.w3.org/2000/svg">
<g clip-path="url(#clip0_0_5630)">
<path d="M26.3532 0H1.64679C0.737292 0 0 0.740697 0 1.65439V20.023C0 20.9367 0.737292 21.6774 1.64679 21.6774H26.3532C27.2627 21.6774 28 20.9367 28 20.023V1.65439C28 0.740697 27.2627 0 26.3532 0Z" fill="#003087"/>
<path d="M19.4673 11.584H22.0574V12.3463H20.4775V12.8572H22.0574V13.6195H20.4775V14.1316H22.0574V14.8939H19.4673V11.584Z" fill="white"/>
<path d="M15.8175 4.77041L16.0101 4.13672L16.2015 4.77041L16.8335 4.96387L16.2015 5.15734L16.0101 5.79103L15.8175 5.15734L15.1855 4.96387L15.8175 4.77041Z" fill="white"/>
<path d="M14 6.61914L14.2894 7.5703L15.2351 7.86109L14.2894 8.15073L14 9.10189L13.7117 8.15073L12.7649 7.86109L13.7117 7.5703L14 6.61914Z" fill="white"/>
<path d="M12.9956 2.92496L13.1306 2.48242L13.2655 2.92496L13.7072 3.0605L13.2655 3.1972L13.1306 3.63975L12.9956 3.1972L12.554 3.0605L12.9956 2.92496Z" fill="white"/>
<path d="M12.554 11.584H13.7279L13.7591 11.6454L14.6909 13.411V11.584H15.5881V14.8939H14.5167L14.4833 14.8337L13.4512 12.8839V14.8939H12.554V11.584Z" fill="white"/>
<path d="M10.6175 14.1664C11.1296 14.1664 11.1561 13.5408 11.1561 13.3925V11.584H12.134V13.3426C12.134 13.7887 12.0706 14.9646 10.6175 14.9646C9.1645 14.9646 9.10107 13.7933 9.10107 13.3426V11.584H10.079V13.3925C10.079 13.5408 10.1055 14.1664 10.6175 14.1664Z" fill="white"/>
<path d="M8.72972 2.48163H8.7401C8.34171 2.63269 7.98736 2.88166 7.70947 3.2058C7.43157 3.52993 7.23898 3.91887 7.14931 4.33707C7.05964 4.75527 7.07576 5.18938 7.19618 5.59971C7.3166 6.01004 7.53748 6.38349 7.83864 6.68593C8.13979 6.98837 8.51161 7.21015 8.92009 7.33098C9.32858 7.45181 9.7607 7.46784 10.1769 7.37762C10.5932 7.28739 10.9803 7.09378 11.3028 6.81448C11.6254 6.53518 11.8731 6.17912 12.0233 5.77883V5.79041C12.0233 6.44511 11.83 7.0851 11.468 7.62944C11.1059 8.17378 10.5912 8.59803 9.98914 8.84852C9.38704 9.099 8.72452 9.16448 8.08537 9.03668C7.44623 8.90887 6.85916 8.59351 6.39843 8.13049C5.9377 7.66747 5.624 7.07758 5.49701 6.43544C5.37001 5.7933 5.43542 5.12774 5.68497 4.52295C5.93451 3.91816 6.35698 3.4013 6.89895 3.03773C7.44092 2.67417 8.07803 2.48024 8.72972 2.48047V2.48163Z" fill="#FFD100"/>
<path d="M4.4399 11.5178C4.65758 11.5146 4.8745 11.5443 5.08339 11.6059V12.3983C5.08339 12.3983 4.83661 12.3682 4.71552 12.3682C3.82639 12.3682 3.47928 12.5617 3.47928 13.2394C3.47928 13.9171 3.82524 14.1118 4.71552 14.1118C4.83084 14.1118 5.08109 14.0805 5.08339 14.0805V14.8729C4.87476 14.9359 4.65774 14.9664 4.4399 14.9633C3.5946 14.9633 2.47021 14.7559 2.47021 13.2394C2.47021 11.7229 3.59229 11.5178 4.4399 11.5178Z" fill="white"/>
<path d="M3.50909 19.2345C3.1602 19.2298 2.81259 19.191 2.47119 19.1186V18.383C2.7678 18.4286 3.0672 18.4533 3.36724 18.4571C4.03149 18.4571 4.08223 18.3413 4.08108 18.2022C4.07992 18.0632 3.92655 17.9995 3.57251 17.9103H3.55982C3.12621 17.8025 2.47119 17.6392 2.47119 16.8537C2.47119 16.3903 2.72374 15.8516 3.92885 15.8516C4.70842 15.8516 5.07284 16.0172 5.08206 16.023V16.7321L4.90793 16.6996C4.68201 16.6608 4.45326 16.641 4.22407 16.6405C3.55867 16.6405 3.49524 16.7205 3.48832 16.8722C3.48832 16.9997 3.57366 17.0391 3.88849 17.1178L4.00381 17.148H4.02226C4.47432 17.2719 5.11551 17.4422 5.11551 18.1571C5.11551 18.8719 4.53545 19.2345 3.50909 19.2345Z" fill="white"/>
<path d="M8.09451 16.6479H6.51461V17.16H8.09451V17.9223H6.51461V18.4332H8.09451V19.1955H5.50439V15.8867H8.09451V16.6479Z" fill="white"/>
<path d="M8.72759 12.8089C8.72759 12.7857 8.71836 12.7648 8.71375 12.7417C8.70913 12.7185 8.70222 12.6791 8.6953 12.649C8.52923 11.9805 8.05642 11.5785 7.31144 11.5078C7.29645 11.5078 7.28146 11.5078 7.26647 11.5078C7.25147 11.5078 7.20766 11.5078 7.17767 11.5078C7.14769 11.5078 7.10963 11.5078 7.07503 11.5078C7.03929 11.5078 7.00584 11.5078 6.97124 11.5078C6.93665 11.5078 6.91128 11.5078 6.88245 11.5078C6.85362 11.5078 6.85362 11.5078 6.83747 11.5078C6.09826 11.5785 5.62429 11.9805 5.45362 12.649C5.4467 12.6791 5.43977 12.7104 5.43401 12.7417L5.42017 12.8089C5.3975 12.9455 5.38632 13.0839 5.38673 13.2225C5.38632 13.361 5.3975 13.4994 5.42017 13.636L5.43401 13.7032C5.43401 13.7345 5.4467 13.7658 5.45362 13.7959C5.61853 14.4644 6.0925 14.8664 6.83747 14.9371H6.88245C6.91128 14.9371 6.94126 14.9371 6.97124 14.9371C7.00123 14.9371 7.03929 14.9371 7.07503 14.9371C7.10963 14.9371 7.14308 14.9371 7.17767 14.9371C7.21227 14.9371 7.23763 14.9371 7.26647 14.9371H7.31144C8.0518 14.8664 8.52462 14.4644 8.6953 13.7959C8.70222 13.7658 8.70798 13.7345 8.71375 13.7032C8.71951 13.672 8.72413 13.6592 8.72759 13.636C8.75123 13.4995 8.76281 13.3611 8.76219 13.2225C8.76281 13.0838 8.75123 12.9454 8.72759 12.8089ZM7.07734 14.2281C6.62874 14.2281 6.40155 13.8724 6.4004 13.2248C6.39925 12.5771 6.63104 12.2238 7.07734 12.2215C7.52363 12.2192 7.75197 12.5771 7.75197 13.2248C7.75197 13.8724 7.52363 14.2257 7.07734 14.2281Z" fill="white"/>
<path d="M11.2126 18.2157C11.2126 18.2157 11.0281 17.7813 10.7121 17.7292C10.8871 17.6584 11.0375 17.5376 11.1447 17.3816C11.2519 17.2257 11.3112 17.0416 11.3152 16.8521C11.3152 15.8848 10.5264 15.8848 9.89329 15.8848H8.51636V19.1947H9.52657V18.0454H9.69378C9.94288 18.0454 10.1239 18.2111 10.2358 18.5089L10.4883 19.1947H11.5862L11.2126 18.2157ZM9.71339 17.3399H9.5208V16.6517H9.61421C9.8264 16.6517 10.0916 16.6517 10.2173 16.778C10.247 16.8107 10.2696 16.8492 10.2839 16.891C10.2982 16.9329 10.3038 16.9772 10.3004 17.0213C10.3061 17.2252 10.245 17.341 9.71916 17.341L9.71339 17.3399Z" fill="white"/>
<path d="M13.4983 19.1955H12.6634L11.3752 15.8867H12.4074L13.0808 17.8157L13.7543 15.8867H14.7876L13.4983 19.1955Z" fill="white"/>
<path d="M16.0896 15.8848H15.0806V19.1947H16.0896V15.8848Z" fill="white"/>
<path d="M19.0454 16.7003C19.0454 16.7003 18.7986 16.669 18.6787 16.669C17.7884 16.669 17.4413 16.8474 17.4413 17.5275C17.4413 18.2075 17.7872 18.3848 18.6787 18.3848C18.794 18.3848 19.0431 18.3535 19.0454 18.3535V19.146C18.8367 19.2085 18.6197 19.2386 18.4019 19.2352C17.5566 19.2352 16.4333 19.0428 16.4333 17.5275C16.4333 16.0121 17.5566 15.8186 18.4019 15.8186C18.6197 15.8152 18.8367 15.8453 19.0454 15.9078V16.7003Z" fill="white"/>
<path d="M19.043 12.3463H18.0304V14.8939H17.0214V12.3463H16.01V11.584H19.043V12.3463Z" fill="white"/>
<path d="M25.5297 17.9531H22.0574V18.1617H25.5297V17.9531Z" fill="white"/>
<path d="M25.5297 16.9199H22.0574V17.1284H25.5297V16.9199Z" fill="white"/>
<path d="M25.5297 16.0953H22.0574V16.4034H25.5297V16.6108H22.0574V16.6479H20.4775V17.16H22.0574V17.4368H25.5297V17.6454H22.0574V17.9223H20.4775V18.4332H22.0574V18.4703H25.5297V18.6788H22.0574V18.987H25.5297V19.1955H19.4673V15.8867H25.5297V16.0953Z" fill="white"/>
<path d="M25.1781 13.9138C25.1781 13.9138 24.9936 13.4805 24.6765 13.4284C24.8514 13.3572 25.0017 13.236 25.1089 13.08C25.2161 12.9239 25.2754 12.7398 25.2796 12.5502C25.2796 11.584 24.492 11.584 23.8577 11.584H22.4819V14.8939H23.491V13.7505H23.6582C23.9073 13.7505 24.0895 13.915 24.2002 14.2139L24.4309 14.8986H25.5287L25.1781 13.9138ZM23.679 13.0391H23.4864V12.3509H23.5798C23.7931 12.3509 24.0572 12.3509 24.1841 12.4761C24.2132 12.5093 24.2354 12.548 24.2495 12.59C24.2635 12.632 24.2691 12.6763 24.266 12.7205C24.2706 12.9221 24.2094 13.0391 23.6836 13.0391H23.679Z" fill="white"/>
</g>
<defs>
<clipPath id="clip0_0_5630">
<path d="M0 4C0 1.79086 1.79086 0 4 0H24C26.2091 0 28 1.79086 28 4V17.6774C28 19.8866 26.2091 21.6774 24 21.6774H4C1.79086 21.6774 0 19.8866 0 17.6774V4Z" fill="white"/>
</clipPath>
</defs>
</svg>
