<svg width="88" height="50" viewBox="0 0 88 50" fill="none" xmlns="http://www.w3.org/2000/svg">
<path d="M7.36669 0H80.6333C82.5862 0.00286138 84.4583 0.779907 85.8392 2.16081C87.2201 3.54171 87.9972 5.4138 88 7.36668V34.5618C87.9972 36.5146 87.2201 38.3867 85.8392 39.7676C84.4583 41.1485 82.5862 41.9256 80.6333 41.9285H75.5491L77.5287 49.9226C74.6555 49.6611 71.8656 48.8176 69.3289 47.4432C66.7922 46.0689 64.5619 44.1925 62.7737 41.9285H7.36669C5.41467 41.9228 3.54424 41.1448 2.16395 39.7645C0.783667 38.3842 0.00570767 36.5138 0 34.5618V7.36668C0.00570767 5.41467 0.783667 3.54424 2.16395 2.16395C3.54424 0.783667 5.41467 0.00570767 7.36669 0Z" fill="#003087"/>
</svg>
