<svg width="28" height="28" viewBox="0 0 28 28" fill="none" xmlns="http://www.w3.org/2000/svg">
<g clip-path="url(#clip0_0_5961)">
<path d="M0.141846 0.154297H27.8826V26.8605H0.141846V0.154297Z" fill="white"/>
<path d="M0 0H28V28H0V0Z" fill="#00A651"/>
<path d="M17.2636 25.2149V26.2977H10.5479V25.2129H5.46615C4.9696 25.2129 4.56514 24.697 4.56514 24.0608L2.43872 2.68215C2.43872 2.04563 2.93527 1.5293 3.54799 1.5293H24.0834C24.6921 1.5293 25.1887 2.04563 25.1887 2.68215L23.0863 24.0608C23.0863 24.697 22.6818 25.2129 22.1853 25.2129L17.2636 25.2149H17.2636Z" fill="white"/>
<path d="M6.17908 4.6582H19.9268C18.5732 5.1626 14.4526 7.93608 13.4234 9.8008H6.19113L6.17908 4.6582H6.17908Z" fill="#FF6701"/>
<path d="M17.1357 19.3945C16.9395 21.2568 16.9315 23.5247 16.9315 25.9069H10.9727C10.9727 23.5247 11.0728 21.2568 11.269 19.3945H17.1357H17.1357Z" fill="#E50A09"/>
<path d="M7.91705 16.7038V17.4256H6.96397V18.1476H7.91705V18.975H5.73853V15.125H7.91705V15.9825H6.96397V16.7038H7.91705Z" fill="#00A651"/>
<path d="M12.9827 16.7038V17.4256H12.0338V18.1476H12.9827V18.975H10.8083V15.125H12.9827V15.9825H12.0338V16.7038H12.9827Z" fill="#00A651"/>
<path d="M18.5652 16.7038V17.4256H17.6121V18.1476H18.5652V18.975H16.3867V15.125H18.5652V15.9825H17.6121V16.7038H18.5652Z" fill="#00A651"/>
<path d="M9.55098 15.125V18.1476H10.504V18.975H8.32556V15.125H9.55098Z" fill="#00A651"/>
<path d="M14.7409 17.727L14.2763 15.125H13.2072L13.8157 18.975H15.3896L16.1264 15.125H15.2174L14.7409 17.727Z" fill="#00A651"/>
<path d="M19.0818 15.125H20.2592V18.9746H19.0818V15.125Z" fill="#00A651"/>
<path d="M20.2592 16.2669C20.3233 15.8453 20.9239 15.9583 20.9239 16.1991V18.9738H22.1053V15.7107C22.1053 15.0188 21.1241 14.7405 20.2672 15.3496L20.2592 16.2669L20.2592 16.2669Z" fill="#00A651"/>
<path d="M17.6883 14.5819C17.8084 13.1085 19.8387 10.7025 21.805 10.0707V4.38672C16.3948 6.79283 12.8788 10.4318 12.1179 14.5675L17.6883 14.5819L17.6883 14.5819Z" fill="#E50A09"/>
</g>
<defs>
<clipPath id="clip0_0_5961">
<path d="M0 4C0 1.79086 1.79086 0 4 0H24C26.2091 0 28 1.79086 28 4V24C28 26.2091 26.2091 28 24 28H4C1.79086 28 0 26.2091 0 24V4Z" fill="white"/>
</clipPath>
</defs>
</svg>
