<svg width="926" height="869" viewBox="0 0 926 869" fill="none" xmlns="http://www.w3.org/2000/svg">
<path d="M490.876 0.152164H489.505C542.101 19.9695 588.882 52.6328 625.57 95.1556C662.258 137.678 687.684 188.704 699.522 243.568C711.36 298.431 709.232 355.382 693.335 409.212C677.437 463.043 648.275 512.037 608.517 551.714C568.758 591.391 519.671 620.486 465.742 636.337C411.814 652.189 354.765 654.293 299.812 642.456C244.859 630.619 193.756 605.219 151.173 568.578C108.591 531.937 75.8884 485.225 56.0556 432.712V434.231C56.0556 520.12 81.5703 604.081 129.372 675.493C177.174 746.905 245.117 802.562 324.606 835.423C404.096 868.285 491.562 876.875 575.943 860.108C660.323 843.341 737.828 801.969 798.654 741.225C859.479 680.482 900.894 603.095 917.66 518.852C934.427 434.61 925.791 347.296 892.846 267.953C859.9 188.61 804.126 120.803 732.575 73.1074C661.024 25.4117 576.912 -0.0300361 490.876 2.66115e-05V0.152164Z" fill="#FFD100"/>
<path d="M419.734 30.2795H418.41C469.182 49.4093 514.339 80.9393 549.755 121.987C585.17 163.034 609.714 212.289 621.141 265.249C632.568 318.209 630.514 373.184 615.168 425.147C599.821 477.11 571.672 524.403 533.293 562.704C494.913 601.004 447.529 629.09 395.472 644.392C343.415 659.694 288.345 661.724 235.299 650.298C182.253 638.871 132.923 614.353 91.8177 578.983C50.7126 543.614 19.1447 498.522 0.000183185 447.831V449.297C0.000183185 532.207 24.6295 613.254 70.7731 682.188C116.917 751.123 182.501 804.848 259.233 836.57C335.965 868.291 420.396 876.583 501.849 860.398C583.302 844.212 658.117 804.276 716.833 745.64C775.548 687.004 815.526 612.302 831.71 530.982C847.895 449.663 839.559 365.378 807.757 288.788C775.954 212.199 722.115 146.744 653.047 100.703C583.978 54.6627 502.784 30.1036 419.734 30.1327V30.2795Z" fill="#2858AF"/>
<path d="M453.151 28.1276H451.824C502.725 47.3065 547.999 78.9174 583.505 120.07C619.012 161.223 643.618 210.605 655.075 263.701C666.532 316.796 664.472 371.912 649.087 424.009C633.701 476.105 605.479 523.52 567.001 561.919C528.523 600.318 481.018 628.475 428.827 643.816C376.636 659.158 321.425 661.193 268.243 649.738C215.06 638.282 165.603 613.7 124.393 578.24C83.1822 542.78 51.5333 497.572 32.3396 446.751V448.221C32.3396 531.343 57.0321 612.599 103.294 681.71C149.556 750.822 215.309 804.685 292.238 836.488C369.167 868.29 453.815 876.604 535.477 860.377C617.139 844.15 692.146 804.111 751.012 745.325C809.879 686.538 849.959 611.644 866.185 530.116C882.411 448.588 874.054 364.087 842.17 287.3C810.286 210.514 756.308 144.891 687.063 98.7324C617.817 52.5734 536.414 27.9513 453.151 27.9804V28.1276Z" fill="#003087"/>
</svg>
