<svg width="48" height="48" viewBox="0 0 48 48" fill="none" xmlns="http://www.w3.org/2000/svg">
<path d="M0 24C0 10.7452 10.7452 0 24 0C37.2548 0 48 10.7452 48 24C48 37.2548 37.2548 48 24 48C10.7452 48 0 37.2548 0 24Z" fill="#F5F5F5"/>
<path d="M38 19.1793H10V16.7805L23.9972 11.0536L38 16.7805V19.1793Z" fill="#003087"/>
<path d="M36.8041 33.8332V32.3194H11.3309V33.8332" fill="white"/>
<path d="M10 33.8333H38V35.8646H10V33.8333Z" fill="#003087"/>
<path d="M31.5827 19.1793H36.1408V20.8767H31.5827V19.1793Z" fill="#000F2A"/>
<path d="M31.9617 20.8768H35.6962V30.7388H31.9617V20.8768Z" fill="#003087"/>
<path d="M31.5827 30.7333H36.1408V32.3194H31.5827V30.7333Z" fill="#000F2A"/>
<path d="M11.9984 19.1793H16.5566V20.8767H11.9984V19.1793Z" fill="#000F2A"/>
<path d="M12.3822 20.8768H16.1166V30.7388H12.3822V20.8768Z" fill="#003087"/>
<path d="M11.9984 30.7333H16.5566V32.3194H11.9984V30.7333Z" fill="#000F2A"/>
<path d="M18.2422 19.1793H22.8004V20.8767H18.2422V19.1793Z" fill="#000F2A"/>
<path d="M18.626 20.8768H22.3604V30.7388H18.626V20.8768Z" fill="#003087"/>
<path d="M18.2422 30.7333H22.8004V32.3194H18.2422V30.7333Z" fill="#000F2A"/>
<path d="M25.0829 19.1793H29.641V20.8767H25.0829V19.1793Z" fill="#000F2A"/>
<path d="M25.4671 20.8768H29.2016V30.7388H25.4671V20.8768Z" fill="#003087"/>
<path d="M32.8469 22.4184H33.5147V29.2974H32.8469V22.4184Z" fill="white"/>
<path d="M34.2433 22.4184H34.9111V29.2974H34.2433V22.4184Z" fill="white"/>
<path d="M13.261 22.4184H13.9288V29.2974H13.261V22.4184Z" fill="white"/>
<path d="M14.6642 22.4184H15.3321V29.2974H14.6642V22.4184Z" fill="white"/>
<path d="M19.5111 22.4184H20.179V29.2974H19.5111V22.4184Z" fill="white"/>
<path d="M20.908 22.4184H21.5759V29.2974H20.908V22.4184Z" fill="white"/>
<path d="M26.3452 22.4184H27.013V29.2974H26.3452V22.4184Z" fill="white"/>
<path d="M27.7491 22.4184H28.417V29.2974H27.7491V22.4184Z" fill="white"/>
<path d="M25.0829 30.7333H29.641V32.3194H25.0829V30.7333Z" fill="#000F2A"/>
<path d="M18.2422 32.3194H29.6348V35.8646H18.2422V32.3194Z" fill="#FFD100"/>
<path d="M23.941 15.8122C25.8221 15.8122 27.347 14.2872 27.347 12.4061C27.347 10.525 25.8221 9 23.941 9C22.0598 9 20.5349 10.525 20.5349 12.4061C20.5349 14.2872 22.0598 15.8122 23.941 15.8122Z" fill="#FFD100"/>
<path d="M27.3471 12.4061C27.3527 14.2817 25.8333 15.8122 23.9577 15.8177C22.5719 15.8233 21.3197 14.9829 20.7965 13.6973C21.1527 13.8141 21.5256 13.8698 21.8985 13.8698C23.9021 13.8698 25.5272 12.2447 25.5272 10.2411C25.5272 9.935 25.4883 9.62889 25.4159 9.33392C26.5958 9.9016 27.3471 11.0982 27.3471 12.4061Z" fill="#FFD100"/>
<path d="M22.4113 11.716L21.788 11.4822C21.9939 10.9201 22.4002 10.4582 22.9345 10.191L23.235 10.7865C22.851 10.9813 22.556 11.3153 22.4113 11.716Z" fill="white"/>
<path d="M25.1432 14.3373L24.8037 13.7585C25.1376 13.5637 25.3992 13.2576 25.5328 12.8903L26.1617 13.1185C25.9725 13.6305 25.6107 14.0591 25.1432 14.3373Z" fill="white"/>
</svg>
