<svg width="24" height="23" viewBox="0 0 24 23" fill="none" xmlns="http://www.w3.org/2000/svg">
<path d="M17.8602 11.5128C17.8647 15.0139 17.1827 18.4819 15.8528 21.7205" stroke="#000F2A" stroke-width="1.5" stroke-linecap="round" stroke-linejoin="round"/>
<path d="M16.4915 7.93071C15.7661 7.11978 14.8115 6.54822 13.7541 6.29166C12.6967 6.0351 11.5864 6.10563 10.57 6.49391C9.55355 6.8822 8.67897 7.56993 8.06196 8.46613C7.44495 9.36233 7.11458 10.4247 7.11457 11.5128C7.1188 14.2434 6.42611 16.9299 5.10206 19.3179" stroke="#000F2A" stroke-width="1.5" stroke-linecap="round" stroke-linejoin="round"/>
<path d="M8.90543 1.37898C10.5264 0.807661 12.2607 0.633233 13.963 0.870314C15.6653 1.10739 17.2859 1.74907 18.6891 2.74157C20.0923 3.73407 21.2371 5.04846 22.0277 6.57459C22.8182 8.10071 23.2313 9.79409 23.2325 11.5128C23.234 13.9229 22.9661 16.3257 22.4338 18.6763" stroke="#000F2A" stroke-width="1.5" stroke-linecap="round" stroke-linejoin="round"/>
<path d="M0.76777 15.9902C1.41185 14.5856 1.74424 13.0582 1.74209 11.513C1.74038 10.0009 2.05863 8.50551 2.67594 7.12514C3.29324 5.74477 4.19563 4.51063 5.32382 3.50381" stroke="#000F2A" stroke-width="1.5" stroke-linecap="round" stroke-linejoin="round"/>
<path d="M10.5372 20.4672C10.3102 20.9618 10.0653 21.446 9.80237 21.9199" stroke="#000F2A" stroke-width="1.5" stroke-linecap="round" stroke-linejoin="round"/>
<path d="M12.4854 11.5128C12.4868 13.3251 12.2593 15.1302 11.8084 16.8855" stroke="#000F2A" stroke-width="1.5" stroke-linecap="round" stroke-linejoin="round"/>
</svg>
