<svg width="14" height="19" viewBox="0 0 14 19" fill="none" xmlns="http://www.w3.org/2000/svg">
<path d="M8.88733 6.60314L8.8979 6.55032L10.059 0.745105C10.0833 0.623499 10.0673 0.497278 10.0134 0.38559C9.95945 0.273902 9.8706 0.18284 9.76026 0.126217C9.64993 0.0695935 9.52414 0.0504986 9.40197 0.071828C9.2798 0.0931575 9.16792 0.153748 9.0833 0.244408L0.216635 9.74441C0.152693 9.81292 0.106628 9.89613 0.0825191 9.98669C0.0584102 10.0772 0.0570007 10.1724 0.0784155 10.2636C0.0998303 10.3548 0.143409 10.4394 0.205293 10.5097C0.267177 10.5801 0.345456 10.6341 0.433203 10.667L0.410966 10.7263L0.433204 10.667L4.99561 12.3779L5.04604 12.3968L5.03547 12.4497L3.87442 18.2549L3.81231 18.2425L3.87441 18.2549C3.85008 18.3765 3.86608 18.5027 3.91998 18.6144C3.97388 18.7261 4.06274 18.8172 4.17308 18.8738C4.28342 18.9304 4.40922 18.9495 4.5314 18.9282C4.65357 18.9069 4.76545 18.8463 4.85007 18.7556L4.89637 18.7988L4.85007 18.7556L13.7167 9.25558C13.7807 9.18707 13.8267 9.10385 13.8508 9.01329L8.88733 6.60314ZM8.88733 6.60314L8.93776 6.62205M8.88733 6.60314L8.93776 6.62205M8.93776 6.62205L13.5002 8.33294C13.5879 8.36585 13.6662 8.41989 13.7281 8.49026C13.79 8.56063 13.8335 8.64517 13.855 8.7364L8.93776 6.62205Z" fill="#003087" stroke="#003087" stroke-width="0.125"/>
</svg>
