<svg width="24" height="24" viewBox="0 0 24 24" fill="none" xmlns="http://www.w3.org/2000/svg">
<g clip-path="url(#clip0_0_3155)">
<path d="M0.12207 0.130859H23.8999V23.0219H0.12207V0.130859Z" fill="white"/>
<path d="M0 0H24V24H0V0Z" fill="#00A651"/>
<path d="M14.7979 21.6125V22.5406H9.04158V21.6108H4.68576C4.26015 21.6108 3.91346 21.1686 3.91346 20.6233L2.09082 2.29871C2.09082 1.75312 2.51643 1.31055 3.04162 1.31055H20.6434C21.1652 1.31055 21.5908 1.75312 21.5908 2.29871L19.7887 20.6233C19.7887 21.1685 19.442 21.6108 19.0164 21.6108L14.7979 21.6125H14.7979Z" fill="white"/>
<path d="M5.2959 3.99219H17.0797C15.9195 4.42453 12.3875 6.8018 11.5053 8.40013H5.30623L5.2959 3.99219H5.2959Z" fill="#FF6701"/>
<path d="M14.6879 16.623C14.5197 18.2193 14.5128 20.1632 14.5128 22.2051H9.40527C9.40527 20.1632 9.4911 18.2193 9.65925 16.623H14.6879H14.6879Z" fill="#E50A09"/>
<path d="M6.78625 14.3161V14.9348H5.96933V15.5537H6.78625V16.2629H4.91895V12.9629H6.78625V13.6979H5.96933V14.3161H6.78625Z" fill="#00A651"/>
<path d="M11.1284 14.3161V14.9348H10.315V15.5537H11.1284V16.2629H9.26465V12.9629H11.1284V13.6979H10.315V14.3161H11.1284Z" fill="#00A651"/>
<path d="M15.9132 14.3161V14.9348H15.0962V15.5537H15.9132V16.2629H14.0459V12.9629H15.9132V13.6979H15.0962V14.3161H15.9132Z" fill="#00A651"/>
<path d="M8.1861 12.9629V15.5537H9.00295V16.2629H7.13574V12.9629H8.1861Z" fill="#00A651"/>
<path d="M12.635 15.1932L12.2367 12.9629H11.3203L11.842 16.2629H13.1909L13.8225 12.9629H13.0433L12.635 15.1932Z" fill="#00A651"/>
<path d="M16.3555 12.9629H17.3647V16.2625H16.3555V12.9629Z" fill="#00A651"/>
<path d="M17.3652 13.9433C17.4202 13.5819 17.935 13.6789 17.935 13.8853V16.2636H18.9476V13.4666C18.9476 12.8736 18.1067 12.635 17.3721 13.1571L17.3652 13.9433L17.3652 13.9433Z" fill="#00A651"/>
<path d="M15.1613 12.4985C15.2643 11.2356 17.0045 9.17329 18.6899 8.63176V3.75977C14.0526 5.82215 11.0389 8.94126 10.3867 12.4862L15.1613 12.4985L15.1613 12.4985Z" fill="#E50A09"/>
</g>
<defs>
<clipPath id="clip0_0_3155">
<path d="M0 4C0 1.79086 1.79086 0 4 0H20C22.2091 0 24 1.79086 24 4V20C24 22.2091 22.2091 24 20 24H4C1.79086 24 0 22.2091 0 20V4Z" fill="white"/>
</clipPath>
</defs>
</svg>
