<svg width="225" height="313" viewBox="0 0 225 313" fill="none" xmlns="http://www.w3.org/2000/svg">
<path d="M133.134 76.6796C132.963 79.6865 132.599 82.4472 132.193 85.3149C131.786 88.1826 131.198 90.9648 130.577 93.7683C129.303 99.4881 127.412 105.053 124.938 110.365C124.064 112.035 122.863 113.513 121.407 114.709C120.21 115.727 118.937 116.65 117.597 117.47C115.098 119.001 112.491 120.349 109.797 121.504C104.567 123.746 99.1722 125.581 93.6603 126.993L92.3335 123.023C94.7946 121.953 97.3199 120.766 99.7596 119.556C102.199 118.347 104.639 117.127 106.972 115.801C109.278 114.537 111.504 113.132 113.638 111.595C114.621 110.89 115.551 110.114 116.42 109.273C117.085 108.665 117.633 107.939 118.036 107.133C119.013 104.74 119.853 102.293 120.551 99.8033C121.235 97.2459 121.867 94.6671 122.402 92.0455C122.937 89.4239 123.365 86.7702 123.75 84.1058C124.135 81.4413 124.446 78.7555 124.681 76.1874L133.134 76.6796Z" fill="#EBB376"/>
<path d="M127.367 66.6318C123.953 67.4985 121.567 81.5482 121.567 81.5482L130.973 87.9685C130.973 87.9685 139.993 73.8011 137.393 70.0559C134.632 66.0646 132.353 65.3156 127.367 66.6318Z" fill="#003087"/>
<path opacity="0.5" d="M127.367 66.6318C123.953 67.4985 121.567 81.5482 121.567 81.5482L130.973 87.9685C130.973 87.9685 139.993 73.8011 137.393 70.0559C134.632 66.0646 132.353 65.3156 127.367 66.6318Z" fill="black"/>
<path d="M127.677 69.7242L125.056 83.881L130.342 87.4656L127.677 69.7242Z" fill="#003087"/>
<path opacity="0.7" d="M127.677 69.7242L125.056 83.881L130.342 87.4656L127.677 69.7242Z" fill="black"/>
<path d="M94.2703 122.809L88.3957 116.86L87.6253 125.249C87.6253 125.249 92.0232 128.224 95.1156 126.629L94.2703 122.809Z" fill="#EBB376"/>
<path d="M81.4832 115.972L81.2157 123.023L87.6253 125.249L88.3957 116.86L81.4832 115.972Z" fill="#EBB376"/>
<path d="M145.836 302.984H137.554L136.997 283.809H145.279L145.836 302.984Z" fill="#EBB376"/>
<path d="M218.909 264.526L212.596 269.887L198.15 256.993L204.464 251.632L218.909 264.526Z" fill="#EBB376"/>
<path d="M210.873 269.245L216.962 262.236C217.063 262.112 217.207 262.03 217.365 262.006C217.523 261.982 217.685 262.019 217.818 262.108L224.056 266.153C224.21 266.26 224.339 266.398 224.436 266.559C224.532 266.719 224.594 266.898 224.616 267.084C224.638 267.27 224.621 267.459 224.565 267.638C224.509 267.816 224.416 267.981 224.292 268.122C222.152 270.529 220.942 271.578 218.257 274.66C216.598 276.553 214.372 279.496 212.093 282.15C209.814 284.804 207.096 282.642 207.813 281.347C211.023 275.548 210.253 273.504 210.306 270.647C210.318 270.126 210.52 269.628 210.873 269.245Z" fill="#263238"/>
<path d="M137.265 302.042H146.574C146.735 302.04 146.89 302.097 147.012 302.201C147.134 302.305 147.214 302.45 147.238 302.609L148.308 309.971C148.327 310.157 148.307 310.344 148.25 310.522C148.192 310.699 148.097 310.862 147.972 311.001C147.847 311.139 147.694 311.249 147.523 311.325C147.352 311.4 147.167 311.438 146.981 311.437C143.771 311.437 142.166 311.191 138.078 311.191C135.563 311.191 130.352 311.458 126.885 311.458C123.418 311.458 123.215 308.013 124.67 307.703C131.155 306.312 133.712 304.385 135.895 302.545C136.282 302.227 136.764 302.05 137.265 302.042Z" fill="#263238"/>
<path d="M136.997 283.819L137.286 293.707H145.568L145.29 283.819H136.997Z" fill="#ED893E"/>
<path d="M204.474 251.632L198.161 256.993L205.609 263.638L211.922 258.277L204.474 251.632Z" fill="#ED893E"/>
<path d="M127.367 66.6318C127.367 66.6318 123.429 68.0228 131.326 116.614H164.958C164.39 102.928 164.38 94.4851 170.918 66.3856C166.212 65.408 161.441 64.7749 156.643 64.4917C151.557 64.1221 146.45 64.1221 141.363 64.4917C134.804 65.0695 127.367 66.6318 127.367 66.6318Z" fill="#FFD100"/>
<path d="M146.339 67.98L149.378 74.1862C149.378 74.1862 162.122 70.2913 160.453 64.6842L156.173 64.192L146.339 67.98Z" fill="#003087"/>
<path opacity="0.6" d="M146.339 67.98L149.378 74.1862C149.378 74.1862 162.122 70.2913 160.453 64.6842L156.173 64.192L146.339 67.98Z" fill="#003087"/>
<path opacity="0.5" d="M146.339 67.98L149.378 74.1862C149.378 74.1862 162.122 70.2913 160.453 64.6842L156.173 64.192L146.339 67.98Z" fill="black"/>
<path d="M146.103 67.4022L141.823 73.7368C141.823 73.7368 132.749 69.7991 139.009 64.5023L141.673 64.192L146.103 67.4022Z" fill="#003087"/>
<path opacity="0.6" d="M146.103 67.4022L141.823 73.7368C141.823 73.7368 132.749 69.7991 139.009 64.5023L141.673 64.192L146.103 67.4022Z" fill="#003087"/>
<path opacity="0.5" d="M146.103 67.4022L141.823 73.7368C141.823 73.7368 132.749 69.7991 139.009 64.5023L141.673 64.192L146.103 67.4022Z" fill="black"/>
<path d="M159.768 21.6898C163.695 17.9126 159.928 0.160498 170.265 6.03506C183.405 13.5254 191.891 3.72376 187.503 0C196.727 0.652729 195.828 11.1499 191.987 16.789C182.239 31.1384 162.571 17.4953 162.454 24.7823C162.336 32.0693 159.768 21.6898 159.768 21.6898Z" fill="#263238"/>
<path d="M154.097 19.1325C158.601 15.5692 173.989 18.5333 163.438 32.8826L154.097 19.1325Z" fill="#003087"/>
<path opacity="0.3" d="M154.097 19.1325C158.601 15.5692 173.989 18.5333 163.438 32.8826L154.097 19.1325Z" fill="black"/>
<path d="M156.472 25.7989C169.591 27.757 170.511 49.0724 150.148 52.3788L156.472 25.7989Z" fill="#263238"/>
<path d="M155.124 47.2748C154.161 52.1863 153.198 61.1854 156.643 64.4704C156.643 64.4704 155.295 69.4461 146.167 69.4461C136.13 69.4461 141.363 64.4704 141.363 64.4704C146.842 63.1543 146.713 59.1202 145.75 55.2787L155.124 47.2748Z" fill="#EBB376"/>
<path d="M151.304 50.5811L145.75 55.3107C145.994 56.1994 146.152 57.1096 146.221 58.0286C148.361 57.7183 151.197 55.4177 151.421 53.2348C151.544 52.3504 151.505 51.4511 151.304 50.5811Z" fill="#BC8F5E"/>
<path d="M134.418 41.582C129.892 35.7503 123.996 20.7054 141.641 19.2609L134.418 41.582Z" fill="#263238"/>
<path d="M154.792 34.7338C155.862 42.8875 156.504 46.3117 153.251 51.2339C148.361 58.6493 138.11 58.2106 134.622 50.5491C131.465 43.658 130.224 31.4915 137.468 26.7405C139.062 25.685 140.899 25.0543 142.805 24.9085C144.711 24.7627 146.623 25.1066 148.358 25.9074C150.094 26.7083 151.596 27.9396 152.722 29.4844C153.848 31.0292 154.561 32.8362 154.792 34.7338Z" fill="#EBB376"/>
<path d="M131.358 116.571C131.358 116.571 124.831 180.356 125.366 205.61C125.933 231.879 135.563 291.791 135.563 291.791H146.756C146.756 291.791 144.98 233.409 145.975 207.621C147.045 179.49 155.99 116.571 155.99 116.571H131.358Z" fill="#003087"/>
<path opacity="0.6" d="M131.358 116.571C131.358 116.571 124.831 180.356 125.366 205.61C125.933 231.879 135.563 291.791 135.563 291.791H146.756C146.756 291.791 144.98 233.409 145.975 207.621C147.045 179.49 155.99 116.571 155.99 116.571H131.358Z" fill="#FAFAFA"/>
<path d="M147.698 292.187H134.557L133.594 288.003L148.308 287.489L147.698 292.187Z" fill="#003087"/>
<path opacity="0.4" d="M147.698 292.187H134.557L133.594 288.003L148.308 287.489L147.698 292.187Z" fill="#FAFAFA"/>
<path d="M145.836 132.44C137.575 149.058 144.177 179.372 147.098 190.65C148.597 173.711 151.122 153.006 153.091 137.801C151.839 129.198 149.645 124.778 145.836 132.44Z" fill="#003087"/>
<path opacity="0.4" d="M145.836 132.44C137.575 149.058 144.177 179.372 147.098 190.65C148.597 173.711 151.122 153.006 153.091 137.801C151.839 129.198 149.645 124.778 145.836 132.44Z" fill="#FAFAFA"/>
<path d="M140.207 116.571C140.207 116.571 147.826 182.914 153.583 204.176C160.41 229.461 202.805 263.478 202.805 263.478L211.419 256.159C211.419 256.159 180.666 219.21 175.444 205.866C164.294 177.446 173.839 135.093 164.926 116.55L140.207 116.571Z" fill="#003087"/>
<path opacity="0.6" d="M140.207 116.571C140.207 116.571 147.826 182.914 153.583 204.176C160.41 229.461 202.805 263.478 202.805 263.478L211.419 256.159C211.419 256.159 180.666 219.21 175.444 205.866C164.294 177.446 173.839 135.093 164.926 116.55L140.207 116.571Z" fill="#FAFAFA"/>
<path d="M212.821 255.773L202.142 264.837L198.161 262.45L210.231 251.215L212.821 255.773Z" fill="#003087"/>
<path opacity="0.4" d="M212.821 255.773L202.142 264.837L198.161 262.45L210.231 251.215L212.821 255.773Z" fill="#FAFAFA"/>
<path d="M143.022 39.3885C143.15 40.0413 142.904 40.6405 142.476 40.7261C142.048 40.8117 141.598 40.3409 141.47 39.656C141.342 38.9712 141.588 38.4041 142.016 38.3185C142.444 38.2329 142.893 38.7251 143.022 39.3885Z" fill="#263238"/>
<path d="M135.638 40.8437C135.767 41.4964 135.52 42.0956 135.092 42.1812C134.664 42.2668 134.215 41.796 134.087 41.1112C133.958 40.4264 134.194 39.8592 134.622 39.7736C135.05 39.688 135.488 40.1802 135.638 40.8437Z" fill="#263238"/>
<path d="M134.804 39.8058L133.134 39.656C133.134 39.656 134.183 40.7261 134.804 39.8058Z" fill="#263238"/>
<path d="M137.778 41.5819C137.489 43.1913 136.982 44.7538 136.27 46.2259C136.649 46.4006 137.061 46.4911 137.479 46.4911C137.896 46.4911 138.309 46.4006 138.688 46.2259L137.778 41.5819Z" fill="#ED893E"/>
<path d="M141.481 48.334C141.43 48.334 141.381 48.3137 141.345 48.2776C141.308 48.2415 141.288 48.1925 141.288 48.1414C141.288 48.0903 141.308 48.0413 141.345 48.0052C141.381 47.9691 141.43 47.9488 141.481 47.9488C142.3 47.8057 143.074 47.4715 143.739 46.9732C144.405 46.4749 144.944 45.8267 145.312 45.0811C145.321 45.0572 145.336 45.0355 145.354 45.0172C145.372 44.9988 145.394 44.9843 145.418 44.9744C145.442 44.9644 145.467 44.9593 145.493 44.9592C145.519 44.9592 145.544 44.9642 145.568 44.974C145.592 44.9839 145.614 44.9983 145.632 45.0166C145.651 45.0348 145.665 45.0564 145.675 45.0803C145.685 45.1041 145.69 45.1297 145.69 45.1555C145.69 45.1814 145.685 45.207 145.675 45.2309C145.288 46.0406 144.711 46.7452 143.994 47.2853C143.277 47.8254 142.441 48.1851 141.556 48.334H141.481Z" fill="#263238"/>
<path d="M134.568 29.6296C134.568 29.6296 141.534 40.1909 154.375 41.582C154.375 41.582 167.633 29.5439 159.479 21.1976C146.275 7.69359 130.523 24.8999 134.568 29.6296Z" fill="#263238"/>
<path d="M157.585 41.0363C157.568 41.8223 157.394 42.597 157.074 43.3153C156.755 44.0336 156.295 44.6811 155.723 45.2202C154.182 46.6648 152.449 45.5198 152.064 43.5616C151.721 41.7961 152.064 38.9283 154.043 38.2114C154.47 38.0679 154.926 38.0337 155.37 38.112C155.814 38.1902 156.231 38.3784 156.583 38.6594C156.936 38.9404 157.212 39.3051 157.387 39.7203C157.562 40.1355 157.63 40.588 157.585 41.0363Z" fill="#EBB376"/>
<path d="M144.712 36.5634C144.614 36.5645 144.519 36.5303 144.445 36.4671C144.087 36.1293 143.654 35.8806 143.182 35.7412C142.709 35.6018 142.211 35.5755 141.727 35.6645C141.677 35.679 141.625 35.6833 141.573 35.677C141.521 35.6708 141.472 35.6541 141.427 35.6281C141.382 35.6022 141.342 35.5673 141.311 35.5258C141.28 35.4842 141.258 35.4368 141.245 35.3863C141.219 35.2856 141.234 35.1786 141.286 35.0885C141.338 34.9984 141.423 34.9324 141.523 34.9048C142.134 34.7797 142.765 34.8029 143.365 34.9723C143.964 35.1417 144.514 35.4525 144.969 35.8785C145.042 35.9526 145.083 36.0526 145.083 36.1568C145.083 36.2609 145.042 36.3609 144.969 36.435C144.903 36.5093 144.811 36.5553 144.712 36.5634Z" fill="#263238"/>
<path d="M131.508 38.0937C131.459 38.1048 131.407 38.1048 131.358 38.0937C131.31 38.075 131.265 38.0466 131.228 38.0103C131.191 37.974 131.161 37.9306 131.141 37.8826C131.121 37.8346 131.111 37.7831 131.112 37.7311C131.112 37.6791 131.123 37.6277 131.144 37.5801C131.369 36.9995 131.731 36.4816 132.198 36.07C132.666 35.6584 133.225 35.3653 133.83 35.2153C133.88 35.2045 133.932 35.2041 133.982 35.214C134.032 35.224 134.08 35.2441 134.122 35.2732C134.164 35.3023 134.2 35.3397 134.227 35.3831C134.254 35.4265 134.272 35.475 134.279 35.5256C134.29 35.5763 134.291 35.6286 134.281 35.6795C134.271 35.7304 134.251 35.7787 134.222 35.8217C134.193 35.8646 134.156 35.9013 134.112 35.9295C134.069 35.9577 134.02 35.9768 133.969 35.9857C133.488 36.1093 133.043 36.3454 132.671 36.6747C132.298 37.004 132.01 37.417 131.829 37.8797C131.799 37.9405 131.753 37.9922 131.697 38.0298C131.641 38.0674 131.575 38.0894 131.508 38.0937Z" fill="#263238"/>
<path d="M182.72 107.647V106.694C182.72 105.41 182.538 104.18 182.41 102.939C181.762 98.1328 180.739 93.3851 179.35 88.739C178.006 84.1374 176.406 79.6147 174.556 75.1922L166.67 78.4024C168.264 82.5328 169.773 86.8879 171.153 91.168C171.817 93.3081 172.448 95.4482 172.994 97.5883C173.539 99.7284 174.064 101.869 174.438 104.009L174.663 105.432C173.925 105.186 173.165 104.918 172.394 104.597C168.35 102.949 164.219 100.809 160.142 98.7547L157.778 102.211C161.405 105.362 165.317 108.17 169.462 110.6C170.576 111.245 171.731 111.817 172.919 112.312C173.585 112.601 174.272 112.841 174.973 113.029C175.391 113.147 175.816 113.237 176.247 113.297C176.818 113.37 177.397 113.37 177.969 113.297C178.913 113.214 179.816 112.873 180.58 112.312C181.531 111.606 182.201 110.586 182.474 109.434C182.636 108.852 182.719 108.251 182.72 107.647ZM176.963 106.052H177.156C177.274 106.042 177.124 106.063 176.91 106.052H176.963Z" fill="#EBB376"/>
<path d="M170.95 66.3429C174.32 67.4129 178.365 78.9694 178.365 78.9694L165.3 88.3216C165.3 88.3216 160.528 78.6377 161.951 74.2826C163.385 69.7456 167.076 65.1765 170.95 66.3429Z" fill="#003087"/>
<path opacity="0.5" d="M170.95 66.3429C174.32 67.4129 178.365 78.9694 178.365 78.9694L165.3 88.3216C165.3 88.3216 160.528 78.6377 161.951 74.2826C163.385 69.7456 167.076 65.1765 170.95 66.3429Z" fill="black"/>
<path d="M208.605 273.237C208.434 273.232 208.267 273.189 208.115 273.111C207.963 273.033 207.831 272.923 207.727 272.787C207.646 272.702 207.589 272.596 207.562 272.481C207.536 272.367 207.541 272.247 207.578 272.134C207.877 271.118 210.788 270.294 211.077 270.208C211.115 270.197 211.155 270.197 211.193 270.208C211.231 270.22 211.265 270.242 211.291 270.272C211.309 270.305 211.319 270.342 211.319 270.38C211.319 270.417 211.309 270.454 211.291 270.487C210.777 271.46 209.75 273.108 208.712 273.237H208.605ZM210.745 270.722C209.6 271.086 208.123 271.717 207.963 272.252C207.946 272.301 207.944 272.353 207.958 272.403C207.971 272.452 207.999 272.497 208.038 272.53C208.111 272.636 208.211 272.72 208.327 272.775C208.444 272.83 208.573 272.852 208.701 272.841C209.247 272.776 209.996 271.995 210.734 270.722H210.745Z" fill="#003087"/>
<path d="M209.825 270.754C208.969 270.842 208.112 270.601 207.428 270.08C207.329 269.959 207.274 269.808 207.274 269.652C207.274 269.496 207.329 269.344 207.428 269.224C207.513 269.102 207.622 268.999 207.749 268.921C207.877 268.844 208.018 268.794 208.166 268.774C209.343 268.635 211.162 270.176 211.237 270.251C211.265 270.271 211.286 270.3 211.297 270.332C211.309 270.364 211.31 270.4 211.301 270.433C211.296 270.468 211.282 270.5 211.259 270.527C211.236 270.553 211.206 270.573 211.173 270.583C210.734 270.705 210.28 270.763 209.825 270.754ZM208.369 269.149H208.241C208.146 269.16 208.055 269.191 207.973 269.241C207.892 269.291 207.823 269.358 207.77 269.438C207.631 269.641 207.684 269.759 207.77 269.834C208.123 270.294 209.75 270.465 210.745 270.294C210.078 269.713 209.27 269.318 208.401 269.149H208.369Z" fill="#003087"/>
<path d="M134.162 303.476C133.452 303.541 132.742 303.359 132.15 302.962C132.017 302.845 131.915 302.697 131.853 302.531C131.792 302.365 131.772 302.186 131.797 302.01C131.803 301.902 131.837 301.797 131.895 301.705C131.953 301.613 132.033 301.538 132.128 301.486C133.145 300.94 136.409 302.62 136.815 302.813C136.852 302.832 136.881 302.861 136.9 302.898C136.919 302.934 136.927 302.975 136.922 303.016C136.918 303.055 136.901 303.092 136.874 303.121C136.847 303.15 136.812 303.17 136.772 303.176C135.914 303.362 135.04 303.462 134.162 303.476ZM132.685 301.764C132.559 301.756 132.434 301.782 132.321 301.839C132.283 301.857 132.25 301.886 132.227 301.922C132.205 301.958 132.193 302 132.193 302.042C132.172 302.158 132.182 302.277 132.221 302.388C132.26 302.498 132.328 302.597 132.417 302.673C132.92 303.123 134.279 303.208 136.12 302.898C135.047 302.328 133.886 301.944 132.685 301.764Z" fill="#003087"/>
<path d="M136.708 303.187H136.623C135.638 302.738 133.691 300.961 133.841 299.977C133.841 299.752 134.033 299.474 134.579 299.42C134.771 299.399 134.966 299.419 135.15 299.478C135.335 299.537 135.505 299.634 135.649 299.763C136.719 300.63 136.89 302.855 136.89 302.973C136.896 303.006 136.891 303.039 136.878 303.07C136.865 303.1 136.843 303.126 136.815 303.144C136.785 303.17 136.748 303.185 136.708 303.187ZM134.739 299.827H134.622C134.258 299.827 134.236 299.998 134.226 300.052C134.14 300.608 135.456 302.021 136.462 302.631C136.388 301.686 136.013 300.79 135.392 300.073C135.214 299.925 134.992 299.839 134.761 299.827H134.739Z" fill="#003087"/>
<path d="M161.319 99.7069L158.537 91.2L154.107 98.3586C154.107 98.3586 156.718 102.992 160.164 102.917L161.319 99.7069Z" fill="#EBB376"/>
<path d="M152.727 87.3266L149.346 93.5221L154.075 98.3587L158.505 91.2001L152.727 87.3266Z" fill="#EBB376"/>
<path d="M142.208 38.3505L140.55 38.2006C140.55 38.2006 141.598 39.2707 142.208 38.3505Z" fill="#263238"/>
<path d="M165.46 114.591L166.327 117.609C166.445 117.834 166.167 118.08 165.771 118.08H131.165C130.855 118.08 130.609 117.93 130.588 117.737L130.288 114.784C130.288 114.57 130.523 114.399 130.855 114.399H164.915C165.015 114.383 165.117 114.393 165.212 114.426C165.307 114.46 165.393 114.517 165.46 114.591Z" fill="#263238"/>
<path d="M160.891 118.401H161.801C161.983 118.401 162.122 118.304 162.111 118.197L161.683 114.281C161.683 114.163 161.512 114.078 161.33 114.078H160.421C160.239 114.078 160.1 114.163 160.11 114.281L160.538 118.197C160.549 118.304 160.709 118.401 160.891 118.401Z" fill="#003087"/>
<path opacity="0.6" d="M160.891 118.401H161.801C161.983 118.401 162.122 118.304 162.111 118.197L161.683 114.281C161.683 114.163 161.512 114.078 161.33 114.078H160.421C160.239 114.078 160.1 114.163 160.11 114.281L160.538 118.197C160.549 118.304 160.709 118.401 160.891 118.401Z" fill="#FAFAFA"/>
<path d="M133.723 118.401H134.632C134.814 118.401 134.953 118.304 134.943 118.197L134.515 114.281C134.515 114.163 134.344 114.078 134.162 114.078H133.252C133.07 114.078 132.931 114.163 132.942 114.281L133.37 118.197C133.381 118.304 133.498 118.401 133.723 118.401Z" fill="#003087"/>
<path opacity="0.6" d="M133.723 118.401H134.632C134.814 118.401 134.953 118.304 134.943 118.197L134.515 114.281C134.515 114.163 134.344 114.078 134.162 114.078H133.252C133.07 114.078 132.931 114.163 132.942 114.281L133.37 118.197C133.381 118.304 133.498 118.401 133.723 118.401Z" fill="#FAFAFA"/>
<path d="M147.302 118.401H148.222C148.404 118.401 148.543 118.304 148.522 118.197L148.094 114.281C148.094 114.163 147.922 114.078 147.74 114.078H146.831C146.649 114.078 146.51 114.163 146.521 114.281L146.949 118.197C146.978 118.265 147.028 118.321 147.092 118.357C147.155 118.394 147.229 118.409 147.302 118.401Z" fill="#003087"/>
<path opacity="0.6" d="M147.302 118.401H148.222C148.404 118.401 148.543 118.304 148.522 118.197L148.094 114.281C148.094 114.163 147.922 114.078 147.74 114.078H146.831C146.649 114.078 146.51 114.163 146.521 114.281L146.949 118.197C146.978 118.265 147.028 118.321 147.092 118.357C147.155 118.394 147.229 118.409 147.302 118.401Z" fill="#FAFAFA"/>
<path d="M39.9761 312.999H110.76C112.411 313.019 114.048 312.692 115.565 312.042C117.083 311.391 118.448 310.431 119.572 309.222C120.696 308.012 121.556 306.582 122.095 305.021C122.634 303.46 122.84 301.804 122.701 300.159L105.773 58.0714C105.48 54.6097 103.912 51.3801 101.374 49.008C98.8356 46.6359 95.5075 45.2899 92.0339 45.2308H21.2503C19.5993 45.2115 17.9624 45.5377 16.4448 46.1882C14.9272 46.8388 13.5624 47.7995 12.438 49.0085C11.3135 50.2176 10.4543 51.6485 9.91535 53.2092C9.37643 54.7699 9.16976 56.4261 9.30859 58.0714L26.2367 300.169C26.5329 303.629 28.1016 306.856 30.6396 309.226C33.1775 311.596 36.5042 312.94 39.9761 312.999Z" fill="#003087"/>
<path opacity="0.2" d="M39.9761 312.999H110.76C112.411 313.019 114.048 312.692 115.565 312.042C117.083 311.391 118.448 310.431 119.572 309.222C120.696 308.012 121.556 306.582 122.095 305.021C122.634 303.46 122.84 301.804 122.701 300.159L105.773 58.0714C105.48 54.6097 103.912 51.3801 101.374 49.008C98.8356 46.6359 95.5075 45.2899 92.0339 45.2308H21.2503C19.5993 45.2115 17.9624 45.5377 16.4448 46.1882C14.9272 46.8388 13.5624 47.7995 12.438 49.0085C11.3135 50.2176 10.4543 51.6485 9.91535 53.2092C9.37643 54.7699 9.16976 56.4261 9.30859 58.0714L26.2367 300.169C26.5329 303.629 28.1016 306.856 30.6396 309.226C33.1775 311.596 36.5042 312.94 39.9761 312.999Z" fill="black"/>
<path d="M2.58545 132.72L1.51801 132.795L2.69736 149.66L3.7648 149.586L2.58545 132.72Z" fill="#003087"/>
<path opacity="0.5" d="M2.58545 132.72L1.51801 132.795L2.69736 149.66L3.7648 149.586L2.58545 132.72Z" fill="black"/>
<path d="M30.7095 312.999H101.482C103.133 313.019 104.77 312.692 106.288 312.042C107.805 311.391 109.17 310.431 110.295 309.222C111.419 308.012 112.278 306.582 112.817 305.021C113.356 303.46 113.563 301.804 113.424 300.159L96.496 58.0714C96.2023 54.6097 94.6346 51.3801 92.0964 49.008C89.5582 46.6359 86.2301 45.2899 82.7565 45.2308H11.9837C10.3326 45.2115 8.69579 45.5377 7.17821 46.1882C5.66062 46.8388 4.29582 47.7995 3.17136 49.0085C2.04691 50.2176 1.18763 51.6485 0.648712 53.2092C0.109791 54.7699 -0.0968819 56.4261 0.0419453 58.0714L16.9701 300.159C17.2637 303.62 18.8314 306.85 21.3696 309.222C23.9078 311.594 27.2359 312.94 30.7095 312.999Z" fill="#003087"/>
<path opacity="0.5" d="M30.7095 312.999H101.482C103.133 313.019 104.77 312.692 106.288 312.042C107.805 311.391 109.17 310.431 110.295 309.222C111.419 308.012 112.278 306.582 112.817 305.021C113.356 303.46 113.563 301.804 113.424 300.159L96.496 58.0714C96.2023 54.6097 94.6346 51.3801 92.0964 49.008C89.5582 46.6359 86.2301 45.2899 82.7565 45.2308H11.9837C10.3326 45.2115 8.69579 45.5377 7.17821 46.1882C5.66062 46.8388 4.29582 47.7995 3.17136 49.0085C2.04691 50.2176 1.18763 51.6485 0.648712 53.2092C0.109791 54.7699 -0.0968819 56.4261 0.0419453 58.0714L16.9701 300.159C17.2637 303.62 18.8314 306.85 21.3696 309.222C23.9078 311.594 27.2359 312.94 30.7095 312.999Z" fill="black"/>
<path d="M43.8497 122.338H56.9471C57.2553 122.351 57.5626 122.297 57.848 122.18C58.1334 122.063 58.39 121.885 58.6004 121.66C58.8108 121.434 58.9699 121.165 59.0668 120.873C59.1638 120.58 59.1963 120.269 59.1621 119.963L56.0269 75.1279C55.9737 74.4862 55.6833 73.8873 55.2125 73.4481C54.7416 73.0089 54.124 72.7608 53.4801 72.7524H40.4042C40.0968 72.7413 39.7907 72.7965 39.5066 72.9144C39.2226 73.0322 38.9673 73.2099 38.7581 73.4354C38.5489 73.6608 38.3907 73.9287 38.2944 74.2208C38.1981 74.5128 38.1658 74.8222 38.1999 75.1279L41.3351 119.963C41.3877 120.599 41.6734 121.194 42.1376 121.632C42.6017 122.071 43.2114 122.322 43.8497 122.338Z" fill="#003087"/>
<path opacity="0.2" d="M43.8497 122.338H56.9471C57.2553 122.351 57.5626 122.297 57.848 122.18C58.1334 122.063 58.39 121.885 58.6004 121.66C58.8108 121.434 58.9699 121.165 59.0668 120.873C59.1638 120.58 59.1963 120.269 59.1621 119.963L56.0269 75.1279C55.9737 74.4862 55.6833 73.8873 55.2125 73.4481C54.7416 73.0089 54.124 72.7608 53.4801 72.7524H40.4042C40.0968 72.7413 39.7907 72.7965 39.5066 72.9144C39.2226 73.0322 38.9673 73.2099 38.7581 73.4354C38.5489 73.6608 38.3907 73.9287 38.2944 74.2208C38.1981 74.5128 38.1658 74.8222 38.1999 75.1279L41.3351 119.963C41.3877 120.599 41.6734 121.194 42.1376 121.632C42.6017 122.071 43.2114 122.322 43.8497 122.338Z" fill="black"/>
</svg>
