<svg width="23" height="23" viewBox="0 0 23 23" fill="none" xmlns="http://www.w3.org/2000/svg">
<path d="M7.92222 0.766667H3.83333C2.13966 0.766667 0.766667 2.13966 0.766667 3.83333V7.92222" stroke="black" stroke-width="1.5" stroke-linecap="round"/>
<path d="M7.92222 22.2333H3.83333C2.13966 22.2333 0.766667 20.8603 0.766667 19.1667V15.0778" stroke="#000F2A" stroke-width="1.5" stroke-linecap="round"/>
<path d="M15.0778 0.766667H19.1667C20.8603 0.766667 22.2333 2.13966 22.2333 3.83333V7.92222" stroke="black" stroke-width="1.5" stroke-linecap="round"/>
<path d="M15.0778 22.2333H19.1667C20.8603 22.2333 22.2333 20.8603 22.2333 19.1667V15.0778" stroke="black" stroke-width="1.5" stroke-linecap="round"/>
<path d="M11.5 7.92222V11.3083C11.5 12.1552 10.8135 12.8417 9.96667 12.8417H9.71111" stroke="black" stroke-width="1.5" stroke-linecap="round"/>
<path d="M7.02778 7.92222V9.71111" stroke="black" stroke-width="1.5" stroke-linecap="round"/>
<path d="M15.9722 7.92222V9.71111" stroke="black" stroke-width="1.5" stroke-linecap="round"/>
<path d="M7.92222 15.0778C7.92222 15.0778 8.81667 16.4194 11.5 16.4194C14.1833 16.4194 15.0778 15.0778 15.0778 15.0778" stroke="black" stroke-width="1.5" stroke-linecap="round"/>
</svg>
