<svg width="70" height="67" viewBox="0 0 70 67" fill="none" xmlns="http://www.w3.org/2000/svg">
<path fill-rule="evenodd" clip-rule="evenodd" d="M1.63767 47.8948L11.2933 48.6676C11.9853 48.7235 12.5902 48.2074 12.6453 47.5164C12.7004 46.8253 12.1852 46.2195 11.4941 46.1644L1.83843 45.3916C1.14645 45.3356 0.54153 45.8517 0.485568 46.5437C0.430494 47.2348 0.946588 47.8397 1.63767 47.8948Z" fill="#8DA3BE"/>
<path fill-rule="evenodd" clip-rule="evenodd" d="M9.43646 55.5966L13.4337 53.2888C14.0342 52.9424 14.2403 52.1731 13.8939 51.5726C13.5474 50.9721 12.7782 50.7661 12.1777 51.1125L8.18042 53.4203C7.57906 53.7676 7.37386 54.5359 7.72029 55.1364C8.06672 55.7369 8.83598 55.943 9.43646 55.5966Z" fill="#8DA3BE"/>
<path fill-rule="evenodd" clip-rule="evenodd" d="M16.3246 63.3209L18.8313 53.9637C19.0107 53.294 18.6128 52.6047 17.943 52.4252C17.2733 52.2458 16.584 52.6438 16.4045 53.3135L13.8978 62.6707C13.7183 63.3405 14.1163 64.0298 14.7861 64.2092C15.4558 64.3887 16.1451 63.9907 16.3246 63.3209Z" fill="#8DA3BE"/>
<path fill-rule="evenodd" clip-rule="evenodd" d="M68.2261 22.2546L58.5705 21.4818C57.8794 21.4267 57.2744 21.9428 57.2185 22.633C57.1634 23.3241 57.6795 23.9308 58.3706 23.9859L68.0263 24.7587C68.7173 24.8138 69.3232 24.2986 69.3791 23.6066C69.4342 22.9155 68.9172 22.3097 68.2261 22.2546Z" fill="#8DA3BE"/>
<path fill-rule="evenodd" clip-rule="evenodd" d="M60.4279 14.5524L56.4306 16.8602C55.8302 17.2066 55.6241 17.9759 55.9705 18.5763C56.3169 19.1768 57.0862 19.3829 57.6867 19.0365L61.684 16.7287C62.2844 16.3805 62.4905 15.613 62.1432 15.0117C61.7968 14.4112 61.0284 14.206 60.4279 14.5524Z" fill="#8DA3BE"/>
<path fill-rule="evenodd" clip-rule="evenodd" d="M53.5401 6.82729L51.0325 16.1836C50.853 16.8534 51.251 17.5427 51.9207 17.7221C52.5905 17.9015 53.2798 17.5036 53.4593 16.8338L55.9669 7.47751C56.1463 6.80775 55.7484 6.11844 55.0786 5.939C54.4088 5.75957 53.7195 6.15752 53.5401 6.82729Z" fill="#8DA3BE"/>
<path d="M66.9986 42.9796C66.3568 42.3761 65.5055 42.0458 64.6246 42.0585C63.7437 42.0712 62.9022 42.4259 62.2781 43.0477C61.6539 43.6695 61.2961 44.5097 61.2801 45.3905C61.2641 46.2714 61.5913 47.124 62.1925 47.768C61.5496 47.1482 60.6887 46.8062 59.7958 46.8159C58.9029 46.8256 58.0497 47.1862 57.4204 47.8197C56.7912 48.4533 56.4364 49.3089 56.4328 50.2019C56.4292 51.0948 56.777 51.9534 57.4011 52.592C56.7589 51.9864 55.9061 51.6545 55.0234 51.6668C54.1407 51.6791 53.2975 52.0345 52.6723 52.6577C52.0472 53.281 51.6892 54.1231 51.6742 55.0057C51.6592 55.8884 51.9883 56.7422 52.592 57.3863C51.9454 56.7858 51.091 56.4596 50.2087 56.4766C49.3264 56.4936 48.4852 56.8523 47.8622 57.4772C47.2392 58.1022 46.883 58.9445 46.8688 59.8268C46.8545 60.7092 47.1833 61.5626 47.7858 62.2073C47.1459 61.5919 46.2904 61.2517 45.4027 61.2597C44.515 61.2677 43.6657 61.6232 43.037 62.2499C42.4082 62.8767 42.0501 63.7249 42.0394 64.6126C42.0287 65.5003 42.3662 66.3569 42.9796 66.9986L14.1189 38.1557V32.6345H8.60364L0 24.0309C0.640485 24.6686 1.50808 25.0258 2.41191 25.0238C3.31575 25.0219 4.18179 24.661 4.81952 24.0205C5.45725 23.38 5.81443 22.5124 5.81249 21.6086C5.81054 20.7047 5.44962 19.8387 4.80914 19.201C5.44626 19.8294 6.30613 20.1802 7.20103 20.1769C8.09592 20.1735 8.95314 19.8162 9.58553 19.1831C10.2179 18.5499 10.5741 17.6922 10.5764 16.7973C10.5786 15.9024 10.2267 15.043 9.59751 14.4066C10.2398 15.0123 11.0925 15.3441 11.9752 15.3318C12.8579 15.3195 13.7011 14.9641 14.3263 14.3409C14.9515 13.7177 15.3095 12.8755 15.3245 11.9929C15.3395 11.1103 15.0103 10.2565 14.4066 9.61234C15.0529 10.2132 15.9071 10.5399 16.7893 10.5235C17.6716 10.507 18.5131 10.1488 19.1365 9.52427C19.7599 8.89973 20.1165 8.05761 20.1313 7.17531C20.1461 6.29301 19.8179 5.4394 19.2158 4.79431C19.8516 5.43282 20.7149 5.79263 21.616 5.79458C22.517 5.79653 23.382 5.44045 24.0205 4.80469C24.659 4.16892 25.0188 3.30555 25.0208 2.40449C25.0227 1.50344 24.6666 0.638518 24.0309 0L32.6345 8.60364V14.104H38.1497L66.9986 42.9796Z" fill="#003087"/>
<path d="M66.9987 42.9807C66.3569 42.3771 65.5055 42.0468 64.6246 42.0595C63.7437 42.0722 62.9022 42.4269 62.2781 43.0488C61.654 43.6706 61.2961 44.5107 61.2801 45.3916C61.2642 46.2724 61.5913 47.125 62.1925 47.769C61.5497 47.1493 60.6888 46.8073 59.7959 46.8169C58.903 46.8266 58.0497 47.1872 57.4205 47.8207C56.7912 48.4543 56.4365 49.31 56.4328 50.2029C56.4292 51.0959 56.7771 51.9544 57.4012 52.593C56.7589 51.9874 55.9061 51.6556 55.0235 51.6678C54.1408 51.6801 53.2976 52.0355 52.6724 52.6587C52.0472 53.282 51.6892 54.1241 51.6742 55.0068C51.6592 55.8894 51.9884 56.7432 52.592 57.3873C51.9455 56.7868 51.091 56.4606 50.2088 56.4776C49.3265 56.4946 48.4852 56.8533 47.8622 57.4782C47.2392 58.1032 46.8831 58.9455 46.8688 59.8279C46.8546 60.7102 47.1833 61.5636 47.7859 62.2083C47.146 61.5929 46.2905 61.2528 45.4027 61.2607C44.515 61.2687 43.6657 61.6242 43.037 62.251C42.4083 62.8777 42.0502 63.7259 42.0395 64.6136C42.0288 65.5013 42.3663 66.3579 42.9797 66.9997L14.1189 38.1567V32.6355L32.6346 14.1051H38.1498L66.9987 42.9807Z" fill="#E9F3FC"/>
<path fill-rule="evenodd" clip-rule="evenodd" d="M61.2744 38.7095C62.1554 38.6968 63.0067 39.0272 63.6485 39.6307L38.1464 14.1051H38.1495L66.9984 42.9807C66.3566 42.3771 65.5053 42.0468 64.6244 42.0595C63.7435 42.0722 62.902 42.4269 62.2779 43.0488C61.6538 43.6706 61.2959 44.5107 61.2799 45.3916C61.2639 46.2724 61.5911 47.125 62.1923 47.769C61.5494 47.1493 60.6886 46.8073 59.7956 46.8169C58.9027 46.8266 58.0495 47.1872 57.4202 47.8207C56.791 48.4543 56.4362 49.31 56.4326 50.2029C56.429 51.0959 56.7768 51.9544 57.4009 52.593C56.7587 51.9874 55.9059 51.6556 55.0232 51.6678C54.1405 51.6801 53.2973 52.0355 52.6721 52.6587C52.047 53.282 51.689 54.1241 51.674 55.0068C51.659 55.8894 51.9882 56.7432 52.5918 57.3873C51.9452 56.7868 51.0908 56.4607 50.2085 56.4776C49.3262 56.4946 48.485 56.8533 47.862 57.4782C47.239 58.1032 46.8828 58.9455 46.8686 59.8279C46.8543 60.7102 47.1831 61.5636 47.7856 62.2083C47.1457 61.5929 46.2902 61.2528 45.4025 61.2607C44.5148 61.2687 43.6655 61.6242 43.0368 62.251C42.408 62.8777 42.0499 63.7259 42.0392 64.6136C42.0285 65.5013 42.366 66.3579 42.9794 66.9997L14.1187 38.1567V38.1546L39.6295 63.6497C39.0161 63.008 38.6786 62.1514 38.6893 61.2637C38.7 60.376 39.0581 59.5278 39.6868 58.901C40.3155 58.2742 41.1648 57.9188 42.0526 57.9108C42.9403 57.9028 43.7958 58.243 44.4357 58.8584C43.8332 58.2137 43.5044 57.3602 43.5186 56.4779C43.5329 55.5956 43.889 54.7533 44.512 54.1283C45.1351 53.5034 45.9763 53.1446 46.8586 53.1277C47.7409 53.1107 48.5953 53.4368 49.2418 54.0374C48.6382 53.3933 48.309 52.5394 48.324 51.6568C48.339 50.7742 48.697 49.9321 49.3222 49.3088C49.9474 48.6856 50.7906 48.3302 51.6733 48.3179C52.556 48.3056 53.4087 48.6374 54.051 49.2431C53.4269 48.6044 53.079 47.7459 53.0827 46.853C53.0863 45.96 53.441 45.1044 54.0703 44.4708C54.6996 43.8372 55.5528 43.4767 56.4457 43.467C57.3386 43.4573 58.1995 43.7993 58.8423 44.4191C58.2412 43.7751 57.914 42.9225 57.93 42.0416C57.9459 41.1608 58.3038 40.3206 58.9279 39.6988C59.5521 39.077 60.3935 38.7223 61.2744 38.7095Z" fill="#CADCF0"/>
<path d="M30.1842 17.6017C29.9775 17.6026 29.7753 17.5421 29.6031 17.4277C29.431 17.3133 29.2968 17.1504 29.2176 16.9595C29.1384 16.7686 29.1177 16.5585 29.1583 16.3559C29.1989 16.1532 29.2989 15.9673 29.4455 15.8216C29.5429 15.7242 29.6585 15.6469 29.7858 15.5942C29.913 15.5415 30.0494 15.5144 30.1872 15.5144C30.3249 15.5144 30.4613 15.5415 30.5886 15.5942C30.7158 15.6469 30.8314 15.7242 30.9288 15.8216C31.0262 15.919 31.1035 16.0346 31.1562 16.1619C31.2089 16.2892 31.2361 16.4256 31.2361 16.5633C31.2361 16.701 31.2089 16.8374 31.1562 16.9647C31.1035 17.092 31.0262 17.2076 30.9288 17.305C30.8321 17.4034 30.716 17.4807 30.5878 17.5317C30.4595 17.5828 30.3221 17.6066 30.1842 17.6017Z" fill="#E9F3FC"/>
<path d="M19.2311 27.5162C19.1336 27.4189 19.0561 27.3033 19.0033 27.176C18.9504 27.0488 18.9232 26.9123 18.9232 26.7745C18.9232 26.6367 18.9504 26.5002 19.0033 26.373C19.0561 26.2457 19.1336 26.1301 19.2311 26.0328C19.3276 25.9338 19.443 25.8551 19.5703 25.8013C19.6977 25.7476 19.8346 25.7199 19.9728 25.7199C20.1111 25.7199 20.248 25.7476 20.3753 25.8013C20.5027 25.8551 20.6181 25.9338 20.7145 26.0328C20.8128 26.1297 20.8909 26.2452 20.9442 26.3725C20.9975 26.4998 21.0249 26.6365 21.0249 26.7745C21.0249 26.9125 20.9975 27.0492 20.9442 27.1765C20.8909 27.3038 20.8128 27.4193 20.7145 27.5162C20.5147 27.707 20.2491 27.8134 19.9728 27.8134C19.6966 27.8134 19.4309 27.707 19.2311 27.5162ZM22.634 24.1103C22.5364 24.013 22.459 23.8975 22.4062 23.7702C22.3533 23.6429 22.3261 23.5065 22.3261 23.3686C22.3261 23.2308 22.3533 23.0944 22.4062 22.9671C22.459 22.8398 22.5364 22.7242 22.634 22.627C22.8362 22.4408 23.1009 22.3374 23.3757 22.3374C23.6505 22.3374 23.9153 22.4408 24.1174 22.627C24.215 22.7242 24.2925 22.8398 24.3453 22.9671C24.3981 23.0944 24.4253 23.2308 24.4253 23.3686C24.4253 23.5065 24.3981 23.6429 24.3453 23.7702C24.2925 23.8975 24.215 24.013 24.1174 24.1103C24.0178 24.2073 23.8999 24.2835 23.7705 24.3345C23.6411 24.3854 23.5029 24.4101 23.3639 24.407C23.2286 24.4082 23.0945 24.3826 22.9693 24.3317C22.844 24.2808 22.7301 24.2055 22.634 24.1103ZM26.028 20.7045C25.9297 20.6076 25.8516 20.4921 25.7984 20.3648C25.7451 20.2375 25.7176 20.1008 25.7176 19.9628C25.7176 19.8248 25.7451 19.6881 25.7984 19.5608C25.8516 19.4334 25.9297 19.318 26.028 19.2211C26.1245 19.1221 26.2398 19.0433 26.3672 18.9896C26.4946 18.9358 26.6315 18.9082 26.7697 18.9082C26.908 18.9082 27.0448 18.9358 27.1722 18.9896C27.2996 19.0433 27.4149 19.1221 27.5114 19.2211C27.609 19.3184 27.6864 19.434 27.7393 19.5613C27.7921 19.6885 27.8193 19.825 27.8193 19.9628C27.8193 20.1006 27.7921 20.237 27.7393 20.3643C27.6864 20.4916 27.609 20.6072 27.5114 20.7045C27.4163 20.8025 27.3016 20.8796 27.1749 20.9307C27.0482 20.9818 26.9122 21.0058 26.7756 21.0012C26.6376 21.0039 26.5003 20.9791 26.3719 20.9282C26.2436 20.8772 26.1266 20.8012 26.028 20.7045Z" fill="#E9F3FC"/>
<path d="M16.5608 31.225C16.3906 31.2217 16.2238 31.1768 16.0749 31.0941C15.9261 31.0114 15.7998 30.8935 15.7071 30.7507C15.6144 30.6079 15.5582 30.4445 15.5433 30.2749C15.5284 30.1053 15.5553 29.9346 15.6217 29.7779C15.688 29.6211 15.7919 29.4829 15.924 29.3756C16.0561 29.2682 16.2126 29.1949 16.3796 29.162C16.5467 29.1292 16.7193 29.1378 16.8822 29.1871C17.0452 29.2364 17.1936 29.3249 17.3144 29.4449C17.5093 29.6425 17.6186 29.909 17.6186 30.1866C17.6186 30.4642 17.5093 30.7306 17.3144 30.9283C17.1073 31.115 16.8396 31.2203 16.5608 31.225Z" fill="#E9F3FC"/>
<path d="M28.7498 46.9631L26.8986 45.1216L45.1175 26.897L46.9717 28.7355L28.7498 46.9631Z" fill="#003087"/>
<path d="M43.0217 47.3588C42.0174 47.3588 41.0442 47.0105 40.268 46.3734C39.4917 45.7362 38.9604 44.8496 38.7646 43.8646C38.5688 42.8796 38.7206 41.8572 39.1942 40.9716C39.6678 40.086 40.4338 39.3921 41.3617 39.008C42.2896 38.6239 43.322 38.5735 44.2829 38.8653C45.2439 39.1571 46.0739 39.7731 46.6315 40.6083C47.1891 41.4435 47.4399 42.4463 47.341 43.4457C47.2422 44.4451 46.7998 45.3792 46.0893 46.089C45.6903 46.4969 45.2127 46.8196 44.6855 47.0379C44.1582 47.2561 43.5923 47.3653 43.0217 47.3588ZM43.0217 41.3036C42.7938 41.3021 42.568 41.3468 42.3579 41.435C42.1479 41.5232 41.9578 41.6531 41.7994 41.8169C41.6387 41.977 41.5113 42.1673 41.4243 42.3767C41.3373 42.5862 41.2925 42.8108 41.2925 43.0377C41.2925 43.2645 41.3373 43.4891 41.4243 43.6986C41.5113 43.9081 41.6387 44.0984 41.7994 44.2585C42.1329 44.5633 42.5684 44.7323 43.0202 44.7323C43.472 44.7323 43.9075 44.5633 44.241 44.2585C44.4751 44.0138 44.6331 43.7064 44.6957 43.3736C44.7583 43.0408 44.7229 42.697 44.5937 42.3839C44.4645 42.0709 44.2472 41.8021 43.9681 41.6104C43.689 41.4186 43.3602 41.312 43.0217 41.3036Z" fill="#003087"/>
<path d="M30.8301 35.1832C29.8259 35.179 28.8542 34.8268 28.0806 34.1866C27.307 33.5463 26.7793 32.6576 26.5875 31.6718C26.3957 30.6861 26.5516 29.6644 27.0287 28.7807C27.5058 27.8971 28.2746 27.2062 29.204 26.8258C30.1334 26.4455 31.1659 26.3991 32.1256 26.6947C33.0853 26.9903 33.9129 27.6096 34.4672 28.4469C35.0215 29.2843 35.2683 30.288 35.1656 31.2869C35.0628 32.2859 34.6169 33.2183 33.9037 33.9253C33.4995 34.3271 33.0199 34.6451 32.4925 34.8609C31.965 35.0768 31.4001 35.1863 30.8301 35.1832ZM30.8301 29.0983C30.6082 29.0992 30.3887 29.1448 30.1848 29.2325C29.9808 29.3201 29.7967 29.4481 29.6434 29.6086C29.3324 29.9327 29.1604 30.3655 29.1641 30.8147C29.1679 31.2638 29.3472 31.6937 29.6636 32.0125C29.9801 32.3313 30.4086 32.5137 30.8578 32.5207C31.3069 32.5278 31.741 32.3589 32.0673 32.0503C32.2287 31.8905 32.3568 31.7004 32.4442 31.4908C32.5316 31.2813 32.5766 31.0565 32.5766 30.8294C32.5766 30.6024 32.5316 30.3776 32.4442 30.168C32.3568 29.9585 32.2287 29.7683 32.0673 29.6086C31.9074 29.4429 31.715 29.312 31.5021 29.2241C31.2892 29.1363 31.0604 29.0935 30.8301 29.0983Z" fill="#003087"/>
</svg>
