<svg width="48" height="48" viewBox="0 0 48 48" fill="none" xmlns="http://www.w3.org/2000/svg">
<path d="M0 24C0 10.7452 10.7452 0 24 0C37.2548 0 48 10.7452 48 24C48 37.2548 37.2548 48 24 48C10.7452 48 0 37.2548 0 24Z" fill="#F5F5F5"/>
<path d="M34.9603 20.5847V28.4981C31.3528 30.4843 27.3015 31.5259 23.1834 31.5259C19.0652 31.5259 15.014 30.4843 11.4065 28.4981V20.5847L23.1834 24.9753L34.9603 20.5847Z" fill="#000F2A"/>
<path d="M39.9512 18.2055L23.4095 12.0407C23.2644 11.9864 23.1046 11.9864 22.9595 12.0407L6.41914 18.2055C6.29612 18.2512 6.19001 18.3334 6.11509 18.4411C6.04016 18.5489 6 18.677 6 18.8082C6 18.9394 6.04016 19.0675 6.11509 19.1752C6.19001 19.283 6.29612 19.3652 6.41914 19.4109L22.9602 25.5751C23.1054 25.6284 23.2649 25.6284 23.4102 25.5751L39.9512 19.4134C40.0742 19.3678 40.1803 19.2855 40.2552 19.1778C40.3302 19.0701 40.3703 18.942 40.3703 18.8108C40.3703 18.6795 40.3302 18.5514 40.2552 18.4437C40.1803 18.336 40.0742 18.2538 39.9512 18.2081V18.2055Z" fill="#003087"/>
<path d="M39.7263 18.165H23.1853C23.0148 18.165 22.8513 18.2328 22.7307 18.3533C22.6102 18.4739 22.5424 18.6374 22.5424 18.8079C22.5424 18.9784 22.6102 19.1419 22.7307 19.2624C22.8513 19.383 23.0148 19.4507 23.1853 19.4507H39.0835V27.827C39.0835 27.9975 39.1512 28.161 39.2717 28.2815C39.3923 28.4021 39.5558 28.4698 39.7263 28.4698C39.8968 28.4698 40.0603 28.4021 40.1809 28.2815C40.3014 28.161 40.3691 27.9975 40.3691 27.827V18.8079C40.3691 18.6374 40.3014 18.4739 40.1809 18.3533C40.0603 18.2328 39.8968 18.165 39.7263 18.165Z" fill="#000F2A"/>
<path d="M34.9605 28.4981V32.413C31.353 34.3992 27.3017 35.4408 23.1836 35.4408C19.0654 35.4408 15.0142 34.3992 11.4067 32.413V28.4981C15.0142 30.4843 19.0654 31.5259 23.1836 31.5259C27.3017 31.5259 31.353 30.4843 34.9605 28.4981Z" fill="#FFD100"/>
<path d="M41.3418 27.7113C41.3148 27.5633 41.2366 27.4295 41.121 27.3331C41.0054 27.2368 40.8597 27.1841 40.7093 27.1841H38.7447C38.5943 27.1841 38.4486 27.2368 38.333 27.3331C38.2174 27.4295 38.1393 27.5633 38.1122 27.7113L37.4636 31.2527C37.4467 31.3454 37.4504 31.4406 37.4744 31.5316C37.4984 31.6227 37.5421 31.7074 37.6025 31.7797C37.6628 31.852 37.7383 31.9101 37.8236 31.95C37.9089 31.99 38.0019 32.0106 38.0961 32.0106H41.3579C41.452 32.0105 41.545 31.9898 41.6302 31.9498C41.7154 31.9099 41.7908 31.8517 41.8511 31.7794C41.9114 31.7071 41.955 31.6225 41.979 31.5315C42.003 31.4405 42.0067 31.3453 41.9898 31.2527L41.3418 27.7113Z" fill="#FFD100"/>
</svg>
