<svg width="12" height="12" viewBox="0 0 12 12" fill="none" xmlns="http://www.w3.org/2000/svg">
<path d="M11.0828 1.48284C11.2391 1.32663 11.2391 1.07337 11.0828 0.917157C10.9266 0.760948 10.6734 0.760948 10.5172 0.917157L6 5.43431L1.48284 0.917157C1.32663 0.760948 1.07337 0.760948 0.917157 0.917157C0.760948 1.07337 0.760948 1.32663 0.917157 1.48284L5.43431 6L0.917157 10.5172C0.760948 10.6734 0.760948 10.9266 0.917157 11.0828C1.07337 11.2391 1.32663 11.2391 1.48284 11.0828L6 6.56569L10.5172 11.0828C10.6734 11.2391 10.9266 11.2391 11.0828 11.0828C11.2391 10.9266 11.2391 10.6734 11.0828 10.5172L6.56569 6L11.0828 1.48284Z" stroke="#003087" stroke-width="1.5" stroke-linecap="round" stroke-linejoin="round"/>
</svg>
