<svg width="19" height="18" viewBox="0 0 19 18" fill="none" xmlns="http://www.w3.org/2000/svg">
<path d="M9.7675 3.74691C9.56855 3.74691 9.37774 3.82594 9.23706 3.96663C9.09638 4.10731 9.01734 4.29811 9.01734 4.49707V8.99805C9.01734 9.00486 9.01816 9.01147 9.01835 9.01824C9.0188 9.03334 9.01931 9.04841 9.02063 9.06342C9.02164 9.07505 9.0232 9.08647 9.02476 9.09793C9.0264 9.11008 9.02805 9.12219 9.0303 9.13423C9.03272 9.14755 9.03574 9.16064 9.03886 9.1737C9.04133 9.18382 9.0438 9.19392 9.04664 9.20394C9.05053 9.21764 9.05493 9.23108 9.0596 9.24445C9.06289 9.25395 9.06628 9.2634 9.06995 9.27276C9.07503 9.28558 9.08048 9.29814 9.0862 9.3106C9.09073 9.32056 9.09545 9.33043 9.10044 9.3402C9.10612 9.35125 9.11211 9.36208 9.1183 9.37281C9.12452 9.3836 9.13093 9.39425 9.13771 9.40474C9.14361 9.41391 9.14979 9.42286 9.15611 9.43174C9.16408 9.44299 9.17227 9.45405 9.18088 9.46489C9.18711 9.47267 9.19352 9.48022 9.20002 9.48775C9.20936 9.49858 9.21888 9.5092 9.22891 9.51954C9.23606 9.5269 9.24343 9.53396 9.25084 9.54102C9.26069 9.55039 9.27062 9.55964 9.28111 9.56853C9.29027 9.57636 9.29979 9.58375 9.30936 9.59114C9.31865 9.59831 9.3279 9.60549 9.33761 9.61227C9.34979 9.62083 9.36247 9.62873 9.3752 9.63657C9.38106 9.64017 9.38642 9.64425 9.39242 9.64771L13.2904 11.8982C13.4627 11.9977 13.6674 12.0246 13.8596 11.9731C14.0518 11.9216 14.2157 11.7959 14.3151 11.6236C14.4146 11.4513 14.4416 11.2466 14.3901 11.0544C14.3386 10.8622 14.2129 10.6984 14.0406 10.5989L10.5177 8.56494V4.49707C10.5177 4.29811 10.4386 4.10731 10.2979 3.96663C10.1573 3.82594 9.96646 3.74691 9.7675 3.74691Z" fill="#000F2A"/>
<path d="M16.133 2.63242C14.4435 0.946704 12.1543 0 9.76771 0C7.38107 0 5.09188 0.946704 3.40238 2.63242L1.50033 4.53448V2.59473C1.50033 2.39578 1.42129 2.20497 1.28061 2.06429C1.13992 1.9236 0.949118 1.84457 0.750163 1.84457C0.551207 1.84457 0.3604 1.9236 0.219718 2.06429C0.0790347 2.20497 0 2.39578 0 2.59473V6.34555L9.37188e-05 6.34763C0.000185614 6.37162 0.00140683 6.39558 0.00375734 6.4195C0.00485539 6.43087 0.00696147 6.4419 0.00856401 6.45312C0.0104872 6.46613 0.0119529 6.47917 0.0145166 6.49208C0.0170812 6.50486 0.0205602 6.51725 0.0237652 6.52978C0.0265587 6.54093 0.0289853 6.55216 0.0323273 6.56321C0.0360781 6.5756 0.0407066 6.58756 0.0451017 6.59966C0.04904 6.61062 0.0526108 6.62166 0.0570977 6.63247C0.0617684 6.64379 0.0672624 6.65465 0.0724826 6.66568C0.0777937 6.67685 0.0827383 6.68811 0.088599 6.69905C0.0942768 6.70972 0.100778 6.71985 0.107005 6.7302C0.113323 6.74081 0.119322 6.75156 0.126236 6.76192C0.134064 6.77357 0.142718 6.78455 0.151143 6.79573C0.157416 6.80411 0.163231 6.81273 0.169962 6.8209C0.201391 6.85923 0.236527 6.89437 0.274858 6.9258C0.282871 6.93239 0.291341 6.93808 0.299582 6.94428C0.310892 6.95282 0.322018 6.96157 0.33383 6.96947C0.344041 6.97629 0.354617 6.98219 0.365102 6.98846C0.375588 6.99478 0.385935 7.00136 0.39674 7.00717C0.407501 7.01291 0.418536 7.01775 0.429478 7.02293C0.440695 7.02826 0.451776 7.03386 0.463314 7.03864C0.473891 7.043 0.48465 7.04651 0.495364 7.05036C0.507727 7.05484 0.519998 7.05957 0.532634 7.06341C0.543303 7.06662 0.554108 7.06896 0.564868 7.07169C0.57778 7.07499 0.5906 7.07858 0.603782 7.08119C0.616053 7.08362 0.628416 7.08503 0.640728 7.08684C0.652637 7.08858 0.664308 7.0908 0.676396 7.09198C0.69819 7.09412 0.720077 7.09506 0.741962 7.09529C0.744709 7.09532 0.747365 7.0957 0.750158 7.0957H4.50097C4.69993 7.0957 4.89073 7.01667 5.03142 6.87599C5.1721 6.7353 5.25113 6.5445 5.25113 6.34554C5.25113 6.14658 5.1721 5.95578 5.03142 5.8151C4.89073 5.67441 4.69993 5.59538 4.50097 5.59538H2.5612L4.46329 3.69328C5.51242 2.64416 6.84908 1.92969 8.30426 1.64023C9.75944 1.35078 11.2678 1.49933 12.6385 2.06712C14.0093 2.6349 15.1809 3.5964 16.0052 4.83004C16.8295 6.06368 17.2694 7.51405 17.2694 8.99774C17.2694 10.4814 16.8295 11.9318 16.0052 13.1654C15.1809 14.3991 14.0093 15.3606 12.6385 15.9284C11.2678 16.4961 9.75944 16.6447 8.30426 16.3552C6.84908 16.0658 5.51242 15.3513 4.46329 14.3022C4.39363 14.2325 4.31093 14.1773 4.21991 14.1396C4.12889 14.1019 4.03134 14.0825 3.93282 14.0825C3.8343 14.0825 3.73675 14.1019 3.64573 14.1396C3.55472 14.1773 3.47202 14.2326 3.40236 14.3022C3.33269 14.3719 3.27744 14.4546 3.23974 14.5456C3.20204 14.6366 3.18264 14.7342 3.18264 14.8327C3.18264 14.9312 3.20205 15.0288 3.23975 15.1198C3.27745 15.2108 3.33271 15.2935 3.40238 15.3632C5.09058 17.0513 7.38027 17.9998 9.76773 17.9998C12.1552 17.9997 14.4449 17.0513 16.1331 15.3631C17.8213 13.6749 18.7697 11.3852 18.7697 8.99776C18.7697 6.61029 17.8212 4.32061 16.133 2.63242Z" fill="#000F2A"/>
</svg>
