<svg width="19" height="19" viewBox="0 0 19 19" fill="none" xmlns="http://www.w3.org/2000/svg">
<path d="M5.86229 18.2271H1.5456C1.34064 18.2271 1.14408 18.1457 0.999147 18.0007C0.854219 17.8558 0.772799 17.6592 0.772799 17.4543V13.1376C0.772799 13.0361 0.792788 12.9356 0.831625 12.8419C0.870462 12.7481 0.927387 12.6629 0.999148 12.5911L12.5911 0.999147C12.7361 0.854219 12.9326 0.772799 13.1376 0.772799C13.3426 0.772799 13.5391 0.854219 13.684 0.999147L18.0007 5.31584C18.1457 5.46077 18.2271 5.65733 18.2271 5.86229C18.2271 6.06725 18.1457 6.26382 18.0007 6.40874L6.40874 18.0007C6.33698 18.0725 6.25179 18.1294 6.15803 18.1683C6.06427 18.2071 5.96378 18.2271 5.86229 18.2271Z" stroke="#003087" stroke-width="1.5" stroke-linecap="round" stroke-linejoin="round"/>
<path d="M10.0464 3.54401L15.456 8.95361" stroke="#003087" stroke-width="1.5" stroke-linecap="round" stroke-linejoin="round"/>
<path d="M6.13305 18.178L0.82198 12.8669" stroke="#003087" stroke-width="1.5" stroke-linecap="round" stroke-linejoin="round"/>
</svg>
