<svg width="21" height="18" viewBox="0 0 21 18" fill="none" xmlns="http://www.w3.org/2000/svg">
<path d="M11.0626 16.9133L18.6816 9.29433C20.5537 7.42227 20.8299 4.34244 19.0583 2.37504C18.6145 1.88082 18.0747 1.48219 17.4718 1.20348C16.8689 0.924767 16.2155 0.771818 15.5516 0.753963C14.8876 0.736107 14.2269 0.853721 13.6099 1.09963C12.9929 1.34553 12.4325 1.71457 11.9628 2.18424L10.5307 3.61626L9.29433 2.37985C7.42227 0.507783 4.34244 0.231589 2.37504 2.0032C1.88082 2.44696 1.48219 2.98676 1.20348 3.58967C0.924767 4.19258 0.771818 4.84595 0.753963 5.50992C0.736107 6.1739 0.853721 6.83455 1.09963 7.45156C1.34553 8.06858 1.71457 8.62903 2.18424 9.09871L9.99886 16.9133C10.1399 17.0544 10.3312 17.1336 10.5307 17.1336C10.7302 17.1336 10.9216 17.0544 11.0626 16.9133V16.9133Z" stroke="#B4B4B4" stroke-width="1.5" stroke-linecap="round" stroke-linejoin="round"/>
</svg>
