<svg width="16" height="17" viewBox="0 0 16 17" fill="none" xmlns="http://www.w3.org/2000/svg">
<path d="M14.9394 3.34848L0.772727 3.34849" stroke="#7D7D7D" stroke-width="1.5" stroke-linecap="round" stroke-linejoin="round"/>
<path d="M5.92487 7.21212V12.3636" stroke="#7D7D7D" stroke-width="1.5" stroke-linecap="round" stroke-linejoin="round"/>
<path d="M9.78851 7.21212V12.3636" stroke="#7D7D7D" stroke-width="1.5" stroke-linecap="round" stroke-linejoin="round"/>
<path d="M13.6521 3.34848V15.5833C13.6521 15.7541 13.5843 15.9179 13.4635 16.0387C13.3428 16.1594 13.179 16.2273 13.0082 16.2273H2.70517C2.53439 16.2273 2.3706 16.1594 2.24984 16.0387C2.12908 15.9179 2.06123 15.7541 2.06123 15.5833V3.34848" stroke="#7D7D7D" stroke-width="1.5" stroke-linecap="round" stroke-linejoin="round"/>
<path d="M11.0764 3.34848V2.06061C11.0764 1.71904 10.9407 1.39146 10.6992 1.14994C10.4577 0.908414 10.1301 0.772727 9.78851 0.772727H5.92487C5.5833 0.772727 5.25573 0.908414 5.0142 1.14994C4.77268 1.39146 4.63699 1.71904 4.63699 2.06061V3.34848" stroke="#7D7D7D" stroke-width="1.5" stroke-linecap="round" stroke-linejoin="round"/>
</svg>
