<svg width="75" height="61" viewBox="0 0 75 61" fill="none" xmlns="http://www.w3.org/2000/svg">
<path fill-rule="evenodd" clip-rule="evenodd" d="M17.8293 1.25514C17.8293 0.921276 17.9611 0.602469 18.1971 0.367757C18.4318 0.13179 18.7518 0 19.0844 0H47.393L61.7593 15.9303V35.9536C61.7593 35.9536 61.8045 52.4926 57.1065 60.3887C56.8781 60.7515 56.479 60.9711 56.0497 60.9711C51.2463 60.9749 22.7281 60.9749 14.7555 60.9749C14.3162 60.9749 13.9082 60.744 13.6811 60.3662C13.4539 59.9884 13.4426 59.5189 13.6497 59.1311C17.5444 50.6739 17.8293 35.9536 17.8293 35.9536V1.25514Z" fill="#CADCF0"/>
<path d="M34.0104 26.6678C33.9784 26.7546 33.9376 26.8252 33.8881 26.8794C33.8386 26.9337 33.7804 26.9757 33.7134 27.0056C33.6464 27.0381 33.5707 27.0598 33.4863 27.0707C33.4019 27.0843 33.3073 27.091 33.2024 27.091C33.0976 27.091 33.003 27.0843 32.9186 27.0707C32.8341 27.0598 32.7584 27.0381 32.6915 27.0056C32.6245 26.9757 32.5663 26.9337 32.5168 26.8794C32.4702 26.8252 32.4309 26.7546 32.3988 26.6678L29.7391 19.5505C29.7071 19.4664 29.694 19.3864 29.6998 19.3104C29.7086 19.2318 29.7304 19.1599 29.7654 19.0948C29.8003 19.0297 29.8483 18.9727 29.9095 18.9239C29.9706 18.8723 30.0405 18.8343 30.1191 18.8099C30.288 18.7584 30.4452 18.7597 30.5908 18.814C30.7393 18.8682 30.847 18.989 30.914 19.1762L33.2374 25.7522L35.5608 19.1639C35.5899 19.0826 35.6307 19.0134 35.6831 18.9564C35.7355 18.8994 35.7966 18.856 35.8665 18.8262C35.9364 18.7964 36.0106 18.7801 36.0892 18.7774C36.1708 18.7719 36.2537 18.7814 36.3382 18.8058C36.4168 18.8303 36.4852 18.8669 36.5434 18.9157C36.6046 18.9646 36.6526 19.0215 36.6876 19.0866C36.7225 19.149 36.7414 19.2182 36.7443 19.2942C36.7502 19.3701 36.7385 19.4488 36.7094 19.5302L34.0104 26.6678Z" fill="#003087"/>
<path d="M39.8888 21.866C39.6297 21.866 39.3953 21.908 39.1857 21.9921C38.979 22.0762 38.7999 22.1902 38.6485 22.334C38.5 22.4778 38.3806 22.646 38.2904 22.8386C38.203 23.0312 38.1506 23.236 38.1331 23.453H41.6401C41.6401 23.2116 41.5993 22.9932 41.5178 22.7979C41.4363 22.6025 41.3198 22.4357 41.1684 22.2973C41.017 22.159 40.8322 22.0532 40.6138 21.9799C40.3983 21.904 40.1567 21.866 39.8888 21.866ZM38.1331 24.3524C38.1331 24.6074 38.171 24.8475 38.2467 25.0726C38.3253 25.2978 38.4432 25.4959 38.6004 25.6668C38.7606 25.835 38.96 25.9693 39.1988 26.0696C39.4404 26.1673 39.7243 26.2161 40.0504 26.2161C40.3998 26.2161 40.7055 26.1456 40.9675 26.0045C41.2325 25.8607 41.429 25.6342 41.5571 25.3249C41.6154 25.1866 41.7056 25.0916 41.8279 25.0401C41.9531 24.9885 42.0856 24.9872 42.2253 25.036C42.2952 25.0604 42.3549 25.0957 42.4044 25.1418C42.4568 25.1852 42.4961 25.2354 42.5223 25.2924C42.5514 25.3494 42.5674 25.4104 42.5703 25.4755C42.5733 25.5379 42.5616 25.6017 42.5354 25.6668C42.4306 25.9082 42.2967 26.1212 42.1336 26.3057C41.9706 26.4874 41.7813 26.6407 41.5659 26.7655C41.3504 26.8876 41.1117 26.9798 40.8496 27.0422C40.5905 27.1046 40.3124 27.1358 40.0155 27.1358C39.5089 27.1358 39.0692 27.0585 38.6965 26.9039C38.3239 26.7492 38.0123 26.5335 37.7619 26.2568C37.5144 25.9801 37.3266 25.6518 37.1985 25.272C37.0733 24.8895 37.0035 24.4717 36.9889 24.0187C36.9889 23.5765 37.0602 23.1682 37.2029 22.7938C37.3456 22.4194 37.5465 22.0966 37.8056 21.8253C38.0676 21.5513 38.3792 21.337 38.7402 21.1823C39.1041 21.0277 39.5045 20.9504 39.9412 20.9504C40.279 20.9504 40.5847 20.9897 40.8584 21.0684C41.132 21.1444 41.3737 21.2502 41.5833 21.3858C41.7959 21.5215 41.9778 21.6815 42.1292 21.866C42.2836 22.0505 42.4088 22.2512 42.5048 22.4683C42.6038 22.6853 42.6766 22.9132 42.7232 23.1519C42.7698 23.3879 42.7931 23.6267 42.7931 23.8681C42.7931 23.9359 42.7785 23.9997 42.7494 24.0594C42.7232 24.1163 42.6854 24.1665 42.6359 24.2099C42.5893 24.2533 42.5325 24.2886 42.4655 24.3157C42.4015 24.3402 42.3331 24.3524 42.2603 24.3524H38.1331Z" fill="#003087"/>
<path d="M46.5315 20.9952C46.6101 20.9843 46.6858 20.987 46.7586 21.0033C46.8343 21.0196 46.9027 21.0481 46.9639 21.0888C47.025 21.1267 47.076 21.1756 47.1167 21.2352C47.1604 21.2949 47.1895 21.3614 47.2041 21.4346C47.2157 21.5079 47.2128 21.5798 47.1953 21.6503C47.1779 21.7181 47.1473 21.7805 47.1036 21.8375C47.06 21.8945 47.0061 21.9433 46.942 21.984C46.878 22.022 46.8067 22.0464 46.728 22.0573C46.3961 22.0952 46.1166 22.1739 45.8895 22.2933C45.6624 22.4126 45.479 22.5714 45.3392 22.7694C45.2024 22.9647 45.1034 23.1967 45.0423 23.4653C44.984 23.7338 44.9549 24.035 44.9549 24.3686V26.5661C44.9549 26.6448 44.9404 26.7167 44.9112 26.7818C44.8821 26.8442 44.8414 26.8984 44.7889 26.9445C44.7395 26.988 44.6812 27.0219 44.6143 27.0463C44.5473 27.0707 44.476 27.0829 44.4003 27.0829C44.3246 27.0829 44.2518 27.0707 44.1819 27.0463C44.1149 27.0219 44.0567 26.9866 44.0072 26.9405C43.9577 26.8944 43.9184 26.8401 43.8893 26.7777C43.8602 26.7153 43.8456 26.6448 43.8456 26.5661V21.5038C43.8456 21.4279 43.8587 21.3587 43.8849 21.2963C43.914 21.2339 43.9533 21.181 44.0028 21.1376C44.0523 21.0942 44.1091 21.0616 44.1732 21.0399C44.2372 21.0155 44.3071 21.0033 44.3828 21.0033C44.4556 21.0033 44.524 21.0155 44.5881 21.0399C44.655 21.0643 44.7132 21.0982 44.7627 21.1417C44.8122 21.1851 44.8501 21.238 44.8763 21.3004C44.9054 21.36 44.92 21.4279 44.92 21.5038V22.1997C45.115 21.8551 45.3392 21.5825 45.5925 21.3817C45.8458 21.181 46.1588 21.0521 46.5315 20.9952Z" fill="#003087"/>
<path d="M48.0164 26.3179C48.0164 26.2039 48.0397 26.0981 48.0863 26.0005C48.1329 25.9001 48.1955 25.8133 48.2741 25.74C48.3556 25.6641 48.4488 25.6044 48.5536 25.561C48.6613 25.5176 48.7763 25.4959 48.8986 25.4959C49.0209 25.4959 49.1344 25.5176 49.2393 25.561C49.347 25.6044 49.4402 25.6641 49.5188 25.74C49.6003 25.8133 49.6643 25.9001 49.7109 26.0005C49.7575 26.0981 49.7808 26.2039 49.7808 26.3179C49.7808 26.4318 49.7575 26.539 49.7109 26.6393C49.6643 26.737 49.6003 26.8238 49.5188 26.8998C49.4402 26.973 49.347 27.0314 49.2393 27.0748C49.1344 27.1182 49.0209 27.1399 48.8986 27.1399C48.7763 27.1399 48.6613 27.1182 48.5536 27.0748C48.4488 27.0314 48.3556 26.973 48.2741 26.8998C48.1955 26.8238 48.1329 26.737 48.0863 26.6393C48.0397 26.539 48.0164 26.4318 48.0164 26.3179Z" fill="#003087"/>
<path fill-rule="evenodd" clip-rule="evenodd" d="M61.7593 35.9795C61.7593 35.9795 61.8045 52.5185 57.1065 60.4146C56.8781 60.7774 56.479 60.997 56.0497 60.997C51.2463 61.0008 22.7281 61.0008 14.7555 61.0008C14.3162 61.0008 13.9082 60.7686 13.6811 60.3908C13.4539 60.0142 13.4426 59.5448 13.6497 59.1557L13.6986 59.0478C29.1545 59.7745 51.599 57.0672 54.5548 55.9099C57.7128 54.6736 61.6966 42.81 61.7581 36.1351L61.7593 35.9795Z" fill="#A4BBDB"/>
<path fill-rule="evenodd" clip-rule="evenodd" d="M61.7593 15.9303C57.9487 14.4254 53.9147 14.3827 49.774 15.0228C49.3899 15.0831 48.9995 14.9613 48.7171 14.6927C48.4347 14.4241 48.2942 14.04 48.3356 13.6535C48.7899 9.01695 48.3318 4.48086 47.393 0C53.4654 4.50722 58.26 9.81397 61.7593 15.9303Z" fill="#003087"/>
<path d="M62.3267 55.5911C69.2587 55.5911 74.8782 49.9716 74.8782 43.0397C74.8782 36.1077 69.2587 30.4882 62.3267 30.4882C55.3948 30.4882 49.7753 36.1077 49.7753 43.0397C49.7753 49.9716 55.3948 55.5911 62.3267 55.5911Z" fill="#E9F3FC"/>
<path d="M56.475 38.7122C56.475 38.179 56.6163 37.7916 56.8991 37.5499C57.186 37.3044 57.6272 37.1817 58.2226 37.1817C58.5139 37.1817 58.7816 37.2392 59.0258 37.3543C59.27 37.4655 59.4691 37.6401 59.6233 37.8779L64.6222 45.1334H64.68V38.436C64.68 38.0179 64.7957 37.7053 65.027 37.4981C65.2626 37.2872 65.5902 37.1817 66.01 37.1817C66.4298 37.1817 66.7575 37.2872 66.9931 37.4981C67.233 37.7053 67.3529 38.0179 67.3529 38.436V47.2968C67.3529 47.807 67.2244 48.2021 66.9674 48.4821C66.7104 48.7583 66.2906 48.8964 65.708 48.8964C65.4853 48.8964 65.2947 48.8849 65.1362 48.8618C64.982 48.8388 64.8471 48.8005 64.7314 48.7468C64.62 48.6931 64.5194 48.6221 64.4294 48.5339C64.3438 48.4456 64.2581 48.3363 64.1724 48.2059L59.1993 41.1518H59.1479V47.6651C59.1479 48.0832 59.0301 48.3939 58.7945 48.5972C58.5632 48.7966 58.2376 48.8964 57.8179 48.8964C57.3981 48.8964 57.0682 48.7966 56.8284 48.5972C56.5928 48.3939 56.475 48.0832 56.475 47.6651V38.7122Z" fill="#003087"/>
<path fill-rule="evenodd" clip-rule="evenodd" d="M17.8293 8.79581V26.5925C19.4911 23.5764 22.1495 21.2029 25.3752 19.8988C26.2701 19.5373 27.1575 19.1784 27.9483 18.8583C28.4227 18.6675 28.7327 18.2069 28.7327 17.6948C28.7327 17.1839 28.4227 16.7233 27.9483 16.5313C27.1588 16.2125 26.2727 15.8547 25.379 15.4933C22.1508 14.1892 19.4924 11.8144 17.8293 8.79581Z" fill="#A4BBDB"/>
<path fill-rule="evenodd" clip-rule="evenodd" d="M26.9793 17.338C27.4538 17.146 27.765 16.6853 27.765 16.1732C27.765 15.6624 27.4538 15.2018 26.9793 15.0097C26.1898 14.6909 25.3037 14.3332 24.41 13.9717C20.6233 12.4417 17.621 9.43939 16.0897 5.65262C15.727 4.75645 15.368 3.86906 15.0479 3.07706C14.8559 2.60262 14.3952 2.2926 13.8844 2.2926C13.3723 2.2926 12.9117 2.60262 12.7209 3.07706C12.4008 3.86655 12.0431 4.75268 11.6829 5.64634C10.1529 9.43186 7.15056 12.4354 3.36504 13.9667C2.46761 14.3294 1.57772 14.6897 0.784465 15.0097C0.311276 15.2018 0 15.6624 0 16.1732C0 16.6853 0.311276 17.146 0.784465 17.3368C1.57772 17.6581 2.46761 18.0183 3.3663 18.381C7.15181 19.9123 10.1541 22.9159 11.6829 26.7026C12.0444 27.595 12.4021 28.4799 12.7196 29.2694C12.9117 29.7439 13.3723 30.0539 13.8844 30.0539C14.3952 30.0539 14.8559 29.7439 15.0479 29.2694C15.3667 28.4787 15.7257 27.5913 16.0872 26.6964C17.6185 22.9109 20.6208 19.9085 24.4063 18.3773C25.3024 18.0158 26.1886 17.6568 26.9793 17.338Z" fill="#E9F3FC"/>
<path fill-rule="evenodd" clip-rule="evenodd" d="M38.139 45.0472C38.5155 44.8953 38.7603 44.5313 38.7603 44.1259C38.7603 43.7205 38.5155 43.3565 38.139 43.2046C38.139 43.2046 38.1377 43.2046 38.1377 43.2034C34.6773 41.8052 31.9323 39.0614 30.5328 35.601C30.5316 35.5985 30.5316 35.5972 30.5303 35.5947C30.3784 35.2194 30.0144 34.9734 29.609 34.9734C29.2036 34.9734 28.8396 35.2194 28.6878 35.5947V35.596C27.2895 39.0564 24.5458 41.8014 21.0841 43.2009C21.0828 43.2021 21.0803 43.2021 21.0791 43.2034C20.7025 43.3553 20.4565 43.7205 20.4565 44.1259C20.4565 44.5313 20.7025 44.8966 21.0791 45.0485C21.0816 45.0497 21.0841 45.051 21.0866 45.051C24.5458 46.4504 27.2895 49.1954 28.6878 52.6559C28.6878 52.6571 28.6878 52.6584 28.689 52.6596C28.8409 53.0337 29.2049 53.2797 29.609 53.2797C30.0132 53.2797 30.3772 53.0349 30.529 52.6596C30.5303 52.6571 30.5303 52.6559 30.5316 52.6546C31.931 49.1929 34.6748 46.4479 38.1365 45.0485C38.1377 45.0485 38.139 45.0472 38.139 45.0472Z" fill="#A4BBDB"/>
<path fill-rule="evenodd" clip-rule="evenodd" d="M37.0787 43.7597C37.4478 43.609 37.69 43.2501 37.69 42.8509C37.69 42.4518 37.4478 42.0928 37.0775 41.9435C37.0775 41.9435 37.0775 41.9435 37.0762 41.9435C33.6673 40.5653 30.9624 37.8617 29.5843 34.4528C29.583 34.4503 29.583 34.449 29.5818 34.4465C29.4324 34.0762 29.0734 33.834 28.6743 33.834C28.2752 33.834 27.9162 34.0762 27.7668 34.4465L27.7656 34.4477C26.3887 37.8567 23.6851 40.5615 20.2761 41.9397C20.2736 41.941 20.2724 41.9422 20.2699 41.9422C19.8996 42.0928 19.6573 42.4518 19.6573 42.8509C19.6573 43.2513 19.8996 43.6103 20.2699 43.7597C20.2724 43.7609 20.2749 43.7622 20.2774 43.7634C23.6864 45.1416 26.3887 47.8464 27.7656 51.2554C27.7668 51.2566 27.7668 51.2566 27.7668 51.2579C27.9162 51.6282 28.2752 51.8691 28.6743 51.8691C29.0722 51.8691 29.4312 51.6282 29.5805 51.2579C29.5818 51.2566 29.5818 51.2554 29.583 51.2529C30.9612 47.8426 33.6648 45.1391 37.075 43.7597H37.0787Z" fill="#E9F3FC"/>
</svg>
