<svg width="13" height="13" viewBox="0 0 13 13" fill="none" xmlns="http://www.w3.org/2000/svg">
<path d="M4.03598 6.54082C4.55543 7.6028 5.41626 8.45971 6.48058 8.97432C6.55845 9.01122 6.64459 9.0272 6.73052 9.0207C6.81644 9.0142 6.8992 8.98544 6.97063 8.93724L8.53777 7.89223C8.60708 7.84602 8.68683 7.81782 8.76978 7.8102C8.85274 7.80258 8.93629 7.81577 9.01286 7.84859L11.9447 9.10509C12.0443 9.14739 12.1274 9.22092 12.1816 9.31459C12.2358 9.40826 12.258 9.51701 12.245 9.62443C12.1524 10.3496 11.7986 11.016 11.2499 11.4991C10.7012 11.9821 9.99528 12.2486 9.26427 12.2487C7.00645 12.2487 4.84111 11.3517 3.24459 9.75523C1.64807 8.15871 0.751157 5.99337 0.751157 3.73555C0.751195 3.00453 1.01769 2.29859 1.50074 1.74992C1.98379 1.20124 2.65027 0.84744 3.37539 0.754772C3.48281 0.741772 3.59155 0.764036 3.68522 0.818209C3.77889 0.872382 3.85242 0.95553 3.89473 1.05512L5.15232 3.98951C5.18485 4.06541 5.1981 4.14818 5.1909 4.23044C5.1837 4.3127 5.15627 4.39191 5.11105 4.461L4.06967 6.05219C4.02228 6.12376 3.99426 6.20641 3.98835 6.29206C3.98245 6.37771 3.99886 6.46342 4.03598 6.54082V6.54082Z" stroke="white" stroke-width="1.5" stroke-linecap="round" stroke-linejoin="round"/>
</svg>
