<svg width="28" height="28" viewBox="0 0 28 28" fill="none" xmlns="http://www.w3.org/2000/svg">
<g clip-path="url(#clip0_0_2801)">
<path d="M0.141876 0.154297H27.8826V26.8605H0.141876V0.154297Z" fill="white"/>
<path d="M0 0H28V28H0V0Z" fill="#00A651"/>
<path d="M17.2637 25.2149V26.2977H10.548V25.2129H5.46621C4.96967 25.2129 4.5652 24.697 4.5652 24.0608L2.43878 2.68215C2.43878 2.04563 2.93533 1.5293 3.54805 1.5293H24.0835C24.6922 1.5293 25.1887 2.04563 25.1887 2.68215L23.0864 24.0608C23.0864 24.697 22.6819 25.2129 22.1853 25.2129L17.2637 25.2149H17.2637Z" fill="white"/>
<path d="M6.17905 4.6582H19.9268C18.5732 5.1626 14.4525 7.93608 13.4234 9.8008H6.1911L6.17905 4.6582H6.17905Z" fill="#FF6701"/>
<path d="M17.1357 19.3945C16.9394 21.2568 16.9314 23.5247 16.9314 25.9069H10.9726C10.9726 23.5247 11.0727 21.2568 11.2689 19.3945H17.1357H17.1357Z" fill="#E50A09"/>
<path d="M7.91708 16.7038V17.4256H6.964V18.1476H7.91708V18.975H5.73856V15.125H7.91708V15.9825H6.964V16.7038H7.91708Z" fill="#00A651"/>
<path d="M12.9828 16.7038V17.4256H12.0338V18.1476H12.9828V18.975H10.8084V15.125H12.9828V15.9825H12.0338V16.7038H12.9828Z" fill="#00A651"/>
<path d="M18.5652 16.7038V17.4256H17.6121V18.1476H18.5652V18.975H16.3867V15.125H18.5652V15.9825H17.6121V16.7038H18.5652Z" fill="#00A651"/>
<path d="M9.55097 15.125V18.1476H10.504V18.975H8.32555V15.125H9.55097Z" fill="#00A651"/>
<path d="M14.7409 17.727L14.2763 15.125H13.2072L13.8157 18.975H15.3896L16.1264 15.125H15.2174L14.7409 17.727Z" fill="#00A651"/>
<path d="M19.0818 15.125H20.2592V18.9746H19.0818V15.125Z" fill="#00A651"/>
<path d="M20.2591 16.2669C20.3232 15.8453 20.9239 15.9583 20.9239 16.1991V18.9738H22.1052V15.7107C22.1052 15.0188 21.1241 14.7405 20.2671 15.3496L20.2591 16.2669L20.2591 16.2669Z" fill="#00A651"/>
<path d="M17.6883 14.5819C17.8084 13.1085 19.8387 10.7025 21.8049 10.0707V4.38672C16.3948 6.79283 12.8787 10.4318 12.1179 14.5675L17.6883 14.5819L17.6883 14.5819Z" fill="#E50A09"/>
</g>
<defs>
<clipPath id="clip0_0_2801">
<path d="M0 4C0 1.79086 1.79086 0 4 0H24C26.2091 0 28 1.79086 28 4V24C28 26.2091 26.2091 28 24 28H4C1.79086 28 0 26.2091 0 24V4Z" fill="white"/>
</clipPath>
</defs>
</svg>
