<svg width="84" height="84" viewBox="0 0 84 84" fill="none" xmlns="http://www.w3.org/2000/svg">
<path d="M0.425438 0.459453H83.6475V80.578H0.425438V0.459453Z" fill="white"/>
<path d="M0 0H83.9998V83.9998H0V0Z" fill="#00A651"/>
<path d="M51.7909 75.6413V78.8897H31.6439V75.6353H16.3985C14.9089 75.6353 13.6955 74.0875 13.6955 72.1791L7.31624 8.04323C7.31624 6.13366 8.80588 4.58467 10.644 4.58467H72.2502C74.0764 4.58467 75.566 6.13366 75.566 8.04323L69.2588 72.1791C69.2588 74.0875 68.0454 75.6353 66.5558 75.6353L51.7909 75.6413H51.7909Z" fill="white"/>
<path d="M18.5373 13.9768H59.7805C55.7198 15.49 43.3577 23.8105 40.2703 29.4046H18.5735L18.5373 13.9768H18.5373Z" fill="#FF6701"/>
<path d="M51.407 58.1809C50.8183 63.7678 50.7943 70.5715 50.7943 77.718H32.9179C32.9179 70.5715 33.2183 63.7678 33.8068 58.1809H51.407H51.407Z" fill="#E50A09"/>
<path d="M23.7512 50.1078V52.2731H20.892V54.4394H23.7512V56.9213H17.2157V45.3715H23.7512V47.944H20.892V50.1078H23.7512Z" fill="#00A651"/>
<path d="M38.9481 50.1078V52.2731H36.1011V54.4394H38.9481V56.9213H32.4249V45.3715H38.9481V47.944H36.1011V50.1078H38.9481Z" fill="#00A651"/>
<path d="M55.6954 50.1078V52.2731H52.8362V54.4394H55.6954V56.9213H49.16V45.3715H55.6954V47.944H52.8362V50.1078H55.6954Z" fill="#00A651"/>
<path d="M28.6528 45.3715V54.4394H31.5118V56.9213H24.9766V45.3715H28.6528Z" fill="#00A651"/>
<path d="M44.2227 53.1774L42.8288 45.3715H39.6214L41.4472 56.9213H46.1686L48.3791 45.3715H45.652L44.2227 53.1774Z" fill="#00A651"/>
<path d="M57.2453 45.3715H60.7776V56.9201H57.2453V45.3715Z" fill="#00A651"/>
<path d="M60.7774 48.8017C60.9698 47.5369 62.7718 47.8761 62.7718 48.5986V56.9227H66.3158V47.1332C66.3158 45.0576 63.3724 44.2228 60.8015 46.0501L60.7774 48.8017L60.7774 48.8017Z" fill="#00A651"/>
<path d="M53.0646 43.7479C53.4249 39.3278 59.5158 32.1097 65.4145 30.2144V13.1624C49.1841 20.3808 38.636 31.2976 36.3535 43.7048L53.0645 43.7479L53.0646 43.7479Z" fill="#E50A09"/>
</svg>
