<svg width="70" height="61" viewBox="0 0 70 61" fill="none" xmlns="http://www.w3.org/2000/svg">
<path fill-rule="evenodd" clip-rule="evenodd" d="M12.8352 30.5816V1.25514C12.8352 0.921276 12.9683 0.602469 13.203 0.367757C13.439 0.13179 13.7578 0 14.0904 0H42.3989L56.7653 15.9303V35.9536C56.7653 35.9536 56.7703 37.4786 56.6435 39.8232L49.5758 37.259C48.7311 36.9527 47.786 37.1209 47.0994 37.702C46.0074 38.6245 44.3544 40.0228 43.2938 40.919C42.6537 41.4599 41.7877 41.6457 40.9831 41.416C38.5431 40.7181 33.4849 39.2735 33.4849 39.2735C33.4849 39.2735 38.2055 42.6448 40.7258 44.4459C41.6395 45.0986 42.8759 45.0647 43.7532 44.3631C44.8803 43.4606 46.4078 42.2394 47.432 41.4198C48.1236 40.8675 49.0537 40.7194 49.8821 41.0294L56.3787 43.4656C55.8804 48.8803 54.7357 55.9807 52.1137 60.3887C51.884 60.7515 51.4849 60.9711 51.0556 60.9711C46.2522 60.9749 17.7341 60.9749 9.76265 60.9749C9.3221 60.9749 8.91418 60.744 8.68699 60.3662C8.46107 59.9884 8.44852 59.5189 8.65562 59.1311C12.5503 50.6739 12.8352 35.9536 12.8352 35.9536V34.3081L18.3428 32.2434C19.1712 31.9334 20.1013 32.0815 20.7916 32.6337C21.8171 33.4534 23.3446 34.6746 24.4717 35.5771C25.349 36.2787 26.5853 36.3126 27.4991 35.6599C30.0194 33.8588 34.74 30.4874 34.74 30.4874C34.74 30.4874 29.6818 31.9321 27.2418 32.63C26.4372 32.8597 25.5699 32.6739 24.9311 32.1329C23.8705 31.2368 22.2174 29.8385 21.1255 28.916C20.4389 28.3349 19.4938 28.1667 18.6491 28.4729L12.8352 30.5816Z" fill="#CADCF0"/>
<path fill-rule="evenodd" clip-rule="evenodd" d="M55.7511 43.2319L56.38 43.4829C55.8817 48.8976 54.737 56.0042 52.1137 60.4148C51.884 60.7775 51.4849 60.9972 51.0556 60.9972C46.2522 61.0009 17.7341 61.0009 9.76265 61.0009C9.3221 61.0009 8.91418 60.7687 8.68699 60.3909C8.46107 60.0144 8.44852 59.545 8.65562 59.1559L8.70457 59.0479C24.1604 59.7747 46.6049 57.0673 49.5608 55.9101C51.7573 55.0503 54.3529 49.0507 55.7511 43.2319Z" fill="#A4BBDB"/>
<path fill-rule="evenodd" clip-rule="evenodd" d="M56.7652 15.9303C52.9559 14.4254 48.9206 14.3827 44.7799 15.0228C44.3958 15.0831 44.0054 14.9613 43.723 14.6927C43.4419 14.4241 43.3001 14.04 43.3415 13.6535C43.7958 9.01695 43.3377 4.48086 42.3989 0C48.4712 4.50722 53.2672 9.81397 56.7652 15.9303Z" fill="#003087"/>
<path fill-rule="evenodd" clip-rule="evenodd" d="M2.40615 20.1678L8.68187 27.5355C9.13121 28.0639 9.92321 28.1267 10.4504 27.6773C10.9775 27.228 11.0415 26.436 10.5922 25.9088L4.31648 18.5412C3.86714 18.0127 3.07514 17.95 2.54673 18.3993C2.01957 18.8487 1.95681 19.6407 2.40615 20.1678Z" fill="#003087"/>
<path fill-rule="evenodd" clip-rule="evenodd" d="M2.4739 31.1206L6.9284 32.3142C7.59739 32.4937 8.28647 32.0958 8.46595 31.4269C8.64544 30.7579 8.24756 30.0688 7.57857 29.8893L3.12406 28.6957C2.45381 28.5162 1.766 28.9141 1.58651 29.583C1.40702 30.252 1.8049 30.9411 2.4739 31.1206Z" fill="#003087"/>
<path fill-rule="evenodd" clip-rule="evenodd" d="M1.88274 41.4435L10.2646 36.6036C10.8646 36.2572 11.0704 35.4891 10.724 34.8891C10.3776 34.2892 9.60941 34.0833 9.00945 34.4297L0.627598 39.2696C0.0276391 39.616 -0.178204 40.3841 0.168216 40.9841C0.514635 41.584 1.28278 41.7899 1.88274 41.4435Z" fill="#003087"/>
<path fill-rule="evenodd" clip-rule="evenodd" d="M67.4776 54.6036L61.2019 47.236C60.7526 46.7088 59.9606 46.646 59.4334 47.0941C58.9063 47.5435 58.8423 48.3367 59.2916 48.8639L65.5673 56.2316C66.0167 56.7587 66.8087 56.8227 67.3371 56.3734C67.8642 55.9241 67.927 55.1308 67.4776 54.6036Z" fill="#003087"/>
<path fill-rule="evenodd" clip-rule="evenodd" d="M67.4102 43.6527L62.9557 42.4591C62.2867 42.2796 61.5976 42.6775 61.4181 43.3465C61.2387 44.0155 61.6365 44.7046 62.3055 44.884L66.76 46.0777C67.4303 46.2559 68.1181 45.8593 68.2976 45.189C68.4771 44.5201 68.0792 43.8322 67.4102 43.6527Z" fill="#003087"/>
<path fill-rule="evenodd" clip-rule="evenodd" d="M68.0012 33.3295L59.6194 38.1681C59.0194 38.5145 58.8136 39.2827 59.16 39.8826C59.5064 40.4826 60.2746 40.6884 60.8745 40.342L69.2564 35.5034C69.8563 35.157 70.0622 34.3889 69.7158 33.7889C69.3693 33.1889 68.6012 32.9831 68.0012 33.3295Z" fill="#003087"/>
<path fill-rule="evenodd" clip-rule="evenodd" d="M19.7096 11.5339L24.1478 15.9721C24.6373 16.4616 25.433 16.4616 25.9225 15.9721C26.4121 15.4813 26.4121 14.6868 25.9225 14.1961L21.4844 9.75914C20.9949 9.26963 20.1991 9.26963 19.7096 9.75914C19.2201 10.2486 19.2201 11.0444 19.7096 11.5339Z" fill="#003087"/>
<path fill-rule="evenodd" clip-rule="evenodd" d="M24.1478 9.75914L19.7096 14.1961C19.2201 14.6868 19.2201 15.4813 19.7096 15.9721C20.1991 16.4616 20.9949 16.4616 21.4844 15.9721L25.9225 11.5339C26.4121 11.0444 26.4121 10.2486 25.9225 9.75914C25.433 9.26963 24.6373 9.26963 24.1478 9.75914Z" fill="#003087"/>
<path fill-rule="evenodd" clip-rule="evenodd" d="M33.5162 11.5339L37.9544 15.9721C38.4439 16.4616 39.2396 16.4616 39.7291 15.9721C40.2186 15.4813 40.2186 14.6868 39.7291 14.1961L35.2909 9.75914C34.8014 9.26963 34.0057 9.26963 33.5162 9.75914C33.0267 10.2486 33.0267 11.0444 33.5162 11.5339Z" fill="#003087"/>
<path fill-rule="evenodd" clip-rule="evenodd" d="M37.9544 9.75914L33.5162 14.1961C33.0267 14.6868 33.0267 15.4813 33.5162 15.9721C34.0057 16.4616 34.8014 16.4616 35.2909 15.9721L39.7291 11.5339C40.2186 11.0444 40.2186 10.2486 39.7291 9.75914C39.2396 9.26963 38.4439 9.26963 37.9544 9.75914Z" fill="#003087"/>
<path fill-rule="evenodd" clip-rule="evenodd" d="M22.9402 23.4702L24.7011 22.151L26.4546 23.4689C26.9014 23.804 27.5152 23.804 27.962 23.4689L29.7192 22.151L31.4764 23.4689C31.922 23.804 32.5357 23.804 32.9826 23.4689L34.7398 22.151L36.497 23.4689C37.0505 23.8844 37.8387 23.7727 38.2542 23.2179C38.6696 22.6644 38.5567 21.8774 38.0032 21.4607L35.4941 19.578C35.0473 19.2441 34.4335 19.2441 33.9879 19.578L32.2295 20.8959L30.4723 19.578C30.0267 19.2441 29.413 19.2441 28.9661 19.578L27.2089 20.8959L25.4567 19.5792C25.0112 19.2441 24.3974 19.2428 23.9506 19.578L21.4365 21.4607C20.8817 21.8761 20.7688 22.6631 21.183 23.2179C21.5984 23.7714 22.3854 23.8856 22.9402 23.4702Z" fill="#003087"/>
</svg>
