<svg width="24" height="24" viewBox="0 0 24 24" fill="none" xmlns="http://www.w3.org/2000/svg">
<path d="M22.2128 0.765957H1.78723C1.2232 0.765957 0.765957 1.2232 0.765957 1.78723V22.2128C0.765957 22.7768 1.2232 23.234 1.78723 23.234H22.2128C22.7768 23.234 23.234 22.7768 23.234 22.2128V1.78723C23.234 1.2232 22.7768 0.765957 22.2128 0.765957Z" stroke="white" stroke-width="1.5" stroke-linecap="round" stroke-linejoin="round"/>
<path d="M23.234 16.0849L17.8285 10.6794C17.637 10.4879 17.3772 10.3803 17.1064 10.3803C16.8355 10.3803 16.5758 10.4879 16.3842 10.6794L10.6796 16.3841C10.4881 16.5756 10.2283 16.6832 9.95744 16.6832C9.68658 16.6832 9.42682 16.5756 9.23529 16.3841L6.59449 13.7433C6.40296 13.5517 6.1432 13.4441 5.87234 13.4441C5.60148 13.4441 5.34171 13.5517 5.15019 13.7433L0.765957 18.1275" stroke="white" stroke-width="1.5" stroke-linecap="round" stroke-linejoin="round"/>
<path d="M8.42553 8.68085C9.13058 8.68085 9.70213 8.1093 9.70213 7.40426C9.70213 6.69921 9.13058 6.12766 8.42553 6.12766C7.72049 6.12766 7.14894 6.69921 7.14894 7.40426C7.14894 8.1093 7.72049 8.68085 8.42553 8.68085Z" fill="white"/>
</svg>
