<svg width="23" height="39" viewBox="0 0 23 39" fill="none" xmlns="http://www.w3.org/2000/svg">
<path d="M9.30094 19.4971C8.70833 18.4196 9.6134 17.0836 9.02079 16.0492C8.42817 15.0148 6.86581 15.1441 6.17623 14.0666C5.27114 12.612 6.58568 11.2652 5.74524 9.82132C5.23883 8.94856 3.82735 9.43342 3.20241 8.57143C2.57747 7.70944 3.55796 6.41646 2.87914 5.5437C2.20033 4.67094 1.1552 5.04805 0.41174 4.15373C-0.590315 2.9254 0.551785 0.199345 0.551785 0.199345C0.551785 0.199345 3.46098 -0.522562 4.52769 0.781197C5.30347 1.74016 4.70008 2.69912 5.40044 3.60421C6.1008 4.50929 7.5554 3.8736 8.29886 4.87566C9.04232 5.87773 8.05105 6.97675 8.70831 7.79564C9.78579 9.15328 11.5636 8.50679 12.5549 10.0907C13.2768 11.2652 12.4364 12.6228 13.0613 13.711C13.6863 14.7993 15.2917 14.7885 15.9382 15.9738C16.5847 17.159 15.8412 18.2257 16.3369 19.2062C16.8325 20.1867 18.1578 20.4022 18.6535 21.512C19.1491 22.6218 18.2763 23.9256 18.7396 25.0462C19.203 26.1668 20.7007 26.3823 21.164 27.6214C21.6273 28.8605 20.4959 30.1427 20.8623 31.4034C21.1532 32.4162 22.4677 32.7071 22.791 33.8061C22.9513 34.2514 23.0206 34.7243 22.9947 35.1969C22.9688 35.6694 22.8483 36.132 22.6403 36.557C22.4323 36.9821 22.141 37.3611 21.7838 37.6715C21.4265 37.9819 21.0106 38.2173 20.5606 38.3639C19.6538 38.5435 18.7128 38.3673 17.9324 37.8718C17.1521 37.3763 16.5924 36.5995 16.3692 35.7025C16.0567 34.6789 16.9834 33.7307 16.6386 32.7933C16.1968 31.6188 14.5806 31.468 14.1173 30.2289C13.654 28.9898 14.6668 27.9554 14.2358 26.8887C13.8048 25.822 12.3071 25.7035 11.8115 24.5936C11.3158 23.4838 12.07 22.4387 11.6067 21.512C11.1434 20.5854 9.82891 20.4776 9.30094 19.4971Z" fill="#F0F0F0"/>
</svg>
