<svg width="84" height="84" viewBox="0 0 84 84" fill="none" xmlns="http://www.w3.org/2000/svg">
<path d="M0.425623 0.459454H83.6479V80.5781H0.425623V0.459454Z" fill="white"/>
<path d="M0 0H84V84H0V0Z" fill="#00A651"/>
<path d="M51.7911 75.6415V78.8899H31.644V75.6354H16.3986C14.909 75.6354 13.6956 74.0877 13.6956 72.1793L7.31634 8.04324C7.31634 6.13367 8.80598 4.58468 10.6442 4.58468H72.2504C74.0766 4.58468 75.5662 6.13368 75.5662 8.04324L69.259 72.1793C69.259 74.0877 68.0456 75.6354 66.556 75.6354L51.7911 75.6415H51.7911Z" fill="white"/>
<path d="M18.5372 13.9769H59.7804C55.7196 15.49 43.3576 23.8105 40.2701 29.4046H18.5733L18.5372 13.9769H18.5372Z" fill="#FF6701"/>
<path d="M51.407 58.181C50.8183 63.768 50.7942 70.5716 50.7942 77.7182H32.9178C32.9178 70.5716 33.2182 63.768 33.8067 58.181H51.407H51.407Z" fill="#E50A09"/>
<path d="M23.7513 50.1079V52.2732H20.892V54.4395H23.7513V56.9214H17.2157V45.3715H23.7513V47.9441H20.892V50.1079H23.7513Z" fill="#00A651"/>
<path d="M38.9484 50.1079V52.2732H36.1014V54.4395H38.9484V56.9214H32.4252V45.3715H38.9484V47.9441H36.1014V50.1079H38.9484Z" fill="#00A651"/>
<path d="M55.6956 50.1079V52.2732H52.8363V54.4395H55.6956V56.9214H49.1601V45.3715H55.6956V47.9441H52.8363V50.1079H55.6956Z" fill="#00A651"/>
<path d="M28.6529 45.3715V54.4395H31.5119V56.9214H24.9766V45.3715H28.6529Z" fill="#00A651"/>
<path d="M44.2227 53.1775L42.8288 45.3715H39.6215L41.4473 56.9214H46.1687L48.3792 45.3715H45.6521L44.2227 53.1775Z" fill="#00A651"/>
<path d="M57.2453 45.3715H60.7777V56.9202H57.2453V45.3715Z" fill="#00A651"/>
<path d="M60.7774 48.8018C60.9697 47.537 62.7717 47.8762 62.7717 48.5987V56.9228H66.3158V47.1333C66.3158 45.0577 63.3724 44.2228 60.8015 46.0502L60.7774 48.8018L60.7774 48.8018Z" fill="#00A651"/>
<path d="M53.0649 43.748C53.4252 39.3279 59.5161 32.1098 65.4148 30.2144V13.1625C49.1844 20.3808 38.6362 31.2977 36.3537 43.7049L53.0648 43.748L53.0649 43.748Z" fill="#E50A09"/>
</svg>
