<svg width="20" height="62" viewBox="0 0 20 62" fill="none" xmlns="http://www.w3.org/2000/svg">
<path d="M15.1057 49.9128C16.1838 50.5488 17.1648 51.2064 18.1889 51.8748C17.5852 48.2813 16.8665 44.6879 16.0329 41.0944C16.0265 41.0697 16.0265 41.0437 16.0329 41.0189C15.2675 37.7848 14.3942 34.6477 13.4348 31.4999C12.1843 30.9069 10.923 30.3356 9.67244 29.7858C9.37059 29.6456 9.597 29.1821 9.89885 29.3114C10.9769 29.7966 12.1196 30.3032 13.2192 30.8207C12.2777 27.8237 11.25 24.8591 10.136 21.9269V21.8514C8.86394 18.531 7.47686 15.2466 5.9748 11.9981V11.9335C5.3172 10.4997 4.62728 9.06587 3.905 7.62129C2.69042 5.18492 1.40755 2.78447 0.0564167 0.419965C0.0332941 0.390953 0.0166697 0.357331 0.00769336 0.321334C-0.00128293 0.285336 -0.00242275 0.247824 0.00437057 0.211352C0.0111639 0.17488 0.025739 0.140276 0.0470734 0.109924C0.0684078 0.0795722 0.0960203 0.0541822 0.128038 0.0354402C0.160055 0.0166982 0.195713 0.00506674 0.232623 0.00132377C0.269533 -0.00241919 0.306818 0.00179382 0.341946 0.0137268C0.377074 0.0256597 0.409242 0.0450269 0.436235 0.0704778C0.463228 0.0959286 0.484437 0.12688 0.498414 0.161247C2.56105 3.75471 4.46556 7.43084 6.21197 11.1896C6.67193 10.0613 7.12471 8.91851 7.5703 7.76141C7.60269 7.70594 7.65385 7.66388 7.71453 7.64278C7.77521 7.62168 7.8414 7.62295 7.90123 7.64636C7.96105 7.66977 8.01054 7.71378 8.04079 7.77046C8.07103 7.82714 8.08004 7.89275 8.06618 7.95548C7.55951 9.25991 7.05283 10.5535 6.51382 11.8364C7.93682 14.898 9.24124 17.992 10.4594 21.1291C10.9984 20.0511 11.5374 18.973 12.0441 17.8087C12.0788 17.7526 12.133 17.7111 12.1962 17.6922C12.2595 17.6733 12.3275 17.6783 12.3874 17.7062C12.4472 17.7341 12.4947 17.783 12.5209 17.8437C12.547 17.9043 12.55 17.9724 12.5293 18.0351C11.9363 19.3072 11.3326 20.5578 10.7074 21.7975C11.8824 24.8807 12.9605 28.007 13.9415 31.1549C13.9415 31.1549 13.9415 31.1549 13.9415 31.2304C14.8326 34.2345 15.6376 37.2853 16.3563 40.3829C17.0354 39.3695 17.7038 38.3346 18.3614 37.2997C18.5446 37.0086 18.9974 37.2997 18.8142 37.58C18.0703 38.7658 17.3049 39.9301 16.5287 41.0836C17.4127 44.7921 18.1566 48.5545 18.771 52.3276C18.7755 52.3525 18.7755 52.3781 18.771 52.403C18.8249 52.7264 18.8681 53.0391 18.922 53.3517C19.3316 56.0576 19.6766 58.7419 20 61.4909C20 61.5595 19.9727 61.6253 19.9242 61.6738C19.8757 61.7224 19.8099 61.7496 19.7413 61.7496C19.6727 61.7496 19.6069 61.7224 19.5583 61.6738C19.5098 61.6253 19.4825 61.5595 19.4825 61.4909C19.1807 58.494 18.7926 55.5078 18.3183 52.5324C17.1648 51.767 16.0113 51.0232 14.8362 50.3009C14.5344 50.1715 14.8254 49.7511 15.1057 49.9128Z" fill="white"/>
</svg>
