<svg width="26" height="27" viewBox="0 0 26 27" fill="none" xmlns="http://www.w3.org/2000/svg">
<g filter="url(#filter0_d_0_4214)">
<path d="M19.5091 9.21111L12.0085 2.39215C11.733 2.13988 11.373 1.99997 10.9994 1.99999C10.6259 2.00002 10.2659 2.13998 9.99042 2.39229L2.49109 9.21106C2.33658 9.35176 2.21312 9.52314 2.12858 9.71424C2.04403 9.90535 2.00028 10.112 2.00009 10.321V18.9548C1.99579 19.3318 2.12953 19.6973 2.37609 19.9825C2.51656 20.1422 2.68953 20.27 2.88341 20.3573C3.0773 20.4447 3.28762 20.4896 3.50027 20.4891H7.99677C8.19569 20.4891 8.38645 20.4101 8.5271 20.2694C8.66775 20.1288 8.74677 19.938 8.74677 19.7391V15.2384C8.74677 15.0395 8.82579 14.8487 8.96644 14.7081C9.10709 14.5674 9.29786 14.4884 9.49677 14.4884H12.4968C12.6957 14.4884 12.8864 14.5674 13.0271 14.7081C13.1677 14.8487 13.2468 15.0395 13.2468 15.2384V19.7391C13.2468 19.938 13.3258 20.1288 13.4664 20.2694C13.6071 20.4101 13.7978 20.4891 13.9968 20.4891H18.5021C18.7485 20.4923 18.9917 20.4324 19.2084 20.3151C19.4476 20.186 19.6475 19.9945 19.7869 19.7611C19.9262 19.5277 19.9999 19.2609 20 18.9891V10.321C19.9998 10.112 19.9561 9.90541 19.8715 9.71431C19.787 9.52321 19.6636 9.35183 19.5091 9.21111Z" fill="#FFD100"/>
</g>
<defs>
<filter id="filter0_d_0_4214" x="0" y="0" width="26" height="26.4892" filterUnits="userSpaceOnUse" color-interpolation-filters="sRGB">
<feFlood flood-opacity="0" result="BackgroundImageFix"/>
<feColorMatrix in="SourceAlpha" type="matrix" values="0 0 0 0 0 0 0 0 0 0 0 0 0 0 0 0 0 0 127 0" result="hardAlpha"/>
<feOffset dx="2" dy="2"/>
<feGaussianBlur stdDeviation="2"/>
<feComposite in2="hardAlpha" operator="out"/>
<feColorMatrix type="matrix" values="0 0 0 0 1 0 0 0 0 0.819608 0 0 0 0 0 0 0 0 0.32 0"/>
<feBlend mode="normal" in2="BackgroundImageFix" result="effect1_dropShadow_0_4214"/>
<feBlend mode="normal" in="SourceGraphic" in2="effect1_dropShadow_0_4214" result="shape"/>
</filter>
</defs>
</svg>
