<svg width="21" height="21" viewBox="0 0 21 21" fill="none" xmlns="http://www.w3.org/2000/svg">
<path d="M6.72839 10.3802C6.12847 8.88381 6.06361 7.2262 6.54477 5.68753C7.02593 4.14887 8.0236 2.82352 9.36913 1.93552C10.7147 1.04752 12.3255 0.651327 13.9295 0.81392C15.5334 0.976513 17.032 1.68791 18.1719 2.82788C19.3119 3.96784 20.0233 5.46643 20.1859 7.07036C20.3485 8.67429 19.9523 10.2852 19.0643 11.6307C18.1763 12.9762 16.8509 13.9739 15.3123 14.455C13.7736 14.9362 12.116 14.8713 10.6196 14.2714L10.6197 14.2713L9.33874 15.5522H7.00405V17.8869H4.66937V20.2216H0.778228V16.3304L6.72856 10.3801L6.72839 10.3802Z" stroke="#7D7D7D" stroke-width="1.5" stroke-linecap="round" stroke-linejoin="round"/>
<path opacity="0.5" d="M15.1754 6.21316C15.3904 6.21316 15.5646 6.03895 15.5646 5.82404C15.5646 5.60914 15.3904 5.43493 15.1754 5.43493C14.9605 5.43493 14.7863 5.60914 14.7863 5.82404C14.7863 6.03895 14.9605 6.21316 15.1754 6.21316Z" fill="#7D7D7D" stroke="#7D7D7D" stroke-width="1.5" stroke-linecap="round" stroke-linejoin="round"/>
<path d="M16.0834 5.82404C16.0834 6.32548 15.6769 6.73198 15.1754 6.73198C14.674 6.73198 14.2675 6.32548 14.2675 5.82404C14.2675 5.32261 14.674 4.91611 15.1754 4.91611C15.6769 4.91611 16.0834 5.32261 16.0834 5.82404Z" fill="#7D7D7D" stroke="#7D7D7D" stroke-width="0.125"/>
</svg>
