<svg width="18" height="20" viewBox="0 0 18 20" fill="none" xmlns="http://www.w3.org/2000/svg">
<path d="M17.25 3.75L0.75 3.75001" stroke="white" stroke-width="1.5" stroke-linecap="round" stroke-linejoin="round"/>
<path d="M6.75073 8.25V14.25" stroke="white" stroke-width="1.5" stroke-linecap="round" stroke-linejoin="round"/>
<path d="M11.2507 8.25V14.25" stroke="white" stroke-width="1.5" stroke-linecap="round" stroke-linejoin="round"/>
<path d="M15.7507 3.75V18C15.7507 18.1989 15.6717 18.3897 15.5311 18.5303C15.3904 18.671 15.1996 18.75 15.0007 18.75H3.00073C2.80182 18.75 2.61105 18.671 2.4704 18.5303C2.32975 18.3897 2.25073 18.1989 2.25073 18V3.75" stroke="white" stroke-width="1.5" stroke-linecap="round" stroke-linejoin="round"/>
<path d="M12.7507 3.75V2.25C12.7507 1.85218 12.5927 1.47064 12.3114 1.18934C12.0301 0.908035 11.6486 0.75 11.2507 0.75H6.75073C6.35291 0.75 5.97138 0.908035 5.69007 1.18934C5.40877 1.47064 5.25073 1.85218 5.25073 2.25V3.75" stroke="white" stroke-width="1.5" stroke-linecap="round" stroke-linejoin="round"/>
</svg>
