<svg width="32" height="32" viewBox="0 0 32 32" fill="none" xmlns="http://www.w3.org/2000/svg">
<g clip-path="url(#clip0_32_23477)">
<path d="M0.162109 0.175781H31.8658V30.6972H0.162109V0.175781Z" fill="white"/>
<path d="M0 0H32V32H0V0Z" fill="#00A651"/>
<path d="M19.7299 28.8154V30.0528H12.0548V28.813H6.24703C5.67955 28.813 5.2173 28.2234 5.2173 27.4964L2.78711 3.06364C2.78711 2.33619 3.35459 1.74609 4.05485 1.74609H27.5239C28.2196 1.74609 28.7871 2.33619 28.7871 3.06364L26.3843 27.4964C26.3843 28.2234 25.9221 28.813 25.3546 28.813L19.7299 28.8154H19.7299Z" fill="white"/>
<path d="M7.06177 5.32422H22.7735C21.2265 5.90067 16.5172 9.07037 15.341 11.2015H7.07555L7.06177 5.32422H7.06177Z" fill="#FF6701"/>
<path d="M19.5835 22.1641C19.3593 24.2924 19.3501 26.8843 19.3501 29.6068H12.54C12.54 26.8843 12.6545 24.2924 12.8787 22.1641H19.5835H19.5835Z" fill="#E50A09"/>
<path d="M9.04809 19.0895V19.9144H7.95886V20.7396H9.04809V21.6851H6.55835V17.2852H9.04809V18.2652H7.95886V19.0895H9.04809Z" fill="#00A651"/>
<path d="M14.8376 19.0895V19.9144H13.753V20.7396H14.8376V21.6851H12.3525V17.2852H14.8376V18.2652H13.753V19.0895H14.8376Z" fill="#00A651"/>
<path d="M21.2172 19.0895V19.9144H20.128V20.7396H21.2172V21.6851H18.7275V17.2852H21.2172V18.2652H20.128V19.0895H21.2172Z" fill="#00A651"/>
<path d="M10.9154 17.2852V20.7396H12.0045V21.6851H9.51489V17.2852H10.9154Z" fill="#00A651"/>
<path d="M16.8469 20.2589L16.3158 17.2852H15.094L15.7895 21.6851H17.5882L18.4303 17.2852H17.3914L16.8469 20.2589Z" fill="#00A651"/>
<path d="M21.8079 17.2852H23.1535V21.6846H21.8079V17.2852Z" fill="#00A651"/>
<path d="M23.1533 18.5904C23.2266 18.1086 23.9131 18.2378 23.9131 18.513V21.6841H25.2632V17.9548C25.2632 17.1641 24.1419 16.8461 23.1625 17.5422L23.1533 18.5904L23.1533 18.5904Z" fill="#00A651"/>
<path d="M20.2153 16.6653C20.3525 14.9815 22.6729 12.2317 24.92 11.5097V5.01367C18.737 7.76351 14.7186 11.9223 13.8491 16.6489L20.2153 16.6653L20.2153 16.6653Z" fill="#E50A09"/>
</g>
<defs>
<clipPath id="clip0_32_23477">
<path d="M0 4C0 1.79086 1.79086 0 4 0H28C30.2091 0 32 1.79086 32 4V28C32 30.2091 30.2091 32 28 32H4C1.79086 32 0 30.2091 0 28V4Z" fill="white"/>
</clipPath>
</defs>
</svg>
