<svg width="27" height="9" viewBox="0 0 27 9" fill="none" xmlns="http://www.w3.org/2000/svg">
<path d="M10.2518 0.153353L6.71746 8.58702H4.41063L2.6726 1.85716C2.5656 1.44214 2.47416 1.29111 2.15332 1.11487C1.62777 0.830731 0.763284 0.564209 0 0.3982L0.0534204 0.153405H3.76484C4.23819 0.153405 4.66376 0.469128 4.77076 1.0134L5.68977 5.89464L7.95969 0.153405H10.2518V0.153353ZM19.2877 5.83226C19.2979 3.60759 16.2094 3.48651 16.2316 2.49124C16.2376 2.18744 16.5256 1.86597 17.1562 1.78481C17.4693 1.74315 18.331 1.71262 19.3077 2.16102L19.6905 0.373415C19.165 0.182673 18.4896 0 17.65 0C15.4937 0 13.9758 1.14693 13.963 2.78798C13.9488 4.00152 15.046 4.67874 15.8735 5.08289C16.7233 5.49644 17.0074 5.76048 17.0044 6.13137C16.9989 6.69742 16.3264 6.9448 15.6992 6.95593C14.6021 6.97302 13.9657 6.65945 13.4575 6.42278L13.0625 8.27182C13.5716 8.50554 14.514 8.70846 15.4894 8.72044C17.7812 8.72033 19.2805 7.58564 19.2877 5.83226ZM24.982 8.58707H27.0002L25.2391 0.153405H23.376C22.9573 0.153405 22.6044 0.397568 22.4471 0.771616L19.1753 8.58707H21.4653L21.9199 7.32755H24.7192L24.982 8.58707ZM22.5475 5.59896L23.6964 2.43223L24.3573 5.59896H22.5475ZM13.3696 0.153353L11.5645 8.58702H9.38236L11.1879 0.153353H13.3696Z" fill="#1A2ADF"/>
</svg>
