<svg width="20" height="20" viewBox="0 0 20 20" fill="none" xmlns="http://www.w3.org/2000/svg">
<path d="M10 19.2308C15.098 19.2308 19.2308 15.098 19.2308 10C19.2308 4.90199 15.098 0.769231 10 0.769231C4.90199 0.769231 0.769231 4.90199 0.769231 10C0.769231 15.098 4.90199 19.2308 10 19.2308Z" stroke="#7D7D7D" stroke-width="1.5" stroke-linecap="round" stroke-linejoin="round"/>
<path d="M10 13.0769C12.1242 13.0769 13.8462 11.3549 13.8462 9.23077C13.8462 7.1066 12.1242 5.38462 10 5.38462C7.87583 5.38462 6.15385 7.1066 6.15385 9.23077C6.15385 11.3549 7.87583 13.0769 10 13.0769Z" stroke="#7D7D7D" stroke-width="1.5" stroke-linecap="round" stroke-linejoin="round"/>
<path d="M3.82662 16.8629C4.40606 15.7237 5.28943 14.767 6.37896 14.0988C7.46849 13.4306 8.72167 13.0769 9.99978 13.0769C11.2779 13.0769 12.5311 13.4306 13.6206 14.0988C14.7101 14.767 15.5935 15.7236 16.1729 16.8629" stroke="#7D7D7D" stroke-width="1.5" stroke-linecap="round" stroke-linejoin="round"/>
</svg>
