<svg width="84" height="84" viewBox="0 0 84 84" fill="none" xmlns="http://www.w3.org/2000/svg">
<path d="M80.3852 0H3.6148C1.6184 0 0 1.60607 0 3.58725V79.7726C0 81.7538 1.6184 83.3599 3.6148 83.3599H80.3852C82.3816 83.3599 84 81.7538 84 79.7726V3.58725C84 1.60607 82.3816 0 80.3852 0Z" fill="#FFD100"/>
<path d="M74.0931 28.0107H10.4287L10 15.3594H73.6644L74.0931 28.0107Z" fill="white"/>
<path d="M74.8658 50.6221H11.1944L10.7656 37.9707H74.437L74.8658 50.6221Z" fill="white"/>
<path d="M50.2945 39.7139L34.9513 41.8224C34.8049 41.8391 34.6635 41.8859 34.5361 41.9598C34.4086 42.0338 34.2979 42.1333 34.2107 42.2521C34.1236 42.3709 34.062 42.5065 34.0298 42.6502C33.9975 42.794 33.9954 42.9429 34.0235 43.0875L36.0407 53.3703C36.1067 53.672 36.2832 53.9382 36.5356 54.1164C36.7879 54.2946 37.0978 54.3719 37.4042 54.3332L52.7475 52.2246C52.8936 52.2062 53.0343 52.1579 53.1609 52.0828C53.2876 52.0078 53.3975 51.9075 53.4838 51.7883C53.5701 51.669 53.631 51.5333 53.6627 51.3895C53.6945 51.2457 53.6963 51.097 53.6682 50.9525L51.6581 40.6697C51.592 40.3685 51.4152 40.103 51.1627 39.926C50.9101 39.7489 50.6003 39.6732 50.2945 39.7139ZM45.8877 50.1301L43.0762 50.5026L42.8021 47.1852C42.5124 47.0599 42.2571 46.8668 42.0577 46.6221C41.8584 46.3775 41.7207 46.0885 41.6565 45.7795C41.6048 45.5401 41.604 45.2925 41.654 45.0528C41.7041 44.8131 41.8039 44.5865 41.947 44.3878C42.09 44.1891 42.2733 44.0226 42.4847 43.8991C42.6962 43.7756 42.9312 43.6979 43.1746 43.6709C43.6739 43.6067 44.179 43.732 44.5903 44.0223C45.0015 44.3125 45.2889 44.7464 45.3957 45.2383C45.4566 45.5353 45.4379 45.8432 45.3417 46.1308C45.2454 46.4184 45.0749 46.6754 44.8474 46.8759L45.8877 50.1301Z" fill="#003087"/>
<path d="M48.7765 39.1574C48.5052 39.192 48.2308 39.1239 48.0072 38.9665C47.7835 38.8092 47.6267 38.574 47.5675 38.307L47.3707 37.3019C47.0899 35.9303 46.3211 34.7071 45.2069 33.8593C44.0928 33.0114 42.709 32.5964 41.3122 32.6912C40.6073 32.7314 39.9193 32.9228 39.295 33.2524C38.6706 33.5821 38.1245 34.0422 37.6938 34.6016C37.2631 35.161 36.9578 35.8066 36.7987 36.4945C36.6396 37.1823 36.6304 37.8964 36.7717 38.5881L36.9966 39.7478C37.0228 39.8763 37.0219 40.0089 36.9939 40.137C36.9659 40.2652 36.9115 40.386 36.834 40.4919C36.7566 40.5977 36.658 40.6863 36.5444 40.7518C36.4307 40.8173 36.3047 40.8584 36.1743 40.8724C35.9025 40.9103 35.6265 40.8435 35.4021 40.6857C35.1777 40.5278 35.0216 40.2905 34.9654 40.022L34.7756 39.045C34.5826 38.1319 34.5762 37.1893 34.7568 36.2737C34.9374 35.3581 35.3012 34.4884 35.8264 33.717C36.3517 32.9456 37.0274 32.2883 37.8131 31.7847C38.5988 31.2811 39.4782 30.9416 40.3985 30.7865C42.3938 30.4514 44.4415 30.8975 46.1167 32.0322C47.7919 33.1668 48.9659 34.9029 49.395 36.8802L49.6199 38.0329C49.6461 38.163 49.6445 38.2972 49.6153 38.4266C49.586 38.5561 49.5297 38.6779 49.4501 38.7841C49.3705 38.8903 49.2693 38.9784 49.1532 39.0428C49.0371 39.1071 48.9087 39.1462 48.7765 39.1574Z" fill="#003087"/>
<path d="M64.3581 68.3409H22.9108L22.6367 60.1035H64.0769L64.3581 68.3409Z" fill="#003087"/>
<path d="M44.3622 21.6855C44.3746 21.9859 44.3258 22.2858 44.2189 22.5668C44.1119 22.8479 43.949 23.1043 43.74 23.3205C43.531 23.5367 43.2803 23.7082 43.0031 23.8247C42.7258 23.9411 42.4278 24 42.1271 23.9979C41.5074 23.993 40.9132 23.7504 40.4672 23.3201C40.0211 22.8898 39.7574 22.3047 39.7304 21.6855C39.718 21.385 39.7668 21.0852 39.8737 20.8042C39.9807 20.5231 40.1436 20.2667 40.3526 20.0505C40.5615 19.8343 40.8123 19.6627 41.0895 19.5463C41.3668 19.4299 41.6648 19.3709 41.9655 19.3731C42.5857 19.3762 43.1809 19.6183 43.6273 20.0489C44.0737 20.4796 44.3369 21.0657 44.3622 21.6855Z" fill="#263238"/>
<path d="M34.3688 21.6855C34.3822 21.9862 34.3342 22.2865 34.2276 22.568C34.121 22.8495 33.9581 23.1063 33.749 23.3227C33.5398 23.5391 33.2886 23.7106 33.0109 23.8267C32.7332 23.9428 32.4348 24.001 32.1338 23.9979C31.5147 23.993 30.9213 23.7501 30.4764 23.3196C30.0315 22.8892 29.7693 22.304 29.7441 21.6855C29.7317 21.385 29.7805 21.0852 29.8874 20.8042C29.9944 20.5231 30.1573 20.2667 30.3662 20.0505C30.5752 19.8343 30.8259 19.6627 31.1032 19.5463C31.3804 19.4299 31.6784 19.3709 31.9791 19.3731C32.5987 19.3763 33.1931 19.6186 33.6384 20.0494C34.0836 20.4802 34.3453 21.0664 34.3688 21.6855Z" fill="#263238"/>
<path d="M24.4372 21.6855C24.4496 21.9859 24.4008 22.2858 24.2939 22.5668C24.1869 22.8479 24.024 23.1043 23.815 23.3205C23.6061 23.5367 23.3553 23.7082 23.0781 23.8247C22.8008 23.9411 22.5028 24 22.2021 23.9979C21.5826 23.9947 20.9882 23.7524 20.5429 23.3216C20.0977 22.8907 19.836 22.3046 19.8124 21.6855C19.8001 21.385 19.8488 21.0852 19.9558 20.8042C20.0627 20.5231 20.2256 20.2667 20.4346 20.0505C20.6436 19.8343 20.8943 19.6627 21.1716 19.5463C21.4488 19.4299 21.7468 19.3709 22.0475 19.3731C22.6671 19.3763 23.2615 19.6186 23.7067 20.0494C24.152 20.4802 24.4137 21.0664 24.4372 21.6855Z" fill="#263238"/>
<path d="M54.3214 21.686C54.3338 21.9865 54.2851 22.2863 54.1781 22.5674C54.0712 22.8484 53.9083 23.1048 53.6993 23.321C53.4903 23.5372 53.2396 23.7088 52.9623 23.8252C52.6851 23.9416 52.3871 24.0006 52.0864 23.9984C51.4668 23.9952 50.8724 23.7529 50.4271 23.3221C49.9819 22.8913 49.7202 22.3052 49.6967 21.686C49.6862 21.3865 49.7366 21.0879 49.8449 20.8084C49.9533 20.5289 50.1172 20.2743 50.3269 20.0601C50.5365 19.8458 50.7875 19.6764 51.0646 19.562C51.3416 19.4476 51.639 19.3907 51.9388 19.3947C52.5536 19.3994 53.1433 19.6396 53.5865 20.0658C54.0297 20.492 54.2927 21.0718 54.3214 21.686Z" fill="#263238"/>
<path d="M64.281 21.6855C64.2943 21.9862 64.2463 22.2865 64.1397 22.568C64.0331 22.8495 63.8703 23.1063 63.6611 23.3227C63.4519 23.5391 63.2008 23.7106 62.923 23.8267C62.6453 23.9428 62.3469 24.001 62.0459 23.9979C61.4268 23.993 60.8334 23.7501 60.3885 23.3196C59.9437 22.8892 59.6814 22.304 59.6562 21.6855C59.6438 21.385 59.6926 21.0852 59.7995 20.8042C59.9065 20.5231 60.0694 20.2667 60.2784 20.0505C60.4873 19.8343 60.738 19.6627 61.0153 19.5463C61.2925 19.4299 61.5906 19.3709 61.8913 19.3731C62.5108 19.3763 63.1052 19.6186 63.5505 20.0494C63.9957 20.4802 64.2574 21.0664 64.281 21.6855Z" fill="#263238"/>
</svg>
