<svg width="19" height="21" viewBox="0 0 19 21" fill="none" xmlns="http://www.w3.org/2000/svg">
<path d="M18.1933 14.9851V6.015C18.1933 5.88076 18.1577 5.74893 18.09 5.63298C18.0224 5.51703 17.9251 5.42112 17.8083 5.35507L9.84869 0.856175C9.7349 0.791856 9.6064 0.758055 9.47569 0.758055C9.34497 0.758055 9.21648 0.791856 9.10268 0.856175L1.1431 5.35507C1.02624 5.42112 0.929008 5.51703 0.861356 5.63298C0.793704 5.74893 0.758055 5.88076 0.758055 6.015V14.9851C0.758055 15.1194 0.793703 15.2512 0.861356 15.3671C0.929008 15.4831 1.02624 15.579 1.1431 15.6451L9.10268 20.1439C9.21648 20.2083 9.34497 20.2421 9.47569 20.2421C9.6064 20.2421 9.7349 20.2083 9.84869 20.1439L17.8083 15.6451C17.9251 15.579 18.0224 15.4831 18.09 15.3671C18.1577 15.2512 18.1933 15.1194 18.1933 14.9851V14.9851Z" stroke="#7D7D7D" stroke-width="1.5" stroke-linecap="round" stroke-linejoin="round"/>
<path d="M9.47569 13.9115C11.3597 13.9115 12.8869 12.3842 12.8869 10.5002C12.8869 8.61627 11.3597 7.089 9.47569 7.089C7.59171 7.089 6.06444 8.61627 6.06444 10.5002C6.06444 12.3842 7.59171 13.9115 9.47569 13.9115Z" stroke="#7D7D7D" stroke-width="1.5" stroke-linecap="round" stroke-linejoin="round"/>
</svg>
