<svg width="13" height="64" viewBox="0 0 13 64" fill="none" xmlns="http://www.w3.org/2000/svg">
<path d="M5.92722 51.5359C5.03539 52.331 4.13281 53.1584 3.25172 53.9857C3.25172 50.3324 3.30545 46.6899 3.52035 43.0473C3.52556 43.0225 3.52556 42.9969 3.52035 42.9721C3.71376 39.6949 4.02537 36.4284 4.43368 33.1726C5.50818 32.3775 6.67939 31.6039 7.81836 30.841C8.09773 30.6583 7.81836 30.2392 7.5175 30.4219C6.50747 31.0881 5.50817 31.7758 4.51963 32.4742C4.92794 29.3689 5.42223 26.2743 6.0132 23.212C6.01846 23.1836 6.01846 23.1545 6.0132 23.1261C6.69014 19.6447 7.48527 16.174 8.3986 12.7464C8.40213 12.7214 8.40213 12.6961 8.3986 12.6712C8.80691 11.1454 9.2367 9.61957 9.69874 8.10453C10.4724 5.50423 11.3212 2.92542 12.2453 0.368105C12.2607 0.335525 12.2691 0.300087 12.27 0.264059C12.2708 0.228031 12.2642 0.192244 12.2503 0.158963C12.2365 0.125682 12.2159 0.0956632 12.1897 0.0708531C12.1636 0.0460429 12.1325 0.0269845 12.0986 0.0149113C12.0646 0.00283815 12.0285 -0.00199446 11.9926 0.000745538C11.9567 0.00348553 11.9217 0.0137331 11.8899 0.030815C11.8582 0.047897 11.8304 0.0714524 11.8083 0.0999388C11.7863 0.128425 11.7704 0.161222 11.7618 0.196214C10.3649 4.08591 9.12566 8.02575 8.044 12.0157C7.39929 10.9412 6.75459 9.94194 6.13138 8.88892C6.08965 8.84036 6.03195 8.8083 5.96867 8.79852C5.90539 8.78874 5.8407 8.80187 5.78625 8.83557C5.73181 8.86928 5.69118 8.92131 5.67171 8.98231C5.65225 9.04332 5.65525 9.10926 5.68011 9.16827C6.38928 10.361 7.11994 11.5429 7.82911 12.7141C6.96951 15.9376 6.21734 19.2256 5.5619 22.5136C4.84198 21.525 4.13281 20.5365 3.41289 19.5265C3.39314 19.4983 3.36803 19.4742 3.33898 19.4557C3.30993 19.4372 3.27751 19.4245 3.24359 19.4186C3.20966 19.4126 3.17488 19.4133 3.14125 19.4208C3.10761 19.4282 3.07578 19.4423 3.04756 19.462C3.01934 19.4818 2.99528 19.5069 2.97677 19.5359C2.95825 19.565 2.94563 19.5974 2.93965 19.6313C2.93366 19.6652 2.93443 19.7 2.94188 19.7337C2.94933 19.7673 2.96334 19.7991 2.9831 19.8273C3.77823 20.9771 4.58412 22.1053 5.41148 23.212C4.78827 26.4427 4.26891 29.6913 3.85344 32.9577C3.85344 32.9577 3.85344 32.9578 3.85344 33.033C3.46662 36.149 3.16574 39.2651 2.96158 42.4026C2.12347 41.5215 1.28538 40.6297 0.468762 39.7164C0.420316 39.6636 0.352896 39.6323 0.28136 39.6293C0.209825 39.6263 0.140022 39.6518 0.0873015 39.7002C0.0345809 39.7487 0.0032634 39.8161 0.000240771 39.8876C-0.00278186 39.9592 0.0227551 40.029 0.071201 40.0817C1.00602 41.1562 1.96232 42.1232 2.91863 43.1225C2.69298 46.9155 2.607 50.73 2.66072 54.5445C2.64994 54.5721 2.64994 54.6028 2.66072 54.6304C2.66072 54.942 2.66072 55.2644 2.66072 55.5867C2.72519 58.3088 2.85415 61.0273 3.04756 63.7422C3.04756 63.8106 3.07472 63.8762 3.12308 63.9245C3.17144 63.9729 3.23704 64.0001 3.30543 64.0001C3.37383 64.0001 3.43942 63.9729 3.48779 63.9245C3.53615 63.8762 3.56334 63.8106 3.56334 63.7422C3.34127 60.7479 3.20872 57.7501 3.16574 54.7486C4.16503 53.7923 5.17507 52.8575 6.19585 51.9549C6.53969 51.6863 6.17436 51.3102 5.92722 51.5359Z" fill="white"/>
</svg>
