<svg width="20" height="20" viewBox="0 0 20 20" fill="none" xmlns="http://www.w3.org/2000/svg">
<path d="M10 19.2308C15.098 19.2308 19.2308 15.098 19.2308 10C19.2308 4.90199 15.098 0.769231 10 0.769231C4.90199 0.769231 0.769231 4.90199 0.769231 10C0.769231 15.098 4.90199 19.2308 10 19.2308Z" stroke="#7D7D7D" stroke-width="1.5" stroke-linecap="round" stroke-linejoin="round"/>
<path d="M10 15.9615C10.531 15.9615 10.9615 15.531 10.9615 15C10.9615 14.469 10.531 14.0385 10 14.0385C9.46896 14.0385 9.03846 14.469 9.03846 15C9.03846 15.531 9.46896 15.9615 10 15.9615Z" fill="#7D7D7D"/>
<path d="M10 11.539V10.7697C10.5325 10.7697 11.053 10.6118 11.4958 10.316C11.9385 10.0202 12.2836 9.59968 12.4874 9.10773C12.6911 8.61577 12.7445 8.07444 12.6406 7.55218C12.5367 7.02993 12.2803 6.5502 11.9037 6.17368C11.5272 5.79715 11.0475 5.54073 10.5252 5.43685C10.003 5.33297 9.46165 5.38628 8.9697 5.59006C8.47774 5.79383 8.05726 6.13891 7.76143 6.58166C7.46559 7.02441 7.30769 7.54494 7.30769 8.07743" stroke="#7D7D7D" stroke-width="1.5" stroke-linecap="round" stroke-linejoin="round"/>
</svg>
