<svg width="159" height="132" viewBox="0 0 159 132" fill="none" xmlns="http://www.w3.org/2000/svg">
<g filter="url(#filter0_d_22_15553)">
<path d="M131.844 12H26.989C23.1291 12 20 15.1436 20 19.0213V96.9787C20 100.856 23.1291 104 26.989 104H131.844C135.704 104 138.833 100.856 138.833 96.9787V19.0213C138.833 15.1436 135.704 12 131.844 12Z" fill="#003087"/>
<path d="M102.621 61.1582H113.613V64.3935H106.908V66.5619H113.613V69.7972H106.908V71.9705H113.613V75.2058H102.621V61.1582Z" fill="white"/>
<path d="M87.13 32.248L87.9473 29.5586L88.7597 32.248L91.4418 33.0691L88.7597 33.8902L87.9473 36.5796L87.13 33.8902L84.4479 33.0691L87.13 32.248Z" fill="white"/>
<path d="M79.4167 40.0898L80.6452 44.1266L84.6585 45.3608L80.6452 46.59L79.4167 50.6268L78.1931 46.59L74.1749 45.3608L78.1931 44.1266L79.4167 40.0898Z" fill="white"/>
<path d="M75.1538 24.4153L75.7264 22.5371L76.2991 24.4153L78.1736 24.9905L76.2991 25.5707L75.7264 27.4488L75.1538 25.5707L73.2793 24.9905L75.1538 24.4153Z" fill="white"/>
<path d="M73.2793 61.1582H78.2617L78.3938 61.4188L82.3484 68.9122V61.1582H86.1562V75.2058H81.6094L81.4675 74.9501L77.0871 66.675V75.2058H73.2793V61.1582Z" fill="white"/>
<path d="M65.0618 72.118C67.2348 72.118 67.3474 69.4628 67.3474 68.8335V61.1582H71.4978V68.6221C71.4978 70.5151 71.2286 75.5057 65.0618 75.5057C58.895 75.5057 58.6258 70.5347 58.6258 68.6221V61.1582H62.7761V68.8335C62.7761 69.4628 62.8887 72.118 65.0618 72.118Z" fill="white"/>
<path d="M57.0498 22.5323H57.0938C55.403 23.1734 53.8992 24.23 52.7198 25.6057C51.5403 26.9813 50.723 28.632 50.3424 30.4069C49.9619 32.1817 50.0303 34.0241 50.5413 35.7655C51.0524 37.507 51.9899 39.092 53.268 40.3755C54.5461 41.6591 56.1241 42.6003 57.8577 43.1131C59.5913 43.626 61.4253 43.694 63.1919 43.3111C64.9584 42.9281 66.6012 42.1064 67.9701 40.9211C69.339 39.7357 70.3903 38.2246 71.0279 36.5258V36.5749C71.0279 39.3535 70.2076 42.0696 68.671 44.3798C67.1343 46.69 64.9501 48.4906 62.3948 49.5536C59.8395 50.6167 57.0277 50.8946 54.3151 50.3522C51.6026 49.8098 49.111 48.4714 47.1557 46.5063C45.2003 44.5412 43.869 42.0377 43.33 39.3124C42.791 36.5871 43.0686 33.7625 44.1277 31.1957C45.1868 28.629 46.9798 26.4354 49.2799 24.8924C51.58 23.3494 54.284 22.5264 57.0498 22.5273V22.5323Z" fill="#FFD100"/>
<path d="M38.8431 60.878C39.7669 60.8643 40.6876 60.9902 41.5741 61.2516V64.6148C41.5741 64.6148 40.5267 64.487 40.0128 64.487C36.2393 64.487 34.7662 65.3081 34.7662 68.1845C34.7662 71.0608 36.2344 71.8869 40.0128 71.8869C40.5023 71.8869 41.5643 71.7541 41.5741 71.7541V75.1173C40.6886 75.3847 39.7676 75.514 38.8431 75.5008C35.2556 75.5008 30.4836 74.6207 30.4836 68.1845C30.4836 61.7482 35.2458 60.878 38.8431 60.878Z" fill="white"/>
<path d="M34.8932 93.6347C33.4125 93.6149 31.9372 93.4503 30.4883 93.143V90.0208C31.7472 90.2142 33.0178 90.3194 34.2912 90.3354C37.1103 90.3354 37.3257 89.8438 37.3208 89.2537C37.3159 88.6637 36.6649 88.3933 35.1624 88.0147H35.1085C33.2683 87.5574 30.4883 86.8641 30.4883 83.5305C30.4883 81.5637 31.5602 79.2773 36.6747 79.2773C39.9833 79.2773 41.5299 79.9805 41.569 80.005V83.0142L40.83 82.8765C39.8712 82.7118 38.9004 82.628 37.9277 82.6257C35.1036 82.6257 34.8345 82.965 34.8051 83.6091C34.8051 84.15 35.1673 84.3172 36.5034 84.6515L36.9929 84.7793H37.0712C38.9897 85.3055 41.711 86.0282 41.711 89.062C41.711 92.0957 39.2491 93.6347 34.8932 93.6347Z" fill="white"/>
<path d="M54.353 82.6503H47.6478V84.8236H54.353V88.0589H47.6478V90.2273H54.353V93.4626H43.3604V79.4199H54.353V82.6503Z" fill="white"/>
<path d="M57.0399 66.3615C57.0399 66.2632 57.0007 66.1747 56.9811 66.0763C56.9616 65.978 56.9322 65.8108 56.9028 65.683C56.1981 62.8459 54.1914 61.1398 51.0297 60.8398C50.9661 60.8398 50.9024 60.8398 50.8388 60.8398C50.7752 60.8398 50.5892 60.8398 50.462 60.8398C50.3347 60.8398 50.1732 60.8398 50.0264 60.8398C49.8747 60.8398 49.7327 60.8398 49.5859 60.8398C49.4391 60.8398 49.3314 60.8398 49.209 60.8398C49.0867 60.8398 49.0867 60.8398 49.0182 60.8398C45.8809 61.1398 43.8694 62.8459 43.145 65.683C43.1156 65.8108 43.0863 65.9436 43.0618 66.0763L43.0031 66.3615C42.9068 66.9416 42.8594 67.5288 42.8611 68.1169C42.8594 68.7049 42.9068 69.2921 43.0031 69.8722L43.0618 70.1574C43.0618 70.2901 43.1156 70.4229 43.145 70.5507C43.8449 73.3878 45.8564 75.0939 49.0182 75.3939H49.209C49.3314 75.3939 49.4586 75.3939 49.5859 75.3939C49.7131 75.3939 49.8747 75.3939 50.0264 75.3939C50.1732 75.3939 50.3151 75.3939 50.462 75.3939C50.6088 75.3939 50.7165 75.3939 50.8388 75.3939H51.0297C54.1718 75.0939 56.1785 73.3878 56.9028 70.5507C56.9322 70.4229 56.9567 70.2901 56.9811 70.1574C57.0056 70.0246 57.0252 69.9705 57.0399 69.8722C57.1402 69.2926 57.1894 68.7052 57.1867 68.1169C57.1894 67.5285 57.1402 66.9411 57.0399 66.3615ZM50.0361 72.3847C48.1323 72.3847 47.1681 70.8752 47.1632 68.1267C47.1583 65.3781 48.1421 63.8785 50.0361 63.8687C51.9302 63.8588 52.8993 65.3781 52.8993 68.1267C52.8993 70.8752 51.9302 72.3749 50.0361 72.3847Z" fill="white"/>
<path d="M67.5872 89.3088C67.5872 89.3088 66.8041 87.465 65.4631 87.2437C66.2057 86.9434 66.8442 86.4305 67.2993 85.7688C67.7543 85.1071 68.0059 84.3257 68.0228 83.5216C68.0228 79.416 64.6751 79.416 61.9881 79.416H56.1443V93.4636H60.4318V88.586H61.1414C62.1986 88.586 62.967 89.2891 63.4417 90.5528L64.5136 93.4636H69.1729L67.5872 89.3088ZM61.2246 85.5916H60.4073V82.671H60.8037C61.7042 82.671 62.8299 82.671 63.3634 83.207C63.4891 83.3458 63.5852 83.5091 63.6458 83.6866C63.7064 83.8642 63.7302 84.0523 63.7158 84.2395C63.7403 85.1049 63.4809 85.5966 61.2491 85.5966L61.2246 85.5916Z" fill="white"/>
<path d="M77.2876 93.4626H73.7441L68.2772 79.4199H72.6576L75.5159 87.6065L78.3741 79.4199H82.7594L77.2876 93.4626Z" fill="white"/>
<path d="M88.2851 79.416H84.0026V93.4636H88.2851V79.416Z" fill="white"/>
<path d="M100.829 82.8777C100.829 82.8777 99.7818 82.7449 99.2728 82.7449C95.4944 82.7449 94.0212 83.5021 94.0212 86.3883C94.0212 89.2745 95.4895 90.0268 99.2728 90.0268C99.7622 90.0268 100.819 89.8941 100.829 89.8941V93.2572C99.9434 93.5228 99.0224 93.6505 98.0981 93.6358C94.5106 93.6358 89.7436 92.8196 89.7436 86.3883C89.7436 79.957 94.5106 79.1359 98.0981 79.1359C99.0224 79.1212 99.9434 79.2489 100.829 79.5145V82.8777Z" fill="white"/>
<path d="M100.819 64.3935H96.5222V75.2058H92.2397V64.3935H87.9474V61.1582H100.819V64.3935Z" fill="white"/>
<path d="M128.35 88.1914H113.613V89.0764H128.35V88.1914Z" fill="white"/>
<path d="M128.35 83.8066H113.613V84.6916H128.35V83.8066Z" fill="white"/>
<path d="M128.35 80.305H113.613V81.6129H128.35V82.493H113.613V82.6503H106.908V84.8236H113.613V85.9987H128.35V86.8838H113.613V88.0589H106.908V90.2273H113.613V90.3846H128.35V91.2696H113.613V92.5775H128.35V93.4626H102.621V79.4199H128.35V80.305Z" fill="white"/>
<path d="M126.857 71.0461C126.857 71.0461 126.074 69.2072 124.728 68.9859C125.47 68.6836 126.108 68.1696 126.563 67.5073C127.018 66.845 127.27 66.0634 127.288 65.2589C127.288 61.1582 123.945 61.1582 121.253 61.1582H115.414V75.2058H119.697V70.3528H120.406C121.463 70.3528 122.237 71.051 122.707 72.3196L123.685 75.2254H128.345L126.857 71.0461ZM120.494 67.3338H119.677V64.4132H120.073C120.979 64.4132 122.1 64.4132 122.638 64.9442C122.762 65.0853 122.856 65.2497 122.916 65.4278C122.975 65.606 122.999 65.7942 122.986 65.9817C123.005 66.8372 122.746 67.3338 120.514 67.3338H120.494Z" fill="white"/>
</g>
<defs>
<filter id="filter0_d_22_15553" x="0" y="0" width="158.833" height="132" filterUnits="userSpaceOnUse" color-interpolation-filters="sRGB">
<feFlood flood-opacity="0" result="BackgroundImageFix"/>
<feColorMatrix in="SourceAlpha" type="matrix" values="0 0 0 0 0 0 0 0 0 0 0 0 0 0 0 0 0 0 127 0" result="hardAlpha"/>
<feOffset dy="8"/>
<feGaussianBlur stdDeviation="10"/>
<feComposite in2="hardAlpha" operator="out"/>
<feColorMatrix type="matrix" values="0 0 0 0 0 0 0 0 0 0 0 0 0 0 0 0 0 0 0.25 0"/>
<feBlend mode="normal" in2="BackgroundImageFix" result="effect1_dropShadow_22_15553"/>
<feBlend mode="normal" in="SourceGraphic" in2="effect1_dropShadow_22_15553" result="shape"/>
</filter>
</defs>
</svg>
