<svg width="70" height="61" viewBox="0 0 70 61" fill="none" xmlns="http://www.w3.org/2000/svg">
<path fill-rule="evenodd" clip-rule="evenodd" d="M12.8351 30.5816V1.25514C12.8351 0.921276 12.9682 0.602469 13.2029 0.367757C13.4389 0.13179 13.7577 0 14.0903 0H42.3988L56.7652 15.9303V35.9536C56.7652 35.9536 56.7702 37.4786 56.6434 39.8232L49.5757 37.259C48.731 36.9527 47.7859 37.1209 47.0993 37.702C46.0073 38.6245 44.3543 40.0228 43.2937 40.919C42.6536 41.4599 41.7875 41.6457 40.983 41.416C38.543 40.7181 33.4848 39.2735 33.4848 39.2735C33.4848 39.2735 38.2054 42.6448 40.7257 44.4459C41.6394 45.0986 42.8757 45.0647 43.7531 44.3631C44.8802 43.4606 46.4077 42.2394 47.4319 41.4198C48.1235 40.8675 49.0536 40.7194 49.882 41.0294L56.3786 43.4656C55.8803 48.8803 54.7356 55.9807 52.1136 60.3887C51.8839 60.7515 51.4848 60.9711 51.0555 60.9711C46.2521 60.9749 17.734 60.9749 9.76254 60.9749C9.32198 60.9749 8.91406 60.744 8.68688 60.3662C8.46095 59.9884 8.4484 59.5189 8.6555 59.1311C12.5502 50.6739 12.8351 35.9536 12.8351 35.9536V34.3081L18.3427 32.2434C19.1711 31.9334 20.1012 32.0815 20.7915 32.6337C21.8169 33.4534 23.3445 34.6746 24.4716 35.5771C25.3489 36.2787 26.5852 36.3126 27.499 35.6599C30.0193 33.8588 34.7399 30.4874 34.7399 30.4874C34.7399 30.4874 29.6817 31.9321 27.2417 32.63C26.4371 32.8597 25.5698 32.6739 24.931 32.1329C23.8704 31.2368 22.2173 29.8385 21.1254 28.916C20.4388 28.3349 19.4937 28.1667 18.649 28.4729L12.8351 30.5816Z" fill="#CADCF0"/>
<path fill-rule="evenodd" clip-rule="evenodd" d="M55.751 43.2319L56.3798 43.4829C55.8816 48.8976 54.7369 56.0042 52.1136 60.4148C51.8839 60.7775 51.4848 60.9972 51.0555 60.9972C46.2521 61.0009 17.734 61.0009 9.76254 61.0009C9.32198 61.0009 8.91406 60.7687 8.68688 60.3909C8.46095 60.0144 8.4484 59.545 8.6555 59.1559L8.70445 59.0479C24.1603 59.7747 46.6048 57.0673 49.5606 55.9101C51.7571 55.0503 54.3528 49.0507 55.751 43.2319Z" fill="#A4BBDB"/>
<path fill-rule="evenodd" clip-rule="evenodd" d="M56.7652 15.9303C52.9558 14.4254 48.9205 14.3827 44.7798 15.0228C44.3957 15.0831 44.0054 14.9613 43.723 14.6927C43.4418 14.4241 43.3 14.04 43.3414 13.6535C43.7958 9.01695 43.3376 4.48086 42.3988 0C48.4712 4.50722 53.2671 9.81397 56.7652 15.9303Z" fill="#003087"/>
<path fill-rule="evenodd" clip-rule="evenodd" d="M2.40614 20.1678L8.68186 27.5355C9.1312 28.0639 9.92319 28.1267 10.4504 27.6773C10.9775 27.228 11.0415 26.436 10.5922 25.9088L4.31646 18.5412C3.86712 18.0127 3.07513 17.95 2.54671 18.3993C2.01955 18.8487 1.95679 19.6407 2.40614 20.1678Z" fill="#003087"/>
<path fill-rule="evenodd" clip-rule="evenodd" d="M2.47391 31.1206L6.92842 32.3142C7.59741 32.4937 8.28648 32.0958 8.46597 31.4269C8.64546 30.7579 8.24758 30.0688 7.57858 29.8893L3.12408 28.6957C2.45383 28.5162 1.76601 28.9141 1.58653 29.583C1.40704 30.252 1.80492 30.9411 2.47391 31.1206Z" fill="#003087"/>
<path fill-rule="evenodd" clip-rule="evenodd" d="M1.88274 41.4435L10.2646 36.6036C10.8646 36.2572 11.0704 35.4891 10.724 34.8891C10.3776 34.2892 9.60941 34.0833 9.00945 34.4297L0.627598 39.2696C0.0276391 39.616 -0.178204 40.3841 0.168216 40.9841C0.514635 41.584 1.28278 41.7899 1.88274 41.4435Z" fill="#003087"/>
<path fill-rule="evenodd" clip-rule="evenodd" d="M67.4778 54.6036L61.2021 47.236C60.7528 46.7088 59.9608 46.646 59.4336 47.0941C58.9064 47.5435 58.8424 48.3367 59.2918 48.8639L65.5675 56.2316C66.0168 56.7587 66.8088 56.8227 67.3372 56.3734C67.8644 55.9241 67.9272 55.1308 67.4778 54.6036Z" fill="#003087"/>
<path fill-rule="evenodd" clip-rule="evenodd" d="M67.41 43.6527L62.9555 42.4591C62.2865 42.2796 61.5975 42.6775 61.418 43.3465C61.2385 44.0155 61.6364 44.7046 62.3054 44.884L66.7599 46.0777C67.4301 46.2559 68.1179 45.8593 68.2974 45.189C68.4769 44.5201 68.079 43.8322 67.41 43.6527Z" fill="#003087"/>
<path fill-rule="evenodd" clip-rule="evenodd" d="M68.0012 33.3295L59.6194 38.1681C59.0194 38.5145 58.8136 39.2827 59.16 39.8826C59.5064 40.4826 60.2745 40.6884 60.8745 40.342L69.2564 35.5034C69.8563 35.157 70.0622 34.3889 69.7157 33.7889C69.3693 33.1889 68.6012 32.9831 68.0012 33.3295Z" fill="#003087"/>
<path fill-rule="evenodd" clip-rule="evenodd" d="M19.7096 11.5339L24.1477 15.9721C24.6372 16.4616 25.433 16.4616 25.9225 15.9721C26.412 15.4813 26.412 14.6868 25.9225 14.1961L21.4843 9.75914C20.9948 9.26963 20.1991 9.26963 19.7096 9.75914C19.22 10.2486 19.22 11.0444 19.7096 11.5339Z" fill="#003087"/>
<path fill-rule="evenodd" clip-rule="evenodd" d="M24.1477 9.75914L19.7096 14.1961C19.22 14.6868 19.22 15.4813 19.7096 15.9721C20.1991 16.4616 20.9948 16.4616 21.4843 15.9721L25.9225 11.5339C26.412 11.0444 26.412 10.2486 25.9225 9.75914C25.433 9.26963 24.6372 9.26963 24.1477 9.75914Z" fill="#003087"/>
<path fill-rule="evenodd" clip-rule="evenodd" d="M33.5161 11.5339L37.9543 15.9721C38.4438 16.4616 39.2396 16.4616 39.7291 15.9721C40.2186 15.4813 40.2186 14.6868 39.7291 14.1961L35.2909 9.75914C34.8014 9.26963 34.0056 9.26963 33.5161 9.75914C33.0266 10.2486 33.0266 11.0444 33.5161 11.5339Z" fill="#003087"/>
<path fill-rule="evenodd" clip-rule="evenodd" d="M37.9543 9.75914L33.5161 14.1961C33.0266 14.6868 33.0266 15.4813 33.5161 15.9721C34.0056 16.4616 34.8014 16.4616 35.2909 15.9721L39.7291 11.5339C40.2186 11.0444 40.2186 10.2486 39.7291 9.75914C39.2396 9.26963 38.4438 9.26963 37.9543 9.75914Z" fill="#003087"/>
<path fill-rule="evenodd" clip-rule="evenodd" d="M22.9403 23.4702L24.7013 22.151L26.4547 23.4689C26.9015 23.804 27.5153 23.804 27.9621 23.4689L29.7193 22.151L31.4765 23.4689C31.9221 23.804 32.5359 23.804 32.9827 23.4689L34.7399 22.151L36.4971 23.4689C37.0506 23.8844 37.8389 23.7727 38.2543 23.2179C38.6698 22.6644 38.5568 21.8774 38.0033 21.4607L35.4942 19.578C35.0474 19.2441 34.4336 19.2441 33.9881 19.578L32.2296 20.8959L30.4724 19.578C30.0268 19.2441 29.4131 19.2441 28.9662 19.578L27.209 20.8959L25.4569 19.5792C25.0113 19.2441 24.3975 19.2428 23.9507 19.578L21.4366 21.4607C20.8819 21.8761 20.7689 22.6631 21.1831 23.2179C21.5985 23.7714 22.3855 23.8856 22.9403 23.4702Z" fill="#003087"/>
</svg>
