<svg width="38" height="20" viewBox="0 0 38 20" fill="none" xmlns="http://www.w3.org/2000/svg">
<rect x="0.25" y="0.25" width="37.5" height="19.5" rx="1.75" fill="white"/>
<path fill-rule="evenodd" clip-rule="evenodd" d="M12.3256 14.2943H10.015L8.28227 7.52604C8.20003 7.2147 8.02541 6.93946 7.76855 6.80973C7.12752 6.48373 6.42116 6.22428 5.65057 6.09342V5.83284H9.3728C9.88653 5.83284 10.2718 6.22428 10.336 6.67888L11.235 11.5611L13.5445 5.83284H15.7909L12.3256 14.2943ZM17.0752 14.2943H14.8931L16.69 5.83284H18.8721L17.0752 14.2943ZM21.6954 8.17693C21.7596 7.7212 22.1449 7.46062 22.5944 7.46062C23.3008 7.39519 24.0702 7.52605 24.7124 7.85092L25.0977 6.02913C24.4555 5.76855 23.7491 5.6377 23.1081 5.6377C20.9901 5.6377 19.449 6.80974 19.449 8.43638C19.449 9.67385 20.5406 10.3236 21.3112 10.715C22.1449 11.1053 22.466 11.3659 22.4017 11.7562C22.4017 12.3417 21.7596 12.6023 21.1186 12.6023C20.348 12.6023 19.5774 12.4071 18.8722 12.0811L18.4869 13.904C19.2574 14.2289 20.0911 14.3598 20.8617 14.3598C23.2365 14.4241 24.7124 13.2531 24.7124 11.4956C24.7124 9.28241 21.6954 9.15269 21.6954 8.17693ZM32.3495 14.2943L30.6168 5.83284H28.7557C28.3704 5.83284 27.9851 6.09342 27.8567 6.48373L24.6482 14.2943H26.8946L27.3429 13.058H30.1031L30.3599 14.2943H32.3495ZM29.0767 8.11151L29.7177 11.3005H27.9208L29.0767 8.11151Z" fill="#003087"/>
<rect x="0.25" y="0.25" width="37.5" height="19.5" rx="1.75" stroke="#DBDBDB" stroke-width="0.5"/>
</svg>
