<svg width="48" height="48" viewBox="0 0 48 48" fill="none" xmlns="http://www.w3.org/2000/svg">
<path d="M0 8C0 3.58172 3.58172 0 8 0H40C44.4183 0 48 3.58172 48 8V40C48 44.4183 44.4183 48 40 48H8C3.58172 48 0 44.4183 0 40V8Z" fill="white"/>
<path d="M28.0171 14.539L25.8874 13.8326C24.9201 13.5118 23.8537 13.7623 23.1328 14.4797L10.3285 27.2208C9.89052 27.6566 9.89052 28.3632 10.3285 28.7991L12.0151 30.4773L28.0171 14.539Z" fill="#003087"/>
<path d="M33.5723 20.0568L17.5651 36L19.2465 37.673C19.6845 38.1089 20.3947 38.1089 20.8326 37.673L33.6369 24.932C34.3579 24.2147 34.6096 23.1536 34.2872 22.1911L33.5723 20.0568Z" fill="#003087"/>
<path d="M25.73 14.3072L27.0888 14.758L25.9308 15.9114C25.5146 15.2998 25.0485 14.7432 24.5364 14.2529C24.9245 14.1624 25.3373 14.177 25.73 14.3072C25.73 14.3072 25.73 14.3072 25.73 14.3072Z" fill="#001269" stroke="#003087"/>
<path d="M33.5727 20.0568L27.7752 25.8311C27.7261 26.482 27.6427 27.1414 27.5222 27.806C27.2127 29.5124 26.6882 31.1035 25.9997 32.5319L33.6373 24.9321C34.3583 24.2147 34.61 23.1536 34.2876 22.1911L33.5727 20.0568Z" fill="#001269"/>
<path d="M12.0118 30.474L17.562 35.9968L33.5745 20.0633L32.3647 16.4517C32.2531 16.1184 31.9902 15.8569 31.6553 15.7458L28.0237 14.5412L12.0118 30.474Z" fill="#FFD100"/>
<path d="M33.5745 20.0633L32.3646 16.4516C32.253 16.1183 31.9902 15.8568 31.6553 15.7457L28.0237 14.5412L25.8472 16.7069C27.3055 19.1241 28.0378 22.355 27.7747 25.8344L33.5745 20.0633Z" fill="#FFAD00"/>
<path d="M24.9566 26.2609C24.9566 26.2608 24.9566 26.2608 24.9565 26.2608L24.9566 26.2609ZM24.9566 26.2609L24.9566 26.2609L24.9566 26.2609ZM27.4163 23.7112L27.4162 23.7112L27.4163 23.7112ZM27.4163 23.7112C27.4163 23.7112 27.4163 23.7112 27.4163 23.7112L27.4163 23.7112ZM24.7928 26.3343C24.7928 26.3343 24.7928 26.3343 24.7928 26.3342L24.7928 26.3343ZM24.875 26.2975V26.2975Z" fill="#001269" stroke="#003087"/>
<mask id="path-10-inside-1_0_3996" fill="white">
<path d="M29.9722 21.1977C29.812 21.0375 29.5522 21.0375 29.392 21.1977L28.5712 22.0185L25.6917 19.1388C25.5315 18.9787 25.2717 18.9787 25.1115 19.1388C24.9513 19.2991 24.9513 19.5588 25.1115 19.719L28.2811 22.8887C28.3581 22.9656 28.4624 23.0089 28.5712 23.0089C28.68 23.0089 28.7844 22.9656 28.8613 22.8887L29.9721 21.7778C30.1324 21.6176 30.1324 21.3579 29.9722 21.1977Z"/>
</mask>
<path d="M29.9722 21.1977C29.812 21.0375 29.5522 21.0375 29.392 21.1977L28.5712 22.0185L25.6917 19.1388C25.5315 18.9787 25.2717 18.9787 25.1115 19.1388C24.9513 19.2991 24.9513 19.5588 25.1115 19.719L28.2811 22.8887C28.3581 22.9656 28.4624 23.0089 28.5712 23.0089C28.68 23.0089 28.7844 22.9656 28.8613 22.8887L29.9721 21.7778C30.1324 21.6176 30.1324 21.3579 29.9722 21.1977Z" fill="#001269"/>
<path d="M29.392 21.1977L28.6851 20.4903L28.6849 20.4906L29.392 21.1977ZM28.5712 22.0185L27.8641 22.7256L28.5713 23.4327L29.2784 22.7255L28.5712 22.0185ZM25.6917 19.1388L26.3988 18.4317L26.3987 18.4316L25.6917 19.1388ZM25.1115 19.1388L24.4046 18.4315L24.4044 18.4317L25.1115 19.1388ZM25.1115 19.719L25.8186 19.0119L25.8186 19.0119L25.1115 19.719ZM28.2811 22.8887L27.574 23.5958L27.574 23.5958L28.2811 22.8887ZM28.8613 22.8887L28.1541 22.1816L28.1539 22.1818L28.8613 22.8887ZM29.9721 21.7778L29.265 21.0707L29.265 21.0707L29.9721 21.7778ZM30.6792 20.4904C30.1284 19.9399 29.2358 19.94 28.6851 20.4903L30.0989 21.905C29.8687 22.135 29.4956 22.1352 29.2652 21.9049L30.6792 20.4904ZM28.6849 20.4906L27.8641 21.3114L29.2784 22.7255L30.0991 21.9047L28.6849 20.4906ZM29.2784 21.3114L26.3988 18.4317L24.9846 19.8459L27.8641 22.7256L29.2784 21.3114ZM26.3987 18.4316C25.8479 17.881 24.9553 17.8812 24.4046 18.4315L25.8184 19.8462C25.5882 20.0762 25.2151 20.0764 24.9847 19.8461L26.3987 18.4316ZM24.4044 18.4317C23.8536 18.9825 23.8536 19.8754 24.4044 20.4261L25.8186 19.0119C26.0489 19.2422 26.0489 19.6156 25.8186 19.8459L24.4044 18.4317ZM24.4044 20.4261L27.574 23.5958L28.9882 22.1816L25.8186 19.0119L24.4044 20.4261ZM27.574 23.5958C27.8385 23.8603 28.1973 24.0089 28.5712 24.0089V22.0089C28.7276 22.0089 28.8776 22.071 28.9882 22.1816L27.574 23.5958ZM28.5712 24.0089C28.9449 24.0089 29.3039 23.8605 29.5686 23.5956L28.1539 22.1818C28.2648 22.0708 28.415 22.0089 28.5712 22.0089V24.0089ZM29.5684 23.5958L30.6792 22.4849L29.265 21.0707L28.1541 22.1816L29.5684 23.5958ZM30.6792 22.4849C31.23 21.9342 31.23 21.0414 30.6794 20.4907L29.265 21.9046C29.0347 21.6744 29.0347 21.301 29.265 21.0707L30.6792 22.4849Z" fill="#003087" mask="url(#path-10-inside-1_0_3996)"/>
<path d="M23.3952 27.1971L22.3486 28.2437L21.3427 27.2377L22.2907 26.2897C22.4509 26.1295 22.4509 25.8697 22.2907 25.7095C22.1305 25.5493 21.8707 25.5493 21.7105 25.7095L20.7624 26.6575L19.7564 25.6515L20.8031 24.6049C20.9633 24.4446 20.9633 24.1849 20.8031 24.0247C20.6429 23.8646 20.3831 23.8646 20.2229 24.0247L18.8862 25.3614C18.8093 25.4384 18.7661 25.5427 18.7661 25.6515C18.7661 25.7603 18.8093 25.8646 18.8862 25.9416L22.0585 29.1139C22.1386 29.1939 22.2436 29.234 22.3486 29.234C22.4535 29.234 22.5586 29.1939 22.6386 29.1139L23.9753 27.7772C24.1356 27.617 24.1356 27.3573 23.9753 27.197C23.8152 27.037 23.5554 27.0369 23.3952 27.1971Z" fill="#001269"/>
<path d="M19.8705 28.1296C18.7482 27.0074 17.3628 26.8849 16.4231 27.8245L15.5246 28.723C15.4476 28.8 15.4044 28.9045 15.4045 29.0135C15.4046 29.1225 15.448 29.2268 15.5252 29.3038C15.5252 29.3038 16.7478 30.5218 17.1096 30.8836C17.5457 31.3196 18.6928 32.4587 18.7044 32.4701C18.7813 32.5465 18.8851 32.5892 18.9934 32.5892H18.9949C19.1038 32.5888 19.2079 32.5452 19.2846 32.468C19.3116 32.4408 19.949 31.7983 20.1998 31.5386C21.0766 30.6308 20.938 29.1971 19.8705 28.1296ZM19.6097 30.9686C19.4701 31.1132 19.2004 31.3867 18.9911 31.5983C18.619 31.2287 17.9877 30.6012 17.6898 30.3034C17.4402 30.0537 16.7807 29.3965 16.3955 29.0126L17.0033 28.4048C17.734 27.6741 18.6638 28.0833 19.2904 28.7097C19.9031 29.3225 20.2644 30.2907 19.6097 30.9686Z" fill="#001269"/>
<path d="M37.3716 10.6282C36.5339 9.79062 35.1708 9.79056 34.3329 10.6283C34.2133 10.7479 33.8494 11.1119 31.0507 15.3204C29.9637 16.9547 29.0123 18.4148 29.0028 18.4294L29.6903 18.8772C29.6997 18.8627 30.6491 17.4056 31.7339 15.7748C34.1296 12.1721 34.7541 11.3674 34.913 11.2084C35.4309 10.6904 36.2735 10.6906 36.7914 11.2083C37.3092 11.7263 37.3092 12.5689 36.7914 13.0867C36.663 13.2151 35.9645 13.7793 32.2666 16.2377C32.3064 16.3048 32.3393 16.3764 32.3645 16.4516L32.5547 17.0194C35.3455 15.1647 37.0486 13.9897 37.3715 13.6669C38.2094 12.8292 38.2094 11.466 37.3716 10.6282Z" fill="#000F2A"/>
<path d="M29.7435 19.4598C29.6385 19.4598 29.5335 19.4197 29.4535 19.3397L28.6604 18.5466C28.5002 18.3863 28.5002 18.1266 28.6604 17.9663C28.8206 17.8062 29.0803 17.8062 29.2406 17.9663L30.0337 18.7594C30.1939 18.9197 30.1939 19.1794 30.0337 19.3397C29.9535 19.4197 29.8485 19.4598 29.7435 19.4598Z" fill="#FFD100"/>
<path d="M8 0.5H40V-0.5H8V0.5ZM47.5 8V40H48.5V8H47.5ZM40 47.5H8V48.5H40V47.5ZM0.5 40V8H-0.5V40H0.5ZM8 47.5C3.85787 47.5 0.5 44.1421 0.5 40H-0.5C-0.5 44.6944 3.30558 48.5 8 48.5V47.5ZM47.5 40C47.5 44.1421 44.1421 47.5 40 47.5V48.5C44.6944 48.5 48.5 44.6944 48.5 40H47.5ZM40 0.5C44.1421 0.5 47.5 3.85786 47.5 8H48.5C48.5 3.30558 44.6944 -0.5 40 -0.5V0.5ZM8 -0.5C3.30558 -0.5 -0.5 3.30558 -0.5 8H0.5C0.5 3.85787 3.85786 0.5 8 0.5V-0.5Z" fill="#DBDBDB"/>
</svg>
