<svg width="21" height="15" viewBox="0 0 21 15" fill="none" xmlns="http://www.w3.org/2000/svg">
<path d="M7.5 0.75V14.25" stroke="white" stroke-width="1.5" stroke-linecap="round" stroke-linejoin="round"/>
<path d="M0.75 11.1741C0.749968 11.0013 0.809681 10.8338 0.919019 10.7C1.02836 10.5662 1.18059 10.4744 1.34992 10.44C2.02749 10.3016 2.63645 9.93335 3.07379 9.39763C3.51113 8.86191 3.75 8.19157 3.75 7.5C3.75 6.80843 3.51113 6.13809 3.07379 5.60237C2.63645 5.06665 2.02749 4.69843 1.34992 4.56C1.18059 4.52562 1.02836 4.43376 0.919019 4.29997C0.809681 4.16618 0.749968 3.9987 0.75 3.82592V1.5C0.75 1.30109 0.829018 1.11032 0.96967 0.96967C1.11032 0.829018 1.30109 0.75 1.5 0.75H19.5C19.6989 0.75 19.8897 0.829018 20.0303 0.96967C20.171 1.11032 20.25 1.30109 20.25 1.5V3.82592C20.25 3.9987 20.1903 4.16618 20.081 4.29997C19.9716 4.43376 19.8194 4.52563 19.6501 4.56C18.9725 4.69843 18.3635 5.06665 17.9262 5.60237C17.4889 6.1381 17.25 6.80844 17.25 7.5C17.25 8.19157 17.4889 8.86191 17.9262 9.39763C18.3635 9.93336 18.9725 10.3016 19.6501 10.44C19.8194 10.4744 19.9716 10.5662 20.081 10.7C20.1903 10.8338 20.25 11.0013 20.25 11.1741V13.5C20.25 13.6989 20.171 13.8897 20.0303 14.0303C19.8897 14.171 19.6989 14.25 19.5 14.25H1.5C1.30109 14.25 1.11032 14.171 0.96967 14.0303C0.829018 13.8897 0.75 13.6989 0.75 13.5V11.1741Z" stroke="white" stroke-width="1.5" stroke-linecap="round" stroke-linejoin="round"/>
</svg>
