<svg width="17" height="17" viewBox="0 0 17 17" fill="none" xmlns="http://www.w3.org/2000/svg">
<path d="M8.5 16.2273C12.7677 16.2273 16.2273 12.7677 16.2273 8.5C16.2273 4.23235 12.7677 0.772727 8.5 0.772727C4.23235 0.772727 0.772727 4.23235 0.772727 8.5C0.772727 12.7677 4.23235 16.2273 8.5 16.2273Z" stroke="#7D7D7D" stroke-width="1.5" stroke-linecap="round" stroke-linejoin="round"/>
<path d="M9.24053 12.6856C9.24053 13.0946 8.90898 13.4261 8.5 13.4261C8.09102 13.4261 7.75947 13.0946 7.75947 12.6856C7.75947 12.2766 8.09102 11.9451 8.5 11.9451C8.90898 11.9451 9.24053 12.2766 9.24053 12.6856Z" fill="#7D7D7D" stroke="#7D7D7D" stroke-width="0.125"/>
<path d="M8.5 9.78788V9.14394C8.94576 9.14394 9.3815 9.01176 9.75214 8.76411C10.1228 8.51646 10.4116 8.16447 10.5822 7.75264C10.7528 7.34081 10.7974 6.88765 10.7105 6.45046C10.6235 6.01327 10.4089 5.61168 10.0937 5.29648C9.77847 4.98129 9.37688 4.76663 8.93969 4.67967C8.5025 4.59271 8.04934 4.63734 7.63751 4.80792C7.22569 4.97851 6.87369 5.26738 6.62604 5.63802C6.37839 6.00865 6.24621 6.4444 6.24621 6.89015" stroke="#7D7D7D" stroke-width="1.5" stroke-linecap="round" stroke-linejoin="round"/>
</svg>
