<svg width="24" height="8" viewBox="0 0 24 8" fill="none" xmlns="http://www.w3.org/2000/svg">
<path d="M8.33272 0.655158L5.62595 7.11406H4.32238L2.878 1.52128C2.87798 1.52121 2.87797 1.52114 2.87795 1.52107C2.82828 1.32844 2.76655 1.12718 2.6444 0.948507C2.56061 0.825941 2.46167 0.732427 2.35443 0.655158H3.34651C3.51955 0.655158 3.68364 0.760488 3.73125 0.999128L4.5477 5.33564L4.87989 7.10001L5.54 5.4304L7.428 0.655158H8.33272ZM16.6718 1.73407C16.8296 1.78237 16.9941 1.84363 17.1623 1.9209L17.2733 1.40262C17.1047 1.33038 16.9398 1.27199 16.7808 1.22508L16.6718 1.73407ZM12.0036 5.72844C11.9897 5.72194 11.9759 5.71549 11.9622 5.70911L11.851 6.22967C11.9938 6.29602 12.1539 6.36837 12.3374 6.43606L12.447 5.92274C12.2836 5.85914 12.1383 5.79132 12.0036 5.72844ZM12.2131 7.01789C12.0596 6.97438 11.9287 6.92768 11.8275 6.88121L11.6111 7.35269L12.1184 7.46107L12.2131 7.01789ZM13.7715 7.23266C13.7704 7.23266 13.7693 7.23266 13.7683 7.23266L13.7683 7.75146L13.7747 7.2327C13.7736 7.23269 13.7725 7.23267 13.7715 7.23266ZM15.1836 1.07193C15.1832 1.07198 15.1829 1.07203 15.1825 1.07208C15.1821 1.07212 15.1818 1.07217 15.1814 1.07222L15.2498 1.58649L15.1836 1.07193ZM14.428 2.21443L13.9094 2.20286L13.9093 2.20351C13.9093 2.20373 13.9093 2.20394 13.9093 2.20416L14.428 2.21443ZM16.897 0.682567C17.0505 0.724563 17.1932 0.771531 17.3256 0.81959L17.5026 0.331922L16.9953 0.223289L16.897 0.682567ZM19.4843 5.99455H19.1199L18.9963 6.33722L18.7159 7.11411H17.8242L20.4311 0.886943C20.4918 0.742505 20.62 0.655158 20.7785 0.655158H21.0581L20.5756 1.98504L19.5544 4.79989L19.302 5.49562H20.0421H21.6508H22.2891L22.1587 4.87083L21.5712 2.05598L21.2788 0.655158H22.013L23.3617 7.11411H22.6278L22.4803 6.40739L22.3942 5.99455H21.9725H19.4843ZM11.2424 0.655111L9.85997 7.11406H8.98146L10.3642 0.655111H11.2424Z" fill="#1A2ADF" stroke="#1A2ADF"/>
</svg>
