<svg width="71" height="76" viewBox="0 0 71 76" fill="none" xmlns="http://www.w3.org/2000/svg">
<path fill-rule="evenodd" clip-rule="evenodd" d="M47.9553 33.7772L38.236 30.5271C38.236 30.5271 38.0696 31.2852 37.8457 32.301C37.0851 35.7639 35.7665 39.0803 33.9425 42.1216C33.706 42.5144 33.4946 42.8672 33.327 43.1462C33.2557 43.265 33.2582 43.4152 33.3332 43.5315C33.4095 43.6478 33.5447 43.7104 33.6823 43.6929H33.6848C39.5183 42.9635 44.6676 39.5307 47.585 34.4265C47.8164 34.0199 47.9553 33.7772 47.9553 33.7772Z" fill="#CADCF0"/>
<path d="M50.4575 40.0329C61.5123 40.0329 70.474 31.0712 70.474 20.0165C70.474 8.96167 61.5123 0 50.4575 0C39.4027 0 30.441 8.96167 30.441 20.0165C30.441 31.0712 39.4027 40.0329 50.4575 40.0329Z" fill="#CADCF0"/>
<path fill-rule="evenodd" clip-rule="evenodd" d="M33.0257 29.8558C31.3806 26.9484 30.441 23.5919 30.441 20.0165C30.441 8.96862 39.4109 0 50.4575 0C54.2556 0 57.8086 1.05962 60.836 2.90114C60.8961 3.60672 60.9261 4.32105 60.9261 5.04165C60.9261 18.8305 49.7319 30.0247 35.9431 30.0247C34.956 30.0247 33.9827 29.9671 33.0257 29.8558Z" fill="#E9F3FC"/>
<path fill-rule="evenodd" clip-rule="evenodd" d="M1.91493 73.4708L32.1911 65.9646C32.6927 65.8395 33.0005 65.3303 32.8754 64.8287C32.7515 64.3258 32.2411 64.018 31.7395 64.1431L1.4633 71.6493C0.961642 71.7744 0.653889 72.2836 0.778992 72.7852C0.902844 73.2881 1.41201 73.5959 1.91493 73.4708Z" fill="#A4BBDB"/>
<path fill-rule="evenodd" clip-rule="evenodd" d="M32.2274 64.1529L6.45623 56.6468C5.95832 56.5017 5.4379 56.7881 5.29278 57.2848C5.14766 57.7827 5.43414 58.3031 5.9308 58.4483L31.702 65.9544C32.1999 66.0995 32.7216 65.8131 32.8655 65.3164C33.0106 64.8185 32.7241 64.2981 32.2274 64.1529Z" fill="#CADCF0"/>
<path fill-rule="evenodd" clip-rule="evenodd" d="M6.45366 58.4497L28.0977 52.1945C28.5956 52.0506 28.8821 51.529 28.7382 51.0323C28.5956 50.5344 28.0739 50.2479 27.5773 50.3905L5.93323 56.6457C5.43533 56.7895 5.14884 57.3112 5.29271 57.8079C5.43658 58.3058 5.957 58.5923 6.45366 58.4497Z" fill="#A4BBDB"/>
<path fill-rule="evenodd" clip-rule="evenodd" d="M28.1465 50.4068L10.2568 44.1517C9.76762 43.9803 9.23218 44.2392 9.06079 44.7271C8.89065 45.2163 9.14836 45.7517 9.63751 45.9231L27.5272 52.1783C28.0164 52.3497 28.5518 52.0907 28.7232 51.6028C28.8946 51.1136 28.6356 50.5782 28.1465 50.4068Z" fill="#CADCF0"/>
<path fill-rule="evenodd" clip-rule="evenodd" d="M10.2532 45.9242L24.7664 40.9201C25.2556 40.7512 25.517 40.217 25.3481 39.7279C25.1792 39.2375 24.6438 38.9772 24.1547 39.1461L9.64147 44.1502C9.15232 44.3191 8.89085 44.8533 9.05974 45.3425C9.22863 45.8329 9.76407 46.0931 10.2532 45.9242Z" fill="#A4BBDB"/>
<path fill-rule="evenodd" clip-rule="evenodd" d="M24.835 39.1726L13.3243 34.1685C12.8489 33.9621 12.2959 34.1797 12.0895 34.6551C11.8831 35.1305 12.1008 35.6835 12.5762 35.8899L24.0869 40.894C24.561 41.1004 25.114 40.8827 25.3204 40.4074C25.5268 39.932 25.3091 39.379 24.835 39.1726Z" fill="#CADCF0"/>
<path fill-rule="evenodd" clip-rule="evenodd" d="M13.4256 35.8366L21.9339 30.8325C22.3805 30.571 22.5293 29.9955 22.2679 29.5489C22.0052 29.1023 21.4297 28.9534 20.9831 29.2162L12.4736 34.2203C12.0282 34.4817 11.8781 35.0572 12.1408 35.5038C12.4035 35.9504 12.979 36.0993 13.4256 35.8366Z" fill="#A4BBDB"/>
<path fill-rule="evenodd" clip-rule="evenodd" d="M21.9639 29.2338L16.0816 25.4807C15.645 25.2018 15.0645 25.3306 14.7868 25.7672C14.5078 26.2026 14.6354 26.7843 15.072 27.062L20.9543 30.8151C21.3909 31.0941 21.9714 30.9653 22.2492 30.5286C22.5281 30.0933 22.3993 29.5116 21.9639 29.2338Z" fill="#CADCF0"/>
<path fill-rule="evenodd" clip-rule="evenodd" d="M16.2518 26.9232L19.8823 23.1701C20.2413 22.7986 20.2313 22.2043 19.8597 21.844C19.4869 21.4837 18.8927 21.4937 18.5324 21.8666L14.9032 25.6196C14.5429 25.9912 14.5529 26.5854 14.9244 26.9457C15.2972 27.306 15.8915 27.296 16.2518 26.9232Z" fill="#A4BBDB"/>
<path fill-rule="evenodd" clip-rule="evenodd" d="M35.8216 74.6476L20.1062 22.2495C19.9874 21.8517 19.6221 21.5802 19.208 21.5802H16.7034C16.2893 21.5802 15.924 21.8517 15.8052 22.2483L0.0397166 74.7915C-0.109156 75.2882 0.173577 75.8111 0.668984 75.96C1.16564 76.1088 1.68857 75.8274 1.83744 75.3319L17.4015 23.4568H18.5087L34.0252 75.1868C34.1728 75.6822 34.697 75.9637 35.1924 75.8161C35.689 75.6672 35.9705 75.143 35.8216 74.6476Z" fill="#8DA3BE"/>
<path d="M17.9308 23.7578C20.349 23.7578 22.3094 21.7975 22.3094 19.3792C22.3094 16.961 20.349 15.0006 17.9308 15.0006C15.5125 15.0006 13.5522 16.961 13.5522 19.3792C13.5522 21.7975 15.5125 23.7578 17.9308 23.7578Z" fill="#003087"/>
<path fill-rule="evenodd" clip-rule="evenodd" d="M39.8426 17.4548C43.9773 13.3214 49.9309 12.1041 55.1365 13.8043C55.792 14.0182 56.4988 13.6592 56.714 13.0036C56.9279 12.3468 56.5689 11.64 55.9121 11.4261C49.8409 9.44318 42.8964 10.8631 38.0737 15.6858C37.5858 16.1737 37.5858 16.9669 38.0737 17.4548C38.5616 17.9439 39.3547 17.9439 39.8426 17.4548Z" fill="#003087"/>
<path fill-rule="evenodd" clip-rule="evenodd" d="M58.4016 15.329C59.3512 15.9208 60.2481 16.6301 61.0738 17.4545C61.5617 17.9437 62.3549 17.9437 62.8428 17.4545C63.3307 16.9666 63.3307 16.1735 62.8428 15.6856C61.8807 14.7235 60.8336 13.8979 59.7265 13.206C59.141 12.8407 58.3691 13.0196 58.0038 13.6051C57.6372 14.1906 57.8161 14.9625 58.4016 15.329Z" fill="#003087"/>
<path fill-rule="evenodd" clip-rule="evenodd" d="M44.0248 21.6373C46.2116 19.4492 49.2404 18.611 52.0739 19.1177C52.7533 19.2403 53.4038 18.7874 53.5251 18.1068C53.6477 17.4275 53.1949 16.777 52.5143 16.6557C48.9038 16.0076 45.0432 17.0798 42.2546 19.8683C41.7667 20.3562 41.7667 21.1494 42.2546 21.6373C42.7438 22.1252 43.5357 22.1252 44.0248 21.6373Z" fill="#003087"/>
<path fill-rule="evenodd" clip-rule="evenodd" d="M55.2028 20.3054C55.8033 20.6732 56.3712 21.1173 56.8916 21.6377C57.3795 22.1256 58.1727 22.1256 58.6606 21.6377C59.1485 21.1498 59.1485 20.3566 58.6606 19.8687C57.9976 19.2057 57.2745 18.6402 56.5076 18.1711C55.9196 17.8108 55.149 17.9972 54.7887 18.5852C54.4284 19.1744 54.6135 19.9451 55.2028 20.3054Z" fill="#003087"/>
<path fill-rule="evenodd" clip-rule="evenodd" d="M48.2057 25.8205C48.4584 25.5678 48.7424 25.3676 49.0452 25.2175C49.6632 24.911 49.9171 24.1604 49.6106 23.5411C49.3054 22.9219 48.5535 22.6692 47.9355 22.9744C47.3938 23.2422 46.8871 23.6012 46.4368 24.0516C45.9489 24.5395 45.9489 25.3314 46.4368 25.8205C46.9247 26.3084 47.7178 26.3084 48.2057 25.8205Z" fill="#003087"/>
<path fill-rule="evenodd" clip-rule="evenodd" d="M52.0625 25.3186C52.2939 25.4538 52.5116 25.6201 52.7093 25.8191C53.1972 26.307 53.9903 26.307 54.4782 25.8191C54.9674 25.3299 54.9674 24.538 54.4782 24.0501C54.1255 23.6961 53.7364 23.3983 53.3235 23.1581C52.7281 22.8103 51.9612 23.0118 51.6121 23.6072C51.2644 24.204 51.4658 24.9709 52.0625 25.3186Z" fill="#003087"/>
<path d="M50.4575 31.092C51.4939 31.092 52.3341 30.2518 52.3341 29.2154C52.3341 28.179 51.4939 27.3389 50.4575 27.3389C49.4211 27.3389 48.581 28.179 48.581 29.2154C48.581 30.2518 49.4211 31.092 50.4575 31.092Z" fill="#003087"/>
<path fill-rule="evenodd" clip-rule="evenodd" d="M56.7088 8.28796L43.1364 30.4374C42.7749 31.0267 42.96 31.7973 43.5493 32.1588C44.1373 32.5191 44.9091 32.334 45.2694 31.7447L58.8431 9.59528C59.2034 9.00605 59.0182 8.23541 58.429 7.87386C57.841 7.51357 57.0704 7.69872 56.7088 8.28796Z" fill="#003087"/>
</svg>
