<svg width="35" height="48" viewBox="0 0 35 48" fill="none" xmlns="http://www.w3.org/2000/svg">
<path d="M20.1735 24.5583C21.1097 23.1703 20.0982 21.3303 21.0344 20.0821C21.9705 18.8339 24.0042 19.2105 25.0372 17.93C26.436 16.1438 24.8973 14.1962 26.1993 12.4315C26.9848 11.3555 28.7603 12.1841 29.7072 11.1403C30.6541 10.0966 29.5458 8.26733 30.5465 7.21283C31.5472 6.15833 32.8922 6.81471 33.979 5.73869C35.4747 4.26454 34.3556 0.541523 34.3556 0.541523C34.3556 0.541523 30.6541 -0.803501 29.0723 0.74597C27.9102 1.88655 28.5666 3.23159 27.5228 4.31837C26.4791 5.40515 24.6391 4.31835 23.5523 5.57729C22.4655 6.83624 23.5523 8.37496 22.6054 9.35414C21.0021 10.9789 18.7532 9.89214 17.2252 11.829C16.1492 13.2493 17.0208 15.1646 16.0416 16.4989C15.0624 17.8332 12.9749 17.5749 11.9634 19.0598C11.0703 20.3833 11.7697 22.0297 10.995 23.2671C10.2202 24.5045 8.42329 24.5798 7.61627 25.9571C6.80925 27.3344 7.77768 29.1852 7.0137 30.584C6.24972 31.9828 4.25905 32.0582 3.47355 33.6292C2.68805 35.2002 3.99005 37.0186 3.34443 38.6219C2.81718 39.9024 1.05247 40.0961 0.471418 41.4949C0.197689 42.0554 0.0395926 42.6653 0.00653296 43.2883C-0.0265267 43.9112 0.0661277 44.5344 0.278988 45.1208C0.491849 45.7071 0.820568 46.2447 1.24554 46.7013C1.67051 47.158 2.18306 47.5244 2.75263 47.7788C3.91483 48.147 5.17426 48.0527 6.26867 47.5156C7.36308 46.9784 8.2081 46.0397 8.62774 44.8951C9.16576 43.5931 8.08971 42.2158 8.68153 41.0322C9.42399 39.5581 11.5653 39.5903 12.34 38.0301C13.1148 36.4699 11.9419 34.9634 12.6629 33.6292C13.3838 32.2949 15.3529 32.3487 16.1599 30.9606C16.967 29.5726 16.1599 28.1307 16.8594 26.9578C17.5588 25.785 19.3557 25.7742 20.1735 24.5583Z" fill="#F5F5F5"/>
</svg>
