<svg width="167" height="274" viewBox="0 0 167 274" fill="none" xmlns="http://www.w3.org/2000/svg">
<path d="M135.965 273.025H65.0911C63.4379 273.044 61.799 272.718 60.2795 272.066C58.76 271.415 57.3934 270.453 56.2675 269.243C55.1416 268.032 54.2813 266.599 53.7417 265.037C53.2021 263.474 52.9951 261.816 53.1341 260.168L70.0838 17.7722C70.3802 14.307 71.9506 11.0746 74.4915 8.69995C77.0324 6.32526 80.3635 4.97681 83.8408 4.91524H154.715C156.368 4.89594 158.007 5.22248 159.526 5.87388C161.046 6.52528 162.412 7.48716 163.538 8.69779C164.664 9.90843 165.524 11.3411 166.064 12.9038C166.604 14.4665 166.811 16.1248 166.672 17.7722L149.722 260.168C149.428 263.634 147.858 266.868 145.317 269.243C142.775 271.618 139.443 272.966 135.965 273.025Z" fill="#003087"/>
<path opacity="0.5" d="M135.965 273.025H65.0911C63.4379 273.044 61.799 272.718 60.2795 272.066C58.76 271.415 57.3934 270.453 56.2675 269.243C55.1416 268.032 54.2813 266.599 53.7417 265.037C53.2021 263.474 52.9951 261.816 53.1341 260.168L70.0838 17.7722C70.3802 14.307 71.9506 11.0746 74.4915 8.69995C77.0324 6.32526 80.3635 4.97681 83.8408 4.91524H154.715C156.368 4.89594 158.007 5.22248 159.526 5.87388C161.046 6.52528 162.412 7.48716 163.538 8.69779C164.664 9.90843 165.524 11.3411 166.064 12.9038C166.604 14.4665 166.811 16.1248 166.672 17.7722L149.722 260.168C149.428 263.634 147.858 266.868 145.317 269.243C142.775 271.618 139.443 272.966 135.965 273.025Z" fill="black"/>
<path d="M106.158 1.1546H102.162V2.22601H106.158V1.1546Z" fill="#003087"/>
<path opacity="0.3" d="M106.158 1.1546H102.162V2.22601H106.158V1.1546Z" fill="black"/>
<path d="M94.9942 1.1546H82.4265V2.22601H94.9942V1.1546Z" fill="#003087"/>
<path opacity="0.3" d="M94.9942 1.1546H82.4265V2.22601H94.9942V1.1546Z" fill="black"/>
<path d="M126.676 273.025H55.8127C54.1595 273.044 52.5206 272.718 51.0011 272.066C49.4816 271.415 48.115 270.453 46.9891 269.243C45.8632 268.032 45.0029 266.599 44.4633 265.037C43.9237 263.474 43.7167 261.816 43.8557 260.168L60.8055 17.7722C61.0995 14.3061 62.6692 11.0724 65.2106 8.69724C67.752 6.32208 71.0844 4.97443 74.5624 4.91524H145.426C147.079 4.89594 148.718 5.22248 150.237 5.87388C151.757 6.52528 153.123 7.48716 154.249 8.69779C155.375 9.90843 156.235 11.3411 156.775 12.9038C157.315 14.4665 157.521 16.1248 157.382 17.7722L140.433 260.168C140.139 263.634 138.569 266.868 136.028 269.243C133.486 271.618 130.154 272.966 126.676 273.025Z" fill="#003087"/>
<path opacity="0.3" d="M126.676 273.025H55.8127C54.1595 273.044 52.5206 272.718 51.0011 272.066C49.4816 271.415 48.115 270.453 46.9891 269.243C45.8632 268.032 45.0029 266.599 44.4633 265.037C43.9237 263.474 43.7167 261.816 43.8557 260.168L60.8055 17.7722C61.0995 14.3061 62.6692 11.0724 65.2106 8.69724C67.752 6.32208 71.0844 4.97443 74.5624 4.91524H145.426C147.079 4.89594 148.718 5.22248 150.237 5.87388C151.757 6.52528 153.123 7.48716 154.249 8.69779C155.375 9.90843 156.235 11.3411 156.775 12.9038C157.315 14.4665 157.521 16.1248 157.382 17.7722L140.433 260.168C140.139 263.634 138.569 266.868 136.028 269.243C133.486 271.618 130.154 272.966 126.676 273.025Z" fill="black"/>
<path d="M137.304 259.075H43.995C43.7713 259.074 43.5502 259.028 43.3453 258.938C43.1403 258.848 42.9559 258.718 42.8034 258.554C42.6508 258.39 42.5333 258.197 42.4582 257.987C42.3831 257.776 42.3519 257.552 42.3665 257.329L58.8769 21.2006C58.9068 20.7866 59.0926 20.3993 59.3968 20.117C59.7011 19.8346 60.1011 19.6782 60.5162 19.6792H153.815C154.039 19.6788 154.262 19.7244 154.468 19.8134C154.674 19.9024 154.86 20.0329 155.013 20.1966C155.167 20.3604 155.286 20.554 155.361 20.7654C155.437 20.9768 155.469 21.2015 155.454 21.4256L138.911 257.554C138.884 257.963 138.704 258.347 138.406 258.63C138.108 258.912 137.714 259.071 137.304 259.075Z" fill="#003087"/>
<path opacity="0.9" d="M137.304 259.075H43.995C43.7713 259.074 43.5502 259.028 43.3453 258.938C43.1403 258.848 42.9559 258.718 42.8034 258.554C42.6508 258.39 42.5333 258.197 42.4582 257.987C42.3831 257.776 42.3519 257.552 42.3665 257.329L58.8769 21.2006C58.9068 20.7866 59.0926 20.3993 59.3968 20.117C59.7011 19.8346 60.1011 19.6782 60.5162 19.6792H153.815C154.039 19.6788 154.262 19.7244 154.468 19.8134C154.674 19.9024 154.86 20.0329 155.013 20.1966C155.167 20.3604 155.286 20.554 155.361 20.7654C155.437 20.9768 155.469 21.2015 155.454 21.4256L138.911 257.554C138.884 257.963 138.704 258.347 138.406 258.63C138.108 258.912 137.714 259.071 137.304 259.075Z" fill="#FAFAFA"/>
<path d="M135.033 43.8503H74.466C72.8196 43.8788 71.2422 44.5168 70.039 45.6409C68.8357 46.765 68.0921 48.2953 67.9518 49.9359L61.6412 140.149C61.5753 140.929 61.6735 141.715 61.9295 142.455C62.1854 143.195 62.5933 143.874 63.1271 144.447C63.6609 145.02 64.3087 145.475 65.0289 145.783C65.7491 146.091 66.5258 146.245 67.3089 146.234H71.5089L69.366 152.845C74.3214 152.399 78.9036 150.025 82.1266 146.234H127.876C129.522 146.206 131.1 145.568 132.303 144.444C133.506 143.32 134.25 141.789 134.39 140.149L140.701 49.9359C140.765 49.1558 140.665 48.3709 140.409 47.6314C140.152 46.8919 139.744 46.2141 139.211 45.6413C138.677 45.0685 138.03 44.6134 137.311 44.305C136.591 43.9966 135.816 43.8417 135.033 43.8503Z" fill="#003087"/>
<path opacity="0.6" d="M135.033 43.8503H74.466C72.8196 43.8788 71.2422 44.5168 70.039 45.6409C68.8357 46.765 68.0921 48.2953 67.9518 49.9359L61.6412 140.149C61.5753 140.929 61.6735 141.715 61.9295 142.455C62.1854 143.195 62.5933 143.874 63.1271 144.447C63.6609 145.02 64.3087 145.475 65.0289 145.783C65.7491 146.091 66.5258 146.245 67.3089 146.234H71.5089L69.366 152.845C74.3214 152.399 78.9036 150.025 82.1266 146.234H127.876C129.522 146.206 131.1 145.568 132.303 144.444C133.506 143.32 134.25 141.789 134.39 140.149L140.701 49.9359C140.765 49.1558 140.665 48.3709 140.409 47.6314C140.152 46.8919 139.744 46.2141 139.211 45.6413C138.677 45.0685 138.03 44.6134 137.311 44.305C136.591 43.9966 135.816 43.8417 135.033 43.8503Z" fill="#FAFAFA"/>
<path d="M66.0554 164.395H126.622C127.405 164.384 128.182 164.538 128.902 164.846C129.622 165.154 130.27 165.609 130.804 166.182C131.338 166.755 131.746 167.434 132.002 168.174C132.258 168.914 132.356 169.7 132.29 170.48L129.579 209.233C129.439 210.874 128.695 212.404 127.492 213.528C126.289 214.652 124.712 215.29 123.065 215.319H118.854L120.033 221.929C117.71 221.735 115.456 221.045 113.422 219.904C111.389 218.764 109.624 217.2 108.248 215.319H62.4768C61.6937 215.329 60.917 215.175 60.1968 214.868C59.4766 214.56 58.8288 214.105 58.295 213.531C57.7612 212.958 57.3533 212.28 57.0973 211.54C56.8414 210.799 56.7432 210.014 56.8091 209.233L59.5197 170.48C59.6604 168.836 60.4072 167.303 61.6149 166.178C62.8227 165.054 64.4052 164.418 66.0554 164.395Z" fill="#003087"/>
<path opacity="0.6" d="M66.0554 164.395H126.622C127.405 164.384 128.182 164.538 128.902 164.846C129.622 165.154 130.27 165.609 130.804 166.182C131.338 166.755 131.746 167.434 132.002 168.174C132.258 168.914 132.356 169.7 132.29 170.48L129.579 209.233C129.439 210.874 128.695 212.404 127.492 213.528C126.289 214.652 124.712 215.29 123.065 215.319H118.854L120.033 221.929C117.71 221.735 115.456 221.045 113.422 219.904C111.389 218.764 109.624 217.2 108.248 215.319H62.4768C61.6937 215.329 60.917 215.175 60.1968 214.868C59.4766 214.56 58.8288 214.105 58.295 213.531C57.7612 212.958 57.3533 212.28 57.0973 211.54C56.8414 210.799 56.7432 210.014 56.8091 209.233L59.5197 170.48C59.6604 168.836 60.4072 167.303 61.6149 166.178C62.8227 165.054 64.4052 164.418 66.0554 164.395Z" fill="#FAFAFA"/>
<path d="M120.751 11.6971C120.708 12.2403 120.466 12.7483 120.07 13.1225C119.674 13.4967 119.153 13.7104 118.608 13.7221C118.347 13.726 118.089 13.6753 117.849 13.573C117.609 13.4708 117.393 13.3193 117.215 13.1285C117.038 12.9377 116.902 12.7117 116.817 12.4651C116.732 12.2185 116.7 11.9569 116.722 11.6971C116.769 11.1556 117.014 10.6503 117.409 10.277C117.804 9.90372 118.322 9.68847 118.865 9.67213C119.126 9.66816 119.385 9.71894 119.625 9.82118C119.864 9.92342 120.08 10.0749 120.258 10.2657C120.436 10.4565 120.571 10.6825 120.656 10.9291C120.741 11.1757 120.773 11.4373 120.751 11.6971Z" fill="#003087"/>
<path opacity="0.5" d="M120.751 11.6971C120.708 12.2403 120.466 12.7483 120.07 13.1225C119.674 13.4967 119.153 13.7104 118.608 13.7221C118.347 13.726 118.089 13.6753 117.849 13.573C117.609 13.4708 117.393 13.3193 117.215 13.1285C117.038 12.9377 116.902 12.7117 116.817 12.4651C116.732 12.2185 116.7 11.9569 116.722 11.6971C116.769 11.1556 117.014 10.6503 117.409 10.277C117.804 9.90372 118.322 9.68847 118.865 9.67213C119.126 9.66816 119.385 9.71894 119.625 9.82118C119.864 9.92342 120.08 10.0749 120.258 10.2657C120.436 10.4565 120.571 10.6825 120.656 10.9291C120.741 11.1757 120.773 11.4373 120.751 11.6971Z" fill="black"/>
<path d="M110.315 13.7222H96.1835C95.9232 13.7245 95.6653 13.6726 95.4262 13.5698C95.1871 13.467 94.972 13.3155 94.7946 13.125C94.6172 12.9346 94.4814 12.7092 94.3959 12.4634C94.3104 12.2176 94.277 11.9566 94.2978 11.6972C94.3425 11.1549 94.586 10.6482 94.9815 10.2745C95.377 9.90072 95.8966 9.68624 96.4406 9.67224H110.573C110.833 9.66991 111.091 9.7218 111.33 9.8246C111.569 9.92741 111.784 10.0789 111.961 10.2694C112.139 10.4598 112.275 10.6852 112.36 10.931C112.446 11.1768 112.479 11.4378 112.458 11.6972C112.413 12.2395 112.17 12.7462 111.774 13.1199C111.379 13.4937 110.859 13.7082 110.315 13.7222Z" fill="#003087"/>
<path opacity="0.5" d="M110.315 13.7222H96.1835C95.9232 13.7245 95.6653 13.6726 95.4262 13.5698C95.1871 13.467 94.972 13.3155 94.7946 13.125C94.6172 12.9346 94.4814 12.7092 94.3959 12.4634C94.3104 12.2176 94.277 11.9566 94.2978 11.6972C94.3425 11.1549 94.586 10.6482 94.9815 10.2745C95.377 9.90072 95.8966 9.68624 96.4406 9.67224H110.573C110.833 9.66991 111.091 9.7218 111.33 9.8246C111.569 9.92741 111.784 10.0789 111.961 10.2694C112.139 10.4598 112.275 10.6852 112.36 10.931C112.446 11.1768 112.479 11.4378 112.458 11.6972C112.413 12.2395 112.17 12.7462 111.774 13.1199C111.379 13.4937 110.859 13.7082 110.315 13.7222Z" fill="black"/>
<path d="M34.8666 60.2749L36.5487 63.5642C37.138 64.6356 37.738 65.8034 38.3594 66.907C39.6022 69.1248 40.8665 71.3212 42.1951 73.4533C44.7308 77.6527 47.6351 81.6183 50.8735 85.3031C51.6771 86.1067 52.5449 87.0709 53.102 87.5102C53.8806 88.1384 54.7122 88.6976 55.5877 89.1816C57.6741 90.2821 59.8453 91.2136 62.0804 91.9673C66.8968 93.5662 71.8013 94.8862 76.7695 95.9208L76.4266 101.824C70.847 102.151 65.2483 101.824 59.7448 100.849C56.8126 100.342 53.9404 99.5337 51.1735 98.4386C49.6339 97.824 48.1618 97.052 46.7807 96.1351C46.0659 95.6587 45.3856 95.1324 44.745 94.5601L43.0522 93.0708C38.9639 89.1042 35.334 84.6909 32.2309 79.9139C30.6774 77.5889 29.2096 75.2318 27.8703 72.8104C27.1953 71.5997 26.531 70.3783 25.8989 69.1462C25.2668 67.9141 24.6668 66.7141 24.0346 65.3213L34.8666 60.2749Z" fill="#EBB376"/>
<path d="M74.6267 95.9207L79.3945 92.5565L81.9123 102.285C81.9123 102.285 77.7123 103.763 74.5517 101.631L74.6267 95.9207Z" fill="#EBB376"/>
<path d="M85.9729 90.3495L87.6657 98.4922L81.9015 102.285L79.3837 92.5566L85.9729 90.3495Z" fill="#EBB376"/>
<path d="M116.262 81.7246L114.965 81.4889C113.611 81.2546 112.221 81.339 110.905 81.7353L107.165 82.871C109.074 78.9261 109.789 74.5097 109.223 70.1641C108.773 66.8855 106.308 67.6355 106.308 67.6355C106.308 67.6355 102.698 81.2639 95.1977 86.4924L92.8406 88.1316L96.2049 112.142L98.9798 111.885C100.051 111.885 106.148 111.885 110.08 111.885C111.235 111.835 112.365 111.526 113.385 110.981C114.405 110.436 115.289 109.668 115.972 108.735C117.976 106.083 119.123 102.884 119.262 99.5636L119.969 88.3888C120.14 85.0888 118.555 82.121 116.262 81.7246Z" fill="#003087"/>
<path opacity="0.9" d="M116.262 81.7246L114.965 81.4889C113.611 81.2546 112.221 81.339 110.905 81.7353L107.165 82.871C109.074 78.9261 109.789 74.5097 109.223 70.1641C108.773 66.8855 106.308 67.6355 106.308 67.6355C106.308 67.6355 102.698 81.2639 95.1977 86.4924L92.8406 88.1316L96.2049 112.142L98.9798 111.885C100.051 111.885 106.148 111.885 110.08 111.885C111.235 111.835 112.365 111.526 113.385 110.981C114.405 110.436 115.289 109.668 115.972 108.735C117.976 106.083 119.123 102.884 119.262 99.5636L119.969 88.3888C120.14 85.0888 118.555 82.121 116.262 81.7246Z" fill="#FAFAFA"/>
<path d="M85.7908 117.713L96.3549 115.41C97.1799 115.238 97.7584 114.103 97.6299 112.892L94.8763 85.3888C94.7478 84.1781 93.9763 83.3424 93.1514 83.5138L82.5872 85.8174C81.7623 85.9888 81.1837 87.1245 81.3123 88.3352L84.0658 115.838C84.1944 117.049 84.9658 117.885 85.7908 117.713Z" fill="#003087"/>
<path d="M65.4339 27.0505C65.3054 27.6719 65.5304 28.2398 65.9375 28.3255C66.3446 28.4112 66.7839 27.9826 66.9125 27.3612C67.0411 26.7398 66.8161 26.1612 66.4089 26.0755C66.0018 25.9898 65.5625 26.4291 65.4339 27.0505Z" fill="#263238"/>
<path d="M65.4768 28.2291C65.8216 30.2828 66.4452 32.2798 67.3303 34.1647C66.8447 34.381 66.3172 34.4874 65.7857 34.4763C65.2541 34.4652 64.7316 34.3369 64.2554 34.1004L65.4768 28.2291Z" fill="#ED893E"/>
<path d="M67.1268 23.2469C67.0541 23.2456 66.9834 23.2233 66.9232 23.1826C66.512 22.96 66.0538 22.8382 65.5863 22.827C65.1188 22.8158 64.6554 22.9157 64.234 23.1183C64.1443 23.1586 64.0425 23.1621 63.9503 23.128C63.8581 23.094 63.783 23.0251 63.7411 22.9362C63.72 22.8914 63.7083 22.8427 63.7066 22.7932C63.7049 22.7437 63.7134 22.6944 63.7314 22.6483C63.7495 22.6021 63.7768 22.5602 63.8116 22.5249C63.8464 22.4897 63.8881 22.4619 63.934 22.4433C64.468 22.189 65.0554 22.0669 65.6466 22.0875C66.2377 22.108 66.8152 22.2705 67.3303 22.5612C67.3719 22.5873 67.4078 22.6214 67.4358 22.6617C67.4638 22.702 67.4834 22.7475 67.4934 22.7955C67.5034 22.8435 67.5036 22.8931 67.494 22.9412C67.4844 22.9893 67.4652 23.035 67.4375 23.0755C67.4046 23.1282 67.3588 23.1716 67.3044 23.2016C67.25 23.2316 67.1889 23.2472 67.1268 23.2469Z" fill="#263238"/>
<path d="M43.3843 29.0434C44.4557 34.7969 45.6343 45.3503 41.6058 49.1859C41.6058 49.1859 43.1807 55.0358 53.8841 55.0358C65.6696 55.0358 59.4983 49.1859 59.4983 49.1859C53.0699 47.6538 53.252 42.8967 54.3663 38.4718L43.3843 29.0434Z" fill="#EBB376"/>
<path d="M39.9772 50.8359C39.2058 48.9502 39.3344 45.4788 39.9022 45.4252C42.1308 45.2752 54.0234 45.2431 57.9555 46.7538C58.4755 46.9178 58.9578 47.1836 59.3742 47.5356C59.7906 47.8877 60.1329 48.319 60.3811 48.8045C60.6293 49.29 60.7786 49.82 60.8202 50.3637C60.8618 50.9074 60.7948 51.4539 60.6233 51.9716L39.9772 50.8359Z" fill="#003087"/>
<path d="M13.6955 266.339C13.0039 266.336 12.3145 266.26 11.6384 266.114C11.6037 266.108 11.5717 266.092 11.5468 266.067C11.5219 266.042 11.5052 266.01 11.4992 265.975C11.4944 265.939 11.4987 265.903 11.5118 265.869C11.5249 265.835 11.5464 265.805 11.5741 265.782C11.6706 265.718 13.8455 264.239 14.9919 264.496C15.1158 264.523 15.2325 264.577 15.3341 264.652C15.4357 264.728 15.52 264.825 15.5812 264.936C15.6745 265.065 15.7247 265.221 15.7247 265.38C15.7247 265.54 15.6745 265.695 15.5812 265.825C15.3171 266.032 15.0142 266.184 14.6903 266.273C14.3665 266.361 14.0283 266.384 13.6955 266.339ZM12.1634 265.846C13.342 266.039 14.9491 266.039 15.2919 265.589C15.2919 265.589 15.4205 265.418 15.2919 265.118C15.2572 265.052 15.2085 264.995 15.1492 264.951C15.09 264.907 15.0216 264.876 14.9491 264.861C13.9408 264.911 12.9706 265.262 12.1634 265.868V265.846Z" fill="#003087"/>
<path d="M11.6813 266.147H11.5848C11.5551 266.13 11.5311 266.104 11.5158 266.074C11.5005 266.043 11.4947 266.009 11.4991 265.975C11.4991 265.879 11.692 263.607 12.5705 262.857C12.6818 262.766 12.8103 262.698 12.9483 262.658C13.0864 262.617 13.2312 262.605 13.3741 262.622C13.5139 262.624 13.6487 262.674 13.7559 262.764C13.8632 262.853 13.9364 262.977 13.9634 263.114C14.1241 263.993 12.5491 265.707 11.7455 266.157L11.6813 266.147ZM13.267 262.932C13.1129 262.934 12.9646 262.991 12.8491 263.093C12.2924 263.799 11.9669 264.66 11.917 265.557C12.7205 264.947 13.7277 263.65 13.6312 263.125C13.6312 263.125 13.6312 262.964 13.3527 262.932H13.267Z" fill="#003087"/>
<path d="M2.5957 265.954H10.4706L17.724 247.729H9.85988L2.5957 265.954Z" fill="#EBB376"/>
<path d="M11.092 265.043H2.25284C2.09508 265.044 1.94238 265.099 1.81975 265.198C1.69712 265.297 1.61184 265.435 1.57786 265.589L0.0243151 272.586C-0.0111737 272.756 -0.00777603 272.932 0.0342549 273.101C0.0762859 273.27 0.155865 273.427 0.267073 273.561C0.378281 273.695 0.51825 273.802 0.67656 273.874C0.834871 273.946 1.00744 273.982 1.18143 273.978C4.2671 273.925 5.76708 273.743 9.6563 273.743C12.0455 273.743 16.974 274 20.2847 274C23.5954 274 24.0132 270.786 22.6632 270.432C16.599 269.104 14.3169 267.271 12.3777 265.536C12.0254 265.217 11.567 265.041 11.092 265.043Z" fill="#263238"/>
<path d="M75.173 56.8463C77.5194 61.132 79.8337 65.5248 82.1158 69.8747L88.9514 82.9352L90.6656 86.1494C91.0282 86.9285 91.4584 87.6742 91.9513 88.378C93.1482 89.8208 94.6011 91.0303 96.237 91.9458C100.197 94.2052 104.403 96.0027 108.772 97.3028L108.108 103.174C106.764 103.203 105.419 103.16 104.08 103.046C102.748 102.961 101.421 102.807 100.105 102.585C97.3807 102.165 94.711 101.446 92.1442 100.442C89.2208 99.3442 86.5468 97.6721 84.28 95.5243C83.1521 94.3568 82.1634 93.0625 81.3337 91.6672L79.3194 88.453C76.6837 84.1673 74.1445 79.8603 71.7017 75.5318C69.2696 71.1711 66.9125 66.7997 64.6518 62.332L75.173 56.8463Z" fill="#EBB376"/>
<path d="M21.6346 55.7106C18.4204 62.5784 28.6952 84.2637 28.6952 84.2637L46.245 76.121C44.3297 69.9684 41.9442 63.9723 39.1094 58.1856C34.5237 49.0893 24.8917 48.6929 21.6346 55.7106Z" fill="#003087"/>
<path opacity="0.8" d="M21.6346 55.7106C18.4204 62.5784 28.6952 84.2637 28.6952 84.2637L46.245 76.121C44.3297 69.9684 41.9442 63.9723 39.1094 58.1856C34.5237 49.0893 24.8917 48.6929 21.6346 55.7106Z" fill="#FAFAFA"/>
<path d="M31.0524 57.1143L27.0882 80.6317C28.031 82.8496 28.6953 84.2638 28.6953 84.2638L46.245 76.1211C46.245 76.1211 38.3166 62.4178 31.0524 57.1143Z" fill="#003087"/>
<path opacity="0.7" d="M31.0524 57.1143L27.0882 80.6317C28.031 82.8496 28.6953 84.2638 28.6953 84.2638L46.245 76.1211C46.245 76.1211 38.3166 62.4178 31.0524 57.1143Z" fill="#FAFAFA"/>
<path d="M71.6053 51.3714C71.6053 51.3714 79.9837 60.8427 72.0767 119.406H29.981C29.681 112.978 33.7416 81.4245 27.5167 50.9643C32.1698 50.0683 36.876 49.4742 41.6058 49.1858C47.565 48.8427 53.5391 48.8427 59.4983 49.1858C63.5839 49.6036 67.6315 50.3343 71.6053 51.3714Z" fill="#003087"/>
<path opacity="0.5" d="M71.6053 51.3714C71.6053 51.3714 79.9837 60.8427 72.0767 119.406H29.981C29.681 112.978 33.7416 81.4245 27.5167 50.9643C32.1698 50.0683 36.876 49.4742 41.6058 49.1858C47.565 48.8427 53.5391 48.8427 59.4983 49.1858C63.5839 49.6036 67.6315 50.3343 71.6053 51.3714Z" fill="black"/>
<path d="M75.0016 65.3106L68.4982 81.3818L75.0016 90.8423C75.6443 82.3439 75.6443 73.8091 75.0016 65.3106Z" fill="#003087"/>
<path opacity="0.7" d="M75.0016 65.3106L68.4982 81.3818L75.0016 90.8423C75.6443 82.3439 75.6443 73.8091 75.0016 65.3106Z" fill="black"/>
<path d="M61.3626 56.5678C58.7698 63.6392 69.1839 85.0888 69.1839 85.0888L88.0407 75.5854C85.6252 69.1559 82.5291 63.0032 78.8052 57.2321C73.1588 48.9822 64.2126 48.843 61.3626 56.5678Z" fill="#003087"/>
<path opacity="0.8" d="M61.3626 56.5678C58.7698 63.6392 69.1839 85.0888 69.1839 85.0888L88.0407 75.5854C85.6252 69.1559 82.5291 63.0032 78.8052 57.2321C73.1588 48.9822 64.2126 48.843 61.3626 56.5678Z" fill="#FAFAFA"/>
<path d="M107.208 97.5815L114.922 94.4958L117.065 103.796C117.065 103.796 110.937 106.013 106.48 102.789L107.208 97.5815Z" fill="#EBB376"/>
<path d="M123.429 94.5922L122.24 102.906L117.055 103.796L114.922 94.4958L123.429 94.5922Z" fill="#EBB376"/>
<path d="M9.84918 247.74H17.724L12.5063 260.832L5.22068 259.354L9.84918 247.74Z" fill="#ED893E"/>
<path d="M44.9807 21.4148C43.9093 29.1396 42.8379 33.6074 45.8486 38.3323C50.4235 45.4358 60.5698 43.9037 63.9768 36.6609C67.0518 30.1468 68.3696 18.5969 61.534 14.0006C60.0266 12.9953 58.2889 12.3887 56.4834 12.2375C54.6778 12.0863 52.8634 12.3955 51.2098 13.1362C49.5562 13.8768 48.1175 15.0247 47.0281 16.4725C45.9387 17.9203 45.2343 19.6207 44.9807 21.4148Z" fill="#EBB376"/>
<path d="M74.6802 8.42937C68.016 2.26875 73.2874 0.704502 73.2874 0.704502C73.2874 0.704502 65.9804 -2.31689 68.8732 4.15443C72.9124 13.1757 61.5983 10.4008 56.1769 4.15443C52.8341 0.297351 44.0379 4.25086 44.4664 8.01152C44.895 11.7722 31.0738 8.85793 37.3308 17.0649C37.4487 25.6362 40.7808 33.9718 45.2057 36.2325C52.7913 40.1003 58.4805 29.279 60.6019 20.6113C72.0446 26.1076 81.5801 14.8043 74.6802 8.42937Z" fill="#263238"/>
<path d="M54.8163 25.7755C54.8593 27.7252 55.5405 29.607 56.7555 31.1325C58.3734 33.1039 60.2162 32.0218 60.6447 29.7397C61.0304 27.6826 60.6447 24.1791 58.6091 23.0327C56.5734 21.8862 54.8055 23.4398 54.8163 25.7755Z" fill="#EBB376"/>
<path d="M37.4058 9.04012C40.8443 8.90946 44.217 10.0071 46.92 12.1365C46.92 12.1365 44.9807 3.84378 37.4058 9.04012Z" fill="#263238"/>
<path d="M53.6377 119.406C53.6377 119.406 55.2127 151.291 61.0305 179.405C62.884 188.308 61.6733 197.844 56.4556 205.29C41.1237 227.158 16.8134 256.279 16.8134 256.279L4.07427 254.854C4.07427 254.854 24.6989 216.615 35.263 197.619C37.663 193.333 39.7844 189.412 37.9737 184.762C20.4776 140.352 29.9381 119.406 29.9381 119.406H53.6377Z" fill="#FFD100"/>
<path d="M56.0055 146.963L43.8129 132.413C43.3522 138.938 47.295 163.345 60.8162 178.345C58.6626 167.77 57.1091 156.616 56.0055 146.963Z" fill="#FFD100"/>
<path opacity="0.4" d="M56.0055 146.963L43.8129 132.413C43.3522 138.938 47.295 163.345 60.8162 178.345C58.6626 167.77 57.1091 156.616 56.0055 146.963Z" fill="black"/>
<path d="M20.4026 254.34L17.9062 259.504L2.55286 255.561L3.77427 250.772L20.4026 254.34Z" fill="#003087"/>
<path opacity="0.1" d="M20.4026 254.34L17.9062 259.504L2.55286 255.561L3.77427 250.772L20.4026 254.34Z" fill="black"/>
<path d="M66.1518 265.954H74.016L76.3195 247.729H68.4554L66.1518 265.954Z" fill="#EBB376"/>
<path d="M77.4659 266.339C76.6536 266.339 75.843 266.264 75.0445 266.114C75.007 266.108 74.9723 266.09 74.9454 266.064C74.9185 266.037 74.9007 266.002 74.8945 265.964C74.888 265.926 74.8938 265.887 74.9111 265.852C74.9285 265.818 74.9564 265.789 74.9909 265.772C75.1088 265.707 77.8516 264.143 79.1695 264.497C79.2926 264.526 79.4084 264.579 79.5098 264.655C79.6112 264.731 79.6959 264.826 79.7587 264.936C79.8426 265.055 79.8877 265.197 79.8877 265.343C79.8877 265.489 79.8426 265.631 79.7587 265.75C79.448 266.222 78.473 266.339 77.4659 266.339ZM75.6445 265.847C77.1231 266.05 79.1159 266.018 79.4694 265.525C79.4694 265.461 79.5659 265.354 79.4694 265.118C79.4302 265.052 79.3775 264.995 79.3147 264.951C79.252 264.906 79.1805 264.876 79.1052 264.861C78.2587 264.657 76.6088 265.375 75.6981 265.868L75.6445 265.847Z" fill="#003087"/>
<path d="M75.0767 266.146C75.0416 266.156 75.0046 266.156 74.9695 266.146C74.9449 266.125 74.9253 266.099 74.9123 266.069C74.8993 266.04 74.8932 266.007 74.8945 265.975C74.8945 265.879 75.1195 263.757 76.1159 262.943C76.2608 262.815 76.4315 262.72 76.6165 262.665C76.8014 262.61 76.9961 262.595 77.1873 262.622C77.7016 262.675 77.8409 262.932 77.873 263.147C78.023 264.036 76.1373 265.739 75.1945 266.157L75.0767 266.146ZM77.0052 262.932C76.7644 262.931 76.5316 263.019 76.3516 263.179C75.7551 263.857 75.3812 264.702 75.2802 265.6C76.2552 265.021 77.5302 263.682 77.423 263.147C77.423 263.147 77.423 262.975 77.0588 262.932H77.0052Z" fill="#003087"/>
<path d="M74.241 265.043H65.6697C65.5127 265.043 65.3605 265.097 65.2392 265.197C65.118 265.296 65.0353 265.435 65.0054 265.589L63.4411 272.586C63.404 272.754 63.4055 272.929 63.4455 273.098C63.4855 273.266 63.563 273.423 63.6722 273.557C63.7815 273.691 63.9196 273.798 64.0762 273.871C64.2329 273.944 64.404 273.981 64.5768 273.978C67.6839 273.925 72.1624 273.743 76.0517 273.743C80.6159 273.743 84.5479 274 89.8943 274C93.1085 274 94.0192 270.786 92.6692 270.432C86.5086 269.082 81.4837 268.943 76.1588 265.664C75.5925 265.277 74.9267 265.061 74.241 265.043Z" fill="#263238"/>
<path d="M68.4553 247.74H76.3302L74.6374 261.015L66.9232 259.825L68.4553 247.74Z" fill="#ED893E"/>
<path d="M72.0767 119.406C72.0767 119.406 78.6659 141.434 89.5514 169.762C93.0978 178.976 94.4692 187.848 92.0049 195.648C84.3658 219.862 77.7659 256.279 77.7659 256.279L64.6411 254.854C64.6411 254.854 64.1375 217.708 68.7875 198.562C71.1767 188.737 70.3624 185.159 67.9089 181.912C34.4809 137.438 43.4593 119.438 43.4593 119.438L72.0767 119.406Z" fill="#FFD100"/>
<path d="M80.0373 254.05L79.3516 259.279L63.8589 256.654L63.3982 251.875L80.0373 254.05Z" fill="#003087"/>
<path opacity="0.1" d="M80.0373 254.05L79.3516 259.279L63.8589 256.654L63.3982 251.875L80.0373 254.05Z" fill="black"/>
</svg>
