<svg width="17" height="17" viewBox="0 0 17 17" fill="none" xmlns="http://www.w3.org/2000/svg">
<path d="M8.5 16.2273C12.7677 16.2273 16.2273 12.7677 16.2273 8.5C16.2273 4.23235 12.7677 0.772727 8.5 0.772727C4.23235 0.772727 0.772727 4.23235 0.772727 8.5C0.772727 12.7677 4.23235 16.2273 8.5 16.2273Z" stroke="#7D7D7D" stroke-width="1.5" stroke-linecap="round" stroke-linejoin="round"/>
<path d="M7.856 7.85606H8.50002L8.49994 12.3636H9.14388" stroke="#7D7D7D" stroke-width="1.5" stroke-linecap="round" stroke-linejoin="round"/>
<path d="M8.49994 5.76326C8.94448 5.76326 9.30486 5.40288 9.30486 4.95833C9.30486 4.51379 8.94448 4.15341 8.49994 4.15341C8.05539 4.15341 7.69501 4.51379 7.69501 4.95833C7.69501 5.40288 8.05539 5.76326 8.49994 5.76326Z" fill="#7D7D7D"/>
</svg>
