<svg width="273" height="256" viewBox="0 0 273 256" fill="none" xmlns="http://www.w3.org/2000/svg">
<path d="M40.1669 28.5914C51.7215 16.9736 66.1717 8.25144 82.1752 5.12383C103.035 1.04037 126.39 7.58375 139.934 23.9738C157.505 45.2486 155.326 75.9835 162.193 102.691C163.816 109.017 166.101 115.405 170.507 120.262C177.824 128.288 189.484 130.558 200.357 130.889C213.978 131.296 230.578 129.483 242.33 137.875C264.87 154.04 250.328 186.293 236.489 203.098C216.81 226.959 182.912 236.187 155.417 220.113C146.723 215.032 139.196 207.716 129.631 204.581C116.853 200.399 102.993 204.412 89.569 204.138C63.023 203.597 39.0986 185.668 25.2246 163.043C2.45987 125.885 4.62459 74.9784 30.4678 39.907C33.4218 35.9047 36.6634 32.1228 40.1669 28.5914Z" fill="#003087"/>
<path opacity="0.9" d="M40.1669 28.5914C51.7215 16.9736 66.1717 8.25144 82.1752 5.12383C103.035 1.04037 126.39 7.58375 139.934 23.9738C157.505 45.2486 155.326 75.9835 162.193 102.691C163.816 109.017 166.101 115.405 170.507 120.262C177.824 128.288 189.484 130.558 200.357 130.889C213.978 131.296 230.578 129.483 242.33 137.875C264.87 154.04 250.328 186.293 236.489 203.098C216.81 226.959 182.912 236.187 155.417 220.113C146.723 215.032 139.196 207.716 129.631 204.581C116.853 200.399 102.993 204.412 89.569 204.138C63.023 203.597 39.0986 185.668 25.2246 163.043C2.45987 125.885 4.62459 74.9784 30.4678 39.907C33.4218 35.9047 36.6634 32.1228 40.1669 28.5914Z" fill="white"/>
<path d="M136.272 256C211.534 256 272.545 252.438 272.545 248.044C272.545 243.65 211.534 240.088 136.272 240.088C61.0112 240.088 0 243.65 0 248.044C0 252.438 61.0112 256 136.272 256Z" fill="#F5F5F5"/>
<path d="M24.3108 197.342C24.4584 198.375 21.6541 199.057 19.391 199.45C19.5808 201.327 20.7967 203.225 22.5467 204.996C24.7185 203.773 27.8109 202.184 28.3873 202.557C28.9636 202.929 25.8149 205.003 23.8188 206.226C25.237 207.46 26.7375 208.597 28.3099 209.627C29.2799 208.721 30.4184 207.919 31.1213 208.355C31.8241 208.791 31.6344 210.204 31.2829 211.462C33.6445 212.832 35.4086 213.669 35.4086 213.669C36.0953 211.477 36.6238 209.238 36.9899 206.971C36.8705 206.739 36.751 206.5 36.6385 206.268C36.259 205.389 36.6385 205.017 37.257 204.897C37.4359 203.293 37.45 201.676 37.2992 200.069C34.6284 199.507 31.3813 198.473 32.5972 196.871C33.3001 195.908 34.7057 195.796 36.0692 196.035C35.8795 195.716 35.6582 195.417 35.4086 195.142C30.552 189.786 27.1643 195.142 27.1643 195.142C24.353 192.787 20.3679 193.42 19.5105 197.103C21.0919 196.674 24.1281 196.07 24.3108 197.342Z" fill="#003087"/>
<path opacity="0.3" d="M24.3108 197.342C24.4584 198.375 21.6541 199.057 19.391 199.45C19.5808 201.327 20.7967 203.225 22.5467 204.996C24.7185 203.773 27.8109 202.184 28.3873 202.557C28.9636 202.929 25.8149 205.003 23.8188 206.226C25.237 207.46 26.7375 208.597 28.3099 209.627C29.2799 208.721 30.4184 207.919 31.1213 208.355C31.8241 208.791 31.6344 210.204 31.2829 211.462C33.6445 212.832 35.4086 213.669 35.4086 213.669C36.0953 211.477 36.6238 209.238 36.9899 206.971C36.8705 206.739 36.751 206.5 36.6385 206.268C36.259 205.389 36.6385 205.017 37.257 204.897C37.4359 203.293 37.45 201.676 37.2992 200.069C34.6284 199.507 31.3813 198.473 32.5972 196.871C33.3001 195.908 34.7057 195.796 36.0692 196.035C35.8795 195.716 35.6582 195.417 35.4086 195.142C30.552 189.786 27.1643 195.142 27.1643 195.142C24.353 192.787 20.3679 193.42 19.5105 197.103C21.0919 196.674 24.1281 196.07 24.3108 197.342Z" fill="white"/>
<path d="M30.3764 236.693L29.6735 236.637C29.6735 236.272 32.5481 200.42 24.5007 197.039C24.1168 196.862 23.6969 196.775 23.2739 196.786C22.8508 196.797 22.4361 196.905 22.0619 197.103C19.1592 198.614 17.7675 204.89 17.7535 204.953L17.0507 204.806C17.1069 204.539 18.5266 198.143 21.7245 196.477C22.1903 196.231 22.7063 196.096 23.2328 196.081C23.7592 196.067 24.282 196.173 24.7607 196.393C33.2861 199.97 30.4959 235.224 30.3764 236.693Z" fill="#003087"/>
<path d="M31.3883 235.927C31.2477 234.318 27.9584 196.386 34.1012 192.352C35.5771 191.382 36.9125 191.178 38.0019 191.74C40.9046 193.209 41.2842 199.408 41.2982 199.675L40.5954 199.717C40.5954 199.654 40.2229 193.652 37.6857 192.373C36.8071 191.93 35.7318 192.12 34.4878 192.935C28.6964 196.737 32.056 235.47 32.0841 235.864L31.3883 235.927Z" fill="#003087"/>
<path d="M32.3091 238.984C32.2669 237.747 31.2548 208.713 36.8424 206.169C37.364 205.926 37.9326 205.8 38.5081 205.8C39.0836 205.8 39.6522 205.926 40.1738 206.169C44.0113 207.856 46.3798 215.011 46.4993 215.306L45.8316 215.524C45.8316 215.453 43.456 208.369 39.9067 206.809C39.4776 206.604 39.0081 206.498 38.5327 206.498C38.0572 206.498 37.5878 206.604 37.1586 206.809C32.8714 208.755 32.7238 230.705 33.033 238.956L32.3091 238.984Z" fill="#003087"/>
<path d="M30.8894 237.656L30.1866 237.579C31.1776 228.934 33.0611 205.902 29.9827 203.14C29.8336 202.96 29.6354 202.827 29.4121 202.757C29.1888 202.687 28.95 202.684 28.7247 202.747C26.6302 203.597 25.4003 211.047 25.091 213.873L24.3882 213.795C24.5077 212.713 25.6322 203.197 28.4646 202.114C28.8084 201.996 29.1794 201.983 29.5308 202.075C29.8823 202.168 30.1984 202.362 30.4396 202.634C34.4246 206.184 31.037 236.37 30.8894 237.656Z" fill="#003087"/>
<path d="M19.1592 221.273H44.412L42.3035 249.555H21.2677L19.1592 221.273Z" fill="#263238"/>
<path opacity="0.2" d="M26.827 221.273L27.5299 249.555H42.3034L44.4119 221.273H26.827Z" fill="white"/>
<path d="M22.596 210.892C22.336 211.595 20.375 211.04 18.8358 210.492C18.3087 211.715 18.4282 213.303 18.885 214.99C20.6351 214.99 23.102 215.046 23.3199 215.489C23.5378 215.932 20.8951 216.143 19.2575 216.192C19.7089 217.441 20.2467 218.658 20.867 219.832C21.7737 219.601 22.7506 219.502 23.0177 220.001C23.2848 220.5 22.7014 221.315 22.0548 221.969C23.0388 223.628 23.84 224.78 23.84 224.78C25.017 223.659 26.1094 222.451 27.1082 221.168C27.1082 220.985 27.1082 220.795 27.1082 220.606C27.1785 219.903 27.5369 219.825 27.9656 219.966C28.6243 219.037 29.1871 218.043 29.6454 217C28.1906 215.742 26.5389 213.992 27.8391 213.416C28.6263 213.078 29.4908 213.465 30.2639 214.118C30.2598 213.856 30.2268 213.594 30.1655 213.338C29.0058 208.369 25.084 210.527 25.084 210.527C24.1493 208.109 21.4785 207.146 19.6933 209.121C20.8459 209.374 22.9263 210.042 22.596 210.892Z" fill="#003087"/>
<path opacity="0.3" d="M22.596 210.892C22.336 211.595 20.375 211.04 18.8358 210.492C18.3087 211.715 18.4282 213.303 18.885 214.99C20.6351 214.99 23.102 215.046 23.3199 215.489C23.5378 215.932 20.8951 216.143 19.2575 216.192C19.7089 217.441 20.2467 218.658 20.867 219.832C21.7737 219.601 22.7506 219.502 23.0177 220.001C23.2848 220.5 22.7014 221.315 22.0548 221.969C23.0388 223.628 23.84 224.78 23.84 224.78C25.017 223.659 26.1094 222.451 27.1082 221.168C27.1082 220.985 27.1082 220.795 27.1082 220.606C27.1785 219.903 27.5369 219.825 27.9656 219.966C28.6243 219.037 29.1871 218.043 29.6454 217C28.1906 215.742 26.5389 213.992 27.8391 213.416C28.6263 213.078 29.4908 213.465 30.2639 214.118C30.2598 213.856 30.2268 213.594 30.1655 213.338C29.0058 208.369 25.084 210.527 25.084 210.527C24.1493 208.109 21.4785 207.146 19.6933 209.121C20.8459 209.374 22.9263 210.042 22.596 210.892Z" fill="white"/>
<path d="M41.3475 214.252C40.5619 214.317 39.7875 214.48 39.0422 214.736C38.839 214.201 38.7227 213.636 38.6978 213.064C38.5361 207.975 42.212 210.119 44.1096 208.622C44.5484 208.24 45.0615 207.953 45.6167 207.778C46.1719 207.604 46.7572 207.547 47.3356 207.61C47.1694 207.892 47.0238 208.185 46.8999 208.488C46.8536 208.599 46.8332 208.719 46.8403 208.838C46.8474 208.958 46.8818 209.075 46.9408 209.179C46.9997 209.284 47.0818 209.373 47.1807 209.441C47.2796 209.509 47.3927 209.553 47.5113 209.571C47.9859 209.664 48.478 209.605 48.917 209.402C49.0474 209.331 49.1699 209.246 49.2825 209.149C49.5903 209.683 49.8266 210.255 49.9853 210.85C50.1757 211.562 50.2864 212.292 50.3156 213.029C50.0243 213.09 49.7378 213.172 49.4582 213.275C49.3478 213.323 49.2497 213.395 49.1714 213.486C49.093 213.578 49.0365 213.686 49.006 213.802C48.9756 213.919 48.972 214.04 48.9955 214.158C49.019 214.276 49.0691 214.388 49.1419 214.483C49.4483 214.788 49.8049 215.038 50.1961 215.221C50.0639 216.036 49.8472 216.834 49.5495 217.604L49.2895 217.646C49.1067 217.681 48.924 217.731 48.7413 217.78L48.4391 217.892C48.314 217.947 48.2047 218.032 48.1211 218.14C48.0376 218.249 47.9826 218.376 47.9611 218.511C47.9495 218.644 47.9711 218.777 48.0238 218.9C48.0766 219.023 48.1588 219.13 48.2634 219.214C48.383 219.302 48.51 219.379 48.6429 219.445C48.157 220.285 47.4621 220.985 46.6257 221.477C45.8872 221.142 45.169 220.764 44.4751 220.345C44.6297 220.141 44.7843 219.937 44.9249 219.727C45.0904 219.494 45.1676 219.21 45.1428 218.925C45.0974 218.647 44.9495 218.397 44.7281 218.223C44.6155 218.135 44.4867 218.071 44.3492 218.034C44.2117 217.996 44.0682 217.986 43.9269 218.005C43.6489 218.05 43.3981 218.198 43.224 218.419C43.0554 218.672 42.8656 218.911 42.6829 219.122C41.7102 218.405 40.84 217.559 40.0964 216.606H40.1737C40.6345 216.486 41.1048 216.406 41.5794 216.367C41.8186 216.288 42.0228 216.129 42.1569 215.916C42.291 215.702 42.3467 215.449 42.3142 215.199C42.2817 214.95 42.1632 214.719 41.9791 214.547C41.7949 214.376 41.5567 214.274 41.3053 214.259L41.3475 214.252Z" fill="#003087"/>
<path opacity="0.5" d="M41.3475 214.252C40.5619 214.317 39.7875 214.48 39.0422 214.736C38.839 214.201 38.7227 213.636 38.6978 213.064C38.5361 207.975 42.212 210.119 44.1096 208.622C44.5484 208.24 45.0615 207.953 45.6167 207.778C46.1719 207.604 46.7572 207.547 47.3356 207.61C47.1694 207.892 47.0238 208.185 46.8999 208.488C46.8536 208.599 46.8332 208.719 46.8403 208.838C46.8474 208.958 46.8818 209.075 46.9408 209.179C46.9997 209.284 47.0818 209.373 47.1807 209.441C47.2796 209.509 47.3927 209.553 47.5113 209.571C47.9859 209.664 48.478 209.605 48.917 209.402C49.0474 209.331 49.1699 209.246 49.2825 209.149C49.5903 209.683 49.8266 210.255 49.9853 210.85C50.1757 211.562 50.2864 212.292 50.3156 213.029C50.0243 213.09 49.7378 213.172 49.4582 213.275C49.3478 213.323 49.2497 213.395 49.1714 213.486C49.093 213.578 49.0365 213.686 49.006 213.802C48.9756 213.919 48.972 214.04 48.9955 214.158C49.019 214.276 49.0691 214.388 49.1419 214.483C49.4483 214.788 49.8049 215.038 50.1961 215.221C50.0639 216.036 49.8472 216.834 49.5495 217.604L49.2895 217.646C49.1067 217.681 48.924 217.731 48.7413 217.78L48.4391 217.892C48.314 217.947 48.2047 218.032 48.1211 218.14C48.0376 218.249 47.9826 218.376 47.9611 218.511C47.9495 218.644 47.9711 218.777 48.0238 218.9C48.0766 219.023 48.1588 219.13 48.2634 219.214C48.383 219.302 48.51 219.379 48.6429 219.445C48.157 220.285 47.4621 220.985 46.6257 221.477C45.8872 221.142 45.169 220.764 44.4751 220.345C44.6297 220.141 44.7843 219.937 44.9249 219.727C45.0904 219.494 45.1676 219.21 45.1428 218.925C45.0974 218.647 44.9495 218.397 44.7281 218.223C44.6155 218.135 44.4867 218.071 44.3492 218.034C44.2117 217.996 44.0682 217.986 43.9269 218.005C43.6489 218.05 43.3981 218.198 43.224 218.419C43.0554 218.672 42.8656 218.911 42.6829 219.122C41.7102 218.405 40.84 217.559 40.0964 216.606H40.1737C40.6345 216.486 41.1048 216.406 41.5794 216.367C41.8186 216.288 42.0228 216.129 42.1569 215.916C42.291 215.702 42.3467 215.449 42.3142 215.199C42.2817 214.95 42.1632 214.719 41.9791 214.547C41.7949 214.376 41.5567 214.274 41.3053 214.259L41.3475 214.252Z" fill="white"/>
<path d="M42.7954 196.695C43.23 196.384 43.7023 196.129 44.2011 195.936C44.0725 195.567 43.885 195.22 43.6458 194.91C41.4952 192.162 40.5253 194.91 38.8525 194.952C38.4596 194.947 38.0697 195.022 37.707 195.173C37.3443 195.324 37.0165 195.548 36.744 195.831C36.9527 195.908 37.1568 195.998 37.3555 196.098C37.4291 196.136 37.4931 196.19 37.5425 196.257C37.5919 196.323 37.6253 196.4 37.6403 196.482C37.6552 196.563 37.6512 196.647 37.6287 196.727C37.6061 196.806 37.5655 196.88 37.5101 196.941C37.3016 197.206 37.0131 197.396 36.6878 197.483C36.5848 197.49 36.4815 197.49 36.3785 197.483C36.4567 197.897 36.5841 198.3 36.7581 198.684C36.9713 199.141 37.2354 199.573 37.5452 199.971C37.7245 199.876 37.91 199.794 38.1005 199.725C38.1796 199.7 38.2633 199.693 38.3452 199.706C38.4272 199.719 38.5051 199.75 38.573 199.798C38.6409 199.845 38.697 199.908 38.737 199.98C38.7769 200.053 38.7996 200.134 38.8033 200.217C38.7778 200.512 38.6993 200.8 38.5714 201.067C39.0048 201.441 39.4759 201.768 39.977 202.044L40.1317 201.946L40.4831 201.777C40.5507 201.746 40.6214 201.723 40.6939 201.707C40.783 201.679 40.8776 201.675 40.9688 201.695C41.0599 201.714 41.1444 201.757 41.214 201.819C41.284 201.884 41.3357 201.966 41.364 202.058C41.3924 202.149 41.3964 202.246 41.3757 202.339C41.3516 202.437 41.3211 202.533 41.2843 202.627C41.9065 202.856 42.5773 202.919 43.2312 202.81C43.4747 202.311 43.6859 201.797 43.8637 201.271L43.3577 201.144C43.1702 201.094 43.0062 200.979 42.8938 200.821C42.7884 200.654 42.753 200.452 42.7954 200.259C42.8142 200.163 42.8527 200.073 42.9084 199.993C42.964 199.913 43.0356 199.846 43.1187 199.795C43.2859 199.69 43.4879 199.654 43.681 199.697C43.8778 199.753 44.0816 199.795 44.2784 199.844C44.4781 199.042 44.5656 198.217 44.5384 197.391H44.4892C44.1889 197.531 43.9019 197.698 43.6318 197.89C43.5501 197.943 43.4588 197.979 43.3633 197.996C43.2677 198.014 43.1696 198.012 43.0746 197.991C42.9797 197.971 42.8897 197.932 42.8098 197.876C42.7299 197.821 42.6618 197.751 42.6092 197.669C42.5565 197.587 42.5205 197.496 42.5032 197.4C42.4858 197.305 42.4875 197.207 42.5081 197.112C42.5286 197.017 42.5677 196.927 42.623 196.847C42.6783 196.767 42.7489 196.699 42.8305 196.646L42.7954 196.695Z" fill="#003087"/>
<path opacity="0.3" d="M42.7954 196.695C43.23 196.384 43.7023 196.129 44.2011 195.936C44.0725 195.567 43.885 195.22 43.6458 194.91C41.4952 192.162 40.5253 194.91 38.8525 194.952C38.4596 194.947 38.0697 195.022 37.707 195.173C37.3443 195.324 37.0165 195.548 36.744 195.831C36.9527 195.908 37.1568 195.998 37.3555 196.098C37.4291 196.136 37.4931 196.19 37.5425 196.257C37.5919 196.323 37.6253 196.4 37.6403 196.482C37.6552 196.563 37.6512 196.647 37.6287 196.727C37.6061 196.806 37.5655 196.88 37.5101 196.941C37.3016 197.206 37.0131 197.396 36.6878 197.483C36.5848 197.49 36.4815 197.49 36.3785 197.483C36.4567 197.897 36.5841 198.3 36.7581 198.684C36.9713 199.141 37.2354 199.573 37.5452 199.971C37.7245 199.876 37.91 199.794 38.1005 199.725C38.1796 199.7 38.2633 199.693 38.3452 199.706C38.4272 199.719 38.5051 199.75 38.573 199.798C38.6409 199.845 38.697 199.908 38.737 199.98C38.7769 200.053 38.7996 200.134 38.8033 200.217C38.7778 200.512 38.6993 200.8 38.5714 201.067C39.0048 201.441 39.4759 201.768 39.977 202.044L40.1317 201.946L40.4831 201.777C40.5507 201.746 40.6214 201.723 40.6939 201.707C40.783 201.679 40.8776 201.675 40.9688 201.695C41.0599 201.714 41.1444 201.757 41.214 201.819C41.284 201.884 41.3357 201.966 41.364 202.058C41.3924 202.149 41.3964 202.246 41.3757 202.339C41.3516 202.437 41.3211 202.533 41.2843 202.627C41.9065 202.856 42.5773 202.919 43.2312 202.81C43.4747 202.311 43.6859 201.797 43.8637 201.271L43.3577 201.144C43.1702 201.094 43.0062 200.979 42.8938 200.821C42.7884 200.654 42.753 200.452 42.7954 200.259C42.8142 200.163 42.8527 200.073 42.9084 199.993C42.964 199.913 43.0356 199.846 43.1187 199.795C43.2859 199.69 43.4879 199.654 43.681 199.697C43.8778 199.753 44.0816 199.795 44.2784 199.844C44.4781 199.042 44.5656 198.217 44.5384 197.391H44.4892C44.1889 197.531 43.9019 197.698 43.6318 197.89C43.5501 197.943 43.4588 197.979 43.3633 197.996C43.2677 198.014 43.1696 198.012 43.0746 197.991C42.9797 197.971 42.8897 197.932 42.8098 197.876C42.7299 197.821 42.6618 197.751 42.6092 197.669C42.5565 197.587 42.5205 197.496 42.5032 197.4C42.4858 197.305 42.4875 197.207 42.5081 197.112C42.5286 197.017 42.5677 196.927 42.623 196.847C42.6783 196.767 42.7489 196.699 42.8305 196.646L42.7954 196.695Z" fill="white"/>
<path d="M22.2304 201.791C22.0828 202.824 24.8871 203.506 27.1503 203.9C26.9605 205.776 25.7446 207.674 23.9875 209.438C21.8228 208.222 18.7233 206.627 18.154 206.999C17.5847 207.372 20.7053 209.48 22.6873 210.682C21.2705 211.914 19.7698 213.046 18.1962 214.07C17.2263 213.163 16.0877 212.369 15.3848 212.797C14.682 213.226 14.8718 214.653 15.2232 215.904C12.8617 217.31 11.0976 218.118 11.0976 218.118C10.4108 215.926 9.88235 213.688 9.51618 211.42C9.63566 211.181 9.75514 210.949 9.86057 210.717C10.2471 209.838 9.86057 209.466 9.2491 209.311C9.06668 207.708 9.05254 206.089 9.20693 204.483C11.8777 203.928 15.1248 202.887 13.9089 201.285C13.2061 200.322 11.8355 200.21 10.4369 200.456C10.6267 200.135 10.848 199.833 11.0976 199.556C15.9541 194.2 19.3418 199.556 19.3418 199.556C22.1531 197.202 26.1312 197.841 26.9886 201.517C25.4494 201.116 22.4132 200.512 22.2304 201.791Z" fill="#003087"/>
<path opacity="0.5" d="M22.2304 201.791C22.0828 202.824 24.8871 203.506 27.1503 203.9C26.9605 205.776 25.7446 207.674 23.9875 209.438C21.8228 208.222 18.7233 206.627 18.154 206.999C17.5847 207.372 20.7053 209.48 22.6873 210.682C21.2705 211.914 19.7698 213.046 18.1962 214.07C17.2263 213.163 16.0877 212.369 15.3848 212.797C14.682 213.226 14.8718 214.653 15.2232 215.904C12.8617 217.31 11.0976 218.118 11.0976 218.118C10.4108 215.926 9.88235 213.688 9.51618 211.42C9.63566 211.181 9.75514 210.949 9.86057 210.717C10.2471 209.838 9.86057 209.466 9.2491 209.311C9.06668 207.708 9.05254 206.089 9.20693 204.483C11.8777 203.928 15.1248 202.887 13.9089 201.285C13.2061 200.322 11.8355 200.21 10.4369 200.456C10.6267 200.135 10.848 199.833 11.0976 199.556C15.9541 194.2 19.3418 199.556 19.3418 199.556C22.1531 197.202 26.1312 197.841 26.9886 201.517C25.4494 201.116 22.4132 200.512 22.2304 201.791Z" fill="white"/>
<path d="M231.471 249.555L244.93 160.12V249.555H248.543V159.564L262.016 249.555H265.889L249.021 136.905L248.543 136.975V133.313H244.93V136.961L244.431 136.905L227.521 249.555H231.471Z" fill="#003087"/>
<path opacity="0.3" d="M231.471 249.555L244.93 160.12V249.555H248.543V159.564L262.016 249.555H265.889L249.021 136.905L248.543 136.975V133.313H244.93V136.961L244.431 136.905L227.521 249.555H231.471Z" fill="white"/>
<path d="M265.256 149.402H228.02L231.035 118.287H262.241L265.256 149.402Z" fill="#003087"/>
<g opacity="0.5">
<path d="M265.256 149.402H228.02L231.035 118.287H262.241L265.256 149.402Z" fill="white"/>
</g>
<path d="M171.414 109.002H159.171C158.91 109.002 158.659 108.898 158.475 108.714C158.29 108.529 158.187 108.279 158.187 108.018V79.0262C158.321 78.9624 158.436 78.8633 158.518 78.7395C158.601 78.6156 158.648 78.4717 158.655 78.323C158.663 78.1743 158.629 78.0264 158.559 77.8952C158.489 77.7639 158.384 77.6542 158.257 77.5777C158.129 77.5013 157.983 77.4609 157.834 77.4609C157.685 77.461 157.539 77.5014 157.411 77.578C157.284 77.6545 157.179 77.7643 157.109 77.8956C157.039 78.0268 157.006 78.1747 157.013 78.3234C157.02 78.4724 157.067 78.6167 157.15 78.7407C157.233 78.8646 157.348 78.9634 157.484 79.0262V108.011C157.483 108.233 157.526 108.453 157.61 108.658C157.695 108.863 157.819 109.049 157.976 109.206C158.133 109.363 158.319 109.487 158.524 109.571C158.729 109.656 158.949 109.699 159.171 109.698H171.414C171.675 109.698 171.925 109.802 172.11 109.986C172.294 110.171 172.398 110.421 172.398 110.682V127.276H173.101V110.689C173.101 110.467 173.057 110.248 172.972 110.043C172.888 109.839 172.763 109.653 172.607 109.496C172.45 109.339 172.264 109.215 172.059 109.13C171.855 109.046 171.635 109.002 171.414 109.002Z" fill="#003087"/>
<path opacity="0.4" d="M171.414 109.002H159.171C158.91 109.002 158.659 108.898 158.475 108.714C158.29 108.529 158.187 108.279 158.187 108.018V79.0262C158.321 78.9624 158.436 78.8633 158.518 78.7395C158.601 78.6156 158.648 78.4717 158.655 78.323C158.663 78.1743 158.629 78.0264 158.559 77.8952C158.489 77.7639 158.384 77.6542 158.257 77.5777C158.129 77.5013 157.983 77.4609 157.834 77.4609C157.685 77.461 157.539 77.5014 157.411 77.578C157.284 77.6545 157.179 77.7643 157.109 77.8956C157.039 78.0268 157.006 78.1747 157.013 78.3234C157.02 78.4724 157.067 78.6167 157.15 78.7407C157.233 78.8646 157.348 78.9634 157.484 79.0262V108.011C157.483 108.233 157.526 108.453 157.61 108.658C157.695 108.863 157.819 109.049 157.976 109.206C158.133 109.363 158.319 109.487 158.524 109.571C158.729 109.656 158.949 109.699 159.171 109.698H171.414C171.675 109.698 171.925 109.802 172.11 109.986C172.294 110.171 172.398 110.421 172.398 110.682V127.276H173.101V110.689C173.101 110.467 173.057 110.248 172.972 110.043C172.888 109.839 172.763 109.653 172.607 109.496C172.45 109.339 172.264 109.215 172.059 109.13C171.855 109.046 171.635 109.002 171.414 109.002Z" fill="white"/>
<path d="M186.061 126.58H159.374C158.33 126.58 157.484 127.427 157.484 128.471V156.647C157.484 157.691 158.33 158.538 159.374 158.538H186.061C187.105 158.538 187.951 157.691 187.951 156.647V128.471C187.951 127.427 187.105 126.58 186.061 126.58Z" fill="#003087"/>
<path opacity="0.4" d="M186.061 126.58H159.374C158.33 126.58 157.484 127.427 157.484 128.471V156.647C157.484 157.691 158.33 158.538 159.374 158.538H186.061C187.105 158.538 187.951 157.691 187.951 156.647V128.471C187.951 127.427 187.105 126.58 186.061 126.58Z" fill="white"/>
<path opacity="0.2" d="M174.766 144.959H170.669V149.056H174.766V144.959Z" fill="white"/>
<path opacity="0.2" d="M179.215 131.612H175.118V135.71H179.215V131.612Z" fill="white"/>
<path opacity="0.2" d="M170.317 149.408H166.22V153.506H170.317V149.408Z" fill="white"/>
<path opacity="0.2" d="M179.215 136.062H175.118V140.159H179.215V136.062Z" fill="white"/>
<path opacity="0.2" d="M179.215 140.51H175.118V144.607H179.215V140.51Z" fill="white"/>
<path opacity="0.2" d="M174.766 136.062H170.669V140.159H174.766V136.062Z" fill="white"/>
<path opacity="0.2" d="M174.766 126.932H170.669V131.261H174.766V126.932Z" fill="white"/>
<path opacity="0.2" d="M170.317 144.959H166.22V149.056H170.317V144.959Z" fill="white"/>
<path opacity="0.2" d="M174.766 131.612H170.669V135.71H174.766V131.612Z" fill="white"/>
<path opacity="0.2" d="M174.766 149.408H170.669V153.506H174.766V149.408Z" fill="white"/>
<path opacity="0.2" d="M179.215 149.408H175.118V153.506H179.215V149.408Z" fill="white"/>
<path opacity="0.2" d="M174.766 140.51H170.669V144.607H174.766V140.51Z" fill="white"/>
<path opacity="0.2" d="M179.215 126.932H175.118V131.261H179.215V126.932Z" fill="white"/>
<path opacity="0.2" d="M161.42 144.959H157.835V149.056H161.42V144.959Z" fill="white"/>
<path opacity="0.2" d="M161.42 131.612H157.835V135.71H161.42V131.612Z" fill="white"/>
<path opacity="0.2" d="M161.42 140.51H157.835V144.607H161.42V140.51Z" fill="white"/>
<path opacity="0.2" d="M161.42 136.062H157.835V140.159H161.42V136.062Z" fill="white"/>
<path opacity="0.2" d="M179.215 144.959H175.118V149.056H179.215V144.959Z" fill="white"/>
<path opacity="0.2" d="M184.016 131.261H187.579V128.449C187.579 128.041 187.417 127.65 187.128 127.361C186.839 127.072 186.448 126.91 186.04 126.91H183.995L184.016 131.261Z" fill="white"/>
<path opacity="0.2" d="M183.664 131.612H179.567V135.71H183.664V131.612Z" fill="white"/>
<path opacity="0.2" d="M161.42 149.408H157.835V153.506H161.42V149.408Z" fill="white"/>
<path opacity="0.2" d="M183.664 136.062H179.567V140.159H183.664V136.062Z" fill="white"/>
<path opacity="0.2" d="M183.664 140.51H179.567V144.607H183.664V140.51Z" fill="white"/>
<path opacity="0.2" d="M183.664 144.959H179.567V149.056H183.664V144.959Z" fill="white"/>
<path opacity="0.2" d="M183.664 149.408H179.567V153.506H183.664V149.408Z" fill="white"/>
<path opacity="0.2" d="M187.6 149.408H184.016V153.506H187.6V149.408Z" fill="white"/>
<path opacity="0.2" d="M183.664 126.932H179.567V131.261H183.664V126.932Z" fill="white"/>
<path opacity="0.2" d="M174.766 153.864H170.669V158.194H174.766V153.864Z" fill="white"/>
<path opacity="0.2" d="M179.215 153.864H175.118V158.194H179.215V153.864Z" fill="white"/>
<path opacity="0.2" d="M187.6 140.51H184.016V144.607H187.6V140.51Z" fill="white"/>
<path opacity="0.2" d="M183.664 153.864H179.567V158.194H183.664V153.864Z" fill="white"/>
<path opacity="0.2" d="M187.6 144.959H184.016V149.056H187.6V144.959Z" fill="white"/>
<path opacity="0.2" d="M161.413 153.864H157.835V156.676C157.837 157.083 158 157.472 158.288 157.759C158.577 158.047 158.967 158.208 159.374 158.208H161.413V153.864Z" fill="white"/>
<path opacity="0.2" d="M184.016 153.864V158.186H186.061C186.468 158.186 186.858 158.025 187.147 157.738C187.435 157.451 187.598 157.061 187.6 156.654V153.843L184.016 153.864Z" fill="white"/>
<path opacity="0.2" d="M161.413 131.261V126.932H159.374C158.966 126.932 158.575 127.094 158.286 127.382C157.997 127.671 157.835 128.063 157.835 128.471V131.282L161.413 131.261Z" fill="white"/>
<path opacity="0.2" d="M187.6 136.062H184.016V140.159H187.6V136.062Z" fill="white"/>
<path opacity="0.2" d="M187.6 131.612H184.016V135.71H187.6V131.612Z" fill="white"/>
<path opacity="0.2" d="M165.861 140.51H161.764V144.607H165.861V140.51Z" fill="white"/>
<path opacity="0.2" d="M165.861 149.408H161.764V153.506H165.861V149.408Z" fill="white"/>
<path opacity="0.2" d="M170.317 126.932H166.22V131.261H170.317V126.932Z" fill="white"/>
<path opacity="0.2" d="M165.861 144.959H161.764V149.056H165.861V144.959Z" fill="white"/>
<path opacity="0.2" d="M170.317 136.062H166.22V140.159H170.317V136.062Z" fill="white"/>
<path opacity="0.2" d="M170.317 131.612H166.22V135.71H170.317V131.612Z" fill="white"/>
<path opacity="0.2" d="M170.317 153.864H166.22V158.194H170.317V153.864Z" fill="white"/>
<path opacity="0.2" d="M165.861 153.864H161.764V158.194H165.861V153.864Z" fill="white"/>
<path opacity="0.2" d="M165.861 126.932H161.764V131.261H165.861V126.932Z" fill="white"/>
<path opacity="0.2" d="M170.317 140.51H166.22V144.607H170.317V140.51Z" fill="white"/>
<path opacity="0.2" d="M165.861 136.062H161.764V140.159H165.861V136.062Z" fill="white"/>
<path opacity="0.2" d="M165.861 131.612H161.764V135.71H165.861V131.612Z" fill="white"/>
<path d="M179.995 137.846C179.934 137.526 179.847 137.211 179.735 136.904C179.296 135.653 178.529 134.541 177.515 133.685C176.501 132.829 175.277 132.26 173.969 132.037C172.661 131.814 171.317 131.945 170.077 132.417C168.837 132.888 167.745 133.683 166.916 134.719C166.522 135.206 166.194 135.742 165.939 136.314C165.504 137.275 165.278 138.317 165.278 139.371V145.753C165.277 146.362 165.353 146.969 165.503 147.559C165.612 148.011 165.77 148.449 165.974 148.867C166.151 149.257 166.363 149.631 166.606 149.984C166.796 150.237 166.986 150.476 167.19 150.687C167.44 150.964 167.71 151.223 167.998 151.46C168.234 151.652 168.48 151.831 168.736 151.994C169.179 152.276 169.65 152.512 170.142 152.697C170.381 152.781 170.62 152.859 170.845 152.922C171.153 152.998 171.465 153.057 171.779 153.098C172.012 153.128 172.247 153.144 172.482 153.147H172.672C173.055 153.147 173.438 153.119 173.818 153.063C174.056 153.02 174.295 152.971 174.52 152.915C175.384 152.689 176.201 152.311 176.931 151.797C177.196 151.614 177.447 151.412 177.683 151.193C178.329 150.602 178.867 149.903 179.272 149.127C179.483 148.727 179.654 148.308 179.785 147.876C179.98 147.245 180.087 146.589 180.101 145.929C180.101 145.929 180.101 145.781 180.101 145.711V139.329C180.116 138.833 180.081 138.336 179.995 137.846ZM178.33 149.478C177.931 150.081 177.438 150.615 176.868 151.06C176.661 151.224 176.442 151.375 176.214 151.509C175.612 151.88 174.955 152.153 174.267 152.318C174.042 152.367 173.81 152.409 173.564 152.437C173.282 152.474 172.998 152.492 172.714 152.493H172.398C172.152 152.493 171.92 152.493 171.695 152.423C171.401 152.376 171.11 152.31 170.823 152.226C170.577 152.156 170.338 152.065 170.121 151.973C169.623 151.76 169.152 151.491 168.715 151.172C168.479 150.995 168.256 150.803 168.047 150.596C167.791 150.354 167.556 150.09 167.344 149.808C167.141 149.539 166.957 149.255 166.796 148.958C166.554 148.513 166.365 148.041 166.234 147.552C166.07 146.964 165.987 146.357 165.988 145.746V139.364C165.99 137.883 166.484 136.444 167.394 135.274C167.999 134.483 168.772 133.835 169.657 133.376C170.609 132.879 171.668 132.621 172.742 132.624C174.272 132.625 175.757 133.145 176.952 134.101C178.148 135.056 178.983 136.389 179.321 137.881C179.428 138.364 179.483 138.856 179.482 139.35V145.788C179.476 146.203 179.434 146.617 179.356 147.025C179.246 147.572 179.069 148.103 178.829 148.607C178.686 148.91 178.519 149.202 178.33 149.478Z" fill="white"/>
<path d="M173.564 143.322C172.812 145.704 171.835 148.839 172.398 152.459C172.433 152.691 172.475 152.923 172.524 153.162C172.289 153.159 172.055 153.142 171.821 153.112C171.772 152.866 171.73 152.627 171.702 152.41C171.168 148.684 172.159 145.515 172.911 143.104C173.712 140.546 174.042 139.295 172.833 138.782C172.644 138.702 172.436 138.675 172.233 138.702C172.029 138.729 171.836 138.81 171.674 138.936C169.755 140.208 168.04 145.697 167.358 149.795C167.302 150.118 167.253 150.428 167.211 150.723C167.007 150.491 166.817 150.252 166.627 150.02C166.677 149.683 166.74 149.317 166.81 148.973C167.583 144.91 169.235 139.744 171.287 138.388C171.546 138.198 171.85 138.078 172.169 138.04C172.488 138.001 172.811 138.046 173.108 138.17C174.928 138.936 174.33 140.869 173.564 143.322Z" fill="white"/>
<path d="M172.342 143.153C171.639 145.409 170.606 148.712 170.809 152.227C170.809 152.473 170.809 152.719 170.866 152.972C170.62 152.908 170.381 152.831 170.163 152.747C170.163 152.487 170.128 152.234 170.121 151.974C169.98 148.459 170.999 145.184 171.702 142.942C171.974 142.202 172.172 141.437 172.292 140.658C171.442 141.417 168.778 147.602 168.729 151.2C168.715 151.491 168.727 151.783 168.764 152.072C168.508 151.908 168.262 151.73 168.026 151.538C168.026 151.25 168.026 150.94 168.061 150.624C168.356 146.899 170.598 141.283 171.821 140.173C171.911 140.066 172.03 139.988 172.164 139.95C172.298 139.911 172.441 139.913 172.573 139.955C173.269 140.201 172.939 141.248 172.342 143.153Z" fill="white"/>
<path d="M174.267 152.29C174.353 152.511 174.452 152.727 174.562 152.937C174.338 152.993 174.099 153.042 173.86 153.084C173.747 152.856 173.648 152.622 173.564 152.381C172.988 150.877 172.686 148.593 173.733 145.472C175.778 139.386 175.42 137.938 173.902 137.137C173.514 136.91 173.076 136.783 172.626 136.768C172.177 136.754 171.731 136.851 171.329 137.053C169.221 138.093 167.401 141.853 166.227 147.504C166.135 147.932 166.051 148.368 165.974 148.818C165.77 148.4 165.612 147.962 165.503 147.511C165.651 146.808 165.812 146.105 165.981 145.402C167.204 140.567 168.954 137.425 171.02 136.406C171.52 136.149 172.076 136.023 172.637 136.037C173.198 136.052 173.747 136.208 174.232 136.49C176.341 137.615 176.39 139.758 174.401 145.669C173.382 148.706 173.698 150.87 174.26 152.241L174.267 152.29Z" fill="white"/>
<path d="M177.739 151.243C177.503 151.461 177.252 151.663 176.987 151.847L176.699 151.756C176.53 151.695 176.369 151.612 176.221 151.51C175.427 150.985 174.87 150.17 174.668 149.239C174.303 147.925 174.9 146.028 175.539 144.024C176.179 142.021 176.84 139.927 176.523 138.402C176.438 137.854 176.227 137.333 175.906 136.881C175.585 136.428 175.164 136.056 174.675 135.794C173.445 135.183 171.807 135.288 170.071 136.096C168.335 136.905 166.845 139.491 165.988 141.494C165.686 142.197 165.447 142.844 165.285 143.315V141.34C165.489 140.862 165.721 140.342 165.988 139.822C166.895 138.043 168.167 136.209 169.769 135.464C171.709 134.557 173.565 134.452 174.991 135.169C175.576 135.477 176.081 135.916 176.467 136.453C176.852 136.99 177.107 137.609 177.212 138.261C177.564 139.948 176.875 142.12 176.207 144.221C175.603 146.126 175.033 147.918 175.343 149.036C175.428 149.465 175.61 149.87 175.875 150.219C176.141 150.567 176.483 150.85 176.875 151.046L176.952 151.081C177.202 151.185 177.469 151.24 177.739 151.243Z" fill="white"/>
<path d="M179.848 147.925C179.718 148.357 179.546 148.776 179.335 149.176C179.026 149.337 178.69 149.44 178.344 149.478H178.147H177.971C177.585 149.447 177.218 149.294 176.924 149.042C176.63 148.789 176.423 148.45 176.334 148.072C176.024 147.025 176.53 145.057 177.036 142.977C177.437 141.66 177.7 140.306 177.824 138.936C177.824 136.771 177.261 134.452 173.108 133.714C170.999 133.334 167.963 134.683 166.185 137.565C165.833 138.127 166.29 135.97 165.904 136.286C166.157 135.71 166.55 135.738 166.937 135.253C167.717 134.747 169.889 132.603 173.227 133.018C178.013 133.608 178.526 136.799 178.526 138.936C178.409 140.367 178.136 141.781 177.711 143.153C177.247 144.959 176.727 147.011 177.008 147.876C177.06 148.114 177.185 148.329 177.367 148.491C177.549 148.653 177.778 148.752 178.02 148.775C178.288 148.792 178.556 148.744 178.801 148.635C179.195 148.473 179.551 148.231 179.848 147.925Z" fill="white"/>
<path d="M180.157 144.101V145.753C180.157 145.823 180.157 145.901 180.157 145.971C180.157 146.041 180.157 145.971 180.157 145.971C179.968 146.385 179.687 146.751 179.335 147.039C179.092 147.215 178.798 147.309 178.498 147.306H178.294C178.188 147.293 178.086 147.254 177.999 147.191C177.912 147.128 177.842 147.045 177.795 146.948C177.479 146.365 177.873 145.184 178.133 144.53C179.046 142.444 179.446 140.168 179.3 137.895C179.3 137.495 179.342 137.249 179.342 137.235C179.351 137.143 179.394 137.058 179.463 136.996C179.532 136.935 179.622 136.902 179.714 136.904C179.826 137.211 179.913 137.526 179.974 137.846C179.974 138.366 179.89 138.886 179.841 139.407C179.742 140.405 179.623 141.403 179.433 142.394C179.384 142.661 179.609 142.555 179.553 142.822C179.381 143.351 179.174 143.867 178.934 144.369C178.765 144.755 178.576 145.135 178.442 145.535C178.358 145.774 178.048 146.899 178.681 146.653C178.918 146.53 179.116 146.342 179.25 146.112C179.314 146.013 179.377 145.915 179.433 145.809C179.638 145.428 179.812 145.031 179.953 144.622C180.037 144.453 180.101 144.277 180.157 144.101Z" fill="white"/>
<path d="M128.337 24.8877V42.8099C128.337 43.0709 128.234 43.3212 128.049 43.5057C127.864 43.6902 127.614 43.7939 127.353 43.7939H109.129C109.067 43.6581 108.968 43.5423 108.844 43.4592C108.72 43.376 108.575 43.3289 108.426 43.323C108.277 43.3157 108.129 43.349 107.998 43.4192C107.867 43.4893 107.757 43.5938 107.681 43.7215C107.604 43.8492 107.564 43.9953 107.563 44.1441C107.563 44.293 107.604 44.4391 107.68 44.5668C107.757 44.6945 107.866 44.7991 107.998 44.8693C108.129 44.9396 108.277 44.9729 108.426 44.9657C108.574 44.9585 108.718 44.9111 108.842 44.8285C108.966 44.7459 109.065 44.6312 109.129 44.4967H127.353C127.8 44.4949 128.228 44.3166 128.544 44.0006C128.86 43.6847 129.038 43.2567 129.04 42.8099V24.8877H128.337Z" fill="#003087"/>
<path opacity="0.4" d="M128.337 24.8877V42.8099C128.337 43.0709 128.234 43.3212 128.049 43.5057C127.864 43.6902 127.614 43.7939 127.353 43.7939H109.129C109.067 43.6581 108.968 43.5423 108.844 43.4592C108.72 43.376 108.575 43.3289 108.426 43.323C108.277 43.3157 108.129 43.349 107.998 43.4192C107.867 43.4893 107.757 43.5938 107.681 43.7215C107.604 43.8492 107.564 43.9953 107.563 44.1441C107.563 44.293 107.604 44.4391 107.68 44.5668C107.757 44.6945 107.866 44.7991 107.998 44.8693C108.129 44.9396 108.277 44.9729 108.426 44.9657C108.574 44.9585 108.718 44.9111 108.842 44.8285C108.966 44.7459 109.065 44.6312 109.129 44.4967H127.353C127.8 44.4949 128.228 44.3166 128.544 44.0006C128.86 43.6847 129.038 43.2567 129.04 42.8099V24.8877H128.337Z" fill="white"/>
<path d="M144.664 28.5772V1.89062C144.664 0.846462 143.818 0 142.773 0L114.597 0C113.553 0 112.706 0.846462 112.706 1.89062V28.5772C112.706 29.6214 113.553 30.4678 114.597 30.4678L142.773 30.4678C143.818 30.4678 144.664 29.6214 144.664 28.5772Z" fill="#003087"/>
<path opacity="0.4" d="M144.664 28.5772V1.89062C144.664 0.846462 143.818 0 142.773 0L114.597 0C113.553 0 112.706 0.846462 112.706 1.89062V28.5772C112.706 29.6214 113.553 30.4678 114.597 30.4678L142.773 30.4678C143.818 30.4678 144.664 29.6214 144.664 28.5772Z" fill="white"/>
<path opacity="0.2" d="M126.285 13.1855H122.188V17.2831H126.285V13.1855Z" fill="white"/>
<path opacity="0.2" d="M139.632 17.6338H135.534V21.7313H139.632V17.6338Z" fill="white"/>
<path opacity="0.2" d="M121.836 8.72949H117.739V12.827H121.836V8.72949Z" fill="white"/>
<path opacity="0.2" d="M135.183 17.6338H131.085V21.7313H135.183V17.6338Z" fill="white"/>
<path opacity="0.2" d="M130.734 17.6338H126.636V21.7313H130.734V17.6338Z" fill="white"/>
<path opacity="0.2" d="M135.183 13.1855H131.085V17.2831H135.183V13.1855Z" fill="white"/>
<path opacity="0.2" d="M144.32 13.1855H139.99V17.2831H144.32V13.1855Z" fill="white"/>
<path opacity="0.2" d="M126.285 8.72949H122.188V12.827H126.285V8.72949Z" fill="white"/>
<path opacity="0.2" d="M139.632 13.1855H135.534V17.2831H139.632V13.1855Z" fill="white"/>
<path opacity="0.2" d="M121.836 13.1855H117.739V17.2831H121.836V13.1855Z" fill="white"/>
<path opacity="0.2" d="M121.836 17.6338H117.739V21.7313H121.836V17.6338Z" fill="white"/>
<path opacity="0.2" d="M130.734 13.1855H126.636V17.2831H130.734V13.1855Z" fill="white"/>
<path opacity="0.2" d="M144.32 17.6338H139.99V21.7313H144.32V17.6338Z" fill="white"/>
<path opacity="0.2" d="M126.285 0.351562H122.188V3.93601H126.285V0.351562Z" fill="white"/>
<path opacity="0.2" d="M139.632 0.351562H135.534V3.93601H139.632V0.351562Z" fill="white"/>
<path opacity="0.2" d="M130.734 0.351562H126.636V3.93601H130.734V0.351562Z" fill="white"/>
<path opacity="0.2" d="M135.183 0.351562H131.085V3.93601H135.183V0.351562Z" fill="white"/>
<path opacity="0.2" d="M126.285 17.6338H122.188V21.7313H126.285V17.6338Z" fill="white"/>
<path opacity="0.2" d="M139.99 26.5322V30.1167H142.802C143.209 30.1148 143.598 29.9518 143.885 29.6634C144.173 29.3749 144.334 28.9845 144.334 28.5775V26.5322H139.99Z" fill="white"/>
<path opacity="0.2" d="M139.632 22.083H135.534V26.1805H139.632V22.083Z" fill="white"/>
<path opacity="0.2" d="M121.836 0.351562H117.739V3.93601H121.836V0.351562Z" fill="white"/>
<path opacity="0.2" d="M135.183 22.083H131.085V26.1805H135.183V22.083Z" fill="white"/>
<path opacity="0.2" d="M130.734 22.083H126.636V26.1805H130.734V22.083Z" fill="white"/>
<path opacity="0.2" d="M126.285 22.083H122.188V26.1805H126.285V22.083Z" fill="white"/>
<path opacity="0.2" d="M121.836 22.083H117.739V26.1805H121.836V22.083Z" fill="white"/>
<path opacity="0.2" d="M121.836 26.5322H117.739V30.1167H121.836V26.5322Z" fill="white"/>
<path opacity="0.2" d="M144.32 22.083H139.99V26.1805H144.32V22.083Z" fill="white"/>
<path opacity="0.2" d="M117.387 13.1855H113.058V17.2831H117.387V13.1855Z" fill="white"/>
<path opacity="0.2" d="M117.387 17.6338H113.058V21.7313H117.387V17.6338Z" fill="white"/>
<path opacity="0.2" d="M130.734 26.5322H126.636V30.1167H130.734V26.5322Z" fill="white"/>
<path opacity="0.2" d="M117.387 22.083H113.058V26.1805H117.387V22.083Z" fill="white"/>
<path opacity="0.2" d="M126.285 26.5322H122.188V30.1167H126.285V26.5322Z" fill="white"/>
<path opacity="0.2" d="M117.387 3.92899V0.351562H114.576C114.176 0.362513 113.796 0.528541 113.517 0.814507C113.238 1.10047 113.08 1.48394 113.079 1.88374V3.92899H117.387Z" fill="white"/>
<path opacity="0.2" d="M117.387 26.5322H113.079V28.5915C113.079 28.9998 113.241 29.3913 113.53 29.6799C113.818 29.9686 114.21 30.1307 114.618 30.1307H117.429L117.387 26.5322Z" fill="white"/>
<path opacity="0.2" d="M139.99 3.92899H144.313V1.88374C144.311 1.47795 144.149 1.08931 143.862 0.802367C143.575 0.515428 143.186 0.353411 142.781 0.351562H139.969L139.99 3.92899Z" fill="white"/>
<path opacity="0.2" d="M135.183 26.5322H131.085V30.1167H135.183V26.5322Z" fill="white"/>
<path opacity="0.2" d="M139.632 26.5322H135.534V30.1167H139.632V26.5322Z" fill="white"/>
<path opacity="0.2" d="M130.734 4.28027H126.636V8.37779H130.734V4.28027Z" fill="white"/>
<path opacity="0.2" d="M121.836 4.28027H117.739V8.37779H121.836V4.28027Z" fill="white"/>
<path opacity="0.2" d="M144.32 8.72949H139.99V12.827H144.32V8.72949Z" fill="white"/>
<path opacity="0.2" d="M126.285 4.28027H122.188V8.37779H126.285V4.28027Z" fill="white"/>
<path opacity="0.2" d="M135.183 8.72949H131.085V12.827H135.183V8.72949Z" fill="white"/>
<path opacity="0.2" d="M139.632 8.72949H135.534V12.827H139.632V8.72949Z" fill="white"/>
<path opacity="0.2" d="M117.387 8.72949H113.058V12.827H117.387V8.72949Z" fill="white"/>
<path opacity="0.2" d="M117.387 4.28027H113.058V8.37779H117.387V4.28027Z" fill="white"/>
<path opacity="0.2" d="M144.32 4.28027H139.99V8.37779H144.32V4.28027Z" fill="white"/>
<path opacity="0.2" d="M130.734 8.72949H126.636V12.827H130.734V8.72949Z" fill="white"/>
<path opacity="0.2" d="M135.183 4.28027H131.085V8.37779H135.183V4.28027Z" fill="white"/>
<path opacity="0.2" d="M139.632 4.28027H135.534V8.37779H139.632V4.28027Z" fill="white"/>
<path d="M119.404 15.1034C119.404 15.1034 123.551 20.0233 128.675 20.0233C133.798 20.0233 137.938 15.1034 137.938 15.1034C137.938 15.1034 133.791 10.1836 128.675 10.1836C123.558 10.1836 119.404 15.1034 119.404 15.1034Z" stroke="white" stroke-linecap="round" stroke-linejoin="round"/>
<path d="M131.915 14.4008C131.916 15.0408 131.727 15.6669 131.373 16.1996C131.018 16.7324 130.513 17.1479 129.922 17.3934C129.331 17.639 128.68 17.7036 128.053 17.5791C127.425 17.4546 126.848 17.1465 126.395 16.6939C125.943 16.2414 125.635 15.6647 125.51 15.0369C125.386 14.4091 125.45 13.7584 125.696 13.1674C125.942 12.5763 126.357 12.0715 126.89 11.7167C127.422 11.362 128.049 11.1734 128.689 11.1748C129.544 11.1748 130.365 11.5147 130.97 12.1197C131.575 12.7247 131.915 13.5452 131.915 14.4008V14.4008Z" stroke="white" stroke-miterlimit="10"/>
<path d="M129.047 12.981C129.046 12.7736 129.106 12.5704 129.22 12.3973C129.334 12.2242 129.497 12.0888 129.689 12.0085C129.88 11.9282 130.091 11.9064 130.294 11.946C130.498 11.9856 130.685 12.0848 130.832 12.231C130.98 12.3772 131.08 12.5637 131.121 12.7671C131.162 12.9704 131.142 13.1813 131.063 13.3731C130.983 13.5649 130.849 13.7288 130.677 13.8442C130.505 13.9596 130.302 14.0212 130.094 14.0212C129.818 14.0212 129.553 13.9118 129.356 13.717C129.16 13.5221 129.049 13.2575 129.047 12.981Z" stroke="white" stroke-miterlimit="10"/>
<path d="M128.689 10.1773V6.87402" stroke="white" stroke-linecap="round" stroke-linejoin="round"/>
<path d="M131.563 10.4163L132.744 7.73145" stroke="white" stroke-linecap="round" stroke-linejoin="round"/>
<path d="M134.325 11.6386L135.977 9.67773" stroke="white" stroke-linecap="round" stroke-linejoin="round"/>
<path d="M136.539 13.1501L138.135 12.0889" stroke="white" stroke-linecap="round" stroke-linejoin="round"/>
<path d="M125.807 10.4163L124.626 7.73145" stroke="white" stroke-linecap="round" stroke-linejoin="round"/>
<path d="M123.045 11.6386L121.393 9.67773" stroke="white" stroke-linecap="round" stroke-linejoin="round"/>
<path d="M120.831 13.1501L119.236 12.0889" stroke="white" stroke-linecap="round" stroke-linejoin="round"/>
<path d="M80.9172 44.9043C80.7695 44.9089 80.6258 44.954 80.5019 45.0345C80.378 45.115 80.2786 45.228 80.2144 45.3612H61.526C61.0792 45.363 60.6513 45.5413 60.3353 45.8573C60.0194 46.1732 59.8411 46.6012 59.8392 47.048V66.2283C59.8392 66.4892 59.7356 66.7395 59.551 66.924C59.3665 67.1086 59.1162 67.2122 58.8553 67.2122H51.349V67.9151H58.8553C59.3021 67.9132 59.73 67.7349 60.046 67.419C60.3619 67.103 60.5402 66.6751 60.5421 66.2283V47.048C60.5421 46.787 60.6457 46.5367 60.8303 46.3522C61.0148 46.1677 61.2651 46.064 61.526 46.064H80.1722C80.2329 46.199 80.329 46.3152 80.4503 46.4001C80.5716 46.4851 80.7135 46.5357 80.8612 46.5467C81.0089 46.5576 81.1568 46.5285 81.2893 46.4624C81.4217 46.3963 81.5339 46.2956 81.614 46.1711C81.694 46.0465 81.7389 45.9026 81.744 45.7546C81.749 45.6066 81.714 45.46 81.6426 45.3303C81.5713 45.2006 81.4662 45.0925 81.3385 45.0175C81.2108 44.9425 81.0653 44.9034 80.9172 44.9043Z" fill="#003087"/>
<path opacity="0.4" d="M80.9172 44.9043C80.7695 44.9089 80.6258 44.954 80.5019 45.0345C80.378 45.115 80.2786 45.228 80.2144 45.3612H61.526C61.0792 45.363 60.6513 45.5413 60.3353 45.8573C60.0194 46.1732 59.8411 46.6012 59.8392 47.048V66.2283C59.8392 66.4892 59.7356 66.7395 59.551 66.924C59.3665 67.1086 59.1162 67.2122 58.8553 67.2122H51.349V67.9151H58.8553C59.3021 67.9132 59.73 67.7349 60.046 67.419C60.3619 67.103 60.5402 66.6751 60.5421 66.2283V47.048C60.5421 46.787 60.6457 46.5367 60.8303 46.3522C61.0148 46.1677 61.2651 46.064 61.526 46.064H80.1722C80.2329 46.199 80.329 46.3152 80.4503 46.4001C80.5716 46.4851 80.7135 46.5357 80.8612 46.5467C81.0089 46.5576 81.1568 46.5285 81.2893 46.4624C81.4217 46.3963 81.5339 46.2956 81.614 46.1711C81.694 46.0465 81.7389 45.9026 81.744 45.7546C81.749 45.6066 81.714 45.46 81.6426 45.3303C81.5713 45.2006 81.4662 45.0925 81.3385 45.0175C81.2108 44.9425 81.0653 44.9034 80.9172 44.9043Z" fill="white"/>
<path d="M49.4583 51.5811H22.7717C21.7276 51.5811 20.8811 52.4275 20.8811 53.4717V81.6483C20.8811 82.6924 21.7276 83.5389 22.7717 83.5389H49.4583C50.5025 83.5389 51.3489 82.6924 51.3489 81.6483V53.4717C51.3489 52.4275 50.5025 51.5811 49.4583 51.5811Z" fill="#003087"/>
<path opacity="0.4" d="M49.4583 51.5811H22.7717C21.7276 51.5811 20.8811 52.4275 20.8811 53.4717V81.6483C20.8811 82.6924 21.7276 83.5389 22.7717 83.5389H49.4583C50.5025 83.5389 51.3489 82.6924 51.3489 81.6483V53.4717C51.3489 52.4275 50.5025 51.5811 49.4583 51.5811Z" fill="white"/>
<path opacity="0.2" d="M38.1638 69.96H34.0663V74.0575H38.1638V69.96Z" fill="white"/>
<path opacity="0.2" d="M42.6128 56.6133H38.5153V60.7108H42.6128V56.6133Z" fill="white"/>
<path opacity="0.2" d="M33.7077 74.416H29.6102V78.5135H33.7077V74.416Z" fill="white"/>
<path opacity="0.2" d="M42.6128 61.0625H38.5153V65.16H42.6128V61.0625Z" fill="white"/>
<path opacity="0.2" d="M42.6128 65.5117H38.5153V69.6092H42.6128V65.5117Z" fill="white"/>
<path opacity="0.2" d="M38.1638 61.0625H34.0663V65.16H38.1638V61.0625Z" fill="white"/>
<path opacity="0.2" d="M38.1638 51.9326H34.0663V56.2621H38.1638V51.9326Z" fill="white"/>
<path opacity="0.2" d="M33.7077 69.96H29.6102V74.0575H33.7077V69.96Z" fill="white"/>
<path opacity="0.2" d="M38.1638 56.6133H34.0663V60.7108H38.1638V56.6133Z" fill="white"/>
<path opacity="0.2" d="M38.1638 74.416H34.0663V78.5135H38.1638V74.416Z" fill="white"/>
<path opacity="0.2" d="M42.6128 74.416H38.5153V78.5135H42.6128V74.416Z" fill="white"/>
<path opacity="0.2" d="M38.1638 65.5117H34.0663V69.6092H38.1638V65.5117Z" fill="white"/>
<path opacity="0.2" d="M42.6128 51.9326H38.5153V56.2621H42.6128V51.9326Z" fill="white"/>
<path opacity="0.2" d="M24.817 69.96H21.2325V74.0575H24.817V69.96Z" fill="white"/>
<path opacity="0.2" d="M24.817 56.6133H21.2325V60.7108H24.817V56.6133Z" fill="white"/>
<path opacity="0.2" d="M24.817 65.5117H21.2325V69.6092H24.817V65.5117Z" fill="white"/>
<path opacity="0.2" d="M24.817 61.0625H21.2325V65.16H24.817V61.0625Z" fill="white"/>
<path opacity="0.2" d="M42.6128 69.96H38.5153V74.0575H42.6128V69.96Z" fill="white"/>
<path opacity="0.2" d="M47.4131 56.2617H50.9975V53.4503C50.9975 53.0421 50.8354 52.6506 50.5467 52.362C50.2581 52.0733 49.8666 51.9111 49.4583 51.9111H47.4131V56.2617Z" fill="white"/>
<path opacity="0.2" d="M47.0616 56.6133H42.9641V60.7108H47.0616V56.6133Z" fill="white"/>
<path opacity="0.2" d="M24.817 74.416H21.2325V78.5135H24.817V74.416Z" fill="white"/>
<path opacity="0.2" d="M47.0616 61.0625H42.9641V65.16H47.0616V61.0625Z" fill="white"/>
<path opacity="0.2" d="M47.0616 65.5117H42.9641V69.6092H47.0616V65.5117Z" fill="white"/>
<path opacity="0.2" d="M47.0616 69.96H42.9641V74.0575H47.0616V69.96Z" fill="white"/>
<path opacity="0.2" d="M47.0616 74.416H42.9641V78.5135H47.0616V74.416Z" fill="white"/>
<path opacity="0.2" d="M50.9975 74.416H47.4131V78.5135H50.9975V74.416Z" fill="white"/>
<path opacity="0.2" d="M47.0616 51.9326H42.9641V56.2621H47.0616V51.9326Z" fill="white"/>
<path opacity="0.2" d="M38.1638 78.8652H34.0663V83.1947H38.1638V78.8652Z" fill="white"/>
<path opacity="0.2" d="M42.6128 78.8652H38.5153V83.1947H42.6128V78.8652Z" fill="white"/>
<path opacity="0.2" d="M50.9975 65.5117H47.4131V69.6092H50.9975V65.5117Z" fill="white"/>
<path opacity="0.2" d="M47.0616 78.8652H42.9641V83.1947H47.0616V78.8652Z" fill="white"/>
<path opacity="0.2" d="M50.9975 69.96H47.4131V74.0575H50.9975V69.96Z" fill="white"/>
<path opacity="0.2" d="M24.81 78.8652H21.2325V81.6766C21.2344 82.0824 21.3964 82.471 21.6833 82.7579C21.9703 83.0449 22.3589 83.2069 22.7647 83.2087H24.81V78.8652Z" fill="white"/>
<path opacity="0.2" d="M47.4131 78.8648V83.1873H49.4583C49.8653 83.1873 50.2558 83.0261 50.5442 82.7389C50.8327 82.4518 50.9957 82.0621 50.9975 81.6551V78.8438L47.4131 78.8648Z" fill="white"/>
<path opacity="0.2" d="M24.81 56.2621V51.9326H22.7647C22.3577 51.9345 21.968 52.0975 21.6809 52.3859C21.3937 52.6744 21.2325 53.0648 21.2325 53.4718V56.2831L24.81 56.2621Z" fill="white"/>
<path opacity="0.2" d="M50.9975 61.0625H47.4131V65.16H50.9975V61.0625Z" fill="white"/>
<path opacity="0.2" d="M50.9975 56.6133H47.4131V60.7108H50.9975V56.6133Z" fill="white"/>
<path opacity="0.2" d="M29.259 65.5117H25.1615V69.6092H29.259V65.5117Z" fill="white"/>
<path opacity="0.2" d="M29.259 74.416H25.1615V78.5135H29.259V74.416Z" fill="white"/>
<path opacity="0.2" d="M33.7077 51.9326H29.6102V56.2621H33.7077V51.9326Z" fill="white"/>
<path opacity="0.2" d="M29.259 69.96H25.1615V74.0575H29.259V69.96Z" fill="white"/>
<path opacity="0.2" d="M33.7077 61.0625H29.6102V65.16H33.7077V61.0625Z" fill="white"/>
<path opacity="0.2" d="M33.7077 56.6133H29.6102V60.7108H33.7077V56.6133Z" fill="white"/>
<path opacity="0.2" d="M33.7077 78.8652H29.6102V83.1947H33.7077V78.8652Z" fill="white"/>
<path opacity="0.2" d="M29.259 78.8652H25.1615V83.1947H29.259V78.8652Z" fill="white"/>
<path opacity="0.2" d="M29.259 51.9326H25.1615V56.2621H29.259V51.9326Z" fill="white"/>
<path opacity="0.2" d="M33.7077 65.5117H29.6102V69.6092H33.7077V65.5117Z" fill="white"/>
<path opacity="0.2" d="M29.259 61.0625H25.1615V65.16H29.259V61.0625Z" fill="white"/>
<path opacity="0.2" d="M29.259 56.6133H25.1615V60.7108H29.259V56.6133Z" fill="white"/>
<path d="M36.1116 78.1976C34.1394 78.1958 32.2484 77.412 30.8531 76.018C29.4579 74.6241 28.6723 72.7339 28.6686 70.7616V64.3659C28.6686 62.3918 29.4527 60.4987 30.8486 59.1029C32.2444 57.707 34.1376 56.9229 36.1116 56.9229C38.0856 56.9229 39.9788 57.707 41.3746 59.1029C42.7704 60.4987 43.5546 62.3918 43.5546 64.3659V70.7616C43.5509 72.7339 42.7653 74.6241 41.37 76.018C39.9748 77.412 38.0838 78.1958 36.1116 78.1976ZM36.1116 57.6327C34.3258 57.6346 32.6135 58.3443 31.3501 59.6064C30.0867 60.8685 29.3751 62.58 29.3714 64.3659V70.7616C29.3714 72.5492 30.0815 74.2636 31.3456 75.5277C32.6096 76.7917 34.324 77.5018 36.1116 77.5018C37.8992 77.5018 39.6136 76.7917 40.8776 75.5277C42.1416 74.2636 42.8518 72.5492 42.8518 70.7616V64.3659C42.848 62.58 42.1365 60.8685 40.8731 59.6064C39.6096 58.3443 37.8974 57.6346 36.1116 57.6327Z" fill="white"/>
<path d="M39.4711 66.6923C39.9059 66.6923 40.2583 66.214 40.2583 65.624C40.2583 65.034 39.9059 64.5557 39.4711 64.5557C39.0364 64.5557 38.684 65.034 38.684 65.624C38.684 66.214 39.0364 66.6923 39.4711 66.6923Z" fill="white"/>
<path d="M33.5392 65.624C33.5392 66.2073 33.1878 66.6852 32.752 66.6852C32.3163 66.6852 31.9648 66.2073 31.9648 65.624C31.9648 65.0406 32.3163 64.5557 32.752 64.5557C33.1878 64.5557 33.5392 65.0336 33.5392 65.624Z" fill="white"/>
<path d="M36.1538 66.6855L34.6708 70.4879H36.1538V66.6855Z" fill="white"/>
<path d="M35.8445 73.1234C35.1742 73.1587 34.5038 73.0533 33.8766 72.8142L34.1788 72.1816L34.0242 72.4979L34.1788 72.1816C34.1788 72.1816 35.4369 72.7369 38.1217 72.1816L38.2693 72.8845C37.4717 73.0495 36.659 73.1296 35.8445 73.1234Z" fill="white"/>
<path d="M240.278 4.89844H163.704C161.713 4.89844 160.098 6.51269 160.098 8.50397V85.0777C160.098 87.0689 161.713 88.6832 163.704 88.6832H240.278C242.269 88.6832 243.883 87.0689 243.883 85.0777V8.50397C243.883 6.51269 242.269 4.89844 240.278 4.89844Z" fill="#FFD100"/>
<path opacity="0.5" d="M231.612 56.542H172.37C170.573 56.542 169.116 57.9989 169.116 59.7961V70.6338C169.116 72.431 170.573 73.8879 172.37 73.8879H231.612C233.409 73.8879 234.866 72.431 234.866 70.6338V59.7961C234.866 57.9989 233.409 56.542 231.612 56.542Z" fill="white"/>
<path d="M180.867 65.2224L182.786 66.2626L181.957 67.7034L179.982 66.5437L180.017 68.6522H178.365V66.5015L176.425 67.6612L175.631 66.2626L177.55 65.2224L175.631 64.1681L176.475 62.7203L178.414 63.887V61.7363H180.066L180.031 63.887L181.971 62.7203L182.835 64.1681L180.867 65.2224Z" fill="#003087"/>
<path d="M192.26 65.2226L194.179 66.2628L193.321 67.7036L191.381 66.5439V68.6524H189.73V66.5017L187.797 67.6614L186.947 66.2206L188.865 65.1804L186.947 64.1261L187.797 62.6783L189.73 63.845V61.6943H191.381V63.845L193.321 62.6783L194.179 64.1261L192.26 65.2226Z" fill="#003087"/>
<path d="M203.66 65.2226L205.579 66.2628L204.714 67.7036L202.781 66.5439L202.817 68.6524H201.158V66.5017L199.218 67.6614L198.375 66.2206L200.293 65.1804L198.375 64.1261L199.218 62.6783L201.158 63.845V61.6943H202.817L202.781 63.845L204.714 62.6783L205.579 64.1261L203.66 65.2226Z" fill="#003087"/>
<path d="M215.06 65.2226L216.979 66.2628L216.114 67.7036L214.174 66.5439L214.209 68.6524H212.558V66.5017L210.625 67.6614L209.782 66.2206L211.7 65.1804L209.782 64.1261L210.625 62.6783L212.558 63.845V61.6943H214.209L214.174 63.845L216.114 62.6783L216.979 64.1261L215.06 65.2226Z" fill="#003087"/>
<path d="M226.453 65.2224L228.344 66.2626L227.486 67.7034L225.574 66.5437L225.61 68.6522H223.958V66.5015L222.018 67.7034L221.168 66.2626L223.086 65.2224L221.168 64.1681L222.018 62.7203L223.951 63.887V61.7363H225.603L225.567 63.887L227.507 62.7203L228.365 64.1681L226.453 65.2224Z" fill="#003087"/>
<path opacity="0.5" d="M215.271 44.1075C222.607 36.7708 222.607 24.8757 215.271 17.539C207.934 10.2023 196.039 10.2023 188.702 17.539C181.366 24.8757 181.366 36.7708 188.702 44.1075C196.039 51.4441 207.934 51.4441 215.271 44.1075Z" fill="white"/>
<path d="M209.367 29.7715H194.678C194.413 29.7706 194.15 29.8221 193.905 29.9232C193.66 30.0242 193.437 30.1727 193.249 30.3602C193.062 30.5477 192.913 30.7705 192.812 31.0156C192.711 31.2608 192.66 31.5235 192.661 31.7886V40.7357C192.661 41.2707 192.873 41.7837 193.251 42.162C193.63 42.5403 194.143 42.7528 194.678 42.7528H209.367C209.902 42.7528 210.415 42.5403 210.793 42.162C211.172 41.7837 211.384 41.2707 211.384 40.7357V31.7886C211.385 31.5235 211.334 31.2608 211.232 31.0156C211.131 30.7705 210.983 30.5477 210.795 30.3602C210.608 30.1727 210.385 30.0242 210.14 29.9232C209.895 29.8221 209.632 29.7706 209.367 29.7715ZM203.372 39.7306H200.673L201.235 36.0689C200.873 35.8911 200.582 35.596 200.409 35.2317C200.237 34.8674 200.192 34.4553 200.284 34.0625C200.375 33.6698 200.596 33.3195 200.912 33.0687C201.228 32.8179 201.619 32.6814 202.022 32.6814C202.426 32.6814 202.817 32.8179 203.133 33.0687C203.448 33.3195 203.67 33.6698 203.761 34.0625C203.853 34.4553 203.808 34.8674 203.635 35.2317C203.463 35.596 203.171 35.8911 202.81 36.0689L203.372 39.7306Z" fill="#003087"/>
<path d="M197.756 28.3374L197.482 26.9317C197.246 25.7546 197.488 24.532 198.153 23.5329C198.819 22.5338 199.854 21.8401 201.031 21.6043C202.209 21.3685 203.431 21.6099 204.43 22.2756C205.429 22.9412 206.123 23.9764 206.359 25.1536L206.633 26.5241L209.226 26.004L208.945 24.5983C208.777 23.6601 208.423 22.7649 207.904 21.9651C207.385 21.1654 206.712 20.4771 205.924 19.9406C205.136 19.404 204.249 19.03 203.315 18.8405C202.381 18.6509 201.418 18.6495 200.483 18.8365C199.549 19.0234 198.661 19.3949 197.871 19.9292C197.082 20.4635 196.407 21.1499 195.886 21.9482C195.365 22.7466 195.008 23.6407 194.837 24.5785C194.666 25.5163 194.683 26.4788 194.889 27.4097L195.163 28.8153L197.756 28.3374Z" fill="#003087"/>
<path opacity="0.2" d="M212.459 80.1365H191.515C191.269 80.1365 191.033 80.0388 190.859 79.8648C190.685 79.6908 190.587 79.4548 190.587 79.2088C190.589 78.964 190.688 78.7298 190.861 78.5573C191.035 78.3849 191.27 78.2881 191.515 78.2881H212.459C212.704 78.2881 212.939 78.3849 213.113 78.5573C213.287 78.7298 213.385 78.964 213.387 79.2088C213.387 79.4548 213.289 79.6908 213.115 79.8648C212.941 80.0388 212.705 80.1365 212.459 80.1365Z" fill="black"/>
<path d="M143.083 79.7505L150.28 73.6359C150.28 73.6359 156.408 67.1417 157.702 67.0011C158.995 66.8606 161.785 67.4158 162.523 68.3435C163.261 69.2713 157.73 75.3016 156.429 76.4121C155.129 77.5225 152.536 77.3398 152.536 77.3398L145.676 83.9675L143.083 79.7505Z" fill="#EBB376"/>
<path d="M87.5588 243.032H80.6007C80.4879 243.035 80.3792 243.075 80.2915 243.147C80.2038 243.218 80.142 243.316 80.1158 243.426L78.9842 248.528C78.9384 248.748 78.9814 248.977 79.1038 249.165C79.2263 249.354 79.4183 249.486 79.6379 249.533H79.8206C82.0697 249.498 83.7143 249.358 86.5397 249.358C88.2827 249.358 93.5329 249.54 95.9366 249.54C98.3403 249.54 98.6565 247.165 97.6726 246.947C93.2588 245.984 89.9414 244.656 88.5357 243.383C88.2669 243.146 87.9174 243.02 87.5588 243.032Z" fill="#263238"/>
<path d="M117.064 242.857H110.106C109.992 242.857 109.882 242.897 109.794 242.968C109.706 243.04 109.645 243.139 109.621 243.25L108.489 248.346C108.443 248.566 108.486 248.795 108.609 248.983C108.731 249.171 108.923 249.303 109.143 249.351H109.325C111.582 249.316 113.219 249.175 116.045 249.175C117.788 249.175 123.038 249.358 125.441 249.358C127.845 249.358 128.161 246.982 127.177 246.764C122.764 245.801 119.446 244.473 118.041 243.201C117.771 242.966 117.421 242.843 117.064 242.857Z" fill="#263238"/>
<path d="M83.8689 114.069H114.266C117.155 129.848 125.42 193.721 118.933 243.482L108.784 244.592C108.784 244.592 110.373 168.124 101.292 143.701C100.245 156.773 99.0009 170.676 97.9256 178.076C95.283 196.294 89.3229 243.756 89.3229 243.756L79.0334 244.037C79.0334 244.037 81.2895 197.995 82.2735 180.079C83.3629 160.66 83.8268 118.054 83.8689 114.069Z" fill="#003087"/>
<path opacity="0.2" d="M101.292 143.701C102.788 147.983 103.923 152.381 104.687 156.851C105.537 145.219 102.136 132.885 102.136 132.885L101.292 143.701Z" fill="black"/>
<path d="M111.49 61.4766C116.291 62.0599 125.744 83.8829 129.356 85.8297C132.969 87.7766 147.293 75.5403 147.293 75.5403L150.905 79.9892C150.905 79.9892 134.642 97.3703 128.246 95.4515C121.85 93.5328 112.783 77.1005 110.035 71.9558C107.287 66.8111 111.49 61.4766 111.49 61.4766Z" fill="#003087"/>
<path opacity="0.2" d="M150.905 79.9894C150.905 79.9894 134.642 97.3634 128.246 95.4517C125.435 94.6013 122.159 90.9958 119.109 86.7788C115.784 82.0318 112.756 77.0838 110.043 71.963C109.45 70.7902 109.128 69.4992 109.101 68.1853C109.075 66.8715 109.343 65.5684 109.888 64.3724C110.298 63.3512 110.839 62.3873 111.497 61.5049C116.298 62.0882 125.751 83.9182 129.363 85.8651C132.976 87.8119 147.3 75.5756 147.3 75.5756L150.905 79.9894Z" fill="black"/>
<path opacity="0.2" d="M119.102 86.7432C115.777 81.9963 112.749 77.0483 110.035 71.9275C109.443 70.7547 109.121 69.4636 109.094 68.1498C109.068 66.836 109.336 65.5329 109.881 64.3369C112.615 67.7035 118.174 75.7861 119.102 86.7432Z" fill="black"/>
<path d="M111.49 61.4763C111.49 61.4763 92.1554 60.5627 77.7544 64.1963C77.7544 64.1963 83.1522 106.022 82.9132 124.239L117.352 122.384C117.352 122.384 116.516 80.2701 111.49 61.4763Z" fill="#003087"/>
<path opacity="0.4" d="M82.9131 124.239C83.0256 115.77 81.9151 102.198 80.6992 90.0955C80.2353 85.4779 79.7574 81.0711 79.2935 77.2477C78.415 69.5517 77.7262 64.2031 77.7262 64.2031C92.1273 60.5695 111.462 61.4832 111.462 61.4832C116.487 80.2769 117.359 122.391 117.359 122.391L82.9131 124.239Z" fill="black"/>
<path opacity="0.2" d="M80.6992 90.0887C80.2354 85.4711 79.7574 81.0643 79.2936 77.2409L81.5075 75.54C81.5075 75.54 83.4614 83.1588 80.6992 90.0887Z" fill="black"/>
<path opacity="0.05" d="M111.237 106.605L109.347 106.697L104.216 106.936L101.067 107.083L94.5099 107.392C94.5099 107.392 94.5099 107.069 94.4748 106.479C94.4185 105.207 94.3061 102.69 94.1163 99.5206C93.9828 97.1591 93.8 94.4321 93.5751 91.5786C93.4135 89.6107 93.2378 87.5865 93.0339 85.5834C92.7317 82.6104 92.3803 79.6726 91.9657 77.0299C91.7478 75.6243 91.5088 74.2819 91.2628 73.073L107.576 72.0117C107.576 72.0117 107.786 73.0449 108.103 74.8231C108.314 75.9898 108.567 77.4798 108.841 79.2228C110.311 88.279 111.112 97.4312 111.237 106.605Z" fill="white"/>
<path opacity="0.2" d="M104.216 106.95L101.067 107.098C103.309 101.398 104.188 93.3642 102.684 90.8621C100.646 87.4745 98.1436 93.9686 96.3584 101.756C96.0235 103.436 95.3801 105.04 94.4607 106.486C94.4045 105.214 94.2921 102.698 94.1023 99.528C95.1083 97.8583 95.8681 96.0522 96.3584 94.1654C98.8675 85.3589 101.095 83.7846 103.963 86.0969C106.606 88.2124 107.379 98.4738 104.216 106.95Z" fill="white"/>
<path opacity="0.2" d="M109.347 106.711C109.986 99.2394 109.002 86.6517 106.809 82.7791C104.3 78.3372 98.762 78.2388 96.0983 86.2933C95.5136 88.1729 94.664 89.9597 93.5751 91.5996C93.4135 89.6317 93.2378 87.6076 93.0339 85.6045C93.7835 84.6662 94.4535 83.6671 95.037 82.6174C98.0733 77.2408 102.768 74.7387 107.407 77.8663C107.949 78.2551 108.424 78.7299 108.813 79.272C110.29 88.3112 111.101 97.4469 111.237 106.605L109.347 106.711Z" fill="white"/>
<path opacity="0.2" d="M108.096 74.8512C104.448 72.0961 99.5211 72.8411 96.3724 75.4486C95.1698 76.5368 93.5857 77.1052 91.9657 77.0299C91.7478 75.6243 91.5088 74.2819 91.2628 73.073L107.576 72.0117C107.576 72.0117 107.779 73.0449 108.096 74.8512Z" fill="white"/>
<path d="M89.0417 62.7488C91.8179 65.272 98.6214 64.3372 98.6214 64.3372C98.6214 64.3372 102.838 63.1775 101.974 61.8492C99.4718 61.4345 98.2629 60.2678 97.7569 58.7778C97.4787 57.8514 97.3926 56.8781 97.5039 55.9173C97.5434 55.3818 97.6138 54.8492 97.7147 54.3218L89.2807 48.0947C90.4123 52.2063 91.7617 59.7688 89.0417 62.7488Z" fill="#EBB376"/>
<path opacity="0.2" d="M91.2488 52.0518C91.5861 57.0981 95.7329 58.4897 97.764 58.7779C97.4859 57.8515 97.3998 56.8781 97.511 55.9173L91.2488 52.0518Z" fill="black"/>
<path d="M103.541 35.0215C103.541 35.0215 105.889 42.6121 102.213 46.2176C98.5372 49.8232 96.3724 35.3659 96.3724 35.3659L103.541 35.0215Z" fill="#263238"/>
<path d="M91.1713 54.1815C92.2265 55.3318 93.6303 56.1034 95.1669 56.3777C96.7035 56.652 98.2877 56.4138 99.6756 55.6996C101.491 54.8134 102.899 53.2671 103.611 51.3772C103.712 51.1147 103.799 50.8473 103.872 50.576C105.186 45.5296 104.574 37.1308 99.0993 34.7692C97.89 34.2434 96.5663 34.0356 95.254 34.1656C93.9417 34.2956 92.6845 34.7592 91.6019 35.5121C90.5193 36.2651 89.6473 37.2824 89.0688 38.4675C88.4903 39.6525 88.2245 40.9658 88.2968 42.2825C88.5146 47.9193 88.3741 51.2507 91.1713 54.1815Z" fill="#EBB376"/>
<path d="M96.8291 44.0538C96.7869 44.5036 97.054 44.8901 97.3562 44.8901C97.6585 44.8901 97.9044 44.5247 97.9185 44.0678C97.9326 43.611 97.6866 43.2314 97.3914 43.2314C97.0962 43.2314 96.8432 43.5688 96.8291 44.0538Z" fill="#263238"/>
<path d="M102.023 44.1377C101.981 44.5876 102.255 44.9741 102.55 44.9741C102.845 44.9741 103.098 44.6086 103.113 44.1518C103.127 43.695 102.881 43.3154 102.585 43.3154C102.29 43.3154 102.037 43.702 102.023 44.1377Z" fill="#263238"/>
<path d="M100.372 44.3271C100.885 45.745 101.595 47.084 102.48 48.3052C102.159 48.5236 101.793 48.6695 101.41 48.7326C101.026 48.7957 100.634 48.7746 100.259 48.6707L100.372 44.3271Z" fill="#D58745"/>
<path d="M95.2478 42.3178C95.297 42.3259 95.3475 42.3211 95.3943 42.3038C95.4412 42.2866 95.4827 42.2575 95.5149 42.2194C95.7175 41.9484 95.9805 41.7284 96.2832 41.5771C96.5858 41.4258 96.9196 41.3473 97.2579 41.3479C97.3296 41.3537 97.4006 41.3313 97.4558 41.2852C97.511 41.2392 97.546 41.1734 97.5531 41.1019C97.556 41.0668 97.5519 41.0314 97.5411 40.9979C97.5303 40.9644 97.5129 40.9334 97.4901 40.9066C97.4672 40.8798 97.4393 40.8578 97.4079 40.8419C97.3765 40.8259 97.3422 40.8164 97.3071 40.8137C96.8794 40.8009 96.4549 40.8912 96.0696 41.0772C95.6842 41.2632 95.3493 41.5392 95.0932 41.882C95.0491 41.9363 95.0281 42.0058 95.0346 42.0754C95.0412 42.1451 95.0749 42.2094 95.1283 42.2545C95.1655 42.2803 95.2056 42.3016 95.2478 42.3178Z" fill="#263238"/>
<path d="M104.293 42.3879C104.344 42.405 104.398 42.405 104.448 42.3879C104.48 42.3741 104.51 42.3541 104.534 42.3289C104.559 42.3038 104.578 42.274 104.591 42.2414C104.604 42.2087 104.611 42.1738 104.61 42.1386C104.61 42.1035 104.602 42.0688 104.589 42.0365C104.417 41.6426 104.153 41.2959 103.819 41.0255C103.485 40.7552 103.091 40.5692 102.67 40.4832C102.6 40.4731 102.529 40.4911 102.472 40.5333C102.416 40.5754 102.378 40.6383 102.368 40.7081C102.359 40.7777 102.378 40.8478 102.42 40.904C102.462 40.9602 102.524 40.9982 102.593 41.0103C102.923 41.0878 103.231 41.2421 103.491 41.4607C103.751 41.6792 103.956 41.9559 104.09 42.2684C104.113 42.3016 104.144 42.3294 104.179 42.35C104.214 42.3706 104.253 42.3835 104.293 42.3879Z" fill="#263238"/>
<path d="M92.577 35.3242L92.9495 37.7982C92.5352 38.0114 92.2163 38.3726 92.0562 38.8102C91.896 39.2477 91.9063 39.7294 92.085 40.1597C92.9425 42.2682 91.846 45.5083 90.2787 46.8437C90.2787 46.8437 90.2014 45.944 89.4424 46.176C88.6833 46.4079 89.0207 51.0958 90.5809 53.3378C88.5984 51.2891 87.1816 48.7608 86.4694 46.0003C85.1691 41.4529 85.3027 38.0793 86.1953 36.2801L92.577 35.3242Z" fill="#263238"/>
<path d="M100.688 50.0485C100.453 50.7013 100.267 51.3709 100.133 52.0516C100.011 52.0586 99.8888 52.0586 99.7671 52.0516C98.1084 51.9813 97.3634 51.3979 97.0401 50.7724C96.8902 50.4639 96.8155 50.1243 96.8222 49.7814C96.8206 49.5866 96.8466 49.3926 96.8995 49.2051C97.9002 49.7092 98.9986 49.9898 100.118 50.0274C100.47 50.0485 100.688 50.0485 100.688 50.0485Z" fill="#263238"/>
<path d="M100.119 50.0137L99.9428 50.6041C98.3825 50.5268 97.2931 50.2667 96.8222 49.7677C96.8206 49.5729 96.8466 49.3789 96.8995 49.1914C97.9002 49.6955 98.9986 49.9761 100.119 50.0137Z" fill="white"/>
<path d="M99.767 52.038C98.1083 51.9677 97.3633 51.3843 97.04 50.7588C97.6709 50.7997 98.2896 50.952 98.8674 51.2086C99.2478 51.3824 99.5629 51.6729 99.767 52.038Z" fill="#DE5753"/>
<path d="M96.2951 36.8634C96.4761 36.6172 96.7367 36.4414 97.0327 36.3658C97.3288 36.2902 97.6418 36.3195 97.9186 36.4487C99.1064 36.7931 100.154 37.9879 101.377 39.506C102.6 41.0242 105.017 41.0312 105.594 40.1316C106.17 39.2319 105.038 37.9739 105.038 37.9739C105.038 37.9739 106.079 32.2036 99.7882 30.8823C93.4978 29.5609 90.1875 32.3442 90.1875 32.3442C90.1875 32.3442 84.9654 32.5199 84.5648 37.3483C84.429 39.3092 84.5471 41.2794 84.9162 43.21C84.9162 43.21 83.5106 44.9741 86.1532 44.8687C89.1543 44.7492 92.7599 43.1186 92.9356 40.2018C93.1113 37.2851 96.2951 36.8634 96.2951 36.8634Z" fill="#263238"/>
<path d="M85.7385 46.8646C86.3399 48.1527 87.4263 49.1507 88.7607 49.6408C90.5318 50.2733 91.572 48.7201 91.1784 46.977C90.827 45.4238 89.4986 43.1817 87.6643 43.3153C85.8299 43.4488 85.0216 45.2621 85.7385 46.8646Z" fill="#EBB376"/>
<path d="M77.7543 64.1963C72.7149 65.6652 65.6725 99.9564 66.6003 104.405C67.528 108.854 85.2254 127.599 85.2254 127.599L90.1452 123.867C90.1452 123.867 75.1046 102.571 74.9218 98.122C74.7391 93.6731 81.5917 77.1776 81.5917 77.1776C81.5917 77.1776 81.409 71.6182 80.664 68.835C80.1411 67.0497 79.134 65.4441 77.7543 64.1963Z" fill="#003087"/>
<path opacity="0.2" d="M77.7543 64.1963C72.7149 65.6652 65.6725 99.9564 66.6003 104.405C67.528 108.854 85.2254 127.599 85.2254 127.599L90.1452 123.867C90.1452 123.867 75.1046 102.571 74.9218 98.122C74.7391 93.6731 81.5917 77.1776 81.5917 77.1776C81.5917 77.1776 81.409 71.6182 80.664 68.835C80.1411 67.0497 79.134 65.4441 77.7543 64.1963Z" fill="black"/>
</svg>
