<svg width="17" height="14" viewBox="0 0 17 14" fill="none" xmlns="http://www.w3.org/2000/svg">
<path d="M15.125 0.75H1.375C1.02982 0.75 0.75 1.02982 0.75 1.375V12.625C0.75 12.9702 1.02982 13.25 1.375 13.25H15.125C15.4702 13.25 15.75 12.9702 15.75 12.625V1.375C15.75 1.02982 15.4702 0.75 15.125 0.75Z" stroke="#7D7D7D" stroke-width="1.5" stroke-linecap="round" stroke-linejoin="round"/>
<path d="M0.75 10.1259L4.68305 6.19282C4.74108 6.13479 4.80998 6.08875 4.88581 6.05734C4.96164 6.02593 5.04291 6.00977 5.12499 6.00977C5.20706 6.00977 5.28834 6.02593 5.36417 6.05734C5.43999 6.08875 5.50889 6.13479 5.56693 6.19282L9.05805 9.68394C9.11608 9.74198 9.18498 9.78801 9.26081 9.81942C9.33664 9.85083 9.41791 9.867 9.49999 9.867C9.58206 9.867 9.66334 9.85083 9.73917 9.81942C9.81499 9.78801 9.88389 9.74198 9.94193 9.68394L11.558 8.06782C11.6161 8.00979 11.685 7.96375 11.7608 7.93234C11.8366 7.90093 11.9179 7.88477 12 7.88477C12.0821 7.88477 12.1633 7.90093 12.2392 7.93234C12.315 7.96375 12.3839 8.00979 12.4419 8.06782L15.75 11.3759" stroke="#7D7D7D" stroke-width="1.5" stroke-linecap="round" stroke-linejoin="round"/>
<path d="M10.4375 5.59375C10.869 5.59375 11.2188 5.24397 11.2188 4.8125C11.2188 4.38103 10.869 4.03125 10.4375 4.03125C10.006 4.03125 9.65625 4.38103 9.65625 4.8125C9.65625 5.24397 10.006 5.59375 10.4375 5.59375Z" fill="#7D7D7D"/>
</svg>
