<svg width="57" height="8" viewBox="0 0 57 8" fill="none" xmlns="http://www.w3.org/2000/svg">
<path d="M3.72653 7.62426C3.01829 7.621 2.37822 7.46324 1.80631 7.15098C1.24119 6.83203 0.798002 6.39921 0.47676 5.85253C0.155549 5.29913 -0.00346564 4.67915 -0.000284831 3.99262C0.00289598 3.30609 0.167633 2.69098 0.493927 2.14729C0.820252 1.59686 1.2708 1.16816 1.84557 0.861194C2.42038 0.547494 3.0619 0.392276 3.77014 0.395541C4.32325 0.39809 4.8287 0.494652 5.2865 0.685225C5.74432 0.869068 6.13428 1.14346 6.45636 1.50841L5.79576 2.14143C5.26548 1.58033 4.60238 1.29794 3.80645 1.29428C3.28033 1.29185 2.80425 1.40745 2.37821 1.64106C1.95218 1.87468 1.61678 2.19958 1.37202 2.61576C1.13404 3.02524 1.01386 3.48575 1.01149 3.99729C1.00912 4.50882 1.12501 4.97378 1.35916 5.39217C1.60008 5.80387 1.93247 6.12848 2.35632 6.36601C2.78018 6.60354 3.25516 6.72352 3.78129 6.72595C4.57047 6.72959 5.23618 6.44996 5.77841 5.88707L6.43312 6.52615C6.10766 6.88812 5.71179 7.16226 5.24551 7.34857C4.78596 7.53491 4.27964 7.62681 3.72653 7.62426Z" fill="white"/>
<path d="M8.68152 3.11388C8.85158 2.80505 9.10224 2.57062 9.4335 2.41061C9.76477 2.25059 10.1665 2.17168 10.6386 2.17385L10.6343 3.11279C10.5804 3.10581 10.5062 3.1021 10.4117 3.10166C9.88562 3.09924 9.47006 3.2555 9.16506 3.57044C8.86684 3.87869 8.71639 4.32223 8.71371 4.90107L8.70136 7.56642L7.73006 7.56195L7.75485 2.21104L8.68568 2.21533L8.68152 3.11388Z" fill="white"/>
<path d="M16.62 4.9577C16.6197 5.03174 16.6125 5.1293 16.5984 5.25039L12.2478 5.23034C12.3063 5.70177 12.5103 6.083 12.8597 6.37404C13.2159 6.65838 13.657 6.80176 14.1831 6.80418C14.8239 6.80714 15.3409 6.59413 15.7341 6.16517L16.2675 6.7936C16.0233 7.07517 15.7188 7.28915 15.3539 7.43555C14.9957 7.58197 14.594 7.65416 14.1489 7.65211C13.5823 7.6495 13.0803 7.53276 12.6429 7.3019C12.2056 7.0643 11.8664 6.73629 11.6255 6.31787C11.3914 5.89948 11.2755 5.42779 11.278 4.90279C11.2804 4.38453 11.3972 3.91727 11.6285 3.50103C11.8665 3.08481 12.1884 2.76321 12.5942 2.53624C13.0067 2.30256 13.4693 2.1869 13.9819 2.18926C14.4946 2.19163 14.9493 2.31151 15.3462 2.54892C15.7498 2.77963 16.062 3.10415 16.2826 3.52248C16.51 3.94084 16.6225 4.41925 16.62 4.9577ZM13.9781 3.00704C13.5127 3.0049 13.1208 3.14444 12.8025 3.42567C12.4909 3.70693 12.3071 4.07628 12.251 4.53371L15.691 4.54957C15.6392 4.09836 15.4554 3.73069 15.1397 3.44654C14.8307 3.15569 14.4435 3.00919 13.9781 3.00704Z" fill="white"/>
<path d="M23.0501 0.141134L23.0154 7.6324L22.0845 7.62811L22.0885 6.78004C21.8712 7.0752 21.597 7.29942 21.2658 7.4527C20.9346 7.60598 20.57 7.68171 20.172 7.67987C19.6526 7.67748 19.1877 7.56091 18.7773 7.33017C18.3669 7.09943 18.0447 6.77823 17.8105 6.36657C17.5831 5.94821 17.4706 5.4698 17.4731 4.93135C17.4756 4.39289 17.5925 3.9189 17.8237 3.50939C18.0617 3.0999 18.3869 2.78169 18.7995 2.55474C19.212 2.32779 19.6779 2.21552 20.1973 2.21791C20.5818 2.21968 20.9355 2.29535 21.2586 2.44492C21.5817 2.58776 21.8506 2.80102 22.0651 3.0847L22.0788 0.136657L23.0501 0.141134ZM20.2569 6.83218C20.5941 6.83373 20.9014 6.75774 21.1787 6.60421C21.456 6.44395 21.6728 6.22283 21.8293 5.94086C21.9858 5.65215 22.0649 5.32271 22.0666 4.95252C22.0683 4.58233 21.9922 4.25553 21.8384 3.97213C21.6846 3.68199 21.4698 3.45889 21.1939 3.30281C20.9181 3.14672 20.6116 3.06791 20.2743 3.06635C19.9303 3.06477 19.6197 3.14074 19.3424 3.29427C19.0719 3.44783 18.855 3.66895 18.6918 3.95763C18.5353 4.2396 18.4562 4.56568 18.4545 4.93587C18.4528 5.30606 18.5289 5.63622 18.6827 5.92635C18.8432 6.20979 19.058 6.4329 19.3271 6.59568C19.6029 6.75176 19.9129 6.83059 20.2569 6.83218Z" fill="white"/>
<path d="M24.8779 2.28997L25.8492 2.29444L25.8245 7.64535L24.8531 7.64087L24.8779 2.28997ZM25.3684 1.26241C25.1795 1.26154 25.0213 1.20023 24.8937 1.07849C24.7728 0.956776 24.7128 0.808421 24.7136 0.633423C24.7144 0.458425 24.7758 0.310629 24.8978 0.190036C25.0265 0.0627438 25.1853 -0.000467112 25.3742 0.000403421C25.5631 0.00127395 25.7179 0.0625651 25.8388 0.184277C25.9664 0.29929 26.0298 0.444295 26.029 0.619293C26.0282 0.801022 25.9634 0.955533 25.8346 1.08283C25.7126 1.20342 25.5572 1.26328 25.3684 1.26241Z" fill="white"/>
<path d="M30.6955 7.35482C30.5533 7.47532 30.3775 7.56874 30.1681 7.63508C29.9587 7.69469 29.7427 7.72399 29.5202 7.72296C28.9805 7.72047 28.563 7.57384 28.2676 7.28305C27.9721 6.99226 27.8256 6.57764 27.8281 6.03918L27.8417 3.10123L26.9312 3.09704L26.9348 2.29945L27.8454 2.30365L27.8509 1.1325L28.8222 1.13698L28.8167 2.30812L30.3546 2.31521L30.3509 3.1128L28.8131 3.10571L28.7996 6.00328C28.7983 6.2927 28.8681 6.51513 29.009 6.67059C29.1567 6.82608 29.3654 6.90445 29.6352 6.90569C29.932 6.90706 30.1854 6.82409 30.3952 6.65679L30.6955 7.35482Z" fill="white"/>
<path d="M37.8937 7.78175C37.1854 7.77849 36.5454 7.62073 35.9735 7.30847C35.4083 6.98952 34.9651 6.5567 34.6439 6.01002C34.3227 5.45661 34.1637 4.83664 34.1669 4.15011C34.17 3.46358 34.3348 2.84847 34.6611 2.30477C34.9874 1.75435 35.4379 1.32565 36.0127 1.01868C36.5875 0.704981 37.229 0.549763 37.9373 0.553028C38.4904 0.555577 38.9958 0.652138 39.4536 0.842712C39.9115 1.02655 40.3014 1.30095 40.6235 1.6659L39.9629 2.29892C39.4326 1.73782 38.7695 1.45543 37.9736 1.45176C37.4475 1.44934 36.9714 1.56493 36.5454 1.79855C36.1193 2.03216 35.7839 2.35706 35.5392 2.77325C35.3012 3.18273 35.181 3.64324 35.1786 4.15477C35.1763 4.66631 35.2922 5.13127 35.5263 5.54966C35.7672 5.96135 36.0996 6.28596 36.5235 6.5235C36.9473 6.76103 37.4223 6.88101 37.9484 6.88343C38.7376 6.88707 39.4033 6.60745 39.9456 6.04455L40.6003 6.68364C40.2748 7.0456 39.8789 7.31974 39.4126 7.50606C38.9531 7.6924 38.4468 7.7843 37.8937 7.78175Z" fill="white"/>
<path d="M43.8058 2.32673C44.5478 2.33015 45.1135 2.51449 45.503 2.87975C45.8993 3.24504 46.0958 3.78778 46.0925 4.50797L46.0775 7.7387L45.1568 7.73446L45.16 7.02773C44.997 7.27602 44.7634 7.46678 44.4593 7.59999C44.1619 7.72651 43.8075 7.78882 43.396 7.78692C42.7957 7.78415 42.3141 7.63722 41.9512 7.34612C41.595 7.05505 41.418 6.67394 41.4202 6.2028C41.4224 5.73165 41.5962 5.35552 41.9415 5.07442C42.2868 4.78658 42.8338 4.64439 43.5826 4.64784L45.1205 4.65493L45.1213 4.46311C45.1233 4.0458 45.0033 3.72553 44.7615 3.5023C44.5197 3.27907 44.1628 3.16637 43.6906 3.16419C43.3736 3.16273 43.0631 3.21514 42.759 3.32144C42.455 3.421 42.1981 3.55779 41.9882 3.73183L41.5868 3.00305C41.8644 2.78221 42.1957 2.61547 42.5807 2.50282C42.9657 2.38344 43.3741 2.32474 43.8058 2.32673ZM43.5613 7.04056C43.9323 7.04227 44.2531 6.96298 44.5237 6.80268C44.7942 6.63566 44.9909 6.40099 45.1138 6.09867L45.1172 5.35156L43.6198 5.34466C42.7969 5.34086 42.3842 5.61492 42.3816 6.16684C42.3803 6.43607 42.4839 6.64857 42.6923 6.80434C42.9007 6.96011 43.1904 7.03885 43.5613 7.04056Z" fill="white"/>
<path d="M48.8264 3.29892C48.9965 2.99009 49.2472 2.75566 49.5784 2.59565C49.9097 2.43563 50.3114 2.35672 50.7835 2.35889L50.7792 3.29783C50.7253 3.29085 50.6511 3.28714 50.5567 3.2867C50.0305 3.28428 49.615 3.44054 49.31 3.75548C49.0118 4.06373 48.8613 4.50727 48.8586 5.08611L48.8463 7.75146L47.875 7.74699L47.8998 2.39608L48.8306 2.40037L48.8264 3.29892Z" fill="white"/>
<path d="M56.9998 0.297619L56.9651 7.78889L56.0343 7.7846L56.0382 6.93653C55.821 7.23168 55.5468 7.4559 55.2156 7.60919C54.8843 7.76247 54.5197 7.83819 54.1218 7.83636C53.6024 7.83396 53.1375 7.7174 52.7271 7.48666C52.3167 7.25592 51.9944 6.93472 51.7602 6.52305C51.5328 6.10469 51.4204 5.62629 51.4229 5.08783C51.4254 4.54937 51.5422 4.07539 51.7735 3.66587C52.0115 3.25639 52.3367 2.93817 52.7492 2.71123C53.1617 2.48428 53.6277 2.372 54.1471 2.3744C54.5315 2.37617 54.8853 2.45184 55.2084 2.60141C55.5315 2.74424 55.8003 2.9575 56.0149 3.24119L56.0285 0.293142L56.9998 0.297619ZM54.2066 6.98866C54.5439 6.99022 54.8511 6.91423 55.1284 6.7607C55.4057 6.60044 55.6226 6.37932 55.779 6.09734C55.9355 5.80864 56.0146 5.47919 56.0163 5.109C56.018 4.73881 55.942 4.41202 55.7882 4.12861C55.6344 3.83848 55.4196 3.61537 55.1437 3.45929C54.8679 3.30321 54.5613 3.22439 54.2241 3.22284C53.8801 3.22125 53.5694 3.29722 53.2922 3.45076C53.0216 3.60432 52.8048 3.82544 52.6415 4.11411C52.4851 4.39608 52.406 4.72217 52.4043 5.09235C52.4026 5.46254 52.4786 5.7927 52.6324 6.08284C52.793 6.36628 53.0078 6.58938 53.2769 6.75216C53.5527 6.90824 53.8626 6.98708 54.2066 6.98866Z" fill="white"/>
</svg>
