<svg width="29" height="43" viewBox="0 0 29 43" fill="none" xmlns="http://www.w3.org/2000/svg">
<path d="M6.33163 34.9325C5.40274 35.1948 4.47387 35.468 3.54498 35.7631C4.79807 33.1185 6.14585 30.5212 7.58836 27.9714V27.9167C8.8888 25.6327 10.2548 23.3815 11.6973 21.185C12.7901 21.0102 13.883 20.8463 14.9758 20.6933C15.238 20.6933 15.1615 20.2561 14.8993 20.2889C13.9485 20.4201 12.9868 20.5512 12.0252 20.7042C13.4021 18.6169 14.8555 16.5624 16.3964 14.5626V14.508C18.1121 12.2349 19.9043 10.0275 21.7731 7.86374C22.6036 6.913 23.456 5.96223 24.3084 5.03335C25.7837 3.43785 27.3136 1.87514 28.8763 0.356142C28.8957 0.336768 28.9111 0.313789 28.9215 0.288475C28.932 0.263162 28.9374 0.236035 28.9374 0.208636C28.9374 0.181238 28.932 0.15411 28.9215 0.128797C28.9111 0.103484 28.8957 0.0804705 28.8763 0.0610968C28.857 0.041723 28.8339 0.0263595 28.8086 0.0158745C28.7833 0.00538949 28.7562 0 28.7288 0C28.7014 0 28.6743 0.00538949 28.6489 0.0158745C28.6236 0.0263595 28.6007 0.041723 28.5813 0.0610968C26.2135 2.37784 23.9368 4.77837 21.7512 7.26268C21.6419 6.29008 21.5545 5.31749 21.478 4.33397C21.467 4.28568 21.4399 4.24256 21.4012 4.21168C21.3625 4.18079 21.3144 4.16399 21.2649 4.16399C21.2154 4.16399 21.1673 4.18079 21.1286 4.21168C21.0899 4.24256 21.0628 4.28568 21.0518 4.33397C21.1392 5.42677 21.2485 6.51958 21.3687 7.61239C19.6057 9.645 17.9118 11.7323 16.2872 13.8742C16.1123 12.9125 15.9593 11.9399 15.8063 10.9673C15.7962 10.9122 15.7646 10.8634 15.7184 10.8317C15.6723 10.7999 15.6155 10.7878 15.5604 10.7979C15.5054 10.8081 15.4566 10.8397 15.4248 10.8858C15.393 10.9319 15.3809 10.9887 15.391 11.0438C15.555 12.1366 15.7408 13.2294 15.9484 14.3222C14.3602 16.4277 12.8411 18.5841 11.3914 20.7916V20.8462C10.0144 22.9444 8.69209 25.0973 7.44629 27.2829C7.15487 26.3504 6.87074 25.4105 6.5939 24.4634C6.5174 24.2121 6.10216 24.3214 6.17865 24.5836C6.49557 25.6765 6.82341 26.7693 7.16218 27.7747C5.66503 30.4411 4.25528 33.1512 2.94391 35.927C2.93807 35.9447 2.93807 35.9639 2.94391 35.9816L2.61608 36.6701C1.69812 38.659 0.834804 40.6588 0.0261242 42.6914C0.0118089 42.7172 0.00314714 42.7457 0.000711527 42.7751C-0.00172409 42.8045 0.00210778 42.834 0.0119838 42.8618C0.0218598 42.8896 0.0375375 42.9149 0.0579734 42.9362C0.0784093 42.9574 0.103139 42.9741 0.13051 42.9851C0.15788 42.996 0.187268 43.001 0.216719 42.9997C0.24617 42.9984 0.27502 42.9908 0.301328 42.9775C0.327635 42.9642 0.350798 42.9455 0.369295 42.9226C0.387793 42.8996 0.401208 42.8729 0.408615 42.8444C1.30472 40.6005 2.26272 38.3931 3.28268 36.222C4.37549 35.8942 5.39183 35.5773 6.45186 35.2822C6.72506 35.2713 6.59391 34.8669 6.33163 34.9325Z" fill="white"/>
</svg>
