<svg width="28" height="22" viewBox="0 0 28 22" fill="none" xmlns="http://www.w3.org/2000/svg">
<g clip-path="url(#clip0_0_5939)">
<path d="M26.3532 0H1.64679C0.737292 0 0 0.740697 0 1.65439V20.023C0 20.9367 0.737292 21.6774 1.64679 21.6774H26.3532C27.2627 21.6774 28 20.9367 28 20.023V1.65439C28 0.740697 27.2627 0 26.3532 0Z" fill="#003087"/>
<path d="M19.4674 11.584H22.0575V12.3463H20.4776V12.8572H22.0575V13.6195H20.4776V14.1316H22.0575V14.8939H19.4674V11.584Z" fill="white"/>
<path d="M15.8174 4.77041L16.01 4.13672L16.2014 4.77041L16.8334 4.96387L16.2014 5.15734L16.01 5.79103L15.8174 5.15734L15.1854 4.96387L15.8174 4.77041Z" fill="white"/>
<path d="M14 6.61914L14.2894 7.5703L15.2351 7.86109L14.2894 8.15073L14 9.10189L13.7117 8.15073L12.7649 7.86109L13.7117 7.5703L14 6.61914Z" fill="white"/>
<path d="M12.9955 2.92496L13.1304 2.48242L13.2654 2.92496L13.707 3.0605L13.2654 3.1972L13.1304 3.63975L12.9955 3.1972L12.5538 3.0605L12.9955 2.92496Z" fill="white"/>
<path d="M12.5538 11.584H13.7278L13.7589 11.6454L14.6907 13.411V11.584H15.5879V14.8939H14.5166L14.4832 14.8337L13.451 12.8839V14.8939H12.5538V11.584Z" fill="white"/>
<path d="M10.6177 14.1664C11.1297 14.1664 11.1562 13.5408 11.1562 13.3925V11.584H12.1341V13.3426C12.1341 13.7887 12.0707 14.9646 10.6177 14.9646C9.16462 14.9646 9.1012 13.7933 9.1012 13.3426V11.584H10.0791V13.3925C10.0791 13.5408 10.1056 14.1664 10.6177 14.1664Z" fill="white"/>
<path d="M8.72984 2.48163H8.74022C8.34183 2.63269 7.98749 2.88166 7.70959 3.2058C7.43169 3.52993 7.2391 3.91887 7.14943 4.33707C7.05976 4.75527 7.07588 5.18938 7.1963 5.59971C7.31672 6.01004 7.53761 6.38349 7.83876 6.68593C8.13992 6.98837 8.51173 7.21015 8.92021 7.33098C9.3287 7.45181 9.76082 7.46784 10.1771 7.37762C10.5933 7.28739 10.9804 7.09378 11.3029 6.81448C11.6255 6.53518 11.8732 6.17912 12.0234 5.77883V5.79041C12.0234 6.44511 11.8302 7.0851 11.4681 7.62944C11.106 8.17378 10.5914 8.59803 9.98926 8.84852C9.38716 9.099 8.72464 9.16448 8.08549 9.03668C7.44635 8.90887 6.85928 8.59351 6.39855 8.13049C5.93782 7.66747 5.62413 7.07758 5.49713 6.43544C5.37013 5.7933 5.43554 5.12774 5.68509 4.52295C5.93464 3.91816 6.35711 3.4013 6.89907 3.03773C7.44104 2.67417 8.07816 2.48024 8.72984 2.48047V2.48163Z" fill="#FFD100"/>
<path d="M4.4399 11.5178C4.65758 11.5146 4.8745 11.5443 5.08339 11.6059V12.3983C5.08339 12.3983 4.83661 12.3682 4.71552 12.3682C3.82639 12.3682 3.47928 12.5617 3.47928 13.2394C3.47928 13.9171 3.82524 14.1118 4.71552 14.1118C4.83084 14.1118 5.08109 14.0805 5.08339 14.0805V14.8729C4.87476 14.9359 4.65774 14.9664 4.4399 14.9633C3.5946 14.9633 2.47021 14.7559 2.47021 13.2394C2.47021 11.7229 3.59229 11.5178 4.4399 11.5178Z" fill="white"/>
<path d="M3.50921 19.2345C3.16032 19.2298 2.81271 19.191 2.47131 19.1186V18.383C2.76792 18.4286 3.06733 18.4533 3.36736 18.4571C4.03161 18.4571 4.08235 18.3413 4.0812 18.2022C4.08004 18.0632 3.92667 17.9995 3.57263 17.9103H3.55994C3.12634 17.8025 2.47131 17.6392 2.47131 16.8537C2.47131 16.3903 2.72387 15.8516 3.92897 15.8516C4.70854 15.8516 5.07296 16.0172 5.08219 16.023V16.7321L4.90805 16.6996C4.68213 16.6608 4.45339 16.641 4.22419 16.6405C3.55879 16.6405 3.49536 16.7205 3.48844 16.8722C3.48844 16.9997 3.57379 17.0391 3.88861 17.1178L4.00393 17.148H4.02238C4.47444 17.2719 5.11563 17.4422 5.11563 18.1571C5.11563 18.8719 4.53557 19.2345 3.50921 19.2345Z" fill="white"/>
<path d="M8.09439 16.6479H6.51449V17.16H8.09439V17.9223H6.51449V18.4332H8.09439V19.1955H5.50427V15.8867H8.09439V16.6479Z" fill="white"/>
<path d="M8.72747 12.8089C8.72747 12.7857 8.71824 12.7648 8.71362 12.7417C8.70901 12.7185 8.70209 12.6791 8.69518 12.649C8.52911 11.9805 8.0563 11.5785 7.31132 11.5078C7.29633 11.5078 7.28133 11.5078 7.26634 11.5078C7.25135 11.5078 7.20753 11.5078 7.17755 11.5078C7.14757 11.5078 7.10951 11.5078 7.07491 11.5078C7.03916 11.5078 7.00572 11.5078 6.97112 11.5078C6.93652 11.5078 6.91116 11.5078 6.88233 11.5078C6.8535 11.5078 6.8535 11.5078 6.83735 11.5078C6.09814 11.5785 5.62417 11.9805 5.4535 12.649C5.44658 12.6791 5.43965 12.7104 5.43389 12.7417L5.42005 12.8089C5.39738 12.9455 5.38619 13.0839 5.38661 13.2225C5.38619 13.361 5.39738 13.4994 5.42005 13.636L5.43389 13.7032C5.43389 13.7345 5.44658 13.7658 5.4535 13.7959C5.61841 14.4644 6.09238 14.8664 6.83735 14.9371H6.88233C6.91116 14.9371 6.94114 14.9371 6.97112 14.9371C7.0011 14.9371 7.03916 14.9371 7.07491 14.9371C7.10951 14.9371 7.14295 14.9371 7.17755 14.9371C7.21215 14.9371 7.23751 14.9371 7.26634 14.9371H7.31132C8.05168 14.8664 8.5245 14.4644 8.69518 13.7959C8.70209 13.7658 8.70786 13.7345 8.71362 13.7032C8.71939 13.672 8.72401 13.6592 8.72747 13.636C8.75111 13.4995 8.76269 13.3611 8.76206 13.2225C8.76269 13.0838 8.75111 12.9454 8.72747 12.8089ZM7.07721 14.2281C6.62861 14.2281 6.40143 13.8724 6.40028 13.2248C6.39913 12.5771 6.63092 12.2238 7.07721 12.2215C7.52351 12.2192 7.75185 12.5771 7.75185 13.2248C7.75185 13.8724 7.52351 14.2257 7.07721 14.2281Z" fill="white"/>
<path d="M11.2127 18.2157C11.2127 18.2157 11.0282 17.7813 10.7122 17.7292C10.8872 17.6584 11.0376 17.5376 11.1448 17.3816C11.2521 17.2257 11.3113 17.0416 11.3153 16.8521C11.3153 15.8848 10.5265 15.8848 9.89342 15.8848H8.51648V19.1947H9.52669V18.0454H9.6939C9.943 18.0454 10.1241 18.2111 10.2359 18.5089L10.4885 19.1947H11.5863L11.2127 18.2157ZM9.71351 17.3399H9.52092V16.6517H9.61433C9.82652 16.6517 10.0918 16.6517 10.2175 16.778C10.2471 16.8107 10.2697 16.8492 10.284 16.891C10.2983 16.9329 10.3039 16.9772 10.3005 17.0213C10.3063 17.2252 10.2451 17.341 9.71928 17.341L9.71351 17.3399Z" fill="white"/>
<path d="M13.4983 19.1955H12.6634L11.3752 15.8867H12.4074L13.0808 17.8157L13.7543 15.8867H14.7876L13.4983 19.1955Z" fill="white"/>
<path d="M16.0896 15.8848H15.0806V19.1947H16.0896V15.8848Z" fill="white"/>
<path d="M19.0453 16.7003C19.0453 16.7003 18.7985 16.669 18.6785 16.669C17.7883 16.669 17.4411 16.8474 17.4411 17.5275C17.4411 18.2075 17.7871 18.3848 18.6785 18.3848C18.7939 18.3848 19.043 18.3535 19.0453 18.3535V19.146C18.8366 19.2085 18.6195 19.2386 18.4018 19.2352C17.5565 19.2352 16.4332 19.0428 16.4332 17.5275C16.4332 16.0121 17.5565 15.8186 18.4018 15.8186C18.6195 15.8152 18.8366 15.8453 19.0453 15.9078V16.7003Z" fill="white"/>
<path d="M19.043 12.3463H18.0304V14.8939H17.0214V12.3463H16.01V11.584H19.043V12.3463Z" fill="white"/>
<path d="M25.5298 17.9531H22.0575V18.1617H25.5298V17.9531Z" fill="white"/>
<path d="M25.5298 16.9199H22.0575V17.1284H25.5298V16.9199Z" fill="white"/>
<path d="M25.5298 16.0953H22.0575V16.4034H25.5298V16.6108H22.0575V16.6479H20.4776V17.16H22.0575V17.4368H25.5298V17.6454H22.0575V17.9223H20.4776V18.4332H22.0575V18.4703H25.5298V18.6788H22.0575V18.987H25.5298V19.1955H19.4674V15.8867H25.5298V16.0953Z" fill="white"/>
<path d="M25.178 13.9138C25.178 13.9138 24.9935 13.4805 24.6764 13.4284C24.8513 13.3572 25.0016 13.236 25.1088 13.08C25.216 12.9239 25.2753 12.7398 25.2795 12.5502C25.2795 11.584 24.4919 11.584 23.8576 11.584H22.4818V14.8939H23.4909V13.7505H23.6581C23.9072 13.7505 24.0894 13.915 24.2001 14.2139L24.4307 14.8986H25.5286L25.178 13.9138ZM23.6788 13.0391H23.4863V12.3509H23.5797C23.793 12.3509 24.0571 12.3509 24.184 12.4761C24.2131 12.5093 24.2353 12.548 24.2494 12.59C24.2634 12.632 24.269 12.6763 24.2658 12.7205C24.2704 12.9221 24.2093 13.0391 23.6835 13.0391H23.6788Z" fill="white"/>
</g>
<defs>
<clipPath id="clip0_0_5939">
<path d="M0 4C0 1.79086 1.79086 0 4 0H24C26.2091 0 28 1.79086 28 4V17.6774C28 19.8866 26.2091 21.6774 24 21.6774H4C1.79086 21.6774 0 19.8866 0 17.6774V4Z" fill="white"/>
</clipPath>
</defs>
</svg>
