<svg width="18" height="15" viewBox="0 0 18 15" fill="none" xmlns="http://www.w3.org/2000/svg">
<path d="M9.96964 14.7803C9.82903 14.6397 9.75005 14.4489 9.75005 14.25C9.75005 14.0511 9.82903 13.8604 9.96964 13.7197L15.4394 8.25002H0.75C0.551088 8.25002 0.360322 8.171 0.21967 8.03035C0.0790178 7.8897 0 7.69893 0 7.50002C0 7.30111 0.0790178 7.11034 0.21967 6.96969C0.360322 6.82904 0.551088 6.75002 0.75 6.75002H15.4394L9.96964 1.28034C9.89999 1.21069 9.84475 1.128 9.80706 1.03701C9.76937 0.946009 9.74998 0.848479 9.74998 0.749985C9.74999 0.651491 9.76939 0.553963 9.80709 0.462968C9.84478 0.371974 9.90003 0.289295 9.96968 0.219652C10.0393 0.15001 10.122 0.0947675 10.213 0.0570796C10.304 0.0193916 10.4015 -4.26693e-06 10.5 7.04095e-10C10.5985 4.26834e-06 10.6961 0.0194084 10.787 0.0571042C10.878 0.0948001 10.9607 0.15005 11.0304 0.219698L17.7804 6.9697C17.7828 6.97213 17.7848 6.97483 17.7872 6.9773C17.802 6.9925 17.8164 7.0081 17.8299 7.02449C17.8374 7.03365 17.844 7.04335 17.851 7.05278C17.8586 7.06295 17.8665 7.07292 17.8736 7.0835C17.8809 7.09439 17.8873 7.10575 17.8939 7.11696C17.8998 7.12676 17.9059 7.13633 17.9114 7.14644C17.9174 7.1577 17.9225 7.16933 17.9279 7.18082C17.933 7.19153 17.9383 7.20206 17.9429 7.213C17.9475 7.22408 17.9512 7.23543 17.9552 7.24669C17.9594 7.2585 17.964 7.27022 17.9676 7.2823C17.971 7.29352 17.9735 7.30492 17.9764 7.31627C17.9795 7.32863 17.983 7.3409 17.9855 7.35349C17.9881 7.36658 17.9896 7.37977 17.9915 7.3929C17.9931 7.40398 17.9952 7.41483 17.9963 7.426C17.9987 7.45062 18 7.4753 18 7.50002C18 7.52474 17.9987 7.54941 17.9963 7.57404C17.9952 7.58521 17.9931 7.59606 17.9915 7.60713C17.9896 7.62027 17.9881 7.63345 17.9855 7.64655C17.983 7.65913 17.9795 7.6714 17.9764 7.68376C17.9735 7.69512 17.971 7.70651 17.9676 7.71773C17.964 7.72981 17.9594 7.74153 17.9552 7.75334C17.9512 7.76461 17.9475 7.77596 17.9429 7.78704C17.9383 7.79798 17.933 7.8085 17.9279 7.81922C17.9225 7.83071 17.9174 7.84233 17.9114 7.85359C17.9059 7.86371 17.8998 7.87328 17.8939 7.88307C17.8873 7.89429 17.8809 7.90564 17.8736 7.91654C17.8665 7.92711 17.8586 7.93709 17.851 7.94725C17.844 7.95668 17.8374 7.96639 17.8299 7.97554C17.8162 7.99225 17.8016 8.00814 17.7865 8.02361C17.7843 8.02576 17.7825 8.02819 17.7804 8.03034L11.0304 14.7803C10.9607 14.85 10.878 14.9052 10.787 14.9429C10.696 14.9806 10.5985 15 10.5 15C10.4015 15 10.304 14.9806 10.213 14.9429C10.122 14.9052 10.0393 14.85 9.96964 14.7803Z" fill="#003087"/>
</svg>
