<svg width="30" height="34" viewBox="0 0 30 34" fill="none" xmlns="http://www.w3.org/2000/svg">
<path d="M27.5 11.25H21.875V6.875C21.875 5.05164 21.1507 3.30295 19.8614 2.01364C18.572 0.724328 16.8234 0 15 0C13.1766 0 11.428 0.724328 10.1386 2.01364C8.84933 3.30295 8.125 5.05164 8.125 6.875V11.25H2.5C1.83719 11.2508 1.20175 11.5144 0.73307 11.9831C0.264394 12.4517 0.000758028 13.0872 0 13.75V31.25C0.000758028 31.9128 0.264394 32.5483 0.73307 33.0169C1.20175 33.4856 1.83719 33.7492 2.5 33.75H27.5C28.1628 33.7492 28.7983 33.4856 29.2669 33.0169C29.7356 32.5483 29.9992 31.9128 30 31.25V13.75C29.9992 13.0872 29.7356 12.4517 29.2669 11.9831C28.7983 11.5144 28.1628 11.2508 27.5 11.25ZM14.9991 24.375C14.6282 24.375 14.2657 24.265 13.9574 24.059C13.649 23.853 13.4087 23.5601 13.2668 23.2175C13.1249 22.8749 13.0878 22.4979 13.1601 22.1342C13.2325 21.7705 13.411 21.4364 13.6733 21.1742C13.9355 20.912 14.2696 20.7334 14.6333 20.661C14.997 20.5887 15.374 20.6258 15.7166 20.7677C16.0592 20.9096 16.3521 21.15 16.5581 21.4583C16.7641 21.7666 16.8741 22.1292 16.8741 22.5C16.8741 22.7462 16.8256 22.99 16.7314 23.2175C16.6371 23.445 16.499 23.6517 16.3249 23.8258C16.1508 23.9999 15.9441 24.138 15.7166 24.2323C15.4891 24.3265 15.2453 24.375 14.9991 24.375ZM19.375 11.25H10.625V6.875C10.625 5.71468 11.0859 4.60188 11.9064 3.78141C12.7269 2.96094 13.8397 2.5 15 2.5C16.1603 2.5 17.2731 2.96094 18.0936 3.78141C18.9141 4.60188 19.375 5.71468 19.375 6.875V11.25Z" fill="#B4B4B4"/>
</svg>
