<svg width="72" height="42" viewBox="0 0 72 42" fill="none" xmlns="http://www.w3.org/2000/svg">
<path fill-rule="evenodd" clip-rule="evenodd" d="M10.2926 4.65725L0.187376 21.0782C-0.0526232 21.4673 -0.0627283 21.9574 0.16085 22.3565C0.384427 22.7557 0.80632 23.0033 1.26358 23.0033H12.6319C13.3292 23.0033 13.8951 22.4374 13.8951 21.7401C13.8951 21.0429 13.3292 20.477 12.6319 20.477H3.52462L12.445 5.98104C12.81 5.38736 12.6244 4.60926 12.0307 4.24294C11.437 3.87789 10.6589 4.06357 10.2926 4.65725Z" fill="#003087"/>
<path fill-rule="evenodd" clip-rule="evenodd" d="M11.3687 15.4243V33.1084C11.3687 33.8056 11.9346 34.3715 12.6319 34.3715C13.3291 34.3715 13.895 33.8056 13.895 33.1084V15.4243C13.895 14.727 13.3291 14.1611 12.6319 14.1611C11.9346 14.1611 11.3687 14.727 11.3687 15.4243Z" fill="#003087"/>
<path fill-rule="evenodd" clip-rule="evenodd" d="M68.3975 4.65725L58.2923 21.0782C58.0523 21.4673 58.0422 21.9574 58.2658 22.3565C58.4894 22.7557 58.9113 23.0033 59.3685 23.0033H70.7369C71.4342 23.0033 72.0001 22.4374 72.0001 21.7401C72.0001 21.0429 71.4342 20.477 70.7369 20.477H61.6296L70.55 5.98104C70.915 5.38736 70.7293 4.60926 70.1356 4.24294C69.542 3.87789 68.7639 4.06357 68.3975 4.65725Z" fill="#003087"/>
<path fill-rule="evenodd" clip-rule="evenodd" d="M69.4737 15.4243V33.1084C69.4737 33.8056 70.0396 34.3715 70.7368 34.3715C71.4341 34.3715 72 33.8056 72 33.1084V15.4243C72 14.727 71.4341 14.1611 70.7368 14.1611C70.0396 14.1611 69.4737 14.727 69.4737 15.4243Z" fill="#003087"/>
<path fill-rule="evenodd" clip-rule="evenodd" d="M19.8951 14.9224C21.4046 14.0508 23.9031 15.5489 25.4719 18.2659C27.0408 20.983 27.0888 23.8958 25.5793 24.7674C24.0698 25.639 21.5713 24.1409 20.0025 21.4238C18.4336 18.7068 18.3856 15.794 19.8951 14.9224Z" fill="#CADCF0"/>
<path fill-rule="evenodd" clip-rule="evenodd" d="M52.1055 14.9224C50.596 14.0508 48.0975 15.5489 46.5287 18.2659C44.9598 20.983 44.9118 23.8958 46.4213 24.7674C47.9308 25.639 50.4293 24.1409 51.9981 21.4238C53.5669 18.7068 53.6149 15.794 52.1055 14.9224Z" fill="#CADCF0"/>
<path fill-rule="evenodd" clip-rule="evenodd" d="M37.2633 0.00182958C44.0894 0.115513 50.4077 5.95254 49.8949 16.4228C49.5791 22.8497 45.5989 24.603 43.3921 31.5794C42.3159 34.9823 42.2048 38.4181 42.2439 40.2774C42.2604 40.6437 42.1164 40.9987 41.8498 41.2488C41.5833 41.5001 41.2195 41.6227 40.8557 41.5835C32.6402 40.3684 22.1055 29.4686 22.1055 18.9491C22.1055 7.79421 28.8987 -0.13838 37.2633 0.00182958Z" fill="#CADCF0"/>
<path fill-rule="evenodd" clip-rule="evenodd" d="M22.8407 23.9133C22.367 22.2737 22.1055 20.6076 22.1055 18.9491C22.1055 7.79421 28.8987 -0.13838 37.2633 0.00182958C42.4347 0.0877239 47.3155 3.45908 49.1534 9.64094C48.177 19.1891 40.7736 26.6227 31.7989 26.6227C28.5249 26.6227 25.4605 25.6324 22.8407 23.9133Z" fill="#E9F3FC"/>
<path d="M36.0002 21.74C37.3954 21.74 38.5265 20.0434 38.5265 17.9506C38.5265 15.8577 37.3954 14.1611 36.0002 14.1611C34.6049 14.1611 33.4739 15.8577 33.4739 17.9506C33.4739 20.0434 34.6049 21.74 36.0002 21.74Z" fill="#738BAB"/>
<path fill-rule="evenodd" clip-rule="evenodd" d="M32.1628 9.2751C32.3914 10.1113 32.4053 11.5298 31.1561 12.3749C30.8668 12.5694 30.791 12.9622 30.9856 13.2515C31.1813 13.5408 31.5742 13.6166 31.8622 13.4208C33.6773 12.1955 33.7127 10.1568 33.3818 8.94289C33.2895 8.60563 32.9422 8.40732 32.6062 8.49953C32.2702 8.59047 32.0719 8.93784 32.1628 9.2751Z" fill="#738BAB"/>
<path fill-rule="evenodd" clip-rule="evenodd" d="M38.6188 8.94289C38.2879 10.1568 38.3232 12.1955 40.1384 13.4208C40.4264 13.6166 40.8192 13.5408 41.015 13.2515C41.2095 12.9622 41.1337 12.5694 40.8445 12.3749C39.5952 11.5298 39.6091 10.1113 39.8377 9.2751C39.9287 8.93784 39.7304 8.59047 39.3944 8.49953C39.0584 8.40732 38.711 8.60563 38.6188 8.94289Z" fill="#738BAB"/>
</svg>
