<svg width="111" height="166" viewBox="0 0 111 166" fill="none" xmlns="http://www.w3.org/2000/svg">
<path d="M105.588 166H5.47786L0 4.99863H100.11L105.588 166Z" fill="#003087"/>
<path d="M110.587 161.001H10.4764L4.99147 0H105.102L110.587 161.001Z" fill="#FFD100"/>
<path opacity="0.3" d="M110.587 161.001H10.4764L4.99147 0H105.102L110.587 161.001Z" fill="white"/>
<path d="M77.0443 66.2519C87.7633 55.348 87.3072 37.5183 76.0257 26.4281C64.7442 15.3379 46.9093 15.1869 36.1904 26.0908C25.4714 36.9947 25.9274 54.8244 37.2089 65.9145C48.4905 77.0047 66.3254 77.1557 77.0443 66.2519Z" fill="#003087"/>
<path d="M79.8626 46.1772C80.0068 50.0136 79.1696 53.8233 77.4303 57.2457C75.5531 60.934 72.6854 64.0263 69.1488 66.1756C65.6122 68.325 61.5467 69.4464 57.4083 69.4141C53.1727 69.3912 49.0176 68.2549 45.3598 66.1191C41.702 63.9833 38.6702 60.9232 36.5685 57.2457C34.6088 53.8759 33.514 50.0732 33.3819 46.1772C33.2518 43.1564 33.7373 40.1406 34.8088 37.3131C35.8803 34.4857 37.5155 31.9056 39.615 29.7296C41.7144 27.5537 44.2344 25.8272 47.0217 24.6553C49.809 23.4833 52.8055 22.8903 55.8291 22.9122C62.058 22.9563 68.0305 25.3981 72.506 29.7306C76.9816 34.0631 79.6162 39.9531 79.8626 46.1772Z" fill="white"/>
<path opacity="0.6" d="M77.4163 57.2464C75.5391 60.9346 72.6713 64.0269 69.1347 66.1762C65.5981 68.3256 61.5326 69.447 57.3942 69.4147C53.1586 69.3918 49.0035 68.2555 45.3457 66.1197C41.6879 63.9839 38.6561 60.9238 36.5544 57.2464C42.5167 53.1814 49.5718 51.0206 56.7879 51.0494C64.1203 51.0653 71.289 53.2188 77.4163 57.2464Z" fill="#003087"/>
<path opacity="0.6" d="M63.8603 45.5975C67.8017 41.588 67.6341 35.0319 63.4858 30.9539C59.3375 26.8759 52.7794 26.8204 48.8379 30.8299C44.8964 34.8394 45.0641 41.3955 49.2124 45.4735C53.3607 49.5514 59.9188 49.607 63.8603 45.5975Z" fill="#003087"/>
<path d="M90.4727 102.698H26.6137L26.1837 90.0077H90.0427L90.4727 102.698Z" fill="white"/>
<path d="M91.2483 125.377H27.3822L26.9522 112.687H90.8182L91.2483 125.377Z" fill="white"/>
<path d="M66.6014 114.436L51.2112 116.551C51.0644 116.567 50.9226 116.614 50.7947 116.688C50.6669 116.763 50.5558 116.862 50.4684 116.982C50.381 117.101 50.3192 117.237 50.2869 117.381C50.2546 117.525 50.2524 117.675 50.2806 117.82L52.304 128.134C52.3702 128.436 52.5472 128.703 52.8003 128.882C53.0534 129.061 53.3643 129.138 53.6717 129.1L69.0618 126.985C69.2083 126.966 69.3495 126.918 69.4765 126.842C69.6036 126.767 69.7138 126.667 69.8004 126.547C69.887 126.427 69.9481 126.291 69.9799 126.147C70.0117 126.003 70.0136 125.854 69.9854 125.709L67.9691 115.394C67.9028 115.092 67.7255 114.826 67.4722 114.648C67.2188 114.471 66.9081 114.395 66.6014 114.436ZM62.181 124.884L59.361 125.257L59.0861 121.93C58.7955 121.804 58.5394 121.61 58.3394 121.365C58.1394 121.12 58.0014 120.83 57.9369 120.52C57.8851 120.28 57.8843 120.031 57.9345 119.791C57.9847 119.55 58.0848 119.323 58.2283 119.124C58.3718 118.925 58.5556 118.758 58.7677 118.634C58.9798 118.51 59.2156 118.432 59.4597 118.405C59.9605 118.34 60.4672 118.466 60.8797 118.757C61.2922 119.048 61.5804 119.484 61.6875 119.977C61.7486 120.275 61.7299 120.584 61.6334 120.872C61.5368 121.161 61.3658 121.418 61.1376 121.62L62.181 124.884Z" fill="#003087"/>
<path d="M65.0786 113.878C64.8065 113.913 64.5313 113.845 64.3069 113.687C64.0826 113.529 63.9253 113.293 63.866 113.025L63.6686 112.017C63.3869 110.642 62.6157 109.415 61.4982 108.564C60.3806 107.714 58.9926 107.297 57.5915 107.392C56.8845 107.433 56.1944 107.625 55.5681 107.955C54.9419 108.286 54.3941 108.748 53.9621 109.309C53.53 109.87 53.2238 110.517 53.0642 111.207C52.9046 111.897 52.8954 112.614 53.0372 113.307L53.2628 114.471C53.2891 114.6 53.2881 114.733 53.26 114.861C53.232 114.99 53.1773 115.111 53.0997 115.217C53.022 115.323 52.9231 115.412 52.8091 115.478C52.6952 115.543 52.5687 115.585 52.4379 115.599C52.1653 115.637 51.8885 115.57 51.6633 115.411C51.4382 115.253 51.2817 115.015 51.2253 114.746L51.035 113.766C50.8414 112.85 50.835 111.904 51.0161 110.986C51.1972 110.068 51.5622 109.195 52.089 108.421C52.6158 107.648 53.2936 106.988 54.0817 106.483C54.8698 105.978 55.7519 105.637 56.675 105.482C58.6764 105.146 60.7304 105.593 62.4107 106.731C64.091 107.87 65.2686 109.611 65.699 111.594L65.9246 112.75C65.9509 112.881 65.9493 113.016 65.92 113.145C65.8906 113.275 65.8342 113.398 65.7543 113.504C65.6744 113.611 65.5729 113.699 65.4565 113.763C65.34 113.828 65.2112 113.867 65.0786 113.878Z" fill="#003087"/>
<path d="M80.7086 143.15H39.1347L38.8598 134.888H80.4266L80.7086 143.15Z" fill="#003087"/>
<path d="M60.6512 96.3522C60.6636 96.6535 60.6147 96.9543 60.5074 97.2362C60.4002 97.5181 60.2368 97.7753 60.0271 97.9922C59.8175 98.209 59.566 98.3811 59.2879 98.4979C59.0098 98.6147 58.7109 98.6738 58.4093 98.6716C57.7877 98.6668 57.1916 98.4234 56.7443 97.9918C56.2969 97.5602 56.0323 96.9732 56.0053 96.3522C55.9928 96.0508 56.0417 95.75 56.149 95.4681C56.2563 95.1862 56.4197 94.929 56.6293 94.7122C56.8389 94.4953 57.0904 94.3232 57.3685 94.2064C57.6466 94.0896 57.9455 94.0305 58.2472 94.0327C58.8693 94.0358 59.4663 94.2786 59.9141 94.7106C60.3618 95.1426 60.6258 95.7305 60.6512 96.3522Z" fill="#263238"/>
<path d="M50.6261 96.3522C50.6395 96.6538 50.5913 96.955 50.4844 97.2373C50.3775 97.5197 50.2141 97.7773 50.0043 97.9944C49.7945 98.2115 49.5426 98.3835 49.264 98.4999C48.9855 98.6164 48.6861 98.6748 48.3842 98.6716C47.7633 98.6667 47.168 98.4231 46.7218 97.9913C46.2755 97.5595 46.0125 96.9726 45.9872 96.3522C45.9748 96.0508 46.0237 95.75 46.1309 95.4681C46.2382 95.1862 46.4016 94.929 46.6112 94.7122C46.8209 94.4953 47.0724 94.3232 47.3504 94.2064C47.6285 94.0896 47.9275 94.0305 48.2291 94.0327C48.8505 94.0359 49.4468 94.2789 49.8934 94.7111C50.34 95.1432 50.6025 95.7311 50.6261 96.3522Z" fill="#263238"/>
<path d="M40.6645 96.3522C40.6769 96.6535 40.628 96.9543 40.5208 97.2362C40.4135 97.5181 40.2501 97.7753 40.0405 97.9922C39.8308 98.209 39.5793 98.3811 39.3012 98.4979C39.0231 98.6147 38.7242 98.6738 38.4226 98.6716C37.8012 98.6684 37.2049 98.4254 36.7583 97.9932C36.3117 97.5611 36.0492 96.9732 36.0256 96.3522C36.0132 96.0508 36.0621 95.75 36.1694 95.4681C36.2767 95.1862 36.4401 94.929 36.6497 94.7122C36.8593 94.4953 37.1108 94.3232 37.3889 94.2064C37.667 94.0896 37.9659 94.0305 38.2675 94.0327C38.889 94.0359 39.4852 94.2789 39.9318 94.7111C40.3784 95.1432 40.6409 95.7311 40.6645 96.3522Z" fill="#263238"/>
<path d="M70.6412 96.3527C70.6536 96.6541 70.6047 96.9548 70.4974 97.2367C70.3902 97.5186 70.2268 97.7758 70.0171 97.9927C69.8075 98.2096 69.556 98.3816 69.2779 98.4984C68.9998 98.6152 68.7009 98.6743 68.3993 98.6721C67.7778 98.669 67.1816 98.4259 66.735 97.9938C66.2884 97.5616 66.0259 96.9737 66.0023 96.3527C65.9918 96.0522 66.0424 95.7527 66.151 95.4724C66.2597 95.192 66.4241 94.9367 66.6344 94.7218C66.8447 94.5069 67.0964 94.3369 67.3744 94.2222C67.6523 94.1075 67.9506 94.0504 68.2512 94.0544C68.868 94.0591 69.4594 94.3 69.904 94.7275C70.3485 95.155 70.6124 95.7366 70.6412 96.3527Z" fill="#263238"/>
<path d="M80.631 96.3522C80.6444 96.6538 80.5962 96.955 80.4893 97.2373C80.3824 97.5197 80.219 97.7773 80.0092 97.9944C79.7994 98.2115 79.5475 98.3835 79.2689 98.4999C78.9904 98.6164 78.691 98.6748 78.3891 98.6716C77.7681 98.6667 77.1729 98.4231 76.7267 97.9913C76.2804 97.5595 76.0174 96.9726 75.9921 96.3522C75.9796 96.0508 76.0286 95.75 76.1358 95.4681C76.2431 95.1862 76.4065 94.929 76.6161 94.7122C76.8258 94.4953 77.0772 94.3232 77.3553 94.2064C77.6334 94.0896 77.9324 94.0305 78.234 94.0327C78.8554 94.0359 79.4517 94.2789 79.8983 94.7111C80.3449 95.1432 80.6074 95.7311 80.631 96.3522Z" fill="#263238"/>
</svg>
