<svg width="48" height="48" viewBox="0 0 48 48" fill="none" xmlns="http://www.w3.org/2000/svg">
<path d="M0 8C0 3.58172 3.58172 0 8 0H40C44.4183 0 48 3.58172 48 8V40C48 44.4183 44.4183 48 40 48H8C3.58172 48 0 44.4183 0 40V8Z" fill="white"/>
<path d="M24.472 22.4977C27.9232 22.4977 30.7209 19.7 30.7209 16.2489C30.7209 12.7977 27.9232 10 24.472 10C21.0209 10 18.2232 12.7977 18.2232 16.2489C18.2232 19.7 21.0209 22.4977 24.472 22.4977Z" fill="#FFD100"/>
<path d="M28.4442 11.4247C29.3343 12.5044 29.8689 13.8881 29.8689 15.3967C29.8689 18.8479 27.0711 21.6456 23.62 21.6456C22.1114 21.6456 20.7277 21.111 19.6479 20.221C20.7941 21.6113 22.5296 22.4978 24.4721 22.4978C27.9233 22.4978 30.721 19.7001 30.721 16.2489C30.721 14.3063 29.8346 12.5708 28.4442 11.4247Z" fill="#FFAD00"/>
<path d="M24.4721 20.4148C26.7729 20.4148 28.638 18.5497 28.638 16.2489C28.638 13.9481 26.7729 12.0829 24.4721 12.0829C22.1713 12.0829 20.3062 13.9481 20.3062 16.2489C20.3062 18.5497 22.1713 20.4148 24.4721 20.4148Z" fill="#FFAD00"/>
<path d="M34.3971 24.3977H14.5469C14.2448 24.3977 14 24.1529 14 23.8509V20.9607C14 20.6587 14.2448 20.4138 14.5469 20.4138H34.3972C34.6992 20.4138 34.9441 20.6587 34.9441 20.9607V23.8509C34.944 24.1529 34.6992 24.3977 34.3971 24.3977Z" fill="#003087"/>
<path d="M33.5781 20.4139V24.3978H34.3807C34.6918 24.3978 34.9441 24.1456 34.9441 23.8344V20.9773C34.9441 20.6661 34.6918 20.4139 34.3807 20.4139H33.5781Z" fill="#001269"/>
<path d="M33.0167 38H15.9313C15.6202 38 15.368 37.7479 15.3679 37.4368L15.364 24.3978H33.5762L33.5801 37.4365C33.5802 37.7477 33.3279 38 33.0167 38Z" fill="#003087"/>
<path d="M15.8661 24.8978H33.0783V25.3775H15.8661V24.8978Z" fill="#001269" stroke="#003087"/>
<path d="M28.3785 28.4308C27.4895 27.5417 26.0481 27.5417 25.159 28.4308L24.4761 29.1137L23.8249 28.4625C22.9223 27.5599 21.4278 27.5427 20.5425 28.4624C19.6847 29.3537 19.695 30.7717 20.5736 31.6502L24.0777 35.1543C24.2978 35.3743 24.6545 35.3743 24.8745 35.1543L28.3785 31.6502C29.2676 30.7612 29.2676 29.3198 28.3785 28.4308Z" fill="white"/>
<path d="M28.3786 28.4308C27.6759 27.728 26.6281 27.5813 25.7807 27.9896C25.9304 28.4346 26.0129 28.9106 26.0129 29.4061C26.0129 31.4904 24.5761 33.2383 22.6392 33.7157L24.0779 35.1544C24.2979 35.3744 24.6546 35.3744 24.8746 35.1544L28.3786 31.6503C29.2677 30.7613 29.2677 29.3199 28.3786 28.4308Z" fill="#DBDBDB"/>
<path d="M24.7562 15.8264H24.1881C23.9512 15.8264 23.7585 15.6337 23.7585 15.3967C23.7585 15.1599 23.9512 14.9672 24.1881 14.9672H25.6083C25.8417 14.9672 26.0308 14.778 26.0308 14.5447C26.0308 14.3113 25.8417 14.1221 25.6083 14.1221H24.8947V13.6982C24.8947 13.4647 24.7055 13.2756 24.4722 13.2756C24.2388 13.2756 24.0497 13.4648 24.0497 13.6982V14.1297C23.4117 14.199 22.9135 14.7407 22.9135 15.3967C22.9135 16.0996 23.4853 16.6715 24.1881 16.6715H24.7562C24.9931 16.6715 25.1858 16.8642 25.1858 17.101C25.1858 17.3379 24.9931 17.5306 24.7562 17.5306H23.336C23.1026 17.5306 22.9135 17.7198 22.9135 17.9531C22.9135 18.1865 23.1026 18.3756 23.336 18.3756H24.0496V18.8202C24.0496 19.0536 24.2388 19.2428 24.4721 19.2428C24.7055 19.2428 24.8946 19.0536 24.8946 18.8202V18.368C25.5326 18.2987 26.0308 17.757 26.0308 17.101C26.0308 16.3982 25.459 15.8264 24.7562 15.8264Z" fill="#FFD100"/>
<path d="M8 0.5H40V-0.5H8V0.5ZM47.5 8V40H48.5V8H47.5ZM40 47.5H8V48.5H40V47.5ZM0.5 40V8H-0.5V40H0.5ZM8 47.5C3.85787 47.5 0.5 44.1421 0.5 40H-0.5C-0.5 44.6944 3.30558 48.5 8 48.5V47.5ZM47.5 40C47.5 44.1421 44.1421 47.5 40 47.5V48.5C44.6944 48.5 48.5 44.6944 48.5 40H47.5ZM40 0.5C44.1421 0.5 47.5 3.85786 47.5 8H48.5C48.5 3.30558 44.6944 -0.5 40 -0.5V0.5ZM8 -0.5C3.30558 -0.5 -0.5 3.30558 -0.5 8H0.5C0.5 3.85787 3.85786 0.5 8 0.5V-0.5Z" fill="#DBDBDB"/>
</svg>
