<svg width="14" height="18" viewBox="0 0 14 18" fill="none" xmlns="http://www.w3.org/2000/svg">
<path d="M11.4546 11.5763L11.4546 11.5763C11.2978 12.4982 10.8582 13.3484 10.1965 14.0092C9.53491 14.67 8.6841 15.1087 7.76204 15.2643L7.76201 15.2643C7.57893 15.2951 7.39111 15.2519 7.23988 15.1442C7.08864 15.0366 6.98638 14.8732 6.95558 14.6901C6.92478 14.5071 6.96797 14.3192 7.07565 14.168C7.18333 14.0168 7.34667 13.9145 7.52975 13.8837M11.4546 11.5763L10.0743 11.3423C9.96626 11.9776 9.66328 12.5635 9.20735 13.0188C8.75143 13.4742 8.16514 13.7765 7.52975 13.8837M11.4546 11.5763C11.4857 11.3932 11.4427 11.2054 11.3352 11.054C11.2277 10.9026 11.0645 10.8002 10.8814 10.7691C10.6984 10.7381 10.5105 10.7811 10.3592 10.8886C10.2078 10.9961 10.1053 11.1593 10.0743 11.3423L11.4546 11.5763ZM7.52975 13.8837L7.54031 13.9465M7.52975 13.8837C7.52974 13.8837 7.52973 13.8837 7.52972 13.8837L7.54031 13.9465M7.54031 13.9465C7.37388 13.9745 7.22538 14.0674 7.12749 14.2049C7.0296 14.3424 6.99033 14.5131 7.01833 14.6796C7.04633 14.846 7.1393 14.9945 7.27679 15.0924C7.41427 15.1903 7.58501 15.2296 7.75145 15.2016L9.25232 13.0639C8.78705 13.5286 8.18873 13.837 7.54031 13.9465ZM10.6139 3.20365L10.614 3.20375C12.791 5.70734 13.9364 8.34058 13.9364 10.8182C13.9364 12.6578 13.2056 14.4221 11.9048 15.723C10.6039 17.0238 8.83964 17.7546 7 17.7546C5.16036 17.7546 3.39607 17.0238 2.09525 15.723C0.79443 14.4221 0.0636364 12.6578 0.0636364 10.8182C0.0636364 8.34058 1.20896 5.70734 3.38602 3.20375L3.3861 3.20365C4.36553 2.07271 5.46766 1.05416 6.67216 0.166766C6.7683 0.0996381 6.88273 0.0636364 7 0.0636364C7.11727 0.0636364 7.2317 0.0996381 7.32784 0.166766C8.53234 1.05416 9.63447 2.07271 10.6139 3.20365Z" fill="#003087" stroke="#003087" stroke-width="0.125"/>
</svg>
