<svg width="18" height="34" viewBox="0 0 18 34" fill="none" xmlns="http://www.w3.org/2000/svg">
<path d="M13.8903 27.5502C14.5663 27.8185 15.2316 28.0975 15.8969 28.3872C15.1815 26.3269 14.3874 24.2989 13.5147 22.303C12.7278 20.5074 11.8908 18.7405 11.0038 17.0021C10.2097 16.7875 9.42638 16.5729 8.63233 16.3798C8.43918 16.3798 8.52504 16.0364 8.71819 16.0901C9.41567 16.251 10.1131 16.4334 10.8643 16.6266C10.0058 14.9634 9.10448 13.3323 8.13874 11.7335C7.05854 9.92359 5.91039 8.13517 4.69427 6.36822C4.15775 5.59563 3.62122 4.83378 3.04178 4.07192C2.07604 2.77711 1.07454 1.50735 0.0372642 0.26261C-0.0915012 0.101653 0.14457 -0.102229 0.273335 0.0587283C1.85071 1.95802 3.34223 3.9217 4.75865 5.9283C4.91961 5.22009 5.05911 4.50115 5.19861 3.78221C5.21224 3.74649 5.23814 3.71677 5.27166 3.69841C5.30519 3.68004 5.34416 3.67422 5.38159 3.68197C5.41903 3.68971 5.45248 3.71052 5.47597 3.74068C5.49946 3.77084 5.51143 3.80839 5.50977 3.84659C5.34881 4.6621 5.18788 5.47761 5.00547 6.28239C6.14289 7.92416 7.2374 9.59811 8.2246 11.315C8.42848 10.6175 8.62161 9.9093 8.81476 9.16889C8.82472 9.12905 8.85011 9.0948 8.88533 9.07367C8.92055 9.05254 8.96269 9.04625 9.00253 9.05621C9.04237 9.06617 9.07663 9.09157 9.09776 9.12678C9.11889 9.162 9.12517 9.20417 9.11521 9.24402C8.9006 10.0488 8.67527 10.8428 8.44993 11.6369C9.44786 13.3216 10.4029 15.0385 11.2935 16.7875C12.1519 18.4615 12.9567 20.1462 13.7078 21.863C13.9976 21.1977 14.2873 20.5325 14.5556 19.8564C14.5712 19.8166 14.602 19.7846 14.6413 19.7675C14.6805 19.7504 14.7249 19.7496 14.7648 19.7652C14.8046 19.7809 14.8366 19.8117 14.8537 19.851C14.8708 19.8902 14.8717 19.9347 14.856 19.9745C14.5341 20.7471 14.2122 21.509 13.8795 22.2601C14.7809 24.3418 15.5964 26.4664 16.3475 28.6125L16.5407 29.1598C17.0558 30.6942 17.5386 32.2394 17.9786 33.8061C17.9842 33.8251 17.986 33.845 17.9839 33.8648C17.9819 33.8845 17.976 33.9036 17.9665 33.9211C17.957 33.9385 17.9442 33.9539 17.9288 33.9664C17.9134 33.9789 17.8957 33.9882 17.8766 33.9939C17.8576 33.9995 17.8376 34.0013 17.8179 33.9992C17.7982 33.9972 17.7791 33.9912 17.7616 33.9818C17.7442 33.9723 17.7288 33.9595 17.7163 33.9441C17.7038 33.9287 17.6945 33.9109 17.6888 33.8919C17.1952 32.1643 16.6694 30.4582 16.0793 28.7628C15.3281 28.4408 14.5663 28.1189 13.8152 27.8185C13.5791 27.7648 13.7079 27.4858 13.8903 27.5502Z" fill="white"/>
</svg>
