<svg width="88" height="50" viewBox="0 0 88 50" fill="none" xmlns="http://www.w3.org/2000/svg">
<path opacity="0.1" d="M80.6334 0H7.36669C5.41754 0.00283915 3.54871 0.776919 2.16843 2.15315C0.788142 3.52938 0.00857193 5.39592 0 7.34506V34.5618C0.00286138 36.5147 0.779916 38.3868 2.16082 39.7677C3.54172 41.1486 5.4138 41.9256 7.36669 41.9285H12.4509L10.428 49.9226C13.3063 49.6709 16.103 48.8351 18.6473 47.4662C21.1917 46.0973 23.4303 44.2241 25.2263 41.9609H80.6334C82.5854 41.9552 84.4558 41.1773 85.8361 39.797C87.2164 38.4167 87.9943 36.5463 88.0001 34.5943V7.34506C87.9886 5.3968 87.2082 3.53191 85.8285 2.15628C84.4488 0.780662 82.5816 0.00567173 80.6334 0Z" fill="#FAFAFA"/>
</svg>
