<svg width="61" height="69" viewBox="0 0 61 69" fill="none" xmlns="http://www.w3.org/2000/svg">
<path fill-rule="evenodd" clip-rule="evenodd" d="M50.4436 57.8465C52.005 55.1424 55.4672 54.2146 58.1713 55.776C60.8754 57.3374 61.8032 60.7995 60.2418 63.5037C58.6817 66.2078 55.2183 67.1356 52.5141 65.5742C49.81 64.0128 48.8822 60.5506 50.4436 57.8465Z" fill="#003087"/>
<path fill-rule="evenodd" clip-rule="evenodd" d="M49.8213 40.0676L34.7356 66.1961C34.7356 66.1961 37.0462 66.0704 39.3757 65.9422C42.4683 65.7737 45.542 66.5318 48.2021 68.1221C48.3228 68.1937 48.4423 68.2654 48.5579 68.3345C49.6315 68.9769 50.9779 68.9468 52.0226 68.2566H52.0239C56.8551 65.0659 59.9024 59.7884 60.2494 54.0093V54.0081C60.3235 52.7597 59.6761 51.578 58.5837 50.9683C58.4655 50.9029 58.3448 50.8363 58.2216 50.7672C55.515 49.2586 53.3212 46.9769 51.9208 44.2124C50.8673 42.1318 49.8213 40.0676 49.8213 40.0676Z" fill="#A4BBDB"/>
<path fill-rule="evenodd" clip-rule="evenodd" d="M29.58 18.4859C32.3684 18.9838 35.1203 19.9669 37.715 21.4641C49.7321 28.4036 53.8568 43.7923 46.9186 55.8106C39.9791 67.8277 24.5892 71.9524 12.5721 65.0129C0.555033 58.0747 -3.56966 42.6847 3.36853 30.6677C5.57482 26.8472 8.63471 23.825 12.1698 21.7005L16.5371 23.4152L20.7109 23.2606L19.3569 27.0383L18.7384 28.9819L20.2055 31.6784L24.7287 31.3868L24.8972 28.5808L30.6775 26.1118L25.2341 22.9689L25.7646 20.3717L29.58 18.4859Z" fill="#E9F3FC"/>
<path fill-rule="evenodd" clip-rule="evenodd" d="M44.9385 27.7319C51.0722 35.5702 52.1973 46.667 46.9186 55.8115C39.9791 67.8285 24.5891 71.9532 12.5721 65.0138C6.65343 61.5969 2.64942 56.1295 0.93844 50.0236C5.54337 55.8869 12.6953 59.6558 20.7221 59.6558C34.5998 59.6558 45.8651 48.3893 45.8651 34.5129C45.8651 32.1633 45.5432 29.8891 44.9385 27.7319Z" fill="#CADCF0"/>
<path fill-rule="evenodd" clip-rule="evenodd" d="M25.5043 29.6209L28.4284 29.9692L29.8163 32.0711C30.0074 32.3603 30.3971 32.4407 30.6863 32.2496C30.9767 32.0585 31.0559 31.6676 30.8648 31.3784L29.316 29.0326C29.2141 28.878 29.0495 28.7761 28.8659 28.7548L25.6526 28.3726C25.3082 28.3324 24.9952 28.5788 24.9537 28.9232C24.9134 29.2677 25.1598 29.5807 25.5043 29.6209Z" fill="#CADCF0"/>
<path fill-rule="evenodd" clip-rule="evenodd" d="M17.9489 28.5016L15.2737 29.5576L11.1817 27.1954C10.8812 27.0219 10.4965 27.125 10.323 27.4254C10.1496 27.7259 10.2526 28.1106 10.5531 28.2841L14.9079 30.7984C15.0738 30.8939 15.2737 30.909 15.4522 30.8386L18.4103 29.672C18.7333 29.5437 18.8918 29.1792 18.7648 28.8561C18.6366 28.533 18.272 28.3746 17.9489 28.5016Z" fill="#CADCF0"/>
<path fill-rule="evenodd" clip-rule="evenodd" d="M19.9704 31.9194L19.4675 34.1496L16.6452 36.6526C16.3862 36.8827 16.3624 37.2799 16.5924 37.5401C16.8225 37.7991 17.2197 37.823 17.48 37.5929L20.4544 34.9554C20.5524 34.8674 20.6216 34.7518 20.6505 34.6236L21.1973 32.196C21.2728 31.8578 21.0603 31.5209 20.7221 31.4442C20.384 31.3676 20.047 31.5813 19.9704 31.9194Z" fill="#CADCF0"/>
<path fill-rule="evenodd" clip-rule="evenodd" d="M24.1215 31.55L25.0417 34.9845C25.0845 35.1454 25.1901 35.2825 25.3346 35.3667L29.6894 37.881C29.9898 38.0545 30.3745 37.9514 30.548 37.6509C30.7215 37.3505 30.6184 36.9658 30.318 36.7923L26.1882 34.4075L25.3359 31.2244C25.2454 30.89 24.9009 30.6901 24.5653 30.7806C24.2309 30.8699 24.031 31.2156 24.1215 31.55Z" fill="#CADCF0"/>
<path fill-rule="evenodd" clip-rule="evenodd" d="M30.582 26.9035L32.841 29.4995C32.9982 29.6805 33.2458 29.756 33.4772 29.6944L38.6289 28.3128C38.9646 28.2235 39.1632 27.8791 39.074 27.5434C38.9847 27.209 38.639 27.0091 38.3046 27.0996L33.5312 28.3781L31.5298 26.0776C31.3023 25.8161 30.905 25.7884 30.6436 26.016C30.3821 26.2448 30.3544 26.642 30.582 26.9035Z" fill="#CADCF0"/>
<path fill-rule="evenodd" clip-rule="evenodd" d="M4.0914 8.83373L12.9807 17.723C13.471 18.2133 14.268 18.2133 14.7583 17.723C15.2498 17.2327 15.2498 16.4357 14.7583 15.9454L5.869 7.05612C5.37871 6.56584 4.58168 6.56584 4.0914 7.05612C3.60111 7.54641 3.60111 8.34344 4.0914 8.83373Z" fill="#003087"/>
<path fill-rule="evenodd" clip-rule="evenodd" d="M16.8615 7.22066L18.8063 14.4769C18.986 15.147 19.6762 15.5455 20.3463 15.3657C21.0163 15.1872 21.4148 14.497 21.2351 13.827L19.2903 6.56946C19.1105 5.8994 18.4203 5.50089 17.7503 5.68066C17.0802 5.86043 16.6817 6.5506 16.8615 7.22066Z" fill="#003087"/>
<path fill-rule="evenodd" clip-rule="evenodd" d="M28.7277 0.931946L25.4742 13.0747C25.2944 13.7448 25.6929 14.435 26.363 14.6147C27.0331 14.7945 27.7232 14.396 27.903 13.7259L31.1565 1.58189C31.3363 0.911832 30.9378 0.222916 30.2677 0.0431439C29.5976 -0.136628 28.9075 0.261887 28.7277 0.931946Z" fill="#003087"/>
</svg>
