<svg width="18" height="21" viewBox="0 0 18 21" fill="none" xmlns="http://www.w3.org/2000/svg">
<path d="M16.5 7.5H1.5C1.08579 7.5 0.75 7.83579 0.75 8.25V18.75C0.75 19.1642 1.08579 19.5 1.5 19.5H16.5C16.9142 19.5 17.25 19.1642 17.25 18.75V8.25C17.25 7.83579 16.9142 7.5 16.5 7.5Z" stroke="#7D7D7D" stroke-width="1.5" stroke-linecap="round" stroke-linejoin="round"/>
<path d="M5.625 7.5V4.125C5.625 3.22989 5.98058 2.37145 6.61351 1.73851C7.24645 1.10558 8.10489 0.75 9 0.75C9.89511 0.75 10.7535 1.10558 11.3865 1.73851C12.0194 2.37145 12.375 3.22989 12.375 4.125" stroke="#7D7D7D" stroke-width="1.5" stroke-linecap="round" stroke-linejoin="round"/>
<path d="M9.875 13.5C9.875 13.9832 9.48325 14.375 9 14.375C8.51675 14.375 8.125 13.9832 8.125 13.5C8.125 13.0168 8.51675 12.625 9 12.625C9.48325 12.625 9.875 13.0168 9.875 13.5Z" fill="#7D7D7D" stroke="#7D7D7D" stroke-width="0.125"/>
</svg>
