<svg width="63" height="203" viewBox="0 0 63 203" fill="none" xmlns="http://www.w3.org/2000/svg">
<path d="M40.4953 32.8597C41.4305 34.3645 42.211 35.799 43.0127 37.2968C43.8143 38.7945 44.5386 40.2993 45.2488 41.8393C46.6979 44.9575 47.897 48.1858 48.8349 51.4939C48.9615 51.9087 49.0529 52.3517 49.1584 52.7807L49.3131 53.4346L49.3905 53.7581L49.4819 54.2925C49.6405 55.5048 49.5665 56.7363 49.2639 57.9209C48.7784 59.7602 48.0401 61.5232 47.07 63.1595C45.3347 66.1331 43.2373 68.8801 40.8258 71.3374L37.8654 69.1013C39.3514 66.3697 40.6733 63.552 41.8243 60.6633C42.3371 59.3904 42.6982 58.0617 42.9002 56.7044C42.9648 56.2899 42.9457 55.8667 42.8439 55.4598L42.5626 54.6019C42.4501 54.2503 42.3447 53.8987 42.2111 53.5401C41.1415 50.6392 39.9042 47.803 38.5053 45.0458C37.099 42.2331 35.5872 39.4204 34.0753 36.7342L40.4953 32.8597Z" fill="#EBB376"/>
<path d="M38.6179 68.1239L35.3833 69.8326L39.0961 74.1782C39.0961 74.1782 41.4165 72.6102 41.522 70.2194L38.6179 68.1239Z" fill="#EBB376"/>
<path d="M31.0448 72.5118L35.0177 75.669L39.0961 74.1783L35.3834 69.8327L31.0448 72.5118Z" fill="#EBB376"/>
<path d="M17.4593 9.85171C17.382 10.2455 17.1077 10.5197 16.8546 10.4705C16.6015 10.4213 16.4538 10.0556 16.5311 9.66889C16.6085 9.28214 16.8827 8.96571 17.1429 9.05009C17.4031 9.13447 17.5367 9.45793 17.4593 9.85171Z" fill="#263238"/>
<path d="M17.1429 10.5263C16.4348 11.6277 15.5783 12.6262 14.5974 13.4937C14.829 13.7337 15.1098 13.9209 15.4206 14.0423C15.7313 14.1636 16.0646 14.2164 16.3976 14.1969L17.1429 10.5263Z" fill="#D58745"/>
<path d="M15.8773 24.323V19.7102L21.9808 20.4134C21.9808 20.4134 21.8824 24.3793 18.4649 25.5465L15.8773 24.323Z" fill="#EBB376"/>
<path d="M17.6352 16.3913L21.9316 17.6289L22.0089 20.4486L15.9054 19.7103L17.6352 16.3913Z" fill="#EBB376"/>
<path opacity="0.2" d="M21.9314 17.6289L17.635 16.3913L16.7983 17.9945C16.8439 19.2578 17.2387 20.4837 17.9388 21.5363C18.6388 22.5888 19.6168 23.4269 20.7642 23.9574C21.5024 22.9263 21.9338 21.7074 22.0088 20.4416L21.9314 17.6289Z" fill="black"/>
<path d="M19.3298 7.97376C19.3749 7.97255 19.4187 7.95862 19.4562 7.93358C19.4937 7.90853 19.5233 7.8734 19.5417 7.83222C19.5601 7.79105 19.5665 7.74553 19.5601 7.70089C19.5537 7.65626 19.5348 7.61435 19.5056 7.57998C19.2586 7.30106 18.9484 7.0853 18.601 6.95074C18.2536 6.81617 17.879 6.76671 17.5086 6.80649C17.448 6.81681 17.394 6.85074 17.3584 6.90083C17.3228 6.95093 17.3086 7.0131 17.3187 7.0737C17.3291 7.13472 17.3628 7.18935 17.4126 7.22607C17.4624 7.26279 17.5246 7.27874 17.5859 7.27058C17.8793 7.24179 18.1754 7.28357 18.4494 7.39243C18.7234 7.50129 18.9674 7.67409 19.1611 7.89641C19.1826 7.9199 19.2086 7.93886 19.2376 7.95214C19.2666 7.96542 19.2979 7.97277 19.3298 7.97376Z" fill="#263238"/>
<path d="M28.3163 16.9677C27.6131 20.5891 27.1772 25.6027 29.7226 28.0146C29.7226 28.0146 28.7382 31.6852 21.9877 31.6852C14.5974 31.6852 18.4367 28.4646 18.4367 28.4646C21.5096 27.5083 21.4814 24.0135 20.7783 21.2008L28.3163 16.9677Z" fill="#EBB376"/>
<path d="M31.0938 30.4338C31.7548 29.5057 31.7267 26.5594 31.0235 26.039C29.8914 25.2022 25.0324 25.0053 18.5 26.5101C19.2031 29.365 17.6913 30.8557 17.6913 30.8557L31.0938 30.4338Z" fill="#003087"/>
<path d="M53.0751 197.374C52.8744 197.445 52.6617 197.475 52.4493 197.463C52.2369 197.451 52.0289 197.397 51.8375 197.304C51.765 197.236 51.7152 197.148 51.6951 197.051C51.6749 196.954 51.6854 196.853 51.725 196.762C51.7471 196.686 51.7857 196.616 51.8379 196.556C51.8902 196.497 51.9548 196.449 52.0274 196.418C52.6954 196.094 54.2283 196.72 54.2986 196.748C54.3196 196.757 54.3375 196.771 54.3501 196.79C54.3626 196.809 54.3692 196.831 54.369 196.854C54.3688 196.876 54.3629 196.898 54.3518 196.918C54.3407 196.938 54.3248 196.954 54.3057 196.966C53.9092 197.14 53.4972 197.277 53.0751 197.374ZM52.2665 196.579C52.2201 196.59 52.1752 196.607 52.1328 196.629C52.089 196.645 52.0495 196.671 52.0178 196.705C51.986 196.739 51.9628 196.781 51.95 196.825C51.8868 197.036 51.95 197.107 51.9922 197.128C52.2594 197.353 53.2439 197.128 53.94 196.868C53.4105 196.649 52.8388 196.55 52.2665 196.579Z" fill="#003087"/>
<path d="M54.2776 196.973H54.2213C53.6588 196.811 52.4634 195.96 52.4493 195.405C52.4488 195.316 52.4785 195.23 52.5335 195.161C52.5885 195.092 52.6655 195.044 52.7517 195.025C52.8351 194.994 52.9243 194.981 53.0131 194.989C53.1018 194.996 53.1878 195.023 53.265 195.067C53.926 195.405 54.3479 196.769 54.362 196.832C54.3718 196.849 54.377 196.869 54.377 196.888C54.377 196.908 54.3718 196.927 54.362 196.945C54.3511 196.956 54.3378 196.964 54.3231 196.969C54.3085 196.974 54.2929 196.975 54.2776 196.973ZM52.8712 195.222H52.815C52.6743 195.271 52.6744 195.341 52.6744 195.376C52.6744 195.707 53.476 196.375 54.0807 196.642C53.933 196.248 53.6096 195.468 53.1806 195.236C53.0854 195.193 52.9771 195.188 52.8783 195.222H52.8712Z" fill="#003087"/>
<path d="M16.5523 198.204C15.9194 198.204 15.3076 198.112 15.1037 197.831C15.0504 197.756 15.0218 197.666 15.0218 197.574C15.0218 197.482 15.0504 197.393 15.1037 197.318C15.1439 197.249 15.1976 197.189 15.2617 197.142C15.3258 197.095 15.3989 197.061 15.4764 197.043C16.2991 196.818 18.0289 197.803 18.0993 197.845C18.1208 197.856 18.1382 197.873 18.1484 197.895C18.1586 197.917 18.1612 197.941 18.1555 197.965C18.1529 197.989 18.1426 198.011 18.1261 198.029C18.1096 198.047 18.0879 198.059 18.0641 198.063C17.5653 198.154 17.0594 198.201 16.5523 198.204ZM15.7718 197.24C15.6972 197.228 15.6213 197.228 15.5467 197.24C15.4991 197.25 15.454 197.269 15.4141 197.297C15.3742 197.325 15.3404 197.361 15.3147 197.402C15.2303 197.55 15.2655 197.62 15.3147 197.662C15.5467 197.986 16.7914 197.993 17.7125 197.859C17.1112 197.53 16.4523 197.32 15.7718 197.24Z" fill="#003087"/>
<path d="M18.057 198.063H18.0078C17.4101 197.796 16.2288 196.727 16.3202 196.165C16.3202 196.031 16.4327 195.869 16.7562 195.841C16.8718 195.828 16.9889 195.838 17.1002 195.872C17.2116 195.906 17.3147 195.963 17.4031 196.038C17.8537 196.577 18.1242 197.243 18.1766 197.944C18.1764 197.964 18.1719 197.984 18.1634 198.002C18.1549 198.02 18.1426 198.036 18.1274 198.049C18.1057 198.06 18.0813 198.065 18.057 198.063ZM16.8476 196.059H16.7773C16.5663 196.059 16.5522 196.158 16.5522 196.186C16.496 196.523 17.2976 197.367 17.9094 197.733C17.8557 197.169 17.627 196.635 17.2554 196.207C17.1399 196.109 16.9923 196.056 16.8406 196.059H16.8476Z" fill="#003087"/>
<path d="M23.4855 197.95H18.5422L18.0499 186.495H22.9932L23.4855 197.95Z" fill="#EBB376"/>
<path d="M59.7904 195.658L54.9596 196.706L50.1007 186.039L54.9385 184.991L59.7904 195.658Z" fill="#EBB376"/>
<path d="M54.4884 196.221L59.924 195.047C60.019 195.027 60.118 195.039 60.2048 195.083C60.2917 195.126 60.3612 195.198 60.4021 195.286L62.2866 199.378C62.3368 199.477 62.3628 199.587 62.3624 199.698C62.3621 199.809 62.3354 199.918 62.2847 200.017C62.2339 200.116 62.1605 200.201 62.0703 200.266C61.9802 200.331 61.876 200.374 61.7663 200.391C59.8677 200.764 58.9184 200.855 56.5347 201.368C55.065 201.692 51.746 202.5 49.7139 202.936C47.6817 203.372 46.9855 201.425 47.7801 201.066C51.3312 199.442 52.8078 198.014 53.7712 196.685C53.9454 196.448 54.2006 196.283 54.4884 196.221Z" fill="#263238"/>
<path d="M18.5774 197.374H23.9777C24.0758 197.375 24.1707 197.409 24.2473 197.47C24.3238 197.531 24.3775 197.616 24.3996 197.712L25.3771 202.107C25.4057 202.213 25.4091 202.324 25.3868 202.432C25.3646 202.54 25.3174 202.641 25.249 202.727C25.1806 202.813 25.0929 202.882 24.993 202.928C24.8931 202.974 24.7838 202.997 24.6739 202.993C22.7261 202.958 19.9134 202.845 17.4663 202.845C14.5974 202.845 12.1293 203 8.76809 203C6.73592 203 6.17337 200.947 7.02421 200.757C10.8917 199.913 14.056 199.821 17.396 197.761C17.7468 197.526 18.1555 197.392 18.5774 197.374Z" fill="#263238"/>
<path d="M38.5685 29.147C43.2025 30.2088 47.0066 42.0432 47.0066 42.0432L37.7458 49.1242C35.3421 46.5541 33.6461 43.4044 32.8236 39.9829C31.1852 33.7809 33.8292 28.05 38.5685 29.147Z" fill="#003087"/>
<path opacity="0.4" d="M38.5685 29.147C43.2025 30.2088 47.0066 42.0432 47.0066 42.0432L37.7458 49.1242C35.3421 46.5541 33.6461 43.4044 32.8236 39.9829C31.1852 33.7809 33.8292 28.05 38.5685 29.147Z" fill="black"/>
<path d="M14.1896 43.2591C13.0364 44.5037 11.8832 45.6147 10.6737 46.775C10.076 47.3375 9.47127 47.9 8.85247 48.4415L7.91724 49.2642L7.6852 49.4681L7.28439 49.7916C6.87187 50.1211 6.41502 50.391 5.92727 50.5932C5.38451 50.8236 4.80115 50.9431 4.21152 50.9448C3.70771 50.9469 3.20759 50.8588 2.73485 50.6846C2.2106 50.4849 1.7322 50.1811 1.3285 49.7916C0.813382 49.2881 0.435743 48.6611 0.231554 47.9704C0.124748 47.6298 0.0563433 47.2784 0.0276272 46.9226C-0.00920907 46.5062 -0.00920907 46.0874 0.0276272 45.671C0.0627859 45.3335 0.104978 45.0381 0.161232 44.7639C0.353651 43.8051 0.626512 42.8642 0.976916 41.9512C1.29326 41.0833 1.65713 40.2336 2.06685 39.4057C2.51688 38.5127 2.94581 37.8587 3.37474 37.1133C5.11691 34.2593 7.10509 31.5629 9.31657 29.055C11.5058 26.5618 13.9183 24.274 16.5241 22.2201L19.1118 24.8852C17.2976 27.3181 15.5115 29.9269 13.8591 32.4935C12.2145 35.0455 10.7121 37.6865 9.35876 40.4042C9.05639 41.0652 8.65557 41.8106 8.46572 42.345C8.21418 42.9658 7.99589 43.5995 7.81177 44.2435C7.63456 44.8235 7.50059 45.4158 7.41095 46.0155C7.40619 46.1092 7.40619 46.2031 7.41095 46.2968C7.41095 46.3531 7.41095 46.3812 7.41095 46.2335C7.39938 46.0757 7.3687 45.9198 7.31956 45.7694C7.16752 45.2709 6.8889 44.8203 6.51089 44.4615C6.17457 44.1525 5.78019 43.9135 5.35066 43.7583C4.97317 43.6153 4.573 43.5415 4.16933 43.5404C3.7811 43.5357 3.39596 43.6098 3.03723 43.7583C2.91575 43.8079 2.79821 43.8667 2.68565 43.9341L2.95283 43.688L3.80369 42.9145L5.48426 41.3394C6.59528 40.2917 7.71333 39.1736 8.7681 38.1329L14.1896 43.2591Z" fill="#EBB376"/>
<path opacity="0.2" d="M34.5957 37.8376C37.1131 40.3268 37.9358 44.8693 38.1116 48.8071L37.7038 49.1235C35.3 46.5535 33.604 43.4038 32.7815 39.9823C32.6901 39.6166 32.6057 39.2791 32.5425 38.8783L34.5957 37.8376Z" fill="black"/>
<path d="M9.27447 34.0686C8.2619 39.4128 7.62904 50.3893 10.5613 72.1174H37.0428C37.2256 68.0601 34.6731 48.2446 38.5898 29.1113C35.6634 28.5493 32.704 28.1759 29.7298 27.9932C25.9826 27.7783 22.2262 27.7783 18.479 27.9932C17.2414 28.1057 16.0179 28.2886 14.9631 28.4784C13.5604 28.7245 12.2654 29.3908 11.2496 30.389C10.2338 31.3872 9.54501 32.6704 9.27447 34.0686Z" fill="#003087"/>
<path opacity="0.4" d="M9.27447 34.0686C8.2619 39.4128 7.62904 50.3893 10.5613 72.1174H37.0428C37.2256 68.0601 34.6731 48.2446 38.5898 29.1113C35.6634 28.5493 32.704 28.1759 29.7298 27.9932C25.9826 27.7783 22.2262 27.7783 18.479 27.9932C17.2414 28.1057 16.0179 28.2886 14.9631 28.4784C13.5604 28.7245 12.2654 29.3908 11.2496 30.389C10.2338 31.3872 9.54501 32.6704 9.27447 34.0686Z" fill="black"/>
<path opacity="0.2" d="M13.3248 41.9939L8.54319 40.8478C8.39552 43.7448 8.38146 47.331 8.59241 51.7681C10.7933 49.2648 13.606 45.3551 13.3248 41.9939Z" fill="black"/>
<path opacity="0.2" d="M18.0499 186.495L18.3031 192.402H23.2534L23.0003 186.495H18.0499Z" fill="black"/>
<path opacity="0.2" d="M54.9385 184.991L50.1007 186.039L52.604 191.537L57.4418 190.49L54.9385 184.991Z" fill="black"/>
<path d="M30.6649 11.6794C29.3992 16.4188 28.8929 19.2596 25.9677 21.2285C21.5729 24.224 16.0881 20.7926 15.9475 15.786C15.7928 11.2645 17.8953 4.26796 22.9792 3.31164C24.0964 3.10197 25.2486 3.18024 26.3272 3.53908C27.4058 3.89791 28.3752 4.52549 29.1442 5.36267C29.9131 6.19984 30.4562 7.21904 30.7223 8.32418C30.9883 9.42932 30.9686 10.584 30.6649 11.6794Z" fill="#EBB376"/>
<path d="M19.5689 11.8552C19.3299 11.2223 18.24 6.32119 19.2666 5.04844C20.2932 3.7757 32.0011 4.69686 33.7309 6.39854C36.6069 9.21123 34.6099 11.7427 31.4667 14.9984C29.104 17.4454 29.0126 20.2018 27.8172 20.6238C25.7077 21.3269 22.4871 20.6659 21.8402 18.4369C21.1933 16.2078 19.5689 11.8552 19.5689 11.8552Z" fill="#263238"/>
<path d="M32.3104 0.822712C28.1758 -0.935223 20.4198 1.01257 16.2289 0C16.1755 1.55835 16.688 3.08335 17.6716 4.2932C18.6552 5.50304 20.0436 6.31595 21.58 6.58171C25.0565 7.24424 28.5886 7.57155 32.1276 7.55912C36.7264 7.34817 35.8263 2.32047 32.3104 0.822712Z" fill="#263238"/>
<path d="M32.9574 6.54642C34.4677 6.69503 35.9889 6.40447 37.3382 5.70964C38.1117 7.58008 33.8574 8.0934 32.9574 6.54642Z" fill="#263238"/>
<path d="M21.8191 12.0526C21.7241 13.2721 21.2299 14.4262 20.4128 15.3364C19.3299 16.5248 18.2048 15.7794 18.0149 14.3379C17.8462 13.03 18.1977 10.822 19.5197 10.1892C20.8417 9.55633 21.9105 10.583 21.8191 12.0526Z" fill="#EBB376"/>
<path d="M19.9486 72.1388C19.9486 72.1388 25.574 109.934 28.6469 124.096C32.0151 139.601 50.1148 190.898 50.1148 190.898L58.9677 188.978C58.9677 188.978 46.3106 147.167 43.4979 125.489C41.3181 108.837 37.0357 72.1248 37.0357 72.1248L19.9486 72.1388Z" fill="#003087"/>
<path d="M47.9912 187.952C47.956 187.952 49.6436 191.158 49.6436 191.158L59.6006 188.999L58.7638 186.004L47.9912 187.952Z" fill="#263238"/>
<path opacity="0.3" d="M23.4996 85.6039C29.9899 86.8766 29.3008 111.08 28.5203 123.533C26.6499 114.729 23.9075 97.7969 22.037 85.7797C22.4902 85.5559 23.0063 85.4939 23.4996 85.6039Z" fill="black"/>
<path d="M10.5612 72.1382C10.5612 72.1382 9.85801 109.118 10.4205 124.173C10.9831 139.861 16.4608 191.228 16.4608 191.228H24.8426C24.8426 191.228 25.145 140.775 25.5458 125.368C25.9536 108.577 27.9788 72.1101 27.9788 72.1101L10.5612 72.1382Z" fill="#003087"/>
<path d="M14.8505 187.923C14.8083 187.923 15.3216 191.396 15.3216 191.396H25.5106L25.7919 188.295L14.8505 187.923Z" fill="#263238"/>
<path d="M19.6391 35.7139C22.0088 42.1057 8.0789 49.6367 8.0789 49.6367L2.04567 41.9018C2.04567 41.9018 6.10298 33.8716 11.0252 30.2573C17.1077 25.7991 17.8319 30.8479 19.6391 35.7139Z" fill="#003087"/>
<path opacity="0.4" d="M19.6391 35.7139C22.0088 42.1057 8.0789 49.6367 8.0789 49.6367L2.04567 41.9018C2.04567 41.9018 6.10298 33.8716 11.0252 30.2573C17.1077 25.7991 17.8319 30.8479 19.6391 35.7139Z" fill="black"/>
</svg>
