<svg width="20" height="20" viewBox="0 0 20 20" fill="none" xmlns="http://www.w3.org/2000/svg">
<path d="M10 19.2308C15.098 19.2308 19.2308 15.098 19.2308 10C19.2308 4.90199 15.098 0.769231 10 0.769231C4.90199 0.769231 0.769231 4.90199 0.769231 10C0.769231 15.098 4.90199 19.2308 10 19.2308Z" stroke="#7D7D7D" stroke-width="1.5" stroke-linecap="round" stroke-linejoin="round"/>
<path d="M9.23077 9.23077H10.0001L10 14.6154H10.7692" fill="#7D7D7D"/>
<path d="M9.23077 9.23077H10.0001L10 14.6154H10.7692" stroke="#7D7D7D" stroke-width="1.5" stroke-linecap="round" stroke-linejoin="round"/>
<path d="M10.8974 5.76923C10.8974 6.26487 10.4956 6.66667 10 6.66667C9.50436 6.66667 9.10256 6.26487 9.10256 5.76923C9.10256 5.27359 9.50436 4.87179 10 4.87179C10.4956 4.87179 10.8974 5.27359 10.8974 5.76923Z" fill="#7D7D7D" stroke="#7D7D7D" stroke-width="0.125"/>
</svg>
