<svg width="17" height="21" viewBox="0 0 17 21" fill="none" xmlns="http://www.w3.org/2000/svg">
<path d="M5.40909 13.1364H11.5909" stroke="#7D7D7D" stroke-width="1.5" stroke-linecap="round" stroke-linejoin="round"/>
<path d="M5.40909 10.0455H11.5909" stroke="#7D7D7D" stroke-width="1.5" stroke-linecap="round" stroke-linejoin="round"/>
<path d="M11.5911 2.31818H15.4545C15.6595 2.31818 15.856 2.39959 16.0009 2.54451C16.1459 2.68942 16.2273 2.88597 16.2273 3.09091V19.3182C16.2273 19.5231 16.1459 19.7197 16.0009 19.8646C15.856 20.0095 15.6595 20.0909 15.4545 20.0909H1.54545C1.34051 20.0909 1.14397 20.0095 0.999054 19.8646C0.85414 19.7197 0.772727 19.5231 0.772727 19.3182V3.09091C0.772727 2.88597 0.85414 2.68942 0.999054 2.54451C1.14397 2.39959 1.34051 2.31818 1.54545 2.31818H5.40888" stroke="#7D7D7D" stroke-width="1.5" stroke-linecap="round" stroke-linejoin="round"/>
<path d="M4.63636 5.40909V4.63636C4.63636 3.61166 5.04342 2.62893 5.768 1.90436C6.49257 1.17979 7.4753 0.772727 8.5 0.772727C9.5247 0.772727 10.5074 1.17979 11.232 1.90436C11.9566 2.62893 12.3636 3.61166 12.3636 4.63636V5.40909H4.63636Z" stroke="#7D7D7D" stroke-width="1.5" stroke-linecap="round" stroke-linejoin="round"/>
</svg>
