<svg width="20" height="72" viewBox="0 0 20 72" fill="none" xmlns="http://www.w3.org/2000/svg">
<path d="M14.0351 35.5592C14.3277 33.3916 12.1493 31.9285 12.4961 29.9452C12.8429 27.9618 15.4223 27.279 15.8667 25.1873C16.4628 22.3478 13.6124 20.9714 14.111 18.2077C14.4144 16.5387 16.918 16.4845 17.4165 14.7612C17.9151 13.038 15.6174 11.5099 16.181 9.78664C16.7446 8.06341 18.6412 8.00923 19.2915 6.16678C20.1802 3.64154 16.7988 0 16.7988 0C16.7988 0 11.7916 0.5202 10.8487 3.19717C10.1659 5.15883 11.6724 6.32934 11.0872 8.16095C10.5019 9.99256 7.8358 9.84081 7.22887 11.835C6.62195 13.8292 8.82205 15.0864 8.31267 16.7012C7.39144 19.4649 4.2051 19.4757 3.54399 22.5537C3.06712 24.8188 5.18053 26.4879 4.81204 28.5796C4.44355 30.6713 1.8858 31.5058 1.56066 33.8035C1.27888 35.8302 3.01294 37.315 2.80702 39.2224C2.6011 41.1299 0.639441 42.1703 0.444359 44.2078C0.28179 46.3754 2.43851 47.8061 2.35181 49.8436C2.26511 51.8811 0.0108379 53.095 0 55.3276C0 57.7444 2.49272 58.9258 2.64446 61.1367C2.77451 62.9033 0.856189 64.1063 0.975406 66.0463C1.19216 69.6336 4.01003 72.2889 7.10967 71.9746C8.65027 71.7431 10.0425 70.9271 10.9971 69.6959C11.9517 68.4648 12.3954 66.9132 12.236 65.3635C12.1276 63.5644 10.0684 62.589 10.1335 60.9091C10.1335 58.7957 12.637 57.6577 12.6478 55.4034C12.6478 53.3442 10.4802 52.1521 10.4802 50.1796C10.4802 48.2071 12.8538 47.1991 13.0055 45.1508C13.1464 43.2758 11.369 41.8994 11.5532 40.1653C11.7375 38.4313 13.775 37.4233 14.0351 35.5592Z" fill="#F0F0F0"/>
</svg>
