<svg width="158" height="105" viewBox="0 0 158 105" fill="none" xmlns="http://www.w3.org/2000/svg">
<path d="M147.068 103.731L10.7488 103.493C8.02572 103.487 5.41626 102.403 3.49443 100.479C1.5726 98.5548 0.495829 95.9479 0.500962 93.2318L0.664285 10.7214C0.669623 8.00531 1.75644 5.40257 3.68566 3.48571C5.61489 1.56884 8.22852 0.494843 10.9516 0.499959L147.248 0.72287C149.971 0.727393 152.58 1.8104 154.503 3.73373C156.425 5.65706 157.503 8.2632 157.499 10.979L157.365 93.5153C157.362 94.8605 157.093 96.1918 156.573 97.4332C156.054 98.6746 155.295 99.8018 154.338 100.75C153.382 101.699 152.248 102.45 151.001 102.962C149.753 103.473 148.417 103.734 147.068 103.731Z" fill="#003087" stroke="#000F2A" stroke-miterlimit="10"/>
</svg>
