<svg width="13" height="13" viewBox="0 0 13 13" fill="none" xmlns="http://www.w3.org/2000/svg">
<path d="M6.5 0C5.21442 0 3.95771 0.381218 2.8888 1.09545C1.81988 1.80968 0.986755 2.82484 0.494786 4.01256C0.00281635 5.20028 -0.125905 6.50721 0.124899 7.76809C0.375702 9.02896 0.994767 10.1871 1.90381 11.0962C2.81285 12.0052 3.97104 12.6243 5.23191 12.8751C6.49279 13.1259 7.79972 12.9972 8.98744 12.5052C10.1752 12.0132 11.1903 11.1801 11.9046 10.1112C12.6188 9.04228 13 7.78558 13 6.5C12.998 4.7767 12.3125 3.12456 11.094 1.90601C9.87544 0.687451 8.2233 0.00199175 6.5 0ZM10 7H6.5C6.43433 7.00004 6.36929 6.98713 6.30861 6.96201C6.24793 6.9369 6.1928 6.90007 6.14636 6.85364C6.09993 6.8072 6.0631 6.75206 6.03798 6.69138C6.01287 6.6307 5.99996 6.56567 6 6.5V3C6 2.86739 6.05268 2.74021 6.14645 2.64645C6.24022 2.55268 6.36739 2.5 6.5 2.5C6.63261 2.5 6.75979 2.55268 6.85355 2.64645C6.94732 2.74021 7 2.86739 7 3V6H10C10.1326 6 10.2598 6.05268 10.3536 6.14644C10.4473 6.24021 10.5 6.36739 10.5 6.5C10.5 6.63261 10.4473 6.75978 10.3536 6.85355C10.2598 6.94732 10.1326 7 10 7Z" fill="#FF9900"/>
</svg>
