<svg width="33" height="32" viewBox="0 0 33 32" fill="none" xmlns="http://www.w3.org/2000/svg">
<path d="M32.8311 29.5426C30.4856 25.5029 26.7294 22.4729 22.2848 21.0354C24.4141 19.7684 26.0685 17.8375 26.9941 15.5392C27.9197 13.2409 28.0651 10.7023 27.4081 8.31332C26.7511 5.92433 25.328 3.81708 23.3574 2.31524C21.3868 0.813389 18.9776 0 16.5 0C14.0223 0 11.6131 0.813389 9.64251 2.31524C7.67189 3.81708 6.2488 5.92433 5.59181 8.31332C4.93483 10.7023 5.08028 13.2409 6.00584 15.5392C6.93139 17.8375 8.58586 19.7684 10.7151 21.0354C6.27065 22.4729 2.51452 25.5027 0.169006 29.5423C0.058448 29.7334 0.000158123 29.9502 3.21251e-07 30.1709C-0.00015748 30.3917 0.0578225 30.6086 0.168107 30.7998C0.278392 30.991 0.437092 31.1498 0.628242 31.2603C0.819392 31.3707 1.03625 31.4288 1.257 31.4288L31.7432 31.4291C31.9639 31.4291 32.1808 31.371 32.3719 31.2606C32.5631 31.1502 32.7218 30.9914 32.8321 30.8001C32.9424 30.6089 33.0003 30.392 33.0002 30.1713C33 29.9505 32.9417 29.7337 32.8311 29.5426L32.8311 29.5426Z" fill="#B4B4B4"/>
</svg>
