<svg width="44" height="44" viewBox="0 0 44 44" fill="none" xmlns="http://www.w3.org/2000/svg">
<path d="M17.6272 16.4682L12.8693 27.8216H9.76379L7.42404 18.7618C7.28 18.2031 7.1569 17.9998 6.72498 17.7626C6.01748 17.3801 4.85371 17.0213 3.82617 16.7978L3.89809 16.4682H8.89442C9.53164 16.4682 10.1045 16.8933 10.2486 17.626L11.4858 24.1971L14.5415 16.4682H17.6272V16.4682ZM29.7914 24.1131C29.8051 21.1183 25.6474 20.9553 25.6772 19.6154C25.6853 19.2065 26.073 18.7737 26.9219 18.6644C27.3434 18.6084 28.5035 18.5672 29.8183 19.1709L30.3337 16.7644C29.6262 16.5076 28.7169 16.2617 27.5867 16.2617C24.6839 16.2617 22.6404 17.8057 22.6232 20.0149C22.6042 21.6486 24.0811 22.5603 25.1952 23.1043C26.3392 23.6611 26.7217 24.0165 26.7176 24.5158C26.7102 25.2778 25.8049 25.6108 24.9605 25.6258C23.4835 25.6488 22.6269 25.2267 21.9427 24.9081L21.411 27.3973C22.0963 27.7119 23.365 27.9851 24.6781 28.0012C27.7633 28.0011 29.7816 26.4735 29.7914 24.1131ZM37.457 27.8217H40.174L37.8032 16.4682H35.295C34.7314 16.4682 34.2563 16.7969 34.0446 17.3005L29.6401 27.8217H32.7229L33.3349 26.1261H37.1032L37.457 27.8217ZM34.1797 23.7991L35.7264 19.536L36.6161 23.7991H34.1797ZM21.8244 16.4682L19.3943 27.8216H16.4568L18.8874 16.4682H21.8244Z" fill="#1A2ADF"/>
</svg>
