<svg width="70" height="70" viewBox="0 0 70 70" fill="none" xmlns="http://www.w3.org/2000/svg">
<g clip-path="url(#clip0_0_1413)">
<path d="M0.354492 0.382812H69.7064V67.1484H0.354492V0.382812Z" fill="white"/>
<path d="M0 0H70V70H0V0Z" fill="#00A651"/>
<path d="M43.159 63.0343V65.7413H26.3697V63.0293H13.6653C12.4239 63.0293 11.4127 61.7395 11.4127 60.1491L6.09668 6.70245C6.09668 5.11114 7.33805 3.82031 8.86986 3.82031H60.2084C61.7302 3.82031 62.9716 5.11114 62.9716 6.70245L57.7156 60.1491C57.7156 61.7395 56.7044 63.0293 55.4631 63.0293L43.159 63.0343H43.159Z" fill="white"/>
<path d="M15.4473 11.6465H49.8166C46.4327 12.9075 36.131 19.8412 33.5581 24.503H15.4774L15.4473 11.6465H15.4473Z" fill="#FF6701"/>
<path d="M42.8393 48.4844C42.3487 53.1401 42.3287 58.8099 42.3287 64.7653H27.4316C27.4316 58.8099 27.682 53.1401 28.1724 48.4844H42.8393H42.8393Z" fill="#E50A09"/>
<path d="M19.793 41.7575V43.562H17.4103V45.3671H19.793V47.4354H14.3467V37.8105H19.793V39.9544H17.4103V41.7575H19.793Z" fill="#00A651"/>
<path d="M32.4575 41.7575V43.562H30.085V45.3671H32.4575V47.4354H27.0215V37.8105H32.4575V39.9544H30.085V41.7575H32.4575Z" fill="#00A651"/>
<path d="M46.413 41.7575V43.562H44.0303V45.3671H46.413V47.4354H40.9668V37.8105H46.413V39.9544H44.0303V41.7575H46.413Z" fill="#00A651"/>
<path d="M23.877 37.8105V45.3671H26.2595V47.4354H20.8135V37.8105H23.877Z" fill="#00A651"/>
<path d="M36.852 44.3155L35.6904 37.8105H33.0176L34.5391 47.4354H38.4736L40.3157 37.8105H38.0431L36.852 44.3155Z" fill="#00A651"/>
<path d="M47.7041 37.8105H50.6477V47.4344H47.7041V37.8105Z" fill="#00A651"/>
<path d="M50.6475 40.6681C50.8078 39.6141 52.3094 39.8968 52.3094 40.4988V47.4356H55.2628V39.2777C55.2628 37.548 52.8099 36.8523 50.6675 38.3751L50.6475 40.6681L50.6475 40.6681Z" fill="#00A651"/>
<path d="M44.2209 36.4567C44.5211 32.7733 49.5969 26.7582 54.5125 25.1787V10.9688C40.9871 16.984 32.197 26.0814 30.2949 36.4208L44.2208 36.4567L44.2209 36.4567Z" fill="#E50A09"/>
</g>
<defs>
<clipPath id="clip0_0_1413">
<path d="M0 8C0 3.58172 3.58172 0 8 0H62C66.4183 0 70 3.58172 70 8V62C70 66.4183 66.4183 70 62 70H8C3.58172 70 0 66.4183 0 62V8Z" fill="white"/>
</clipPath>
</defs>
</svg>
