<svg width="29" height="69" viewBox="0 0 29 69" fill="none" xmlns="http://www.w3.org/2000/svg">
<path d="M10.5837 34.4533C9.93558 32.4225 11.8043 30.5537 11.1238 28.6633C10.4433 26.773 7.79677 26.5569 6.99742 24.5801C5.91722 21.9012 8.48812 20.0541 7.52674 17.4291C6.94343 15.8412 4.46977 16.2301 3.68122 14.6206C2.89267 13.0111 4.89103 11.1639 4.03767 9.522C3.18431 7.88008 1.31556 8.20416 0.354177 6.49742C-0.942067 4.17497 1.73684 0.0161598 1.73684 0.0161598C1.73684 0.0161598 6.74899 -0.329508 8.13165 2.17658C9.14704 3.98053 7.87239 5.41722 8.75816 7.08075C9.64392 8.74427 12.2688 8.16094 13.1762 10.0297C14.0836 11.8985 12.1608 13.4432 13.0033 14.9879C14.386 17.5372 17.5186 16.9971 18.6852 19.9028C19.5602 22.0633 17.7671 24.0508 18.4908 26.0384C19.2145 28.026 21.8718 28.4149 22.574 30.6077C23.2113 32.5413 21.7638 34.302 22.2823 36.0952C22.8008 37.8883 24.9612 38.6121 25.4581 40.5889C26.009 42.7493 24.1295 44.4668 24.5615 46.4544C24.9936 48.442 27.4133 49.2305 27.8021 51.4234C28.2342 53.789 25.9766 55.3878 26.2034 57.5806C26.3871 59.3413 28.4827 60.1947 28.6987 62.1175C29.0984 65.6713 26.7868 68.7715 23.6974 68.9984C22.1441 69.0355 20.6362 68.4724 19.4874 67.4262C18.3387 66.3801 17.6374 64.9313 17.5294 63.3813C17.3242 61.599 19.1281 60.3027 18.8148 58.65C18.426 56.5868 15.8011 55.863 15.4014 53.681C15.0017 51.499 16.9785 50.0731 16.568 48.1936C16.1576 46.314 13.7379 45.6766 13.2302 43.6891C12.7657 41.8743 14.3104 40.2324 13.7919 38.5473C13.2734 36.8622 11.167 36.2356 10.5837 34.4533Z" fill="#F5F5F5"/>
</svg>
