<svg width="48" height="48" viewBox="0 0 48 48" fill="none" xmlns="http://www.w3.org/2000/svg">
<path d="M0 24C0 10.7452 10.7452 0 24 0C37.2548 0 48 10.7452 48 24C48 37.2548 37.2548 48 24 48C10.7452 48 0 37.2548 0 24Z" fill="#F5F5F5"/>
<path d="M26.9032 19.4839C26.9032 18.6394 27.3548 17.5013 28.0277 16.3226C25.4084 12.7865 22.8387 10 22.8387 10C22.8387 10 12 21.7419 12 27.6129C12 33.4839 16.9677 38 22.8387 38C28.7097 38 33.6774 33.4839 33.6774 27.6129C33.6295 26.5232 33.3815 25.4516 32.9458 24.4516L32.8736 24.3297C32.1529 24.4782 31.4083 24.4647 30.6935 24.2904C29.9787 24.116 29.3116 23.785 28.7403 23.3213C28.169 22.8576 27.7079 22.2728 27.3902 21.6092C27.0725 20.9456 26.9061 20.2196 26.9032 19.4839ZM20.129 34.8387L22.8387 28.0645H17.871L24.6452 19.0323L23.2903 25.8065H28.7097L20.129 34.8387Z" fill="#003087"/>
<path d="M28.0463 16.3226C27.396 17.5013 26.9038 18.6394 26.9038 19.4839C26.9038 20.8014 27.4271 22.065 28.3588 22.9966C29.2904 23.9283 30.554 24.4516 31.8715 24.4516C33.189 24.4516 34.4526 23.9283 35.3842 22.9966C36.3159 22.065 36.8392 20.8014 36.8392 19.4839C36.8392 16.7516 31.8715 10.9033 31.8715 10.9033C30.4505 12.6021 29.1711 14.4146 28.0463 16.3226Z" fill="#FFD100"/>
<path d="M24.6465 19.0322L17.8723 28.0644H22.8401L20.1304 34.8386L28.711 25.8064H23.2917L24.6465 19.0322Z" fill="#FFD100"/>
<g opacity="0.5">
<path opacity="0.5" d="M36.1263 22.0039C36.5874 21.2437 36.834 20.3729 36.8399 19.4839C36.8399 16.7516 31.8722 10.9033 31.8722 10.9033C31.8722 10.9033 30.7702 12.2039 29.6141 13.8658C31.2896 14.9949 35.2954 18.0568 36.1263 22.0039Z" fill="white"/>
</g>
<g opacity="0.5">
<path opacity="0.5" d="M12.0806 26.7097C15.0161 21.1458 24.3419 16.3226 27.0561 15.0129C24.798 12.1271 22.838 10 22.838 10C22.838 10 13.029 20.64 12.0806 26.7097Z" fill="white"/>
</g>
<path d="M33.3607 25.6845C33.2431 25.2668 33.1044 24.8553 32.9452 24.4516L32.873 24.3297C32.1523 24.4782 31.4077 24.4648 30.6929 24.2904C29.9781 24.116 29.311 23.785 28.7397 23.3213C28.1684 22.8576 27.7073 22.2729 27.3896 21.6092C27.0719 20.9456 26.9056 20.2196 26.9026 19.4839C26.9026 18.6394 27.3543 17.5013 28.0272 16.3226C27.7562 15.9613 27.4882 15.609 27.2233 15.2658C25.6923 17.1897 23.1181 21.5884 28.0904 24.9032C29.7186 25.72 31.5656 25.9938 33.3607 25.6845Z" fill="#000F2A"/>
<path d="M16.0657 23.0967C15.985 23.0969 15.9057 23.0754 15.8361 23.0346C15.7665 22.9937 15.7092 22.935 15.67 22.8644C15.6308 22.7939 15.6112 22.7142 15.6133 22.6335C15.6154 22.5528 15.639 22.4742 15.6818 22.4058L17.9399 18.7929C18.0033 18.6911 18.1047 18.6186 18.2215 18.5915C18.3384 18.5644 18.4613 18.5849 18.5631 18.6483C18.6649 18.7118 18.7373 18.8131 18.7644 18.93C18.7915 19.0469 18.7711 19.1698 18.7076 19.2716L16.4495 22.8845C16.4089 22.9496 16.3523 23.0032 16.2851 23.0403C16.2179 23.0775 16.1424 23.0969 16.0657 23.0967Z" fill="white"/>
<path d="M19.2235 18.129C19.1421 18.1286 19.0624 18.1062 18.9928 18.0643C18.9231 18.0223 18.8661 17.9623 18.8277 17.8906C18.7893 17.8189 18.771 17.7382 18.7746 17.6569C18.7783 17.5757 18.8039 17.497 18.8486 17.429L19.7519 16.0742C19.8212 15.9819 19.9233 15.9198 20.0371 15.9004C20.1509 15.8811 20.2678 15.9061 20.3638 15.9702C20.4598 16.0344 20.5275 16.1329 20.5531 16.2455C20.5787 16.358 20.5603 16.4761 20.5015 16.5755L19.5983 17.9303C19.5569 17.9916 19.501 18.0418 19.4357 18.0764C19.3703 18.1111 19.2974 18.1292 19.2235 18.129Z" fill="white"/>
<g opacity="0.5">
<path opacity="0.5" d="M31.8727 22.6767C31.753 22.6767 31.6381 22.6292 31.5534 22.5445C31.4687 22.4598 31.4211 22.3449 31.4211 22.2251C31.4211 22.1054 31.4687 21.9905 31.5534 21.9058C31.6381 21.8211 31.753 21.7735 31.8727 21.7735C32.48 21.7735 33.0624 21.5323 33.4918 21.1029C33.9212 20.6735 34.1624 20.0911 34.1624 19.4838C34.1624 19.3641 34.21 19.2492 34.2947 19.1645C34.3794 19.0798 34.4943 19.0322 34.614 19.0322C34.7338 19.0322 34.8487 19.0798 34.9334 19.1645C35.0181 19.2492 35.0656 19.3641 35.0656 19.4838C35.0656 20.3306 34.7293 21.1428 34.1305 21.7416C33.5317 22.3403 32.7196 22.6767 31.8727 22.6767Z" fill="white"/>
</g>
</svg>
