<svg width="215" height="251" viewBox="0 0 215 251" fill="none" xmlns="http://www.w3.org/2000/svg">
<path d="M138.133 62.5129L131.029 62.7486C130.885 62.7637 130.739 62.7464 130.602 62.6979C130.465 62.6494 130.341 62.571 130.238 62.4683C130.135 62.3656 130.057 62.2413 130.008 62.1044C129.96 61.9675 129.942 61.8215 129.958 61.6771L131.083 45.7971C131.113 45.496 131.249 45.2153 131.467 45.0052C131.684 44.7952 131.97 44.6695 132.272 44.6506L139.387 44.4149C139.531 44.3997 139.677 44.417 139.814 44.4655C139.951 44.514 140.075 44.5925 140.178 44.6952C140.281 44.7978 140.359 44.9222 140.408 45.0591C140.456 45.196 140.474 45.342 140.458 45.4864L139.323 61.3663C139.295 61.6683 139.159 61.9502 138.941 62.1607C138.723 62.3712 138.436 62.4961 138.133 62.5129Z" fill="#003087"/>
<path d="M139.44 62.4701L132.336 62.7058C132.192 62.721 132.046 62.7037 131.909 62.6552C131.772 62.6067 131.648 62.5283 131.545 62.4256C131.442 62.3229 131.364 62.1985 131.315 62.0616C131.267 61.9248 131.25 61.7788 131.265 61.6343L132.401 45.7544C132.428 45.4524 132.564 45.1705 132.782 44.96C133 44.7495 133.287 44.6245 133.59 44.6078L140.694 44.3721C140.838 44.3569 140.984 44.3742 141.121 44.4227C141.258 44.4712 141.383 44.5497 141.485 44.6524C141.588 44.7551 141.666 44.8794 141.715 45.0163C141.763 45.1532 141.781 45.2992 141.766 45.4436L140.63 61.3236C140.604 61.6264 140.469 61.9096 140.251 62.1205C140.032 62.3314 139.744 62.4556 139.44 62.4701Z" fill="#003087"/>
<path d="M131.308 61.6342L132.444 45.7546C132.471 45.4526 132.607 45.1707 132.825 44.9602C133.043 44.7498 133.33 44.6248 133.633 44.6081H132.294C131.991 44.6269 131.706 44.7526 131.488 44.9627C131.27 45.1727 131.134 45.4534 131.104 45.7546L129.979 61.6342C129.964 61.7787 129.981 61.9247 130.03 62.0616C130.078 62.1984 130.157 62.3228 130.259 62.4255C130.362 62.5282 130.486 62.6066 130.623 62.6551C130.76 62.7036 130.906 62.7209 131.051 62.7057H132.379C132.235 62.7209 132.089 62.7036 131.952 62.6551C131.815 62.6066 131.691 62.5282 131.588 62.4255C131.485 62.3228 131.407 62.1984 131.358 62.0616C131.31 61.9247 131.293 61.7787 131.308 61.6342Z" fill="#003087"/>
<path opacity="0.5" d="M131.308 61.6342L132.444 45.7546C132.471 45.4526 132.607 45.1707 132.825 44.9602C133.043 44.7498 133.33 44.6248 133.633 44.6081H132.294C131.991 44.6269 131.706 44.7526 131.488 44.9627C131.27 45.1727 131.134 45.4534 131.104 45.7546L129.979 61.6342C129.964 61.7787 129.981 61.9247 130.03 62.0616C130.078 62.1984 130.157 62.3228 130.259 62.4255C130.362 62.5282 130.486 62.6066 130.623 62.6551C130.76 62.7036 130.906 62.7209 131.051 62.7057H132.379C132.235 62.7209 132.089 62.7036 131.952 62.6551C131.815 62.6066 131.691 62.5282 131.588 62.4255C131.485 62.3228 131.407 62.1984 131.358 62.0616C131.31 61.9247 131.293 61.7787 131.308 61.6342Z" fill="white"/>
<path d="M135.444 46.451C135.427 46.7239 135.307 46.9802 135.108 47.1674C134.909 47.3547 134.646 47.4587 134.372 47.4582C134.248 47.4651 134.125 47.445 134.01 47.3994C133.894 47.3538 133.79 47.2838 133.705 47.1942C133.619 47.1046 133.554 46.9975 133.514 46.8803C133.474 46.7631 133.459 46.6385 133.472 46.5153C133.488 46.2424 133.609 45.9861 133.808 45.7988C134.007 45.6116 134.27 45.5075 134.544 45.508C134.667 45.503 134.79 45.5243 134.904 45.5705C135.019 45.6167 135.122 45.6867 135.207 45.776C135.292 45.8652 135.357 45.9715 135.398 46.0879C135.439 46.2043 135.454 46.3281 135.444 46.451Z" fill="#263238"/>
<path d="M134.383 228.061L137.587 238.401L147.08 236.644L144.434 225.136L134.383 228.061Z" fill="#FAB27B"/>
<path opacity="0.2" d="M136.279 234.19L145.966 231.844L145.216 228.586L135.529 231.779L136.279 234.19Z" fill="black"/>
<path d="M149.427 236.719C149.373 236.723 149.318 236.71 149.272 236.681C149.226 236.652 149.19 236.609 149.17 236.558C149.148 236.51 149.142 236.455 149.154 236.403C149.165 236.351 149.194 236.304 149.234 236.269C149.373 236.13 152.652 233.054 154.592 233.14C154.951 233.153 155.292 233.303 155.545 233.558C155.695 233.687 155.802 233.859 155.851 234.05C155.901 234.242 155.892 234.444 155.824 234.63C155.513 235.315 154.185 235.894 152.834 236.215C151.716 236.486 150.576 236.654 149.427 236.719ZM150.177 236.183C152.256 235.958 154.988 235.294 155.331 234.469C155.385 234.362 155.406 234.19 155.138 233.912C155.065 233.832 154.976 233.769 154.875 233.729C154.775 233.688 154.667 233.67 154.56 233.676C154.386 233.667 154.213 233.685 154.045 233.73C152.612 234.3 151.3 235.136 150.177 236.194V236.183Z" fill="#003087"/>
<path d="M149.288 236.741C149.244 236.724 149.206 236.696 149.176 236.661C149.146 236.625 149.125 236.583 149.116 236.537C149.116 236.398 148.698 233.397 149.813 231.94C149.971 231.728 150.17 231.55 150.398 231.415C150.626 231.281 150.879 231.193 151.141 231.158C151.87 231.061 152.213 231.372 152.266 231.661C152.792 232.829 150.734 235.798 149.577 236.676C149.542 236.686 149.505 236.686 149.47 236.676C149.419 236.72 149.354 236.743 149.288 236.741ZM151.088 231.694C150.761 231.763 150.471 231.95 150.273 232.219C149.685 233.348 149.457 234.631 149.62 235.894C150.777 234.823 152.052 232.529 151.763 231.812C151.763 231.747 151.656 231.576 151.184 231.64L151.045 231.694H151.088Z" fill="#003087"/>
<path d="M147.959 235.465L136.119 238.262C135.902 238.313 135.71 238.437 135.574 238.612C135.437 238.788 135.365 239.004 135.369 239.226L135.497 249.374C135.503 249.805 135.678 250.216 135.985 250.519C136.292 250.822 136.706 250.992 137.137 250.992C137.251 251.003 137.365 251.003 137.48 250.992C141.766 249.92 145.473 248.774 150.788 247.531C157.067 246.052 155.652 247.177 163.046 245.538C167.503 244.552 167.128 239.301 165.189 239.505C156.317 240.459 154.806 238.058 150.745 235.765C149.886 235.322 148.893 235.215 147.959 235.465Z" fill="#263238"/>
<path d="M180.394 212.985L185.312 222.618L194.366 219.264L189.791 208.388L180.394 212.985Z" fill="#FAB27B"/>
<path opacity="0.2" d="M183.308 218.696L192.459 214.732L191.162 211.646L182.162 216.446L183.308 218.696Z" fill="black"/>
<path d="M196.702 218.943C196.649 218.955 196.594 218.95 196.544 218.929C196.494 218.908 196.451 218.871 196.423 218.825C196.39 218.782 196.373 218.729 196.373 218.675C196.373 218.621 196.39 218.568 196.423 218.525C196.541 218.364 199.242 214.796 201.149 214.539C201.502 214.485 201.863 214.57 202.156 214.775C202.339 214.88 202.483 215.04 202.568 215.233C202.653 215.426 202.674 215.641 202.628 215.846C202.445 216.575 201.224 217.368 199.949 217.914C198.897 218.348 197.811 218.692 196.702 218.943ZM197.345 218.278C199.359 217.7 201.931 216.575 202.124 215.707C202.124 215.6 202.124 215.428 201.845 215.203C201.759 215.134 201.659 215.085 201.551 215.061C201.443 215.037 201.331 215.038 201.224 215.064C201.057 215.084 200.894 215.131 200.742 215.203C199.426 216.006 198.274 217.049 197.345 218.278Z" fill="#003087"/>
<path d="M196.563 218.986C196.518 218.975 196.476 218.953 196.441 218.924C196.406 218.894 196.378 218.856 196.359 218.814C196.359 218.675 195.416 215.792 196.263 214.164C196.381 213.928 196.545 213.718 196.745 213.546C196.946 213.375 197.179 213.246 197.431 213.167C198.138 212.953 198.502 213.167 198.631 213.467C199.338 214.539 197.827 217.753 196.831 218.825C196.82 218.841 196.806 218.854 196.789 218.864C196.772 218.873 196.754 218.878 196.734 218.878C196.715 218.907 196.69 218.932 196.66 218.95C196.631 218.969 196.597 218.981 196.563 218.986ZM197.474 213.703C197.163 213.828 196.911 214.065 196.766 214.367C196.381 215.577 196.381 216.876 196.766 218.086C197.709 216.789 198.588 214.367 198.224 213.692C198.224 213.639 198.074 213.478 197.624 213.628L197.495 213.703H197.474Z" fill="#003087"/>
<path d="M195.041 217.978L183.855 222.757C183.651 222.844 183.483 222.997 183.377 223.192C183.272 223.386 183.236 223.611 183.276 223.829L185.14 233.794C185.219 234.219 185.462 234.597 185.817 234.844C186.172 235.09 186.611 235.187 187.037 235.112L187.358 235.015C191.366 233.215 194.859 231.469 199.884 229.326C205.81 226.797 204.61 228.147 211.617 225.265C215.839 223.529 214.575 218.428 212.689 218.953C204.117 221.407 202.21 219.307 197.816 217.743C196.894 217.476 195.905 217.56 195.041 217.978Z" fill="#263238"/>
<path d="M92.519 125.036C92.519 125.036 146.995 120.117 159.863 132.536C172.732 144.955 193.198 210.071 193.198 210.071L178.733 216.5C178.733 216.5 155.931 180.261 144.83 152.895C144.83 152.895 77.1321 162.367 72.3317 148.266L74.6355 123.814L92.519 125.036Z" fill="#003087"/>
<path d="M176.011 215.128L178.197 218.589L194.934 210.617L192.737 205.967L176.011 215.128Z" fill="#003087"/>
<path opacity="0.3" d="M176.011 215.128L178.197 218.589L194.934 210.617L192.737 205.967L176.011 215.128Z" fill="black"/>
<path d="M51.1265 123.878C51.1265 123.878 47.5905 153.002 60.1272 157.095C72.6638 161.188 110.049 156.773 110.049 156.773C110.049 156.773 110.124 186.969 132.733 231.554L146.094 226.882C146.094 226.882 138.219 151.395 131.972 141.162C127.493 133.854 114.656 123.064 51.1265 123.878Z" fill="#003087"/>
<path d="M130.59 229.723L132.122 233.912L148.13 227.976L146.92 223.926L130.59 229.723Z" fill="#003087"/>
<path opacity="0.3" d="M130.59 229.723L132.122 233.912L148.13 227.976L146.92 223.926L130.59 229.723Z" fill="black"/>
<path opacity="0.1" d="M134.179 138.944C124.846 128.657 83.9361 131.658 71.8602 131.593V131.69C98.7123 134.776 126.925 132.033 131.972 141.173C133.129 143.262 134.533 147.869 135.84 154.031C137.49 153.859 137.908 153.688 139.162 153.538C137.33 145.909 137.694 142.812 134.179 138.944Z" fill="black"/>
<path d="M86.8294 54.7551C86.8294 54.7551 93.6013 54.5194 101.456 73.7423L110.274 91.0579C110.274 91.0579 122.275 82.9251 128.865 72.5636C128.865 72.5636 129.861 54.2944 136.312 55.7195C137.495 55.9428 138.613 56.4274 139.585 57.1379C140.557 57.8485 141.359 58.767 141.93 59.8266C142.502 60.8861 142.83 62.06 142.891 63.2625C142.951 64.465 142.743 65.6659 142.28 66.7775C140.456 70.1661 138.427 73.4403 136.205 76.5818C136.205 76.5818 120.561 103.53 110.435 103.862C100.309 104.195 90.3225 84.5217 90.3225 84.5217L87.1723 65.9417L86.8294 54.7551Z" fill="#FAB27B"/>
<path d="M88.1151 54.4121C88.1151 54.4121 95.1763 55.9122 100.695 70.9027C100.695 70.9027 102.763 71.342 102.613 74.3101C102.613 74.3101 106.052 86.3539 96.4086 95.2903C96.4086 95.2903 94.3834 95.4082 93.5584 92.0758L89.1223 84.3716L85.2328 66.3702L85.0184 59.7911L85.3399 54.0156L88.1151 54.4121Z" fill="#263238"/>
<path d="M88.1151 54.4121C88.1151 54.4121 95.1763 55.9122 100.695 70.9027C100.695 70.9027 102.763 71.342 102.613 74.3101C102.613 74.3101 106.052 86.3539 96.4086 95.2903C96.4086 95.2903 94.3834 95.4082 93.5584 92.0758L89.1223 84.3716L85.2328 66.3702L85.0184 59.7911L85.3399 54.0156L88.1151 54.4121Z" fill="#FFD100"/>
<path d="M126.861 74.9102C129.107 75.9948 131.109 77.5261 132.743 79.4106L134.672 77.3854C134.672 77.3854 133.194 74.1709 127.965 73.2708L126.861 74.9102Z" fill="#003087"/>
<path opacity="0.7" d="M126.861 74.9102C129.107 75.9948 131.109 77.5261 132.743 79.4106L134.672 77.3854C134.672 77.3854 133.194 74.1709 127.965 73.2708L126.861 74.9102Z" fill="white"/>
<path d="M135.99 79.8068C135.133 81.1462 133.633 81.7249 132.636 81.0927C131.64 80.4605 131.565 78.8532 132.401 77.5138C133.236 76.1745 134.758 75.5851 135.754 76.2173C136.751 76.8495 136.837 78.4568 135.99 79.8068Z" fill="#003087"/>
<path d="M135.572 79.5498C135.327 79.7572 135.029 79.8925 134.711 79.9405C134.393 79.9885 134.068 79.9474 133.773 79.8217C133.477 79.696 133.222 79.4907 133.036 79.2286C132.85 78.9665 132.741 78.658 132.72 78.3374C132.699 78.0167 132.767 77.6965 132.917 77.4125C133.068 77.1284 133.294 76.8917 133.57 76.7286C133.847 76.5654 134.164 76.4823 134.485 76.4886C134.807 76.4948 135.12 76.5901 135.39 76.7638C135.772 77.1161 136.004 77.6018 136.038 78.1204C136.072 78.6389 135.905 79.1507 135.572 79.5498Z" fill="#263238"/>
<path opacity="0.1" d="M88.0616 79.4641L89.1331 84.3395L93.5692 92.0436C94.3943 95.4082 96.4194 95.2581 96.4194 95.2581C98.183 93.637 99.6578 91.7274 100.781 89.6113C97.416 84.1252 91.2654 80.8249 88.0616 79.4641Z" fill="black"/>
<path d="M92.0582 57.3266C90.6117 55.3443 87.6007 53.2227 83.0897 51.6369L80.3573 58.4303L75.9855 60.1126L72.5031 59.1482L69.4065 57.6481L65.8919 52.4084L65.4204 49.301C61.0527 49.4352 56.7028 49.9189 52.4123 50.7475C29.5569 55.0336 49.0263 126.353 49.0263 126.353C85.8756 133.533 100.384 123.578 100.384 123.578C95.5513 110.195 95.7013 62.2663 92.0582 57.3266Z" fill="#FFD100"/>
<path opacity="0.1" d="M54.5553 60.9483L42.1151 65.5022C41.3834 70.5677 41.168 75.6944 41.4722 80.8034C58.3163 78.0174 54.5553 60.9483 54.5553 60.9483Z" fill="black"/>
<path d="M92.9262 11.7018C92.9262 11.7018 96.7621 14.5949 95.6263 17.5523C95.6263 17.5523 98.1122 23.9814 93.1297 23.7564C93.1297 23.7564 87.633 19.1703 92.9262 11.7018Z" fill="#263238"/>
<path d="M77.5285 58.9767L80.6359 55.8372L83.004 51.5512C82.2539 51.2833 81.461 51.0369 80.6145 50.8119L81.3324 40.6969L69.4922 33.7749C69.4922 33.7749 69.8672 46.633 66.9956 49.2153C66.3848 49.7618 66.4169 49.2153 65.5704 49.2153L66.9634 54.5729L71.3888 60.0804L77.5285 58.9767Z" fill="#FAB27B"/>
<path d="M66.342 48.958C66.342 48.958 69.6315 57.2087 74.7747 58.966C74.7747 58.966 72.1924 66.3917 68.3457 62.277C64.499 58.1624 64.0597 49.033 64.0597 49.033L66.342 48.958Z" fill="#003087"/>
<path opacity="0.7" d="M66.342 48.958C66.342 48.958 69.6315 57.2087 74.7747 58.966C74.7747 58.966 72.1924 66.3917 68.3457 62.277C64.499 58.1624 64.0597 49.033 64.0597 49.033L66.342 48.958Z" fill="white"/>
<path d="M73.6818 59.3947C73.6818 59.3947 79.4251 58.2267 81.7182 50.9833L84.2791 52.0548C84.2791 52.0548 83.2718 63.4235 79.2323 63.2307C78.0473 63.1508 76.9059 62.7522 75.9289 62.0769C74.9518 61.4017 74.1755 60.4749 73.6818 59.3947Z" fill="#003087"/>
<path opacity="0.7" d="M73.6818 59.3947C73.6818 59.3947 79.4251 58.2267 81.7182 50.9833L84.2791 52.0548C84.2791 52.0548 83.2718 63.4235 79.2323 63.2307C78.0473 63.1508 76.9059 62.7522 75.9289 62.0769C74.9518 61.4017 74.1755 60.4749 73.6818 59.3947Z" fill="white"/>
<path opacity="0.2" d="M69.4172 34.7497C69.4172 34.7497 69.6744 43.9756 80.8824 47.158L81.2467 41.8754L69.4601 34.7497H69.4172Z" fill="black"/>
<path d="M94.4371 24.4527C95.68 34.9427 92.8298 43.8898 84.1505 44.9292C75.4713 45.9685 68.6136 39.2288 67.3706 28.7387C66.1277 18.2487 68.8493 8.24078 77.5286 7.21213C86.2078 6.18348 93.1941 13.9733 94.4371 24.4527Z" fill="#FAB27B"/>
<path d="M69.5565 27.41C71.4413 24.4342 72.4752 20.999 72.546 17.4772C72.546 17.4772 75.9855 17.07 76.832 15.2163C76.832 15.2163 87.5471 19.7166 92.3046 16.0628C92.3046 16.0628 101.948 13.0411 95.0048 7.69431C95.0048 7.69431 96.3871 3.494 90.5795 1.501C84.7719 -0.492005 81.3752 1.11526 81.3752 1.11526C81.3752 1.11526 76.5106 -2.20642 71.0352 2.61536C71.0352 2.61536 61.3916 3.62258 62.9453 10.2874C62.9453 10.2874 57.5877 11.8625 59.7307 16.845C59.0011 17.8811 58.6583 19.1405 58.7621 20.4035C58.8659 21.6665 59.4097 22.8531 60.2986 23.7562C60.2986 23.7562 60.2986 31.9533 65.5919 32.2747C65.549 32.2747 70.3923 40.2789 69.5565 27.41Z" fill="#263238"/>
<path d="M70.8745 27.153C72.1067 29.0924 71.946 31.4389 70.5852 32.264C69.2243 33.089 67.0706 32.264 65.8384 30.346C64.6061 28.4281 64.7669 26.1137 66.1277 25.2351C67.4885 24.3565 69.6422 25.2136 70.8745 27.153Z" fill="#FAB27B"/>
<path d="M64.1989 4.96199C64.4883 4.72626 64.1989 4.23338 63.8989 4.46911C62.2702 5.79777 61.3916 7.63003 61.9702 9.29085C61.3896 8.9686 60.7343 8.80488 60.0704 8.81617C59.4064 8.82745 58.7571 9.01334 58.1878 9.35514C57.8877 9.55872 58.1877 10.0516 58.4985 9.84802C58.958 9.56573 59.483 9.40747 60.022 9.38869C60.561 9.36991 61.0957 9.49126 61.5737 9.74088C60.1808 9.86946 58.9057 11.2838 58.1985 12.6875C58.027 13.0197 58.5414 13.2982 58.7021 12.9661C59.5379 11.316 61.2308 9.48372 62.9238 10.7481C63.052 10.8777 63.188 10.9994 63.331 11.1124C63.3879 11.165 63.4632 11.1928 63.5406 11.1898C63.618 11.1868 63.691 11.1532 63.7435 11.0963C63.7961 11.0395 63.824 10.9641 63.8209 10.8867C63.8179 10.8094 63.7843 10.7364 63.7275 10.6838C63.593 10.5461 63.4499 10.4173 63.2989 10.298C61.6166 8.59436 62.3774 6.42994 64.1989 4.96199Z" fill="#263238"/>
<path d="M82.9719 27.4638C83.0791 28.1389 83.5398 28.6317 83.9791 28.5353C84.4184 28.4389 84.6863 27.8817 84.5792 27.2067C84.472 26.5317 84.0113 26.0281 83.5077 26.1352C83.0041 26.2424 82.8541 26.7888 82.9719 27.4638Z" fill="#263238"/>
<path d="M90.6545 27.5064C90.7617 28.1814 91.2118 28.6743 91.6618 28.5779C92.1119 28.4815 92.3691 27.9243 92.2619 27.2386C92.1548 26.5528 91.694 26.0707 91.2439 26.1671C90.7938 26.2635 90.5367 26.8207 90.6545 27.5064Z" fill="#263238"/>
<path d="M88.265 28.1711C89.4302 30.135 90.8497 31.9363 92.4867 33.5285C92.0719 33.9232 91.5764 34.2234 91.0344 34.4083C90.4925 34.5933 89.9168 34.6587 89.3472 34.5999L88.265 28.1711Z" fill="#ED893E"/>
<path d="M86.8828 37.8252C86.0901 37.8471 85.3013 37.7074 84.5644 37.4145C83.8276 37.1216 83.1581 36.6817 82.5967 36.1216C82.5655 36.0819 82.5485 36.0328 82.5485 35.9823C82.5485 35.9317 82.5655 35.8827 82.5967 35.843C82.6363 35.8069 82.6879 35.7868 82.7414 35.7868C82.7949 35.7868 82.8466 35.8069 82.8861 35.843C83.5068 36.4444 84.2584 36.8939 85.082 37.156C85.9056 37.4181 86.7787 37.4858 87.6328 37.3538C87.684 37.3368 87.7398 37.3408 87.788 37.3649C87.8362 37.389 87.8729 37.4313 87.89 37.4824C87.9 37.5076 87.9046 37.5347 87.9034 37.5618C87.9022 37.5889 87.8954 37.6154 87.8832 37.6397C87.8711 37.664 87.854 37.6854 87.833 37.7026C87.812 37.7198 87.7876 37.7324 87.7614 37.7395H87.6864C87.4222 37.7956 87.1529 37.8243 86.8828 37.8252Z" fill="#263238"/>
<path d="M81.4074 24.2812C81.3438 24.2621 81.2853 24.2291 81.236 24.1847C81.1762 24.1005 81.1518 23.9962 81.1678 23.8941C81.1838 23.7921 81.239 23.7003 81.3217 23.6384C81.84 23.264 82.4426 23.0232 83.0762 22.9372C83.7097 22.8513 84.3547 22.9228 84.9541 23.1455C85.0017 23.1653 85.0448 23.1945 85.081 23.2313C85.1171 23.2681 85.1455 23.3117 85.1645 23.3596C85.1835 23.4076 85.1926 23.4588 85.1915 23.5104C85.1903 23.562 85.1788 23.6127 85.1576 23.6598C85.1377 23.7087 85.1082 23.7532 85.0709 23.7905C85.0336 23.8279 84.9892 23.8574 84.9402 23.8774C84.8913 23.8974 84.8389 23.9074 84.7861 23.9068C84.7333 23.9062 84.6811 23.8951 84.6326 23.8741C84.1656 23.7052 83.6648 23.6511 83.1725 23.7163C82.6801 23.7816 82.2107 23.9643 81.8038 24.249C81.7474 24.291 81.6803 24.3163 81.6102 24.322C81.5401 24.3277 81.4698 24.3135 81.4074 24.2812Z" fill="#263238"/>
<path d="M93.2903 24.1098C93.35 24.0844 93.4045 24.048 93.451 24.0027C93.4776 23.9571 93.4948 23.9067 93.5017 23.8544C93.5085 23.802 93.5049 23.7489 93.4909 23.698C93.4769 23.6471 93.4529 23.5995 93.4203 23.558C93.3877 23.5165 93.3472 23.4819 93.301 23.4563C92.7485 23.1345 92.1253 22.9535 91.4863 22.9292C90.8473 22.9049 90.2121 23.0381 89.6368 23.317C89.5901 23.3406 89.5487 23.3735 89.5151 23.4136C89.4815 23.4537 89.4564 23.5003 89.4414 23.5504C89.4264 23.6005 89.4217 23.6531 89.4276 23.7051C89.4336 23.7571 89.4501 23.8073 89.476 23.8527C89.5279 23.9428 89.6123 24.0097 89.7119 24.0396C89.8115 24.0695 89.9188 24.0601 90.0117 24.0134C90.4604 23.8007 90.9537 23.6993 91.4499 23.718C91.946 23.7366 92.4303 23.8747 92.8617 24.1205C92.9275 24.1576 93.002 24.1762 93.0775 24.1743C93.153 24.1724 93.2265 24.1502 93.2903 24.1098Z" fill="#263238"/>
<path d="M51.2122 52.7515C51.2122 52.7515 20.7706 50.0405 1.29052 59.9199C1.29052 59.9199 -1.849 66.1668 1.66556 71.1922C5.18011 76.2176 17.0525 96.3619 17.0525 96.3619L18.6919 106.006C18.6919 106.006 17.9311 111.749 20.8349 113.656C23.7387 115.563 30.9714 111.985 31.3893 108.877C31.8072 105.77 25.1852 93.0081 25.1852 93.0081C25.1852 93.0081 18.1454 72.4458 15.413 67.6455C15.413 67.6455 42.2651 70.3457 51.6837 67.4633C51.7051 67.4633 56.9448 62.5236 51.2122 52.7515Z" fill="#FAB27B"/>
<path d="M51.5552 51.5834C51.5552 51.5834 42.5545 50.6298 36.554 51.5084C36.554 51.5084 35.4825 50.2762 32.9109 52.1942C34.2386 57.6927 34.1649 63.4364 32.6966 68.8991C33.9285 69.4612 35.3236 69.5527 36.6183 69.1562C36.6183 69.1562 47.6549 72.3708 52.8517 68.8455C56.4091 66.4346 60.3416 60.3484 51.5552 51.5834Z" fill="#FFD100"/>
</svg>
