<svg width="29" height="26" viewBox="0 0 29 26" fill="none" xmlns="http://www.w3.org/2000/svg">
<g filter="url(#filter0_d_0_1700)">
<path d="M13.0579 18.9039L20.6708 11.2911C22.5414 9.42051 22.8173 6.34317 21.0471 4.37736C20.6037 3.88354 20.0644 3.48523 19.462 3.20674C18.8595 2.92826 18.2067 2.77543 17.5432 2.75759C16.8798 2.73975 16.2197 2.85727 15.6032 3.10298C14.9867 3.34868 14.4267 3.71743 13.9574 4.18671L12.5265 5.61758L11.2911 4.38217C9.42052 2.51161 6.34317 2.23564 4.37736 4.00582C3.88354 4.44922 3.48523 4.98858 3.20674 5.59101C2.92826 6.19343 2.77543 6.84628 2.75759 7.50971C2.73975 8.17315 2.85727 8.83327 3.10298 9.44979C3.34868 10.0663 3.71743 10.6263 4.18671 11.0956L11.995 18.9039C12.136 19.0449 12.3271 19.1241 12.5265 19.1241C12.7258 19.1241 12.917 19.0449 13.0579 18.9039Z" fill="#FFD100"/>
<path d="M13.0579 18.9039L20.6708 11.2911C22.5414 9.42051 22.8173 6.34317 21.0471 4.37736C20.6037 3.88354 20.0644 3.48523 19.462 3.20674C18.8595 2.92826 18.2067 2.77543 17.5432 2.75759C16.8798 2.73975 16.2197 2.85727 15.6032 3.10298C14.9867 3.34868 14.4267 3.71743 13.9574 4.18671L12.5265 5.61758L11.2911 4.38217C9.42052 2.51161 6.34317 2.23564 4.37736 4.00582C3.88354 4.44922 3.48523 4.98858 3.20674 5.59101C2.92826 6.19343 2.77543 6.84628 2.75759 7.50971C2.73975 8.17315 2.85727 8.83327 3.10298 9.44979C3.34868 10.0663 3.71743 10.6263 4.18671 11.0956L11.995 18.9039C12.136 19.0449 12.3271 19.1241 12.5265 19.1241C12.7258 19.1241 12.917 19.0449 13.0579 18.9039Z" stroke="#FFD100" stroke-width="1.5" stroke-linecap="round" stroke-linejoin="round"/>
</g>
<defs>
<filter id="filter0_d_0_1700" x="0" y="0" width="29" height="25.8887" filterUnits="userSpaceOnUse" color-interpolation-filters="sRGB">
<feFlood flood-opacity="0" result="BackgroundImageFix"/>
<feColorMatrix in="SourceAlpha" type="matrix" values="0 0 0 0 0 0 0 0 0 0 0 0 0 0 0 0 0 0 127 0" result="hardAlpha"/>
<feOffset dx="2" dy="2"/>
<feGaussianBlur stdDeviation="2"/>
<feComposite in2="hardAlpha" operator="out"/>
<feColorMatrix type="matrix" values="0 0 0 0 1 0 0 0 0 0.819608 0 0 0 0 0 0 0 0 0.32 0"/>
<feBlend mode="normal" in2="BackgroundImageFix" result="effect1_dropShadow_0_1700"/>
<feBlend mode="normal" in="SourceGraphic" in2="effect1_dropShadow_0_1700" result="shape"/>
</filter>
</defs>
</svg>
