<svg width="375" height="148" viewBox="0 0 375 148" fill="none" xmlns="http://www.w3.org/2000/svg">
<g clip-path="url(#clip0_20_854)">
<path d="M175.641 -658.859H176.913C128.122 -640.444 84.7263 -610.092 50.6925 -570.579C16.6587 -531.065 -6.92763 -483.651 -17.9091 -432.67C-28.8905 -381.69 -26.9166 -328.769 -12.1689 -278.748C2.57875 -228.727 29.6301 -183.201 66.5121 -146.332C103.394 -109.463 148.93 -82.4274 198.956 -67.6973C248.982 -52.9672 301.904 -51.0125 352.88 -62.0118C403.857 -73.0112 451.263 -96.6135 490.764 -130.661C530.266 -164.709 560.602 -208.115 579 -256.912V-255.5C579 -175.69 555.331 -97.6713 510.988 -31.313C466.645 35.0452 403.618 86.7628 329.88 117.299C256.142 147.834 175.004 155.817 96.7291 140.236C18.4539 124.656 -53.4428 86.212 -109.868 29.7674C-166.293 -26.6772 -204.711 -98.5874 -220.264 -176.868C-235.817 -255.149 -227.806 -336.283 -197.245 -410.011C-166.683 -483.738 -114.944 -546.746 -48.57 -591.067C17.8038 -635.387 95.8304 -659.028 175.641 -659V-658.859Z" fill="#FFD100"/>
<path d="M241.636 -645.864H242.864C195.766 -628.088 153.876 -598.789 121.023 -560.647C88.1699 -522.504 65.4019 -476.735 54.8015 -427.523C44.2011 -378.311 46.1065 -327.227 60.3425 -278.942C74.5785 -230.656 100.691 -186.71 136.294 -151.12C171.896 -115.53 215.852 -89.4323 264.142 -75.2133C312.433 -60.9943 363.518 -59.1075 412.726 -69.7252C461.934 -80.3429 507.695 -103.126 545.826 -135.993C583.957 -168.859 613.241 -210.759 631 -257.863V-256.5C631 -179.459 608.153 -104.147 565.348 -40.0915C522.543 23.9644 461.703 73.8876 390.524 103.364C319.344 132.84 241.022 140.546 165.462 125.506C89.9028 110.466 20.5007 73.3558 -33.9664 18.8696C-88.4336 -35.6165 -125.519 -105.032 -140.532 -180.596C-155.546 -256.161 -147.813 -334.48 -118.312 -405.65C-88.8105 -476.819 -38.8665 -537.641 25.2044 -580.424C89.2753 -623.206 164.595 -646.027 241.636 -646V-645.864Z" fill="#2858AF"/>
<path d="M190.637 -657.863H191.867C144.649 -640.042 102.651 -610.668 69.7135 -572.427C36.7762 -534.187 13.9498 -488.3 3.3222 -438.962C-7.30542 -389.624 -5.39513 -338.409 8.87741 -289.999C23.1499 -241.59 49.3297 -197.53 85.0235 -161.849C120.717 -126.168 164.786 -100.003 213.2 -85.7479C261.615 -71.4924 312.831 -69.6007 362.166 -80.2457C411.5 -90.8906 457.378 -113.733 495.607 -146.683C533.836 -179.634 563.195 -221.642 581 -268.867V-267.5C581 -190.261 558.094 -114.756 515.179 -50.5359C472.265 13.6844 411.269 63.7358 339.906 93.2878C268.544 122.84 190.02 130.565 114.267 115.487C38.5136 100.408 -31.0667 63.2027 -85.6737 8.57666C-140.281 -46.0494 -177.461 -115.643 -192.513 -191.401C-207.565 -267.16 -199.813 -345.681 -170.236 -417.033C-140.659 -488.385 -90.5863 -549.363 -26.3509 -592.255C37.8845 -635.147 113.397 -658.027 190.637 -658V-657.863Z" fill="#003087"/>
</g>
<defs>
<clipPath id="clip0_20_854">
<rect width="375" height="148" fill="white"/>
</clipPath>
</defs>
</svg>
